<svg width="24" height="24" viewBox="0 0 24 24" fill="none" xmlns="http://www.w3.org/2000/svg">
<path d="M20 19.5C20 19.4034 19.9674 19.1708 19.5508 18.7861C19.1201 18.3887 18.4272 17.9777 17.5078 17.6094C15.6659 16.8715 13.4187 16.5 12 16.5C10.5813 16.5 8.33407 16.8715 6.49219 17.6094C5.57284 17.9777 4.87987 18.3887 4.44922 18.7861C4.03255 19.1708 4 19.4034 4 19.5V20H20V19.5ZM15 7C15 5.34207 13.6579 4 12 4C10.3421 4 9 5.34207 9 7C9 8.65793 10.3421 10 12 10V12C9.2375 12 7 9.7625 7 7C7 4.2375 9.2375 2 12 2C14.7625 2 17 4.2375 17 7C17 9.7625 14.7625 12 12 12V10C13.6579 10 15 8.65793 15 7ZM22 20.75C22 21.4375 21.4375 22 20.75 22H3.25C2.5625 22 2 21.4375 2 20.75V19.5C2 16.175 8.6625 14.5 12 14.5C15.3375 14.5 22 16.175 22 19.5V20.75Z" fill="#FFFBF3"/>
</svg>
