<svg width="24" height="24" viewBox="0 0 24 24" fill="none" xmlns="http://www.w3.org/2000/svg">
<path d="M21.9959 9.44072C21.9669 9.28554 21.7434 8.98345 21.5427 8.98345H16.9265V2.46576C16.9265 2.3561 16.8603 2.24644 16.7341 2.15126C16.6162 2.06229 16.4258 1.97538 16.2644 2.00642L2.48624 2.03746L2.43244 2.04573C2.20897 2.12022 2.12208 2.31885 2.05794 2.46369L2.03311 2.52163L2 20.676L2.00414 20.736C2.01449 20.9491 2.03312 21.2719 2.37452 21.3878L2.40142 21.396L21.4124 21.4374C21.4331 21.4374 21.4517 21.4374 21.4682 21.4374C21.7662 21.4374 21.8427 21.2967 21.9193 21.0836L21.9358 21.0381L22 9.45107V9.43452L21.9959 9.44072ZM16.2169 10.1504H20.833L20.7709 20.2725H3.22906V3.23754H15.7596V9.69315C15.7596 9.85041 16.0575 10.1484 16.2148 10.1484L16.2169 10.1504Z" fill="#FFFBF3"/>
<path d="M16.7052 15.2238C12.0208 16.5749 8.12256 11.7001 10.022 7.27219C10.262 6.71353 11.3711 5.5031 10.0799 5.68312C8.06256 5.96451 6.11553 8.15984 5.56101 10.0427C3.93883 15.561 9.29575 20.2765 14.6134 18.2716C15.6872 17.866 17.6922 16.3845 17.9922 15.2445C18.2177 14.3816 17.0715 15.1182 16.7032 15.2258L16.7052 15.2238Z" fill="#FFFBF3"/>
</svg>
