<svg width="24" height="24" viewBox="0 0 24 24" fill="none" xmlns="http://www.w3.org/2000/svg">
<g clip-path="url(#clip0_418_4364)">
<path d="M18.25 22H5.75C4.75544 22 3.80161 21.6049 3.09835 20.9016C2.39509 20.1984 2 19.2446 2 18.25L2 5.75C2 4.75544 2.39509 3.80161 3.09835 3.09835C3.80161 2.39509 4.75544 2 5.75 2L18.25 2C19.2446 2 20.1984 2.39509 20.9016 3.09835C21.6049 3.80161 22 4.75544 22 5.75V18.25C22 19.2446 21.6049 20.1984 20.9016 20.9016C20.1984 21.6049 19.2446 22 18.25 22ZM19.5 5.75C19.5 5.41848 19.3683 5.10054 19.1339 4.86612C18.8995 4.6317 18.5815 4.5 18.25 4.5H5.75C5.41848 4.5 5.10054 4.6317 4.86612 4.86612C4.6317 5.10054 4.5 5.41848 4.5 5.75V18.25C4.5 18.9412 5.05875 19.5 5.75 19.5H18.25C18.9412 19.5 19.5 18.9412 19.5 18.25V5.75ZM7 14.5H17V17H7V14.5ZM7 10.75H17V13.25H7V10.75ZM7 7H17V9.5H7V7Z" fill="#FFFBF3"/>
<rect x="4" y="3" width="16" height="18" fill="#FFFBF3"/>
<path d="M17 14.5H7V17H17V14.5Z" fill="#3E5E4E"/>
<path d="M17 10.75H7V13.25H17V10.75Z" fill="#3E5E4E"/>
<path d="M17 7H7V9.5H17V7Z" fill="#3E5E4E"/>
</g>
<defs>
<clipPath id="clip0_418_4364">
<rect width="20" height="20" fill="white" transform="translate(2 2)"/>
</clipPath>
</defs>
</svg>
