<svg width="24" height="24" viewBox="0 0 24 24" fill="none" xmlns="http://www.w3.org/2000/svg">
<path d="M8.70007 11.2999H15.2999V4.70007H8.70007V11.2999ZM18 14H6V4.40035C6 3.16267 6.94947 2.13559 8.15601 2.0123L8.40035 2H15.6005L15.8449 2.0123C17.0511 2.13585 18 3.16287 18 4.40035V14Z" fill="#FFFBF3"/>
<path d="M20.125 22C19.0876 21.9999 18.2499 21.3299 18.2499 20.5V19H5.75006V20.5C5.75006 21.33 4.91254 22 3.87503 22C2.83751 22 2 21.33 2 20.5V18.0002C2 16.9689 2.98902 16.113 4.24582 16.0103L4.50034 16H19.5006L19.7551 16.0103C21.0116 16.1132 22 16.969 22 18.0002V20.5C22 21.33 21.1625 22 20.125 22Z" fill="#FFFBF3"/>
<path d="M20.0313 12.5H20.8188V11.5H20.0313V12.5ZM3.18124 12.5H3.96873V11.5H3.18124V12.5ZM5.14996 12.667L5.14458 12.8027C5.09408 13.428 4.69955 13.929 4.20713 13.9932L4.10023 14H3.04973C2.50851 13.9998 2.05948 13.4727 2.00538 12.8027L2 12.667V11.333C2.00014 10.5999 2.47244 10.0002 3.04973 10H4.10023L4.20713 10.0068C4.73471 10.0755 5.14983 10.6457 5.14996 11.333V12.667ZM22 12.667L21.9946 12.8027C21.9405 13.4728 21.4908 14 20.9495 14H19.8998C19.3584 14 18.9095 13.4728 18.8554 12.8027L18.85 12.667V11.333C18.8502 10.5998 19.3224 10 19.8998 10H20.9495C21.5269 10 21.9999 10.5998 22 11.333V12.667Z" fill="#FFFBF3"/>
</svg>
