<svg width="24" height="24" viewBox="0 0 24 24" fill="none" xmlns="http://www.w3.org/2000/svg">
<path d="M19.7549 16.0107C21.0113 16.1137 21.9998 16.9689 22 18V20.5C22 21.33 21.1625 22 20.125 22C19.0876 21.9999 18.25 21.3299 18.25 20.5V19H5.75V20.5C5.75 21.33 4.91252 22 3.875 22C2.8375 22 2 21.33 2 20.5V18C2.00016 16.9687 2.98939 16.1135 4.24609 16.0107L4.5 16H19.501L19.7549 16.0107ZM4.20703 10.0068C4.73461 10.0755 5.15026 10.6457 5.15039 11.333V12.667L5.14453 12.8027C5.09403 13.428 4.69945 13.929 4.20703 13.9932L4.10059 14H3.0498C2.50859 13.9998 2.05998 13.4727 2.00586 12.8027L2 12.667V11.333C2.00014 10.5999 2.47251 10.0002 3.0498 10H4.10059L4.20703 10.0068ZM15.8447 2.0127C17.051 2.13625 18 3.1629 18 4.40039V14H6V4.40039C6 3.16271 6.94971 2.13598 8.15625 2.0127L8.40039 2H15.6006L15.8447 2.0127ZM20.9492 10C21.5266 10 21.9999 10.5998 22 11.333V12.667L21.9941 12.8027C21.94 13.4728 21.4906 14 20.9492 14H19.8994C19.3582 13.9998 18.9096 13.4726 18.8555 12.8027L18.8496 12.667V11.333C18.8497 10.6 19.3222 10.0002 19.8994 10H20.9492Z" fill="#FFFBF3"/>
</svg>
