<svg width="24" height="24" viewBox="0 0 24 24" fill="none" xmlns="http://www.w3.org/2000/svg">
<path d="M21.9959 9.44072C21.9669 9.28554 21.7434 8.98345 21.5427 8.98345H16.9265V2.46576C16.9265 2.3561 16.8603 2.24644 16.7341 2.15126C16.6162 2.06229 16.4258 1.97538 16.2644 2.00642L2.48624 2.03746L2.43244 2.04573C2.20897 2.12022 2.12208 2.31885 2.05794 2.46369L2.03311 2.52163L2 20.676L2.00414 20.736C2.01449 20.9491 2.03312 21.2719 2.37452 21.3878L2.40142 21.396L21.4124 21.4374C21.4331 21.4374 21.4517 21.4374 21.4682 21.4374C21.7662 21.4374 21.8427 21.2967 21.9193 21.0836L21.9358 21.0381L22 9.45107V9.43452L21.9959 9.44072ZM16.2169 10.1504H20.833L20.7709 20.2725H3.22906V3.23754H15.7596V9.69315C15.7596 9.85041 16.0575 10.1484 16.2148 10.1484L16.2169 10.1504Z" fill="#FFFBF3"/>
<path d="M9.53369 6.60059C9.4915 6.67085 9.44818 6.74434 9.40967 6.81738L9.33252 6.97656C7.25912 11.8102 11.3672 17.2575 16.5767 16.0312C16.4349 16.1738 16.279 16.318 16.1118 16.458C15.4809 16.9863 14.7835 17.4051 14.3491 17.5693C9.57686 19.3687 4.84387 15.1444 6.28076 10.2549C6.51783 9.44993 7.07066 8.53468 7.80615 7.78906C8.34587 7.24195 8.94381 6.82813 9.53369 6.60059Z" stroke="#FFFBF3" stroke-width="1.5"/>
</svg>
