<svg width="24" height="24" viewBox="0 0 24 24" fill="none" xmlns="http://www.w3.org/2000/svg">
<g clip-path="url(#clip0_596_6979)">
<path d="M12 24C18.6274 24 24 18.6274 24 12C24 5.37258 18.6274 0 12 0C5.37258 0 0 5.37258 0 12C0 18.6274 5.37258 24 12 24Z" fill="#849266"/>
<path d="M7.97706 18V16.64C11.1931 13.76 13.0971 11.536 13.0971 9.712C13.0971 8.512 12.4571 7.792 11.3211 7.792C10.4571 7.792 9.75306 8.352 9.14506 9.008L7.86506 7.728C8.95306 6.56 10.0091 5.936 11.6251 5.936C13.8651 5.936 15.3531 7.376 15.3531 9.584C15.3531 11.728 13.5771 14.032 11.4171 16.144C12.0091 16.08 12.7931 16.016 13.3531 16.016H15.9131V18H7.97706Z" fill="white"/>
</g>
<defs>
<clipPath id="clip0_596_6979">
<rect width="24" height="24" fill="white"/>
</clipPath>
</defs>
</svg>
