<svg width="24" height="24" viewBox="0 0 24 24" fill="none" xmlns="http://www.w3.org/2000/svg">
<g clip-path="url(#clip0_596_6999)">
<path d="M12 24C18.6274 24 24 18.6274 24 12C24 5.37258 18.6274 0 12 0C5.37258 0 0 5.37258 0 12C0 18.6274 5.37258 24 12 24Z" fill="#849266"/>
<path d="M11.6731 18.224C9.80106 18.224 8.53706 17.52 7.70506 16.576L8.80906 15.088C9.51306 15.776 10.3771 16.304 11.4491 16.304C12.6491 16.304 13.4651 15.712 13.4651 14.64C13.4651 13.488 12.7771 12.752 10.2011 12.752V11.072C12.3771 11.072 13.0811 10.32 13.0811 9.264C13.0811 8.336 12.5051 7.792 11.4971 7.792C10.6491 7.792 9.96106 8.176 9.25706 8.832L8.05706 7.392C9.08106 6.496 10.2171 5.936 11.6091 5.936C13.8971 5.936 15.4491 7.072 15.4491 9.088C15.4491 10.368 14.7291 11.296 13.4811 11.792V11.872C14.8091 12.24 15.8331 13.232 15.8331 14.784C15.8331 16.96 13.9291 18.224 11.6731 18.224Z" fill="#E6E9DE"/>
</g>
<defs>
<clipPath id="clip0_596_6999">
<rect width="24" height="24" fill="white"/>
</clipPath>
</defs>
</svg>
