<svg width="32" height="32" viewBox="0 0 32 32" fill="none" xmlns="http://www.w3.org/2000/svg">
<g clip-path="url(#clip0_3046_1787)">
<mask id="mask0_3046_1787" style="mask-type:luminance" maskUnits="userSpaceOnUse" x="0" y="0" width="32" height="32">
<path d="M0 0H32V32H0V0Z" fill="white"/>
</mask>
<g mask="url(#mask0_3046_1787)">
<path d="M18.8248 21.3103C19.0325 21.3098 19.2317 21.2279 19.3796 21.0822L22.7704 17.6862C22.8431 17.6144 22.9009 17.5288 22.9403 17.4345C22.9797 17.3401 23 17.2389 23 17.1367C23 17.0344 22.9797 16.9332 22.9403 16.8389C22.9009 16.7445 22.8431 16.6589 22.7704 16.5871L19.3796 13.1911C19.23 13.0615 19.0368 12.9934 18.839 13.0005C18.6412 13.0076 18.4534 13.0893 18.3134 13.2293C18.1734 13.3693 18.0917 13.5571 18.0846 13.7549C18.0775 13.9527 18.1456 14.1459 18.2752 14.2955L21.1217 17.1367L18.2752 19.9778C18.1673 20.0873 18.0941 20.2261 18.0645 20.3769C18.0349 20.5277 18.0504 20.6839 18.109 20.826C18.1676 20.968 18.2667 21.0897 18.394 21.1758C18.5213 21.262 18.6711 21.3087 18.8248 21.3103Z" fill="#849266"/>
<path d="M9.77769 17.9143H21.0907C21.297 17.9143 21.4948 17.8323 21.6407 17.6865C21.7865 17.5406 21.8684 17.3428 21.8684 17.1366C21.8684 16.9303 21.7865 16.7325 21.6407 16.5867C21.4948 16.4408 21.297 16.3589 21.0907 16.3589H9.77769C9.57143 16.3589 9.37362 16.4408 9.22777 16.5867C9.08192 16.7325 8.99999 16.9303 8.99999 17.1366C8.99999 17.3428 9.08192 17.5406 9.22777 17.6865C9.37362 17.8323 9.57143 17.9143 9.77769 17.9143Z" fill="#849266"/>
</g>
</g>
<defs>
<clipPath id="clip0_3046_1787">
<rect width="32" height="32" fill="white"/>
</clipPath>
</defs>
</svg>
