<svg width="343" height="36" viewBox="0 0 343 36" fill="none" xmlns="http://www.w3.org/2000/svg">
<g clip-path="url(#clip0_48_1858)">
<path d="M136.735 5.39938C136.6 4.26115 136.864 2.78481 136.323 1.6724C135.527 0.0437747 132.623 0.348335 131.759 1.82984L120.09 29.7874C116.699 20.5809 112.799 11.4983 109.213 2.3383C106.829 -0.12141 102.963 -0.503401 102.385 3.59267C101.037 13.114 101.88 23.691 100.522 33.2847C100.062 35.1998 103.188 35.8631 103.994 34.8462C104.671 33.9945 104.406 29.87 104.486 28.6156C104.808 23.5439 105.228 18.4387 105.55 13.3954C105.603 12.5875 105.77 4.75671 106.214 4.74897L117.923 33.3208C118.541 35.3314 120.782 36.1677 121.987 34.0977L133.294 6.30274L135.995 34.2526C136.294 35.4011 138.815 35.574 139.401 34.8488C139.8 34.3532 139.668 32.9337 139.636 32.2445C139.248 23.7349 137.747 13.9658 136.735 5.39938Z" fill="#849266"/>
<path d="M308.578 32.4201C307.894 32.1311 306.549 31.1477 305.875 30.6728C302.162 28.0453 298.896 24.6822 295.286 21.9154C295.154 21.5824 296.224 21.0172 296.523 20.8056C300.183 18.1678 304.028 15.7597 307.717 13.1554C309.429 10.7241 306.29 10.2957 304.355 11.1629C301.758 12.3295 297.638 16.09 295.109 17.8761C294.737 18.1394 292.599 19.7035 292.38 19.4686V1.52795C292.38 0.815592 289.079 -0.314893 288.696 2.05964L288.664 33.548C288.226 35.68 292.38 35.6464 292.38 34.3069V24.1118C292.842 23.9983 292.908 24.2977 293.175 24.4964C296.729 27.1523 303.201 34.232 307.12 35.396C308.528 35.8142 311.926 35.7316 311.681 33.7932C311.554 32.7944 309.445 32.7866 308.581 32.4201H308.578Z" fill="#849266"/>
<path d="M154.908 11.2789C139.922 12.9618 141.079 36.0928 156.919 35.9586C174.629 35.8115 173.625 9.178 154.908 11.2789ZM159.207 32.513C146.531 35.6928 144.026 16.1751 154.902 14.6291C167.906 12.7811 169.663 29.8881 159.207 32.513Z" fill="#849266"/>
<path d="M240.79 11.2789C224.898 13.1502 227.582 38.9165 245.406 35.6618C260.704 32.8666 258.355 9.21155 240.79 11.2789ZM243.588 32.8666C232.001 33.7441 230.51 16.028 241.049 14.6291C255.009 12.7734 255.054 31.9968 243.588 32.8666Z" fill="#849266"/>
<path d="M183.447 11.2816C168.548 13.1554 169.576 36.7743 186.274 35.982C203.023 35.187 202.106 8.93548 183.447 11.2816ZM186.005 32.8925C174.528 33.37 173.233 15.9765 183.978 14.6369C197.997 12.8896 197.64 32.4098 186.005 32.8925Z" fill="#849266"/>
<path d="M269.588 11.2737C253.733 13.2327 256.42 38.8673 274.21 35.6617C289.639 32.8794 287.198 9.10048 269.588 11.2737ZM272.154 32.8871C260.815 33.5195 259.253 16.046 269.852 14.629C284.016 12.7371 284.021 32.2238 272.154 32.8871Z" fill="#849266"/>
<path d="M221.142 33.9376C221.581 35.7623 224.527 35.9533 224.741 33.8059C225.085 30.3732 225.104 22.2378 224.697 18.8489C223.64 10.0038 212.713 8.95332 207.282 15.4626C206.939 15.873 206.928 16.5209 206.492 16.6267V12.368C206.492 11.8725 203.387 10.9691 203.065 12.6339L203.041 33.8059C202.957 35.7985 206.172 35.8656 206.64 33.9376C207.885 28.8117 204.711 21.288 209.309 16.9287C212.414 13.9837 219.028 13.5785 220.622 18.183C222.083 22.4056 220.101 29.6144 221.14 33.9376H221.142Z" fill="#849266"/>
<path d="M1.33705 26.1354C3.39029 25.2759 17.9533 24.8732 18.3998 24.1557C18.6007 23.8331 18.4738 23.0717 18.4421 22.4548C18.4236 22.1064 18.1145 21.8405 17.7551 21.8586C15.9397 21.9541 11.2571 22.7026 10.9691 22.5039C10.4802 22.1658 10.5436 21.2934 10.578 20.5862C10.5965 20.2481 10.8819 19.9822 11.228 19.9822H17.4697C18.0563 19.9822 17.8132 17.2928 17.6652 17.2928H11.236C10.8766 17.2928 10.5832 17.0063 10.5832 16.6553V15.2383C10.5832 14.8873 10.8766 14.6008 11.236 14.6008H16.6188C16.9782 14.6008 17.2715 14.3143 17.2715 13.9633V1.78863C17.2715 1.43762 16.9782 1.15112 16.6188 1.15112H2.18794C1.82856 1.15112 1.53524 1.43762 1.53524 1.78863V13.9633C1.53524 14.3143 1.82856 14.6008 2.18794 14.6008H7.57077C7.93015 14.6008 8.22347 14.8873 8.22347 15.2383V16.6553C8.22347 17.0063 7.93015 17.2928 7.57077 17.2928H1.73343C0.930099 17.2928 0.930099 19.9822 1.73343 19.9822H7.55227C7.90637 19.9822 8.19705 20.2584 8.20497 20.6042C8.22347 21.4044 8.32389 22.5813 8.22611 22.6742C7.99621 22.8962 3.30837 22.9659 1.41632 23.0252C1.0728 23.0356 0.8059 23.304 0.790045 23.6369C0.739837 24.6384 0.359313 26.2025 1.33705 26.1354ZM14.5312 12.5179C14.4123 12.6005 12.33 12.5721 11.3099 12.4482C10.9955 12.4095 10.755 12.1566 10.7392 11.8494L10.6176 9.50587C10.5991 9.14195 10.8951 8.83739 11.2677 8.83739H14.2431C14.5946 8.83739 14.8853 9.1084 14.8959 9.45425C14.9249 10.5176 15.1337 12.0998 14.5312 12.5205V12.5179ZM11.236 3.45597H14.2643C14.6237 3.45597 14.917 3.74246 14.917 4.09348V6.28218C14.917 6.6332 14.6237 6.91969 14.2643 6.91969H11.236C10.8766 6.91969 10.5832 6.6332 10.5832 6.28218V4.09348C10.5832 3.74246 10.8766 3.45597 11.236 3.45597ZM7.57341 12.2985H4.93881C4.57943 12.2985 4.28611 12.012 4.28611 11.661V9.47232C4.28611 9.1213 4.57943 8.83481 4.93881 8.83481H7.57341C7.93279 8.83481 8.22611 9.1213 8.22611 9.47232V11.661C8.22611 12.012 7.93279 12.2985 7.57341 12.2985ZM7.57341 6.91969H4.93881C4.57943 6.91969 4.28611 6.6332 4.28611 6.28218V4.09348C4.28611 3.74246 4.57943 3.45597 4.93881 3.45597H7.57341C7.93279 3.45597 8.22611 3.74246 8.22611 4.09348V6.28218C8.22611 6.6332 7.93279 6.91969 7.57341 6.91969Z" fill="#849266"/>
<path d="M70.8119 14.9879H78.1634C78.5228 14.9879 78.8161 14.7014 78.8161 14.3504V2.17316C78.8161 1.82214 78.5228 1.53564 78.1634 1.53564H60.189C59.8296 1.53564 59.5363 1.82214 59.5363 2.17316V14.3478C59.5363 14.6988 59.8296 14.9853 60.189 14.9853H67.1467C67.5061 14.9853 67.7994 15.2718 67.7994 15.6228V17.4218C67.7994 17.7728 67.5061 18.0593 67.1467 18.0593H59.0077C58.6484 18.0593 58.355 18.3458 58.355 18.6968V35.0992C58.355 35.4502 58.6484 35.7367 59.0077 35.7367H60.4585C60.8179 35.7367 61.1112 35.4502 61.1112 35.0992V21.3862C61.1112 21.0352 61.4045 20.7487 61.7639 20.7487H66.7556C67.115 20.7487 67.4083 21.0326 67.4083 21.3862V24.7416C67.4083 25.0952 67.115 25.3816 66.7556 25.3816C64.0206 25.3816 61.5366 24.517 62.5487 27.9885C62.6359 28.2853 62.9266 28.484 63.2411 28.4531C65.0803 28.2698 70.878 26.9354 72.2627 27.271C72.9629 27.4413 73.0396 31.1554 75.2804 29.3977C76.097 28.7576 73.9592 22.9245 73.6817 22.6948C73.4703 22.5193 72.4741 22.6845 72.1279 22.86C71.0286 23.4227 71.7183 24.8112 70.9599 25.0358C70.5609 25.1545 70.1645 24.8216 70.1645 24.4138V21.3862C70.1645 21.0352 70.4552 20.7487 70.8146 20.7487H76.1974C76.5568 20.7487 76.8501 21.0352 76.8501 21.3862V32.0845C76.8501 33.4576 74.012 32.8227 72.5533 32.6446C72.1068 32.5904 71.7394 32.9776 71.8319 33.406C72.0222 34.2991 72.4397 35.5947 72.5798 35.6799C73.5892 36.3148 79.6062 35.8012 79.6062 33.6203V18.6942C79.6062 18.3432 79.3129 18.0567 78.9535 18.0567H70.8146C70.4552 18.0567 70.1619 17.7702 70.1619 17.4192V15.6202C70.1619 15.2692 70.4552 14.9827 70.8146 14.9827L70.8119 14.9879ZM76.2819 12.3062C75.8486 12.9257 72.4978 12.7605 71.0048 12.5721C70.693 12.5334 70.4525 12.2856 70.4367 11.981C70.3838 11.0777 70.4631 9.30966 70.5529 9.21933C70.7432 9.02317 75.6847 9.17287 76.0838 9.40258C76.2132 9.47743 76.3691 12.1875 76.2846 12.3062H76.2819ZM70.7485 3.84307H75.801C76.1604 3.84307 76.4537 4.12957 76.4537 4.48058V6.27955C76.4537 6.63057 76.1604 6.91706 75.801 6.91706H70.5503C70.3812 6.91706 70.0773 3.84307 70.7459 3.84307H70.7485ZM67.1467 12.6805H62.9425C62.5831 12.6805 62.2898 12.394 62.2898 12.043V9.85942C62.2898 9.5084 62.5831 9.22191 62.9425 9.22191H67.1467C67.5061 9.22191 67.7994 9.5084 67.7994 9.85942V12.043C67.7994 12.394 67.5061 12.6805 67.1467 12.6805ZM67.1467 6.91706H62.9425C62.5831 6.91706 62.2898 6.63057 62.2898 6.27955V4.48058C62.2898 4.12957 62.5831 3.84307 62.9425 3.84307H67.1467C67.5061 3.84307 67.7994 4.12957 67.7994 4.48058V6.27955C67.7994 6.63057 67.5061 6.91706 67.1467 6.91706Z" fill="#849266"/>
<path d="M53.1545 12.5846C55.2975 9.53641 57.2319 5.94364 57.2002 2.17793C57.1975 1.82433 56.9068 1.53784 56.5448 1.53784H46.416C46.0566 1.53784 45.7633 1.82433 45.7633 2.17535V35.1633C45.7633 35.6769 47.0185 35.7802 47.872 35.7724C48.2314 35.7699 48.5168 35.4859 48.5168 35.1349V4.86477C48.5168 4.51375 48.8101 4.22726 49.1695 4.22726H53.2417C53.6592 4.22726 53.971 4.60667 53.8811 5.00415C53.1994 8.00329 51.1673 10.5172 49.6055 13.1292C49.4443 13.3976 49.5131 13.7383 49.7562 13.937C52.5995 16.2522 55.0756 18.761 54.3225 22.7744C53.6777 26.2175 50.5489 25.1645 50.1155 25.7762C49.9464 26.0162 50.4194 28.3056 50.5251 28.3933C50.6995 28.5378 52.9378 28.4966 53.4108 28.414C56.8276 27.8152 57.5305 22.2015 57.1341 19.4398C56.7404 16.6858 54.6343 15.336 53.1465 13.3073C52.988 13.0931 52.9959 12.804 53.1465 12.5846H53.1545Z" fill="#849266"/>
<path d="M35.1244 9.99111H28.156C27.7966 9.99111 27.5033 9.70462 27.5033 9.3536V0.637511C27.5033 0.286493 27.2126 0 26.8506 0H25.3999C25.0405 0 24.7498 0.286493 24.7498 0.637511V9.3536C24.7498 9.70462 24.4565 9.99111 24.0971 9.99111H19.4991C19.1397 9.99111 18.8464 10.2776 18.8464 10.6286V12.0456C18.8464 12.3966 19.1397 12.6831 19.4991 12.6831H24.0443C24.4327 12.6831 24.7313 13.0135 24.6943 13.3903C24.3534 16.7456 22.8287 20.2068 20.8045 22.8575C20.3315 23.4769 17.1843 26.3289 17.2741 26.7032C17.3613 27.0697 18.5795 27.6401 19.0446 27.6401C20.6856 27.6401 22.8472 24.4551 23.8514 23.2317C23.8804 23.1982 23.9016 23.162 23.9227 23.1233L25.6509 19.7499C25.902 19.2595 26.6234 19.2905 26.8374 19.799C28.1666 22.9297 30.1934 25.7379 32.7461 28.0298C33.0024 28.2595 33.3988 28.2466 33.6446 28.0066L34.8548 26.8271C35.1217 26.5664 35.1112 26.1354 34.8231 25.8979C31.1421 22.8471 28.3489 18.1497 27.9367 13.3851C27.905 13.0083 28.201 12.6831 28.5868 12.6831H34.7782C34.876 12.6831 35.0134 12.9928 35.1719 12.9799C35.8775 12.9206 35.8114 11.5268 35.7718 10.6028C35.7559 10.2621 35.4705 9.99369 35.1191 9.99369L35.1244 9.99111Z" fill="#849266"/>
<path d="M28.0979 27.0077C27.2311 26.9509 25.9944 27.6891 26.5282 28.8118C27.2892 30.4121 29.8578 32.8305 30.8699 34.792C30.9888 35.0218 31.2372 35.1585 31.5014 35.1405L33.1372 35.0166C33.5811 34.983 33.8638 34.5365 33.6894 34.1339C32.7804 32.0381 28.6105 27.0387 28.1005 27.0077H28.0979Z" fill="#849266"/>
<path d="M3.30574 28.0531C3.04413 28.3628 0.877254 33.3287 0.346106 34.3895C0.208694 34.6657 -0.359449 34.818 0.348748 35.169C0.599788 35.2929 2.72702 35.6413 2.93843 35.6077C3.55413 35.5122 5.31406 30.6806 6.02225 28.7087C6.14645 28.3654 5.94826 27.9937 5.59152 27.8905C4.79348 27.6582 3.87652 27.3795 3.30309 28.0557L3.30574 28.0531Z" fill="#849266"/>
<path d="M10.4644 27.9858C10.1103 28.0736 9.89627 28.4272 9.99404 28.7705C10.4274 30.2881 10.9348 31.798 11.2704 33.3415C11.3867 33.8809 11.2968 35.285 11.3682 35.3572C11.458 35.4501 12.6471 35.3572 13.4663 35.3366C13.8601 35.3263 14.1534 34.9856 14.0952 34.6062C13.8072 32.7323 12.5414 27.9962 12.1186 27.6968C11.857 27.5109 11.096 27.8284 10.4618 27.9884L10.4644 27.9858Z" fill="#849266"/>
<path d="M30.5264 1.19762C26.9643 1.48669 32.0776 6.4887 32.2757 8.2154C32.9205 9.42589 34.7095 8.42704 34.5325 7.20106C34.4083 6.34416 31.3086 1.13309 30.5264 1.19762Z" fill="#849266"/>
<path d="M20.757 28.884C20.1545 28.5175 18.421 28.7653 18.4474 29.7693C18.4554 30.0816 19.5547 32.0122 19.8136 32.6807C20.0356 33.2537 20.3553 35.2256 20.461 35.3134C20.7517 35.5534 23.056 35.6153 23.0269 34.5597C23.0084 33.9325 21.0292 29.0467 20.7597 28.8815L20.757 28.884Z" fill="#849266"/>
<path d="M342.997 9.28135C342.96 9.08778 342.675 8.71095 342.419 8.71095H336.523V0.580749C336.523 0.443955 336.439 0.307161 336.277 0.188434C336.127 0.0774505 335.884 -0.0309522 335.678 0.00776308L318.081 0.0464783L318.012 0.0568024C317.727 0.149719 317.616 0.397496 317.534 0.578168L317.502 0.650436L317.46 23.2963L317.465 23.3711C317.478 23.637 317.502 24.0396 317.938 24.1841L317.973 24.1945L342.252 24.2461C342.279 24.2461 342.302 24.2461 342.323 24.2461C342.704 24.2461 342.802 24.0706 342.9 23.8047L342.921 23.7479L343.003 9.29426V9.27361L342.997 9.28135ZM335.617 10.1666H341.512L341.433 22.793H319.03V1.54347H335.033V9.59624C335.033 9.79239 335.413 10.1641 335.614 10.1641L335.617 10.1666Z" fill="#849266"/>
<path d="M336.241 16.4954C330.258 18.1808 325.279 12.0999 327.705 6.57655C328.012 5.87967 329.428 4.36978 327.779 4.59433C325.203 4.94534 322.716 7.6838 322.008 10.0325C319.936 16.9161 326.778 22.7982 333.569 20.2972C334.94 19.7913 337.501 17.9433 337.884 16.5212C338.172 15.4449 336.708 16.3638 336.238 16.498L336.241 16.4954Z" fill="#849266"/>
</g>
<defs>
<clipPath id="clip0_48_1858">
<rect width="343" height="36" fill="white"/>
</clipPath>
</defs>
</svg>
