<svg width="514" height="56" viewBox="0 0 514 56" fill="none" xmlns="http://www.w3.org/2000/svg">
<path d="M2.87361 40.4802C5.93851 39.1671 27.6768 38.5519 28.3434 37.4557C28.6432 36.9628 28.4539 35.7996 28.4066 34.8571C28.3789 34.3248 27.9174 33.9187 27.381 33.9463C24.6711 34.0922 17.6814 35.2357 17.2514 34.9321C16.5217 34.4155 16.6164 33.0827 16.6676 32.0022C16.6952 31.4857 17.1213 31.0795 17.638 31.0795H26.955C27.8307 31.0795 27.4678 26.9707 27.2469 26.9707H17.6498C17.1134 26.9707 16.6755 26.533 16.6755 25.9967V23.8319C16.6755 23.2956 17.1134 22.8579 17.6498 22.8579H25.6848C26.2213 22.8579 26.6591 22.4202 26.6591 21.8839V3.28379C26.6591 2.74751 26.2213 2.30981 25.6848 2.30981H4.14375C3.6073 2.30981 3.16945 2.74751 3.16945 3.28379V21.8839C3.16945 22.4202 3.6073 22.8579 4.14375 22.8579H12.1788C12.7152 22.8579 13.1531 23.2956 13.1531 23.8319V25.9967C13.1531 26.533 12.7152 26.9707 12.1788 26.9707H3.46529C2.26616 26.9707 2.26616 31.0795 3.46529 31.0795H12.1511C12.6797 31.0795 13.1136 31.5015 13.1254 32.0299C13.1531 33.2522 13.3029 35.0504 13.157 35.1923C12.8138 35.5314 5.81623 35.6379 2.99195 35.7286C2.47916 35.7444 2.08076 36.1545 2.0571 36.6631C1.98215 38.1931 1.41414 40.5827 2.87361 40.4802ZM22.5687 19.6757C22.3911 19.8019 19.2829 19.7586 17.7603 19.5693C17.2909 19.5101 16.9319 19.1237 16.9082 18.6545L16.7268 15.074C16.6992 14.518 17.141 14.0527 17.6972 14.0527H22.1387C22.6633 14.0527 23.0972 14.4668 23.113 14.9951C23.1564 16.6198 23.468 19.0369 22.5687 19.6797V19.6757ZM17.6498 5.83111H22.1703C22.7067 5.83111 23.1446 6.26881 23.1446 6.80508V10.1489C23.1446 10.6852 22.7067 11.1229 22.1703 11.1229H17.6498C17.1134 11.1229 16.6755 10.6852 16.6755 10.1489V6.80508C16.6755 6.26881 17.1134 5.83111 17.6498 5.83111ZM12.1827 19.3406H8.25001C7.71355 19.3406 7.27571 18.9029 7.27571 18.3666V15.0227C7.27571 14.4865 7.71355 14.0488 8.25001 14.0488H12.1827C12.7192 14.0488 13.157 14.4865 13.157 15.0227V18.3666C13.157 18.9029 12.7192 19.3406 12.1827 19.3406ZM12.1827 11.1229H8.25001C7.71355 11.1229 7.27571 10.6852 7.27571 10.1489V6.80508C7.27571 6.26881 7.71355 5.83111 8.25001 5.83111H12.1827C12.7192 5.83111 13.157 6.26881 13.157 6.80508V10.1489C13.157 10.6852 12.7192 11.1229 12.1827 11.1229Z" fill="#849266"/>
<path d="M106.579 23.4493H117.553C118.089 23.4493 118.527 23.0116 118.527 22.4753V3.87119C118.527 3.33491 118.089 2.89722 117.553 2.89722H90.7222C90.1858 2.89722 89.7479 3.33491 89.7479 3.87119V22.4714C89.7479 23.0076 90.1858 23.4453 90.7222 23.4453H101.108C101.645 23.4453 102.082 23.883 102.082 24.4193V27.1677C102.082 27.704 101.645 28.1417 101.108 28.1417H88.959C88.4226 28.1417 87.9847 28.5794 87.9847 29.1157V54.1748C87.9847 54.7111 88.4226 55.1488 88.959 55.1488H91.1246C91.661 55.1488 92.0989 54.7111 92.0989 54.1748V33.2245C92.0989 32.6882 92.5367 32.2505 93.0732 32.2505H100.524C101.061 32.2505 101.499 32.6843 101.499 33.2245V38.3507C101.499 38.8909 101.061 39.3286 100.524 39.3286C96.4418 39.3286 92.734 38.0076 94.2447 43.3113C94.3749 43.7647 94.8088 44.0684 95.2782 44.021C98.0236 43.7411 106.678 41.7024 108.745 42.2151C109.79 42.4753 109.904 48.1496 113.249 45.4643C114.468 44.4863 111.277 35.5747 110.863 35.2237C110.547 34.9556 109.06 35.208 108.544 35.4761C106.903 36.3357 107.932 38.4572 106.8 38.8002C106.205 38.9816 105.613 38.4729 105.613 37.8499V33.2245C105.613 32.6882 106.047 32.2505 106.583 32.2505H114.618C115.155 32.2505 115.593 32.6882 115.593 33.2245V49.5692C115.593 51.6669 111.356 50.6969 109.179 50.4248C108.512 50.342 107.964 50.9335 108.102 51.5881C108.386 52.9524 109.009 54.9319 109.218 55.0621C110.725 56.0321 119.707 55.2474 119.707 51.9154V29.1117C119.707 28.5755 119.269 28.1378 118.732 28.1378H106.583C106.047 28.1378 105.609 27.7001 105.609 27.1638V24.4154C105.609 23.8791 106.047 23.4414 106.583 23.4414L106.579 23.4493ZM114.744 19.3523C114.098 20.2986 109.096 20.0463 106.867 19.7584C106.402 19.6993 106.043 19.3207 106.019 18.8554C105.94 17.4753 106.059 14.7742 106.193 14.6362C106.477 14.3365 113.853 14.5652 114.449 14.9161C114.642 15.0305 114.875 19.1709 114.748 19.3523H114.744ZM106.485 6.42245H114.027C114.563 6.42245 115.001 6.86015 115.001 7.39643V10.1449C115.001 10.6811 114.563 11.1188 114.027 11.1188H106.189C105.936 11.1188 105.483 6.42245 106.481 6.42245H106.485ZM101.108 19.924H94.8324C94.296 19.924 93.8581 19.4863 93.8581 18.9501V15.6141C93.8581 15.0778 94.296 14.6401 94.8324 14.6401H101.108C101.645 14.6401 102.082 15.0778 102.082 15.6141V18.9501C102.082 19.4863 101.645 19.924 101.108 19.924ZM101.108 11.1188H94.8324C94.296 11.1188 93.8581 10.6811 93.8581 10.1449V7.39643C93.8581 6.86015 94.296 6.42245 94.8324 6.42245H101.108C101.645 6.42245 102.082 6.86015 102.082 7.39643V10.1449C102.082 10.6811 101.645 11.1188 101.108 11.1188Z" fill="#849266"/>
<path d="M80.2219 19.7781C83.421 15.1212 86.3084 9.6322 86.261 3.87904C86.2571 3.33882 85.8232 2.90112 85.2828 2.90112H70.1634C69.6269 2.90112 69.1891 3.33882 69.1891 3.8751V54.2734C69.1891 55.0581 71.0627 55.2158 72.3368 55.204C72.8733 55.2 73.2993 54.7663 73.2993 54.23V7.98393C73.2993 7.44765 73.7371 7.00996 74.2736 7.00996H80.3521C80.9753 7.00996 81.4408 7.58961 81.3067 8.19686C80.289 12.7789 77.2557 16.6196 74.9244 20.6101C74.6838 21.0202 74.7864 21.5407 75.1493 21.8443C79.3936 25.3814 83.0896 29.2142 81.9654 35.3459C81.003 40.6062 76.3326 38.9973 75.6857 39.9319C75.4333 40.2986 76.1394 43.7962 76.2971 43.9303C76.5575 44.1511 79.8985 44.088 80.6046 43.9618C85.7048 43.047 86.7541 34.4705 86.1624 30.2513C85.5747 26.0439 82.4309 23.9816 80.2101 20.8822C79.9734 20.5549 79.9853 20.1133 80.2101 19.7781H80.2219Z" fill="#849266"/>
<path d="M53.3084 15.8152H42.9067C42.3702 15.8152 41.9324 15.3775 41.9324 14.8412V1.525C41.9324 0.988723 41.4985 0.551025 40.9581 0.551025H38.7925C38.2561 0.551025 37.8222 0.988723 37.8222 1.525V14.8412C37.8222 15.3775 37.3843 15.8152 36.8479 15.8152H29.9844C29.4479 15.8152 29.0101 16.2529 29.0101 16.7892V18.954C29.0101 19.4903 29.4479 19.928 29.9844 19.928H36.769C37.3488 19.928 37.7946 20.4327 37.7393 21.0084C37.2305 26.1346 34.9545 31.4225 31.933 35.4722C31.2269 36.4185 26.529 40.7758 26.6631 41.3476C26.7933 41.9075 28.6117 42.7789 29.3059 42.7789C31.7555 42.7789 34.9821 37.913 36.481 36.0439C36.5244 35.9927 36.556 35.9375 36.5875 35.8783L39.1673 30.7245C39.542 29.9753 40.6188 30.0226 40.9383 30.7994C42.9224 35.5826 45.9479 39.8728 49.7583 43.3744C50.1409 43.7253 50.7326 43.7056 51.0995 43.3389L52.9061 41.5368C53.3044 41.1386 53.2887 40.48 52.8587 40.1173C47.364 35.4564 43.1946 28.2797 42.5793 21.0006C42.5319 20.4248 42.9737 19.928 43.5496 19.928H52.7917C52.9376 19.928 53.1427 20.4012 53.3794 20.3815C54.4326 20.2908 54.334 18.1614 54.2748 16.7498C54.2511 16.2293 53.8251 15.8192 53.3005 15.8192L53.3084 15.8152Z" fill="#849266"/>
<path d="M42.8198 41.8128C41.526 41.726 39.68 42.8538 40.4768 44.5691C41.6128 47.0139 45.4469 50.7087 46.9576 53.7055C47.1351 54.0565 47.5059 54.2655 47.9004 54.2379L50.342 54.0486C51.0047 53.9973 51.4268 53.3151 51.1665 52.7C49.8095 49.4981 43.5851 41.8601 42.8238 41.8128H42.8198Z" fill="#849266"/>
<path d="M5.81226 43.4099C5.42175 43.8831 2.18724 51.4698 1.39439 53.0905C1.18927 53.5124 0.341196 53.745 1.39833 54.2813C1.77306 54.4706 4.94841 55.0029 5.26397 54.9517C6.18304 54.8058 8.8101 47.4241 9.86724 44.4115C10.0526 43.887 9.75679 43.3192 9.22428 43.1614C8.03303 42.8066 6.66428 42.3807 5.80831 43.4138L5.81226 43.4099Z" fill="#849266"/>
<path d="M16.498 43.3075C15.9694 43.4415 15.6499 43.9818 15.7959 44.5062C16.4428 46.8248 17.2001 49.1316 17.7011 51.4896C17.8746 52.3138 17.7405 54.4589 17.847 54.5693C17.9811 54.7113 19.7562 54.5693 20.979 54.5377C21.5667 54.522 22.0046 54.0015 21.9178 53.4218C21.4878 50.559 19.5984 43.3232 18.9673 42.8658C18.5768 42.5819 17.4407 43.0669 16.4941 43.3114L16.498 43.3075Z" fill="#849266"/>
<path d="M46.4449 2.38079C41.1276 2.82243 48.7603 10.4644 49.0561 13.1024C50.0186 14.9518 52.689 13.4257 52.4248 11.5527C52.2394 10.2436 47.6124 2.28221 46.4449 2.38079Z" fill="#849266"/>
<path d="M31.8619 44.6797C30.9626 44.1197 28.3749 44.4983 28.4144 46.0322C28.4262 46.5093 30.0671 49.4588 30.4537 50.4801C30.7851 51.3555 31.2623 54.3681 31.4201 54.5022C31.854 54.8689 35.2936 54.9636 35.2503 53.3508C35.2226 52.3926 32.2682 44.9281 31.8659 44.6757L31.8619 44.6797Z" fill="#849266"/>
<path d="M193.831 8.04216C193.63 6.3032 194.024 4.04768 193.216 2.34815C192.028 -0.140018 187.693 0.325282 186.404 2.58869L168.985 45.3016C163.924 31.2362 158.102 17.36 152.749 3.3655C149.191 -0.392383 143.42 -0.97598 142.556 5.28191C140.544 19.8284 141.803 35.9878 139.775 50.6447C139.089 53.5706 143.755 54.584 144.958 53.0303C145.968 51.7291 145.574 45.4278 145.692 43.5114C146.173 35.763 146.8 27.9633 147.282 20.2583C147.361 19.024 147.609 7.0603 148.272 7.04847L165.75 50.6999C166.673 53.7717 170.018 55.0493 171.817 51.8868L188.695 9.42229L192.727 52.1234C193.172 53.8781 196.935 54.1423 197.811 53.0343C198.407 52.2772 198.21 50.1084 198.162 49.0556C197.582 36.0548 195.342 21.1297 193.831 8.04216Z" fill="#849266"/>
<path d="M450.344 49.3238C449.322 48.8821 447.314 47.3798 446.309 46.6542C440.767 42.64 435.891 37.502 430.503 33.2749C430.306 32.7662 431.903 31.9027 432.349 31.5793C437.812 27.5493 443.551 23.8703 449.058 19.8916C451.614 16.1771 446.928 15.5225 444.041 16.8474C440.163 18.6298 434.014 24.3751 430.239 27.1038C429.682 27.506 426.491 29.8956 426.164 29.5367V2.12741C426.164 1.03909 421.237 -0.688043 420.665 2.93972L420.618 51.047C419.963 54.3041 426.164 54.2528 426.164 52.2063V36.6306C426.854 36.4571 426.953 36.9145 427.351 37.2181C432.657 41.2757 442.317 52.0919 448.166 53.8703C450.269 54.5091 455.342 54.3829 454.975 51.4216C454.785 49.8956 451.638 49.8837 450.348 49.3238H450.344Z" fill="#849266"/>
<path d="M220.958 17.0249C198.588 19.5958 200.316 54.9349 223.959 54.7299C250.396 54.5051 248.897 13.8151 220.958 17.0249ZM227.375 49.4657C208.453 54.3237 204.714 24.5051 220.95 22.1431C240.361 19.3198 242.984 45.4555 227.375 49.4657Z" fill="#849266"/>
<path d="M349.155 17.0249C325.432 19.8837 329.44 59.2489 356.046 54.2765C378.881 50.006 375.374 13.8664 349.155 17.0249ZM353.332 50.006C336.035 51.3466 333.811 24.2804 349.541 22.1432C370.38 19.308 370.447 48.6771 353.332 50.006Z" fill="#849266"/>
<path d="M263.559 17.0289C241.319 19.8916 242.854 55.976 267.779 54.7655C292.78 53.5509 291.411 13.4445 263.559 17.0289ZM267.377 50.0454C250.246 50.7749 248.313 24.2016 264.351 22.155C285.277 19.4855 284.745 49.308 267.377 50.0454Z" fill="#849266"/>
<path d="M392.142 17.0168C368.475 20.0097 372.487 59.1738 399.041 54.2763C422.073 50.0255 418.429 13.6967 392.142 17.0168ZM395.972 50.0373C379.046 51.0034 376.715 24.3079 392.537 22.143C413.679 19.2527 413.687 49.0239 395.972 50.0373Z" fill="#849266"/>
<path d="M319.827 51.6423C320.482 54.4302 324.88 54.722 325.2 51.4412C325.713 46.1968 325.74 33.7677 325.133 28.5903C323.555 15.0769 307.244 13.472 299.138 23.4168C298.625 24.0438 298.61 25.0335 297.959 25.1952V18.6889C297.959 17.9318 293.324 16.5516 292.843 19.095L292.807 51.4412C292.681 54.4854 297.482 54.5879 298.18 51.6423C300.038 43.8111 295.3 32.3166 302.164 25.6565C306.799 21.1573 316.672 20.5382 319.05 27.5729C321.232 34.024 318.273 45.0375 319.823 51.6423H319.827Z" fill="#849266"/>
<path d="M513.114 14.7312C513.058 14.4355 512.632 13.8598 512.25 13.8598H503.449V1.43865C503.449 1.22966 503.323 1.02067 503.083 0.839284C502.858 0.669726 502.495 0.50411 502.187 0.563259L475.921 0.622407L475.818 0.63818C475.392 0.780136 475.226 1.15868 475.104 1.43471L475.057 1.54512L474.994 36.1429L475.002 36.2573C475.021 36.6634 475.057 37.2786 475.708 37.4994L475.759 37.5152L512.001 37.594C512.041 37.594 512.076 37.594 512.108 37.594C512.676 37.594 512.822 37.3259 512.968 36.9197L512.999 36.833L513.121 14.751V14.7194L513.114 14.7312ZM502.097 16.0838H510.897L510.778 35.374H477.337V2.90947H501.225V15.2123C501.225 15.512 501.793 16.0798 502.093 16.0798L502.097 16.0838Z" fill="#849266"/>
<path d="M503.027 25.7525C494.097 28.3274 486.665 19.0372 490.287 10.5987C490.744 9.53406 492.858 7.22728 490.397 7.57034C486.551 8.10662 482.839 12.2904 481.782 15.8787C478.69 26.3953 488.902 35.3819 499.039 31.5609C501.087 30.788 504.909 27.9647 505.481 25.792C505.911 24.1476 503.726 25.5514 503.023 25.7565L503.027 25.7525Z" fill="#849266"/>
</svg>
