<svg width="56" height="57" viewBox="0 0 56 57" fill="none" xmlns="http://www.w3.org/2000/svg">
<g clip-path="url(#clip0_596_7003)">
<rect y="0.5" width="56" height="56" rx="28" fill="#849266"/>
<g clip-path="url(#clip1_596_7003)">
<mask id="mask0_596_7003" style="mask-type:luminance" maskUnits="userSpaceOnUse" x="0" y="0" width="56" height="57">
<path d="M0 0.5H56V56.5H0V0.5Z" fill="white"/>
</mask>
<g mask="url(#mask0_596_7003)">
<path d="M37.2308 17.9329H18.7692C17.2398 17.9329 16 19.1727 16 20.7021V37.3175C16 38.8469 17.2398 40.0867 18.7692 40.0867H37.2308C38.7602 40.0867 40 38.8469 40 37.3175V20.7021C40 19.1727 38.7602 17.9329 37.2308 17.9329Z" stroke="#E6E9DE" stroke-width="1.84615" stroke-linejoin="round"/>
<path d="M30.3077 28.0866C31.0724 28.0866 31.6923 27.4667 31.6923 26.702C31.6923 25.9373 31.0724 25.3174 30.3077 25.3174C29.543 25.3174 28.9231 25.9373 28.9231 26.702C28.9231 27.4667 29.543 28.0866 30.3077 28.0866Z" fill="#E6E9DE"/>
<path d="M34.9231 28.0866C35.6878 28.0866 36.3077 27.4667 36.3077 26.702C36.3077 25.9373 35.6878 25.3174 34.9231 25.3174C34.1584 25.3174 33.5385 25.9373 33.5385 26.702C33.5385 27.4667 34.1584 28.0866 34.9231 28.0866Z" fill="#E6E9DE"/>
<path d="M30.3077 32.7021C31.0724 32.7021 31.6923 32.0822 31.6923 31.3175C31.6923 30.5528 31.0724 29.9329 30.3077 29.9329C29.543 29.9329 28.9231 30.5528 28.9231 31.3175C28.9231 32.0822 29.543 32.7021 30.3077 32.7021Z" fill="#E6E9DE"/>
<path d="M34.9231 32.7021C35.6878 32.7021 36.3077 32.0822 36.3077 31.3175C36.3077 30.5528 35.6878 29.9329 34.9231 29.9329C34.1584 29.9329 33.5385 30.5528 33.5385 31.3175C33.5385 32.0822 34.1584 32.7021 34.9231 32.7021Z" fill="#E6E9DE"/>
<path d="M21.0769 32.7021C21.8416 32.7021 22.4616 32.0822 22.4616 31.3175C22.4616 30.5528 21.8416 29.9329 21.0769 29.9329C20.3122 29.9329 19.6923 30.5528 19.6923 31.3175C19.6923 32.0822 20.3122 32.7021 21.0769 32.7021Z" fill="#E6E9DE"/>
<path d="M25.6923 32.7021C26.457 32.7021 27.0769 32.0822 27.0769 31.3175C27.0769 30.5528 26.457 29.9329 25.6923 29.9329C24.9276 29.9329 24.3077 30.5528 24.3077 31.3175C24.3077 32.0822 24.9276 32.7021 25.6923 32.7021Z" fill="#E6E9DE"/>
<path d="M21.0769 37.3173C21.8416 37.3173 22.4616 36.6974 22.4616 35.9327C22.4616 35.168 21.8416 34.5481 21.0769 34.5481C20.3122 34.5481 19.6923 35.168 19.6923 35.9327C19.6923 36.6974 20.3122 37.3173 21.0769 37.3173Z" fill="#E6E9DE"/>
<path d="M25.6923 37.3173C26.457 37.3173 27.0769 36.6974 27.0769 35.9327C27.0769 35.168 26.457 34.5481 25.6923 34.5481C24.9276 34.5481 24.3077 35.168 24.3077 35.9327C24.3077 36.6974 24.9276 37.3173 25.6923 37.3173Z" fill="#E6E9DE"/>
<path d="M30.3077 37.3173C31.0724 37.3173 31.6923 36.6974 31.6923 35.9327C31.6923 35.168 31.0724 34.5481 30.3077 34.5481C29.543 34.5481 28.9231 35.168 28.9231 35.9327C28.9231 36.6974 29.543 37.3173 30.3077 37.3173Z" fill="#E6E9DE"/>
<path fill-rule="evenodd" clip-rule="evenodd" d="M20.6154 15.1636C20.1056 15.1636 19.6923 15.5769 19.6923 16.0867V17.9328C19.6923 18.4426 20.1056 18.8559 20.6154 18.8559C21.1252 18.8559 21.5385 18.4426 21.5385 17.9328V16.0867C21.5385 15.5769 21.1252 15.1636 20.6154 15.1636ZM35.3846 15.1636C34.8748 15.1636 34.4616 15.5769 34.4616 16.0867V17.9328C34.4616 18.4426 34.8748 18.8559 35.3846 18.8559C35.8944 18.8559 36.3077 18.4426 36.3077 17.9328V16.0867C36.3077 15.5769 35.8944 15.1636 35.3846 15.1636Z" fill="#E6E9DE"/>
<path d="M40 23.4712H16V21.625H40V23.4712Z" fill="#E6E9DE"/>
</g>
</g>
</g>
<defs>
<clipPath id="clip0_596_7003">
<rect y="0.5" width="56" height="56" rx="28" fill="white"/>
</clipPath>
<clipPath id="clip1_596_7003">
<rect width="56" height="56" fill="white" transform="translate(0 0.5)"/>
</clipPath>
</defs>
</svg>
