<svg width="56" height="56" viewBox="0 0 56 56" fill="none" xmlns="http://www.w3.org/2000/svg">
<g clip-path="url(#clip0_596_6952)">
<path d="M54.2603 1.51435C54.9195 1.67803 55.9643 2.16473 55.9954 2.57391C56.0479 3.24152 55.5432 4.08141 55.0471 4.64134C53.9484 5.88036 52.5209 6.85234 51.5654 8.18181C49.3908 11.2083 47.3537 14.3425 45.3917 17.5168C44.4348 19.0645 43.7884 20.806 42.9761 22.4471C38.1094 32.2774 30.2246 37.8781 19.5755 39.7359C15.687 40.415 11.8424 41.3712 8.00639 42.3202C7.41666 42.4666 6.78157 43.1572 6.50797 43.7573C4.98403 47.0839 3.57634 50.465 2.09919 53.8131C1.75754 54.5869 1.70225 55.6307 -0.00172043 56.0011C0.91264 53.2302 1.60585 50.9373 2.42949 48.6933C3.26021 46.4306 4.22135 44.2182 4.99962 42.2944C2.79098 34.1682 2.93275 26.5905 7.41382 19.4636C9.8833 15.5355 13.1509 12.3583 16.7956 9.5845C22.8658 4.96437 29.4591 1.48277 37.0788 0.299742C41.3799 -0.367865 45.6299 0.209292 49.8827 0.743377C51.3528 0.928584 52.8257 1.15686 54.2603 1.51435ZM53.628 3.72535C53.5019 3.52292 53.3757 3.31905 53.2495 3.11661C51.1515 2.84095 49.0576 2.38583 46.9539 2.33128C43.3432 2.23939 39.639 1.90774 36.1304 2.54807C26.9202 4.23072 19.3487 9.1825 12.7497 15.7581C7.00129 21.4851 4.80399 28.4641 5.63755 36.5013C5.7467 37.5493 5.93525 38.5902 6.08693 39.634C6.25846 39.6986 6.43 39.7646 6.60153 39.8292C11.8878 30.8934 18.6796 23.3846 26.9896 17.2512C26.9386 18.0466 26.6962 18.7171 26.261 19.2167C25.3906 20.2174 24.4323 21.1391 23.4825 22.0652C18.6059 26.826 13.9632 31.7892 10.2576 37.5709C9.77557 38.3232 9.32902 39.0985 8.62872 40.2513C9.75572 40.0776 10.4659 40.0144 11.1535 39.8522C14.1191 39.1516 17.0621 38.339 20.0433 37.7159C28.9176 35.8624 35.423 30.79 39.8701 22.9007C40.9305 21.0185 41.8321 19.0444 42.8216 17.1206C45.2017 12.4904 48.2241 8.34548 52.0162 4.79783C52.4826 4.36137 53.0893 4.07854 53.6309 3.72392L53.628 3.72535Z" fill="#3E5E4E"/>
</g>
<defs>
<clipPath id="clip0_596_6952">
<rect width="56" height="56" fill="white" transform="matrix(-1 0 0 1 56 0)"/>
</clipPath>
</defs>
</svg>
