<svg width="28" height="28" viewBox="0 0 28 28" fill="none" xmlns="http://www.w3.org/2000/svg">
<path d="M27.1302 0.757177C27.4598 0.839013 27.9822 1.08237 27.9978 1.28696C28.024 1.62076 27.7717 2.04071 27.5236 2.32067C26.9743 2.94018 26.2605 3.42617 25.7828 4.0909C24.6955 5.60415 23.6769 7.17123 22.6959 8.75841C22.2175 9.53226 21.8943 10.403 21.4881 11.2235C19.0548 16.1387 15.1124 18.9391 9.78785 19.868C7.84359 20.2075 5.92131 20.6856 4.00328 21.1601C3.70841 21.2333 3.39087 21.5786 3.25407 21.8787C2.4921 23.542 1.78826 25.2325 1.04968 26.9065C0.878857 27.2935 0.851212 27.8153 -0.000774384 28.0006C0.456406 26.6151 0.803013 25.4687 1.21483 24.3467C1.63019 23.2153 2.11076 22.1091 2.4999 21.1472C1.39557 17.0841 1.46646 13.2953 3.707 9.73182C4.94174 7.76777 6.57554 6.17915 8.39788 4.79225C11.433 2.48219 14.7297 0.741385 18.5395 0.149871C20.69 -0.183933 22.815 0.104646 24.9414 0.371689C25.6765 0.464292 26.4129 0.578431 27.1302 0.757177ZM26.8141 1.86268C26.751 1.76146 26.6879 1.65952 26.6249 1.55831C25.5758 1.42048 24.5289 1.19292 23.477 1.16564C21.6717 1.1197 19.8196 0.95387 18.0653 1.27403C13.4602 2.11536 9.67444 4.59125 6.37494 7.87903C3.50073 10.7426 2.40208 14.2321 2.81886 18.2506C2.87344 18.7747 2.96771 19.2951 3.04355 19.817C3.12932 19.8493 3.21508 19.8823 3.30085 19.9146C5.94399 15.4467 9.33989 11.6923 13.4949 8.6256C13.4694 9.0233 13.3482 9.35854 13.1306 9.60835C12.6954 10.1087 12.2162 10.5696 11.7413 11.0326C9.30303 13.413 6.98169 15.8946 5.12886 18.7854C4.88787 19.1616 4.66459 19.5492 4.31444 20.1257C4.87794 20.0388 5.23306 20.0072 5.57683 19.9261C7.05965 19.5758 8.53114 19.1695 10.0218 18.8579C14.4589 17.9312 17.7116 15.395 19.9351 11.4504C20.4653 10.5093 20.9161 9.52221 21.4109 8.56028C22.601 6.24519 24.1121 4.17274 26.0082 2.39892C26.2414 2.18069 26.5448 2.03927 26.8155 1.86196L26.8141 1.86268Z" fill="#3E5E4E"/>
</svg>
