<svg width="56" height="57" viewBox="0 0 56 57" fill="none" xmlns="http://www.w3.org/2000/svg">
<g clip-path="url(#clip0_596_7012)">
<rect y="0.5" width="56" height="56" rx="28" fill="#849266"/>
<g clip-path="url(#clip1_596_7012)">
<path d="M18 37.2273V19.7727C18 18.9047 18.3451 18.0726 18.9588 17.4588C19.5726 16.8451 20.4047 16.5 21.2727 16.5H30L30.1076 16.5053C30.3574 16.5301 30.5922 16.6405 30.7713 16.8196L37.3168 23.3651C37.5213 23.5696 37.6364 23.847 37.6364 24.1364V37.2273C37.6364 38.0953 37.2913 38.9274 36.6776 39.5412C36.0638 40.1549 35.2316 40.5 34.3636 40.5H21.2727C20.4047 40.5 19.5726 40.1549 18.9588 39.5412C18.3451 38.9274 18 38.0953 18 37.2273ZM20.1818 37.2273C20.1818 37.5166 20.2968 37.794 20.5014 37.9986C20.706 38.2032 20.9834 38.3182 21.2727 38.3182H34.3636C34.653 38.3182 34.9304 38.2032 35.1349 37.9986C35.3395 37.794 35.4545 37.5166 35.4545 37.2273V24.5881L29.5483 18.6818H21.2727C20.9834 18.6818 20.706 18.7968 20.5014 19.0014C20.2968 19.206 20.1818 19.4834 20.1818 19.7727V37.2273Z" fill="#E6E9DE"/>
<path d="M28.9091 17.5909C28.9091 16.9884 29.3975 16.5 30 16.5C30.6025 16.5 31.0909 16.9884 31.0909 17.5909V23.0455H36.5455C37.1479 23.0455 37.6364 23.5339 37.6364 24.1364C37.6364 24.7389 37.1479 25.2273 36.5455 25.2273H30C29.3975 25.2273 28.9091 24.7389 28.9091 24.1364V17.5909Z" fill="#E6E9DE"/>
<path d="M32.1818 28.5C32.7843 28.5 33.2727 28.9884 33.2727 29.5909C33.2727 30.1934 32.7843 30.6818 32.1818 30.6818H23.4545C22.8521 30.6818 22.3636 30.1934 22.3636 29.5909C22.3636 28.9884 22.8521 28.5 23.4545 28.5H32.1818Z" fill="#E6E9DE"/>
<path d="M32.1818 32.8635C32.7843 32.8635 33.2727 33.3519 33.2727 33.9544C33.2727 34.5569 32.7843 35.0453 32.1818 35.0453H23.4545C22.8521 35.0453 22.3636 34.5569 22.3636 33.9544C22.3636 33.3519 22.8521 32.8635 23.4545 32.8635H32.1818Z" fill="#E6E9DE"/>
<path d="M25.6364 24.1365C26.2389 24.1365 26.7273 24.6249 26.7273 25.2274C26.7273 25.8299 26.2389 26.3183 25.6364 26.3183H23.4545C22.8521 26.3183 22.3636 25.8299 22.3636 25.2274C22.3636 24.6249 22.8521 24.1365 23.4545 24.1365H25.6364Z" fill="#E6E9DE"/>
</g>
</g>
<defs>
<clipPath id="clip0_596_7012">
<rect y="0.5" width="56" height="56" rx="28" fill="white"/>
</clipPath>
<clipPath id="clip1_596_7012">
<rect width="56" height="56" fill="white" transform="translate(0 0.5)"/>
</clipPath>
</defs>
</svg>
