<svg width="56" height="56" viewBox="0 0 56 56" fill="none" xmlns="http://www.w3.org/2000/svg">
<g clip-path="url(#clip0_596_7016)">
<rect width="56" height="56" rx="28" fill="#849266"/>
<g clip-path="url(#clip1_596_7016)">
<mask id="mask0_596_7016" style="mask-type:luminance" maskUnits="userSpaceOnUse" x="0" y="0" width="56" height="56">
<path d="M0 0H56V56H0V0Z" fill="white"/>
</mask>
<g mask="url(#mask0_596_7016)">
<path d="M35.813 16.379L39.9096 12.1909C40.0295 12.0686 40.1919 11.9999 40.3613 12C40.5307 12.0001 40.6931 12.0689 40.8128 12.1913C40.9326 12.3137 40.9999 12.4798 41 12.6529C41.0001 12.826 40.933 12.9921 40.8133 13.1147L36.2219 17.8087C36.1021 17.9312 35.9395 18 35.77 18C35.7604 18 35.7507 17.9998 35.7411 17.9993C35.6524 17.9952 35.5655 17.9723 35.486 17.9319C35.4064 17.8916 35.336 17.8347 35.2792 17.7649L33.1492 15.1519C33.0952 15.086 33.0545 15.0099 33.0293 14.9279C33.0041 14.8459 32.995 14.7597 33.0025 14.6741C33.0101 14.5885 33.034 14.5052 33.073 14.4291C33.112 14.353 33.1654 14.2855 33.2299 14.2305C33.2945 14.1755 33.3691 14.1341 33.4493 14.1086C33.5296 14.083 33.614 14.074 33.6977 14.0819C33.7814 14.0898 33.8627 14.1145 33.9371 14.1546C34.0114 14.1946 34.0773 14.2493 34.131 14.3155L35.813 16.379Z" fill="#E6E9DE"/>
</g>
<path d="M24.1227 21.4746C24.42 21.5685 24.6966 21.6425 24.9388 21.7003V29.4055L22.8958 42.1484C22.7553 43.0262 23.3843 43.8466 24.3001 43.9811C25.2165 44.1159 26.0733 43.5141 26.2141 42.6364L28.1207 30.7438H29.1005L31.0072 42.6364C31.148 43.5141 32.005 44.1159 32.9211 43.9811C33.8373 43.8464 34.4662 43.0262 34.3255 42.1484L32.315 29.6082C32.4426 29.6563 32.5779 29.682 32.7138 29.682C32.9673 29.682 33.2218 29.5976 33.4277 29.4253C34.5385 28.4952 35.3264 27.6247 35.8532 26.7798C36.3786 25.9375 36.6405 25.1053 36.6399 24.3173C36.6426 23.5043 36.355 22.774 35.9384 22.203C35.3095 21.3415 34.4365 20.791 33.6279 20.4227C33.2213 20.2396 32.8272 20.1043 32.4669 20.0109C32.1022 19.9186 31.7886 19.8628 31.4574 19.8601C31.4502 19.8601 31.4434 19.861 31.4362 19.8612C31.3705 19.8488 31.3027 19.842 31.2332 19.842H26.2863C26.249 19.8332 26.2107 19.8259 26.1716 19.821C26.1716 19.821 26.1716 19.821 26.1688 19.8205C26.0849 19.8116 24.9311 19.6325 23.9121 19.1578C23.4017 18.9241 22.936 18.6195 22.636 18.2846C22.3359 17.9425 22.1783 17.6129 22.1722 17.1293C22.1722 16.7859 22.2653 16.3426 22.5483 15.7731C22.8302 15.2048 23.3028 14.5184 24.0277 13.7243C24.4219 13.2915 24.3755 12.6345 23.9238 12.2567C23.4721 11.8789 22.7858 11.9232 22.3913 12.356C21.5691 13.2581 20.9799 14.0891 20.587 14.8782C20.1951 15.6657 20 16.4187 20 17.1291C19.9934 18.1728 20.4441 19.072 21.0503 19.7072C21.9645 20.6679 23.161 21.1638 24.1227 21.4746ZM33.7696 22.9724C34.2242 23.3825 34.4633 23.7912 34.4673 24.3173C34.4668 24.6647 34.3572 25.1175 33.9869 25.7151C33.6547 26.2505 33.1081 26.8908 32.2822 27.615V22.1372C32.7809 22.3119 33.3595 22.6073 33.7696 22.9724Z" fill="#E6E9DE"/>
<path d="M28.3199 18.5641C30.0873 18.5641 31.5199 17.1314 31.5199 15.3641C31.5199 13.5968 30.0873 12.1641 28.3199 12.1641C26.5526 12.1641 25.1199 13.5968 25.1199 15.3641C25.1199 17.1314 26.5526 18.5641 28.3199 18.5641Z" fill="#E6E9DE"/>
</g>
</g>
<defs>
<clipPath id="clip0_596_7016">
<rect width="56" height="56" rx="28" fill="white"/>
</clipPath>
<clipPath id="clip1_596_7016">
<rect width="56" height="56" fill="white"/>
</clipPath>
</defs>
</svg>
