<svg width="56" height="57" viewBox="0 0 56 57" fill="none" xmlns="http://www.w3.org/2000/svg">
<g clip-path="url(#clip0_596_7007)">
<rect y="0.5" width="56" height="56" rx="28" fill="#849266"/>
<g clip-path="url(#clip1_596_7007)">
<path d="M37.8182 28.5C37.8182 23.0776 33.4224 18.6818 28 18.6818C22.5776 18.6818 18.1818 23.0776 18.1818 28.5C18.1818 33.9224 22.5776 38.3182 28 38.3182C33.4224 38.3182 37.8182 33.9224 37.8182 28.5ZM40 28.5C40 35.1274 34.6274 40.5 28 40.5C21.3726 40.5 16 35.1274 16 28.5C16 21.8726 21.3726 16.5 28 16.5C34.6274 16.5 40 21.8726 40 28.5Z" fill="#E6E9DE"/>
<path d="M26.9091 21.9544C26.9091 21.3519 27.3975 20.8635 28 20.8635C28.6025 20.8635 29.0909 21.3519 29.0909 21.9544V27.8255L32.8516 29.7059C33.3904 29.9753 33.6089 30.6307 33.3395 31.1696C33.07 31.7085 32.4146 31.927 31.8757 31.6576L27.5121 29.4757C27.1425 29.2909 26.9091 28.9131 26.9091 28.4999V21.9544Z" fill="#E6E9DE"/>
</g>
</g>
<defs>
<clipPath id="clip0_596_7007">
<rect y="0.5" width="56" height="56" rx="28" fill="white"/>
</clipPath>
<clipPath id="clip1_596_7007">
<rect width="56" height="56" fill="white" transform="translate(0 0.5)"/>
</clipPath>
</defs>
</svg>
