<svg width="90" height="45" viewBox="0 0 90 45" fill="none" xmlns="http://www.w3.org/2000/svg">
<g clip-path="url(#clip0_574_13843)">
<circle cx="45" cy="45" r="45" fill="#3E5E4E"/>
<g clip-path="url(#clip1_574_13843)">
<path d="M40.5336 23.6345C41.1744 23.6168 41.8149 23.56 42.4535 23.4995C42.8848 23.4588 43.3121 23.3776 43.7422 23.3235C44.5368 23.2234 45.2174 23.4892 45.7401 24.0692C46.395 24.796 46.8113 25.6279 46.6046 26.6581C46.5623 26.869 46.5552 27.0872 46.5307 27.3131C46.8864 27.2722 46.8803 27.2682 47.0324 27.0463C47.3046 26.6492 47.5442 26.2196 47.8693 25.8708C48.7992 24.873 49.736 23.8784 50.7242 22.9392C52.0922 21.6393 53.0614 20.1317 53.4083 18.2589C53.5254 17.6269 53.6205 16.9909 53.7278 16.357C53.8508 15.6314 53.7892 14.918 53.6162 14.2061C53.3327 13.0391 52.8179 11.9673 52.2059 10.9506C51.6267 9.9887 50.9526 9.08421 50.3358 8.14432C49.7733 7.28679 49.1644 6.45103 49.005 5.39283C48.9625 5.11036 48.7228 5.05445 48.5066 5.26023C48.3563 5.40337 48.2297 5.57235 48.0993 5.73521C47.2865 6.75008 46.48 7.77018 45.6625 8.78134C45.0723 9.51128 44.5904 10.2984 44.2501 11.1778C43.9259 12.0158 43.5755 12.8428 43.4728 13.8026C43.3142 13.7283 43.225 13.6937 43.1428 13.6468C41.7802 12.8689 40.3193 12.6314 38.7695 12.8131C38.1646 12.884 37.5496 12.9351 36.9426 12.9113C35.6175 12.8593 34.4407 12.376 33.4062 11.5481C33.2914 11.456 33.1649 11.3303 33.032 11.4576C32.9585 11.5281 32.9611 11.6833 32.9415 11.8023C32.9342 11.8461 32.9639 11.895 32.9726 11.9424C33.1665 13.001 33.3933 14.055 33.546 15.1196C33.8198 17.0296 34.4605 18.7874 35.5388 20.392C36.4046 21.6799 37.5122 22.6678 38.9443 23.2791C39.4515 23.4956 39.9807 23.65 40.5336 23.6345ZM39.7459 23.1244C39.728 23.1246 39.7099 23.0825 39.667 23.0295C39.7671 23.0093 39.8527 22.9776 39.9388 22.9766C40.8963 22.9671 41.5614 22.4638 42.1014 21.7268C42.2997 21.456 42.5259 21.2028 42.7599 20.9617C42.9752 20.7398 43.238 20.5981 43.5959 20.6379C43.0414 21.3967 42.4097 22.0361 41.7021 22.6017C41.1279 23.0604 40.4423 23.1176 39.7459 23.1244ZM40.9842 23.2187C41.1107 23.1312 41.1554 23.0882 41.2091 23.0651C41.6252 22.885 41.9877 22.6419 42.3018 22.3035C42.681 21.8951 43.1046 21.5281 43.5104 21.1445C43.5567 21.1007 43.6086 21.0614 43.6624 21.0271C44.0164 20.8015 44.3062 20.833 44.5885 21.1431C44.7486 21.319 44.8896 21.512 45.049 21.7095C44.9784 21.7554 44.9416 21.7996 44.9037 21.8007C44.3639 21.8162 43.9302 22.0063 43.5611 22.4307C42.9015 23.1892 41.9956 23.2377 40.9842 23.2187ZM43.6254 22.9551C44.277 22.1268 44.6531 21.9654 45.314 22.1573C45.0605 22.24 44.8313 22.2832 44.6346 22.3877C44.4245 22.4994 44.2539 22.6834 44.0492 22.8082C43.9243 22.8842 43.7678 22.9079 43.6254 22.9551ZM45.4678 23.4331C45.1778 23.2199 44.8348 23.0786 44.4727 22.883C44.5505 22.8203 44.6179 22.7514 44.6979 22.7035C45.3149 22.3338 45.5374 22.3932 45.8401 23.0342C46.0125 23.3992 46.1554 23.7781 46.2471 24.1807C45.9895 23.9286 45.7555 23.6447 45.4678 23.4331ZM46.9391 24.8415C46.7928 24.4219 46.6514 24.0006 46.4979 23.5837C46.4152 23.359 46.3299 23.1317 46.2148 22.9228C45.8439 22.2486 45.9765 22.3551 46.4577 21.8132C46.9397 22.7823 47.0164 23.7992 46.9391 24.8416L46.9391 24.8415ZM45.1279 19.0932C45.4575 19.6397 45.7466 20.1142 46.0306 20.5915C46.1565 20.803 46.0933 20.9963 45.935 21.1578C45.791 21.3046 45.6304 21.4352 45.4436 21.603C45.2244 21.3315 45.0148 21.0724 44.8061 20.8125C44.7862 20.7878 44.7567 20.7579 44.7577 20.7313C44.7767 20.1981 44.7485 19.6534 45.1279 19.0932ZM44.5064 20.3627C44.1948 19.7966 44.234 19.3421 44.6508 18.4444C44.7445 18.5901 44.8274 18.7191 44.9277 18.875C44.547 19.2866 44.5886 19.8201 44.5064 20.3627ZM46.2957 21.209C46.3143 21.6604 46.0574 21.8648 45.8415 22.1083C45.6579 21.7945 45.7347 21.6353 46.2957 21.209ZM46.5523 20.9481C47.0409 21.207 47.1754 21.635 47.3295 22.0305C47.6318 22.8064 47.7724 23.6018 47.3993 24.4271C47.4582 23.2083 46.9708 22.1164 46.5523 20.9481ZM53.1937 17.8092C52.7849 19.6705 51.9015 21.2471 50.4382 22.4968C49.6449 23.1743 48.8981 23.9065 48.1291 24.6126C48.0524 24.683 47.9674 24.7442 47.8197 24.8635C47.9667 23.6456 48.1171 22.5189 48.7652 21.5432C48.9751 21.227 49.2406 20.9196 49.5472 20.7018C50.1579 20.2679 50.6629 19.7354 51.1537 19.1828C51.7351 18.5283 52.4432 18.0273 53.1923 17.4586C53.1942 17.6141 53.2143 17.716 53.1939 17.8091L53.1937 17.8092ZM47.6137 21.9192C47.2789 21.4555 46.9378 20.9831 46.6272 20.5531C47.5129 20.8865 47.7505 21.2704 47.6137 21.9192ZM52.983 17.2415C52.2966 17.7657 51.6613 18.3574 51.0111 18.9282C50.3263 19.5294 49.649 20.1392 48.9609 20.752C48.9208 20.7023 48.8956 20.6782 48.8987 20.6738C49.5948 19.6783 50.2405 18.6569 51.3053 17.9649C51.9 17.5783 52.3715 17.0015 52.8967 16.5087C53.0476 16.3673 53.1927 16.2196 53.3404 16.0747C53.4143 16.5452 53.3936 16.9278 52.983 17.2415ZM53.438 15.6282C53.4358 15.7161 53.3221 15.8108 53.2442 15.8859C52.758 16.3539 52.2856 16.8387 51.7727 17.2757C51.3466 17.6387 50.8748 17.9496 50.4157 18.2728C49.9897 18.5729 49.6363 18.9371 49.3433 19.368C49.0027 19.8685 48.6451 20.3573 48.2682 20.889C48.0716 19.5128 48.4195 18.4006 49.4178 17.4861C49.96 16.9893 50.43 16.4142 50.9404 15.8821C51.618 15.176 52.3319 14.5094 53.1637 13.8526C53.3724 14.4641 53.4528 15.04 53.438 15.6282ZM53.0558 13.5013C52.5109 14.0067 52.0006 14.4683 51.5043 14.9443C51.1928 15.2431 50.9011 15.5626 50.6026 15.8748C50.2151 16.2799 49.8306 16.6881 49.4424 17.0926C49.1442 17.4036 48.8426 17.711 48.5032 18.0604C48.7848 17.3847 49.014 16.731 49.3283 16.121C49.499 15.79 49.7737 15.4799 50.072 15.2532C50.9748 14.5674 51.723 13.7338 52.4667 12.8918C52.527 12.8236 52.5945 12.7621 52.7053 12.6506C52.8389 12.9753 52.9511 13.2472 53.0558 13.5013ZM52.6154 12.4097C51.8138 13.2537 51.109 14.1346 50.1924 14.7942C49.3937 15.3688 48.8105 16.0796 48.5461 17.0375C48.508 17.1755 48.4407 17.3063 48.3779 17.4361C48.3602 17.4727 48.3106 17.4938 48.2317 17.5575C48.2099 17.3704 48.1872 17.22 48.1758 17.0686C48.1335 16.5078 48.096 15.9469 48.0547 15.3861C47.9978 14.6162 48.2901 14.0612 49.0253 13.8007C49.6715 13.5716 50.0567 13.1392 50.3592 12.5625C50.5969 12.1093 50.8798 11.6787 51.1581 11.2481C51.251 11.1044 51.3916 10.9915 51.5829 10.7871C51.9537 11.3698 52.277 11.878 52.6154 12.4097ZM48.1861 13.796C48.2337 13.4468 48.4697 13.1825 48.6951 12.9269C49.3506 12.1835 50.0188 11.451 50.6915 10.7227C50.8281 10.5747 51.0052 10.4639 51.188 10.3165C51.2735 10.438 51.3423 10.5352 51.4241 10.6513C50.9437 11.0386 50.6702 11.5458 50.3816 12.0431C50.229 12.3057 50.0886 12.5833 49.8927 12.811C49.7103 13.0231 49.4813 13.2144 49.2367 13.3493C48.91 13.5293 48.5482 13.6458 48.1861 13.796ZM50.9952 10.0159C49.9706 11.1202 48.9677 12.201 47.9254 13.3244C47.8937 12.4675 47.8418 11.6432 47.9045 10.8166C47.9108 10.7328 47.9754 10.6383 48.0396 10.5763C48.4301 10.1988 48.824 9.82456 49.2255 9.45884C49.4934 9.21479 49.7758 8.98664 50.0867 8.72159C50.3893 9.15271 50.7001 9.59542 50.9952 10.0159ZM48.678 6.28894C48.9383 6.79514 49.1615 7.22931 49.4076 7.70794C48.9833 8.11486 48.5821 8.49957 48.1399 8.92372C48.2114 8.03125 48.4298 7.20117 48.678 6.28894ZM47.4659 7.26906C47.6985 6.988 47.9109 6.69024 48.1324 6.40002C48.1581 6.41161 48.1839 6.42328 48.2097 6.43487C48.0482 7.07401 47.8867 7.71301 47.71 8.4124C47.6061 8.30177 47.5523 8.24869 47.5033 8.19143C47.0634 7.67915 47.1343 7.66964 47.4659 7.26906ZM46.7509 8.28556C46.7278 8.19266 46.8481 8.06401 46.9446 7.86443C47.1636 8.35141 47.6051 8.59614 47.5728 9.15799C47.1536 8.95321 46.8544 8.70124 46.7509 8.28556ZM49.5264 8.15378C49.7342 8.29446 49.7579 8.4729 49.6449 8.68093C49.6075 8.74967 49.5568 8.81627 49.498 8.86766C49.0181 9.28634 48.5348 9.70132 47.9822 10.178C48.3001 9.27762 48.76 8.61301 49.5264 8.15378ZM45.903 9.14996C46.0785 8.92663 46.2633 8.71056 46.4255 8.51343C46.685 8.76317 46.9261 8.98026 47.1472 9.21586C47.2304 9.30456 47.2891 9.43071 47.3204 9.54986C47.3729 9.75004 47.4229 9.95826 47.4239 10.1635C47.4284 11.0576 47.415 11.9518 47.4079 12.8459C47.3718 12.856 47.3358 12.8659 47.2995 12.8758C47.3399 11.923 46.8249 11.3014 46.1277 10.7857C46.0516 10.7295 45.9896 10.6521 45.9279 10.5787C45.4042 9.95718 45.4002 9.789 45.9026 9.14971L45.903 9.14996ZM44.9989 10.5026C45.048 10.4124 45.1293 10.2626 45.2309 10.0756C45.3181 10.1836 45.3737 10.2518 45.4288 10.3208C45.6765 10.6311 45.8912 10.9767 46.1793 11.2433C46.6061 11.6382 46.918 12.0689 47.0232 12.6542C47.0986 13.0734 47.2362 13.4815 47.3452 13.8912C46.9856 13.5192 46.6307 13.1747 46.3038 12.8051C46.1263 12.6044 45.9783 12.3714 45.8491 12.1355C45.5653 11.6172 45.302 11.0878 44.9989 10.5026ZM44.0665 13.3101C44.0136 13.2041 43.9699 13.0592 43.9984 12.9525C44.1833 12.2568 44.4285 11.583 44.816 10.9061C44.935 11.0535 45.0451 11.1596 45.1181 11.2873C45.237 11.4954 45.3466 11.7113 45.4332 11.9345C45.6354 12.4561 45.9719 12.8611 46.3921 13.2302C47.0912 13.8445 47.4596 14.6597 47.6014 15.5683C47.679 16.0647 47.6965 16.5704 47.7412 17.072C47.7102 17.0821 47.6794 17.0923 47.6485 17.1025C47.3401 16.7204 47.0206 16.3468 46.726 15.9545C46.3177 15.4108 45.862 14.93 45.2577 14.5947C44.7257 14.2995 44.3367 13.8532 44.0663 13.3102L44.0665 13.3101ZM43.9199 13.6342C43.9998 13.7332 44.072 13.8095 44.1291 13.8955C44.4271 14.3451 44.7971 14.7156 45.2738 14.9768C45.963 15.3546 46.3499 16.02 46.8764 16.6577C46.0435 16.349 45.469 15.861 44.9901 15.2293C44.791 14.9669 44.497 14.7753 44.241 14.5577C43.8527 14.2279 43.7952 14.0829 43.9199 13.6342ZM44.6413 15.3099C44.7864 15.4809 44.9188 15.6627 45.0592 15.8377C45.3448 16.1934 45.6842 16.4791 46.1124 16.6526C46.6551 16.8726 47.0247 17.282 47.3471 17.756C47.74 18.3336 47.9274 18.949 47.8489 19.6528C47.8015 20.077 47.8095 20.5076 47.7904 20.9877C47.5151 20.763 47.3327 20.5775 47.1177 20.4449C46.0039 19.7583 45.2272 18.7896 44.6535 17.6267C44.2246 16.7569 43.8327 15.8854 43.8248 14.8924C43.8243 14.8297 43.8263 14.7672 43.8284 14.6254C44.1629 14.8331 44.4203 15.0494 44.6413 15.3099ZM43.299 14.1318C43.3804 14.1703 43.4339 14.2989 43.4674 14.397C43.4974 14.4845 43.4867 14.5877 43.4859 14.6838C43.4777 15.6838 43.7056 16.6274 44.187 17.5029C44.3791 17.8524 44.4097 18.193 44.2632 18.5604C44.0798 19.0206 43.9403 19.4907 44.0448 20.066C43.6712 19.8017 43.331 19.6149 43.0608 19.3555C42.7603 19.0672 42.6521 18.6394 42.6802 18.2469C42.7442 17.3526 42.4909 16.5357 42.2167 15.7102C41.9932 15.0371 41.8662 14.3455 42.0083 13.5703C42.4576 13.7626 42.8842 13.9349 43.299 14.1318ZM41.7727 13.7064C41.6315 14.5734 41.855 15.3917 42.1021 16.2063C42.2896 16.824 42.4136 17.4462 42.3397 18.0981C42.3172 18.2951 42.3484 18.4982 42.3575 18.7734C41.9678 18.2376 41.8417 17.7024 41.8387 17.1336C41.8361 16.6147 41.7836 16.1063 41.5222 15.6482C41.1129 14.9305 41.1147 14.2196 41.5334 13.4933C41.697 13.4537 41.806 13.5011 41.7727 13.7064ZM40.115 13.2085C40.4891 13.2609 40.8779 13.3154 41.3108 13.3761C41.2482 13.5668 41.2215 13.7073 41.1588 13.8293C40.8858 14.3592 40.9094 14.8956 41.1717 15.4047C41.4454 15.9361 41.534 16.4844 41.5438 17.0753C41.5513 17.5324 41.6716 17.9876 41.7516 18.508C41.2894 18.1905 40.8256 17.9061 40.4066 17.5663C40.2505 17.4398 40.1616 17.194 40.1071 16.9855C39.9584 16.4166 39.9709 15.8349 40.1218 15.2694C40.2088 14.9433 40.1999 14.6448 40.1 14.3269C39.9241 13.7666 39.9343 13.649 40.1147 13.2087L40.115 13.2085ZM39.444 13.2656C39.4565 13.2256 39.575 13.2189 39.6112 13.2074C39.6867 13.6666 39.7591 14.0982 39.8274 14.5304C39.8448 14.6404 39.8622 14.753 39.8568 14.8634C39.8246 15.5157 39.7857 16.1677 39.7421 16.943C39.639 16.7021 39.5457 16.5638 39.5216 16.4143C39.4025 15.6728 39.2672 14.9309 39.2113 14.1837C39.1889 13.8841 39.3489 13.5684 39.4437 13.2656L39.444 13.2656ZM39.1071 13.2464C38.7601 14.5131 39.0472 15.6924 39.3916 16.9078C39.2747 16.8472 39.1615 16.803 39.0642 16.7359C38.4975 16.3458 37.9317 15.9543 37.3727 15.5537C37.2585 15.4719 37.1472 15.3637 37.0798 15.2425C36.7703 14.6851 36.6426 14.0905 36.7297 13.4423C37.546 13.3751 38.3215 13.3112 39.1071 13.2464ZM36.4669 13.5263C36.5035 13.8428 36.5128 14.1625 36.5075 14.4883C36.355 14.1465 36.1711 13.8131 36.2243 13.304C36.3471 13.4125 36.4596 13.4632 36.4669 13.5263ZM34.1076 12.6459C34.4031 12.773 34.6945 12.9111 34.9955 13.0239C35.3082 13.1412 35.6302 13.2336 35.9249 13.3294C36.0532 13.8116 36.1673 14.2401 36.3008 14.741C35.4402 14.1426 34.6987 13.4957 34.1076 12.6459ZM33.6114 12.9322C34.1804 13.5096 34.675 14.0115 35.2329 14.5778C34.7296 14.4865 34.297 14.4081 33.8588 14.3287C33.7764 13.8638 33.7025 13.4464 33.6114 12.9322ZM33.9985 14.6006C34.3777 14.6676 34.7569 14.7346 35.1359 14.8018C34.7136 14.9457 34.31 14.9838 33.9609 14.6972C33.9733 14.665 33.9859 14.6326 33.9985 14.6006ZM34.5559 17.5062C34.2797 16.734 34.1134 15.9351 33.973 15.072C34.7341 15.1676 35.453 15.2547 36.1709 15.3512C36.277 15.3655 36.3908 15.4043 36.4777 15.465C37.0832 15.8873 37.6831 16.3178 38.2834 16.7476C38.3314 16.7821 38.3689 16.831 38.4009 16.8626C37.91 17.0572 37.4435 17.2642 36.9614 17.4244C36.6921 17.5138 36.397 17.527 36.1132 17.5718C35.7678 17.6263 35.4185 17.6617 35.0773 17.7354C34.7421 17.8081 34.6597 17.797 34.5557 17.5064L34.5559 17.5062ZM34.8238 18.0818C35.238 17.9138 35.6598 17.8084 36.1185 17.851C36.5578 17.8918 36.9759 17.7842 37.3684 17.5777C37.7939 17.3539 38.2435 17.2159 38.7199 17.183C38.7302 17.2156 38.7406 17.2481 38.7509 17.2807C38.4086 17.3927 38.0666 17.5056 37.7238 17.6162C37.6174 17.6506 37.5057 17.6704 37.4021 17.7113C36.8243 17.9392 36.2482 18.1716 35.6715 18.4022C35.6121 18.4261 35.5517 18.4476 35.4921 18.4709C35.1715 18.5959 34.8509 18.5763 34.8238 18.0818ZM35.6611 19.7778C35.5172 19.4761 35.334 19.1931 35.1515 18.8718C35.5135 18.737 35.8334 18.6088 36.1593 18.4988C36.5683 18.3606 36.9615 18.1895 37.3573 18.0187C37.9353 17.7693 38.5755 17.6593 39.1947 17.5129C39.3173 17.484 39.4883 17.5225 39.5963 17.5925C40.3484 18.0795 41.0898 18.5831 41.8347 19.0813C41.2344 19.1199 40.6916 19.2231 40.1645 19.4438C40.0084 19.5092 39.8157 19.5376 39.6485 19.5161C39.2279 19.4614 38.8573 19.5817 38.4885 19.7567C38.1411 19.9217 37.7919 20.0858 37.4322 20.2198C37.225 20.297 36.9971 20.3374 36.7756 20.353C36.2953 20.3869 35.8914 20.2605 35.6611 19.7778ZM36.2836 20.6289C36.4021 20.6289 36.5044 20.6194 36.6045 20.6304C37.1166 20.6868 37.5889 20.5314 38.0558 20.3572C38.2504 20.2845 38.4385 20.1925 38.6241 20.0983C39.0001 19.9074 39.3717 19.777 39.8181 19.8395C40.0701 19.8747 40.3561 19.7748 40.6078 19.6833C41.16 19.4826 41.7222 19.4219 42.3763 19.4519C42.0733 19.6768 41.8147 19.8111 41.498 19.7924C41.119 19.77 40.7778 19.8898 40.4281 20.0216C39.9358 20.207 39.4223 20.3353 38.9223 20.5012C38.5744 20.6165 38.2245 20.7336 37.8926 20.887C37.5269 21.056 37.1688 21.1076 36.773 21.0179C36.549 20.967 36.3874 20.8798 36.2833 20.6289L36.2836 20.6289ZM36.8177 21.1965C37.3786 21.3106 37.8011 21.1357 38.2243 20.9372C38.4394 20.8364 38.6721 20.7395 38.9044 20.7158C39.4724 20.6579 39.9973 20.4742 40.5105 20.2462C40.8391 20.1003 41.1691 20.008 41.5346 20.0609C41.8189 20.1022 42.0714 20.005 42.2918 19.8229C42.5332 19.6234 42.7661 19.5979 43.0181 19.8215C43.1944 19.9777 43.398 20.1031 43.6709 20.3017C43.1739 20.3797 42.7972 20.5189 42.5112 20.8269C42.3266 21.0258 42.1274 21.2154 41.9701 21.4347C41.4731 22.1275 40.8811 22.6462 39.9722 22.6835C39.8041 22.6904 39.6169 22.7543 39.4795 22.8505C39.3044 22.973 39.1624 22.9528 38.9932 22.872C38.2196 22.5032 37.5182 22.0336 36.9272 21.4082C36.8961 21.3753 36.883 21.3252 36.8177 21.1965Z" fill="#F3EEE5" fill-opacity="0.5"/>
</g>
<path d="M28.933 37V31.136H30.605C31.0423 31.136 31.4263 31.192 31.757 31.304C32.0877 31.4107 32.3437 31.5893 32.525 31.84C32.7063 32.0907 32.797 32.4293 32.797 32.856C32.797 33.2667 32.7063 33.6053 32.525 33.872C32.3437 34.1387 32.0903 34.3387 31.765 34.472C31.4397 34.6 31.0637 34.664 30.637 34.664H29.669V37H28.933ZM29.669 34.064H30.541C31.053 34.064 31.4343 33.968 31.685 33.776C31.9357 33.584 32.061 33.2773 32.061 32.856C32.061 32.4293 31.9303 32.136 31.669 31.976C31.413 31.816 31.0263 31.736 30.509 31.736H29.669V34.064ZM34.5173 37.104C34.2773 37.104 34.0613 37.056 33.8693 36.96C33.6773 36.864 33.5253 36.7253 33.4133 36.544C33.3066 36.3573 33.2533 36.1333 33.2533 35.872C33.2533 35.3973 33.4639 35.0347 33.8853 34.784C34.3119 34.528 34.9893 34.3493 35.9173 34.248C35.9173 34.0613 35.8906 33.8853 35.8373 33.72C35.7893 33.5493 35.7013 33.4133 35.5733 33.312C35.4453 33.2053 35.2613 33.152 35.0213 33.152C34.7706 33.152 34.5333 33.2027 34.3093 33.304C34.0906 33.4 33.8933 33.504 33.7173 33.616L33.4373 33.112C33.5706 33.0267 33.7253 32.9413 33.9013 32.856C34.0773 32.7653 34.2693 32.6907 34.4773 32.632C34.6853 32.5733 34.9066 32.544 35.1413 32.544C35.4933 32.544 35.7786 32.6187 35.9973 32.768C36.2213 32.9173 36.3839 33.1253 36.4853 33.392C36.5919 33.6533 36.6453 33.9653 36.6453 34.328V37H36.0453L35.9813 36.48H35.9573C35.7546 36.6507 35.5306 36.7973 35.2853 36.92C35.0453 37.0427 34.7893 37.104 34.5173 37.104ZM34.7253 36.512C34.9333 36.512 35.1306 36.464 35.3173 36.368C35.5093 36.272 35.7093 36.1307 35.9173 35.944V34.736C35.4319 34.7893 35.0453 34.8667 34.7573 34.968C34.4693 35.064 34.2639 35.184 34.1413 35.328C34.0186 35.4667 33.9572 35.632 33.9572 35.824C33.9572 36.0747 34.0319 36.2533 34.1813 36.36C34.3306 36.4613 34.5119 36.512 34.7253 36.512ZM39.4891 39C39.1371 39 38.8251 38.9547 38.5531 38.864C38.2811 38.7733 38.0704 38.64 37.9211 38.464C37.7717 38.2933 37.6971 38.0853 37.6971 37.84C37.6971 37.6533 37.7531 37.472 37.8651 37.296C37.9771 37.1253 38.1344 36.9787 38.3371 36.856V36.816C38.2251 36.7467 38.1317 36.6533 38.0571 36.536C37.9824 36.4187 37.9451 36.2747 37.9451 36.104C37.9451 35.9227 37.9957 35.7627 38.0971 35.624C38.2037 35.4853 38.3131 35.376 38.4251 35.296V35.264C38.2811 35.152 38.1504 34.9947 38.0331 34.792C37.9157 34.5893 37.8571 34.3573 37.8571 34.096C37.8571 33.776 37.9317 33.5013 38.0811 33.272C38.2304 33.0373 38.4277 32.8587 38.6731 32.736C38.9237 32.608 39.1931 32.544 39.4811 32.544C39.6091 32.544 39.7237 32.5547 39.8251 32.576C39.9317 32.5973 40.0224 32.624 40.0971 32.656H41.6091V33.216H40.7211C40.8277 33.3173 40.9131 33.4453 40.9771 33.6C41.0411 33.7547 41.0731 33.9253 41.0731 34.112C41.0731 34.4213 41.0011 34.6907 40.8571 34.92C40.7184 35.144 40.5291 35.3173 40.2891 35.44C40.0491 35.5627 39.7797 35.624 39.4811 35.624C39.3797 35.624 39.2704 35.6107 39.1531 35.584C39.0411 35.5573 38.9371 35.52 38.8411 35.472C38.7611 35.536 38.6944 35.608 38.6411 35.688C38.5877 35.768 38.5611 35.8693 38.5611 35.992C38.5611 36.1253 38.6144 36.2373 38.7211 36.328C38.8277 36.4187 39.0277 36.464 39.3211 36.464H40.1771C40.6784 36.464 41.0544 36.5467 41.3051 36.712C41.5611 36.8773 41.6891 37.1387 41.6891 37.496C41.6891 37.7627 41.5984 38.0107 41.4171 38.24C41.2357 38.4693 40.9797 38.6533 40.6491 38.792C40.3237 38.9307 39.9371 39 39.4891 39ZM39.4811 35.128C39.6517 35.128 39.8064 35.0853 39.9451 35C40.0891 34.9147 40.2011 34.7947 40.2811 34.64C40.3664 34.4853 40.4091 34.304 40.4091 34.096C40.4091 33.8827 40.3664 33.7013 40.2811 33.552C40.2011 33.3973 40.0917 33.28 39.9531 33.2C39.8144 33.12 39.6571 33.08 39.4811 33.08C39.3157 33.08 39.1611 33.12 39.0171 33.2C38.8784 33.28 38.7664 33.3947 38.6811 33.544C38.6011 33.6933 38.5611 33.8773 38.5611 34.096C38.5611 34.304 38.6037 34.4853 38.6891 34.64C38.7744 34.7947 38.8864 34.9147 39.0251 35C39.1637 35.0853 39.3157 35.128 39.4811 35.128ZM39.5931 38.496C39.8704 38.496 40.1104 38.4533 40.3131 38.368C40.5211 38.2827 40.6811 38.1707 40.7931 38.032C40.9104 37.8987 40.9691 37.76 40.9691 37.616C40.9691 37.408 40.8944 37.264 40.7451 37.184C40.5957 37.104 40.3771 37.064 40.0891 37.064H39.3371C39.2571 37.064 39.1664 37.0587 39.0651 37.048C38.9691 37.0427 38.8731 37.0267 38.7771 37C38.6224 37.1067 38.5104 37.224 38.4411 37.352C38.3717 37.4853 38.3371 37.6133 38.3371 37.736C38.3371 37.9653 38.4464 38.1493 38.6651 38.288C38.8891 38.4267 39.1984 38.496 39.5931 38.496ZM44.1601 37.104C43.7707 37.104 43.4187 37.0133 43.1041 36.832C42.7894 36.6507 42.5387 36.392 42.3521 36.056C42.1707 35.7147 42.0801 35.3067 42.0801 34.832C42.0801 34.4747 42.1334 34.1573 42.2401 33.88C42.3467 33.5973 42.4907 33.3573 42.6721 33.16C42.8587 32.9573 43.0694 32.8053 43.3041 32.704C43.5387 32.5973 43.7787 32.544 44.0241 32.544C44.3974 32.544 44.7121 32.6267 44.9681 32.792C45.2241 32.9573 45.4187 33.1947 45.5521 33.504C45.6907 33.808 45.7601 34.168 45.7601 34.584C45.7601 34.664 45.7574 34.7387 45.7521 34.808C45.7467 34.8773 45.7387 34.9413 45.7281 35H42.8001C42.8161 35.3093 42.8854 35.5787 43.0081 35.808C43.1361 36.032 43.3041 36.208 43.5121 36.336C43.7201 36.4587 43.9627 36.52 44.2401 36.52C44.4534 36.52 44.6454 36.4907 44.8161 36.432C44.9921 36.368 45.1627 36.2827 45.3281 36.176L45.5841 36.664C45.3974 36.7867 45.1867 36.8907 44.9521 36.976C44.7174 37.0613 44.4534 37.104 44.1601 37.104ZM42.7921 34.48H45.1201C45.1201 34.0427 45.0241 33.7093 44.8321 33.48C44.6454 33.2453 44.3814 33.128 44.0401 33.128C43.8374 33.128 43.6454 33.1813 43.4641 33.288C43.2881 33.3947 43.1387 33.5467 43.0161 33.744C42.8987 33.9413 42.8241 34.1867 42.7921 34.48ZM49.9068 37V31.76H48.1308V31.136H52.4268V31.76H50.6508V37H49.9068ZM54.4865 37.104C54.1345 37.104 53.8038 37.016 53.4945 36.84C53.1852 36.6587 52.9372 36.4 52.7505 36.064C52.5692 35.7227 52.4785 35.312 52.4785 34.832C52.4785 34.3467 52.5692 33.936 52.7505 33.6C52.9372 33.2587 53.1852 32.9973 53.4945 32.816C53.8038 32.6347 54.1345 32.544 54.4865 32.544C54.7532 32.544 55.0065 32.5947 55.2465 32.696C55.4918 32.7973 55.7078 32.9467 55.8945 33.144C56.0812 33.3413 56.2278 33.5813 56.3345 33.864C56.4412 34.1467 56.4945 34.4693 56.4945 34.832C56.4945 35.312 56.4012 35.7227 56.2145 36.064C56.0278 36.4 55.7825 36.6587 55.4785 36.84C55.1745 37.016 54.8438 37.104 54.4865 37.104ZM54.4865 36.496C54.7372 36.496 54.9558 36.4267 55.1425 36.288C55.3345 36.1493 55.4838 35.9547 55.5905 35.704C55.6972 35.4533 55.7505 35.1627 55.7505 34.832C55.7505 34.496 55.6972 34.2027 55.5905 33.952C55.4838 33.7013 55.3345 33.5067 55.1425 33.368C54.9558 33.2293 54.7372 33.16 54.4865 33.16C54.2358 33.16 54.0145 33.2293 53.8225 33.368C53.6358 33.5067 53.4892 33.7013 53.3825 33.952C53.2812 34.2027 53.2305 34.496 53.2305 34.832C53.2305 35.1627 53.2812 35.4533 53.3825 35.704C53.4892 35.9547 53.6358 36.1493 53.8225 36.288C54.0145 36.4267 54.2358 36.496 54.4865 36.496ZM57.6501 38.832V32.656H58.2501L58.3221 33.16H58.3381C58.5354 32.9947 58.7514 32.8507 58.9861 32.728C59.2261 32.6053 59.4714 32.544 59.7221 32.544C60.0954 32.544 60.4101 32.6373 60.6661 32.824C60.9274 33.0053 61.1221 33.2613 61.2501 33.592C61.3834 33.9227 61.4501 34.312 61.4501 34.76C61.4501 35.256 61.3594 35.68 61.1781 36.032C61.0021 36.3787 60.7701 36.6453 60.4821 36.832C60.1994 37.0133 59.8927 37.104 59.5621 37.104C59.3647 37.104 59.1647 37.0613 58.9621 36.976C58.7594 36.8853 58.5594 36.76 58.3621 36.6L58.3861 37.36V38.832H57.6501ZM59.4421 36.488C59.6821 36.488 59.8954 36.4213 60.0821 36.288C60.2741 36.1493 60.4234 35.952 60.5301 35.696C60.6367 35.4347 60.6901 35.1253 60.6901 34.768C60.6901 34.448 60.6501 34.168 60.5701 33.928C60.4954 33.6827 60.3754 33.4933 60.2101 33.36C60.0447 33.2267 59.8207 33.16 59.5381 33.16C59.3567 33.16 59.1701 33.2107 58.9781 33.312C58.7914 33.4133 58.5941 33.56 58.3861 33.752V36.04C58.5781 36.2053 58.7674 36.3227 58.9541 36.392C59.1407 36.456 59.3034 36.488 59.4421 36.488Z" fill="#F3EEE5" fill-opacity="0.5"/>
</g>
<defs>
<clipPath id="clip0_574_13843">
<rect width="90" height="45" fill="white"/>
</clipPath>
<clipPath id="clip1_574_13843">
<rect width="28" height="28" fill="white" transform="translate(30)"/>
</clipPath>
</defs>
</svg>
