<svg width="90" height="90" viewBox="0 0 90 90" fill="none" xmlns="http://www.w3.org/2000/svg">
<g clip-path="url(#clip0_574_13843)">
<circle cx="45" cy="90" r="45" fill="#3E5E4E"/>
<g clip-path="url(#clip1_574_13843)">
<path d="M40.5336 68.6345C41.1744 68.6168 41.8149 68.56 42.4535 68.4995C42.8848 68.4588 43.3121 68.3776 43.7422 68.3235C44.5368 68.2234 45.2174 68.4892 45.7401 69.0692C46.395 69.796 46.8113 70.6279 46.6046 71.6581C46.5623 71.869 46.5552 72.0872 46.5307 72.3131C46.8864 72.2722 46.8803 72.2682 47.0324 72.0463C47.3046 71.6492 47.5442 71.2196 47.8693 70.8708C48.7992 69.873 49.736 68.8784 50.7242 67.9392C52.0922 66.6393 53.0614 65.1317 53.4083 63.2589C53.5254 62.6269 53.6205 61.9909 53.7278 61.357C53.8508 60.6314 53.7892 59.918 53.6162 59.2061C53.3327 58.0391 52.8179 56.9673 52.2059 55.9506C51.6267 54.9887 50.9526 54.0842 50.3358 53.1443C49.7733 52.2868 49.1644 51.451 49.005 50.3928C48.9625 50.1104 48.7228 50.0545 48.5066 50.2602C48.3563 50.4034 48.2297 50.5723 48.0993 50.7352C47.2865 51.7501 46.48 52.7702 45.6625 53.7813C45.0723 54.5113 44.5904 55.2984 44.2501 56.1778C43.9259 57.0158 43.5755 57.8428 43.4728 58.8026C43.3142 58.7283 43.225 58.6937 43.1428 58.6468C41.7802 57.8689 40.3193 57.6314 38.7695 57.8131C38.1646 57.884 37.5496 57.9351 36.9426 57.9113C35.6175 57.8593 34.4407 57.376 33.4062 56.5481C33.2914 56.456 33.1649 56.3303 33.032 56.4576C32.9585 56.5281 32.9611 56.6833 32.9415 56.8023C32.9342 56.8461 32.9639 56.895 32.9726 56.9424C33.1665 58.001 33.3933 59.055 33.546 60.1196C33.8198 62.0296 34.4605 63.7874 35.5388 65.392C36.4046 66.6799 37.5122 67.6678 38.9443 68.2791C39.4515 68.4956 39.9807 68.65 40.5336 68.6345ZM39.7459 68.1244C39.728 68.1246 39.7099 68.0825 39.667 68.0295C39.7671 68.0093 39.8527 67.9776 39.9388 67.9766C40.8963 67.9671 41.5614 67.4638 42.1014 66.7268C42.2997 66.456 42.5259 66.2028 42.7599 65.9617C42.9752 65.7398 43.238 65.5981 43.5959 65.6379C43.0414 66.3967 42.4097 67.0361 41.7021 67.6017C41.1279 68.0604 40.4423 68.1176 39.7459 68.1244ZM40.9842 68.2187C41.1107 68.1312 41.1554 68.0882 41.2091 68.0651C41.6252 67.885 41.9877 67.6419 42.3018 67.3035C42.681 66.8951 43.1046 66.5281 43.5104 66.1445C43.5567 66.1007 43.6086 66.0614 43.6624 66.0271C44.0164 65.8015 44.3062 65.833 44.5885 66.1431C44.7486 66.319 44.8896 66.512 45.049 66.7095C44.9784 66.7554 44.9416 66.7996 44.9037 66.8007C44.3639 66.8162 43.9302 67.0063 43.5611 67.4307C42.9015 68.1892 41.9956 68.2377 40.9842 68.2187ZM43.6254 67.9551C44.277 67.1268 44.6531 66.9654 45.314 67.1573C45.0605 67.24 44.8313 67.2832 44.6346 67.3877C44.4245 67.4994 44.2539 67.6834 44.0492 67.8082C43.9243 67.8842 43.7678 67.9079 43.6254 67.9551ZM45.4678 68.4331C45.1778 68.2199 44.8348 68.0786 44.4727 67.883C44.5505 67.8203 44.6179 67.7514 44.6979 67.7035C45.3149 67.3338 45.5374 67.3932 45.8401 68.0342C46.0125 68.3992 46.1554 68.7781 46.2471 69.1807C45.9895 68.9286 45.7555 68.6447 45.4678 68.4331ZM46.9391 69.8415C46.7928 69.4219 46.6514 69.0006 46.4979 68.5837C46.4152 68.359 46.3299 68.1317 46.2148 67.9228C45.8439 67.2486 45.9765 67.3551 46.4577 66.8132C46.9397 67.7823 47.0164 68.7992 46.9391 69.8416L46.9391 69.8415ZM45.1279 64.0932C45.4575 64.6397 45.7466 65.1142 46.0306 65.5915C46.1565 65.803 46.0933 65.9963 45.935 66.1578C45.791 66.3046 45.6304 66.4352 45.4436 66.603C45.2244 66.3315 45.0148 66.0724 44.8061 65.8125C44.7862 65.7878 44.7567 65.7579 44.7577 65.7313C44.7767 65.1981 44.7485 64.6534 45.1279 64.0932ZM44.5064 65.3627C44.1948 64.7966 44.234 64.3421 44.6508 63.4444C44.7445 63.5901 44.8274 63.7191 44.9277 63.875C44.547 64.2866 44.5886 64.8201 44.5064 65.3627ZM46.2957 66.209C46.3143 66.6604 46.0574 66.8648 45.8415 67.1083C45.6579 66.7945 45.7347 66.6353 46.2957 66.209ZM46.5523 65.9481C47.0409 66.207 47.1754 66.635 47.3295 67.0305C47.6318 67.8064 47.7724 68.6018 47.3993 69.4271C47.4582 68.2083 46.9708 67.1164 46.5523 65.9481ZM53.1937 62.8092C52.7849 64.6705 51.9015 66.2471 50.4382 67.4968C49.6449 68.1743 48.8981 68.9065 48.1291 69.6126C48.0524 69.683 47.9674 69.7442 47.8197 69.8635C47.9667 68.6456 48.1171 67.5189 48.7652 66.5432C48.9751 66.227 49.2406 65.9196 49.5472 65.7018C50.1579 65.2679 50.6629 64.7354 51.1537 64.1828C51.7351 63.5283 52.4432 63.0273 53.1923 62.4586C53.1942 62.6141 53.2143 62.716 53.1939 62.8091L53.1937 62.8092ZM47.6137 66.9192C47.2789 66.4555 46.9378 65.9831 46.6272 65.5531C47.5129 65.8865 47.7505 66.2704 47.6137 66.9192ZM52.983 62.2415C52.2966 62.7657 51.6613 63.3574 51.0111 63.9282C50.3263 64.5294 49.649 65.1392 48.9609 65.752C48.9208 65.7023 48.8956 65.6782 48.8987 65.6738C49.5948 64.6783 50.2405 63.6569 51.3053 62.9649C51.9 62.5783 52.3715 62.0015 52.8967 61.5087C53.0476 61.3673 53.1927 61.2196 53.3404 61.0747C53.4143 61.5452 53.3936 61.9278 52.983 62.2415ZM53.438 60.6282C53.4358 60.7161 53.3221 60.8108 53.2442 60.8859C52.758 61.3539 52.2856 61.8387 51.7727 62.2757C51.3466 62.6387 50.8748 62.9496 50.4157 63.2728C49.9897 63.5729 49.6363 63.9371 49.3433 64.368C49.0027 64.8685 48.6451 65.3573 48.2682 65.889C48.0716 64.5128 48.4195 63.4006 49.4178 62.4861C49.96 61.9893 50.43 61.4142 50.9404 60.8821C51.618 60.176 52.3319 59.5094 53.1637 58.8526C53.3724 59.4641 53.4528 60.04 53.438 60.6282ZM53.0558 58.5013C52.5109 59.0067 52.0006 59.4683 51.5043 59.9443C51.1928 60.2431 50.9011 60.5626 50.6026 60.8748C50.2151 61.2799 49.8306 61.6881 49.4424 62.0926C49.1442 62.4036 48.8426 62.711 48.5032 63.0604C48.7848 62.3847 49.014 61.731 49.3283 61.121C49.499 60.79 49.7737 60.4799 50.072 60.2532C50.9748 59.5674 51.723 58.7338 52.4667 57.8918C52.527 57.8236 52.5945 57.7621 52.7053 57.6506C52.8389 57.9753 52.9511 58.2472 53.0558 58.5013ZM52.6154 57.4097C51.8138 58.2537 51.109 59.1346 50.1924 59.7942C49.3937 60.3688 48.8105 61.0796 48.5461 62.0375C48.508 62.1755 48.4407 62.3063 48.3779 62.4361C48.3602 62.4727 48.3106 62.4938 48.2317 62.5575C48.2099 62.3704 48.1872 62.22 48.1758 62.0686C48.1335 61.5078 48.096 60.9469 48.0547 60.3861C47.9978 59.6162 48.2901 59.0612 49.0253 58.8007C49.6715 58.5716 50.0567 58.1392 50.3592 57.5625C50.5969 57.1093 50.8798 56.6787 51.1581 56.2481C51.251 56.1044 51.3916 55.9915 51.5829 55.7871C51.9537 56.3698 52.277 56.878 52.6154 57.4097ZM48.1861 58.796C48.2337 58.4468 48.4697 58.1825 48.6951 57.9269C49.3506 57.1835 50.0188 56.451 50.6915 55.7227C50.8281 55.5747 51.0052 55.4639 51.188 55.3165C51.2735 55.438 51.3423 55.5352 51.4241 55.6513C50.9437 56.0386 50.6702 56.5458 50.3816 57.0431C50.229 57.3057 50.0886 57.5833 49.8927 57.811C49.7103 58.0231 49.4813 58.2144 49.2367 58.3493C48.91 58.5293 48.5482 58.6458 48.1861 58.796ZM50.9952 55.0159C49.9706 56.1202 48.9677 57.201 47.9254 58.3244C47.8937 57.4675 47.8418 56.6432 47.9045 55.8166C47.9108 55.7328 47.9754 55.6383 48.0396 55.5763C48.4301 55.1988 48.824 54.8246 49.2255 54.4588C49.4934 54.2148 49.7758 53.9866 50.0867 53.7216C50.3893 54.1527 50.7001 54.5954 50.9952 55.0159ZM48.678 51.2889C48.9383 51.7951 49.1615 52.2293 49.4076 52.7079C48.9833 53.1149 48.5821 53.4996 48.1399 53.9237C48.2114 53.0312 48.4298 52.2012 48.678 51.2889ZM47.4659 52.2691C47.6985 51.988 47.9109 51.6902 48.1324 51.4C48.1581 51.4116 48.1839 51.4233 48.2097 51.4349C48.0482 52.074 47.8867 52.713 47.71 53.4124C47.6061 53.3018 47.5523 53.2487 47.5033 53.1914C47.0634 52.6791 47.1343 52.6696 47.4659 52.2691ZM46.7509 53.2856C46.7278 53.1927 46.8481 53.064 46.9446 52.8644C47.1636 53.3514 47.6051 53.5961 47.5728 54.158C47.1536 53.9532 46.8544 53.7012 46.7509 53.2856ZM49.5264 53.1538C49.7342 53.2945 49.7579 53.4729 49.6449 53.6809C49.6075 53.7497 49.5568 53.8163 49.498 53.8677C49.0181 54.2863 48.5348 54.7013 47.9822 55.178C48.3001 54.2776 48.76 53.613 49.5264 53.1538ZM45.903 54.15C46.0785 53.9266 46.2633 53.7106 46.4255 53.5134C46.685 53.7632 46.9261 53.9803 47.1472 54.2159C47.2304 54.3046 47.2891 54.4307 47.3204 54.5499C47.3729 54.75 47.4229 54.9583 47.4239 55.1635C47.4284 56.0576 47.415 56.9518 47.4079 57.8459C47.3718 57.856 47.3358 57.8659 47.2995 57.8758C47.3399 56.923 46.8249 56.3014 46.1277 55.7857C46.0516 55.7295 45.9896 55.6521 45.9279 55.5787C45.4042 54.9572 45.4002 54.789 45.9026 54.1497L45.903 54.15ZM44.9989 55.5026C45.048 55.4124 45.1293 55.2626 45.2309 55.0756C45.3181 55.1836 45.3737 55.2518 45.4288 55.3208C45.6765 55.6311 45.8912 55.9767 46.1793 56.2433C46.6061 56.6382 46.918 57.0689 47.0232 57.6542C47.0986 58.0734 47.2362 58.4815 47.3452 58.8912C46.9856 58.5192 46.6307 58.1747 46.3038 57.8051C46.1263 57.6044 45.9783 57.3714 45.8491 57.1355C45.5653 56.6172 45.302 56.0878 44.9989 55.5026ZM44.0665 58.3101C44.0136 58.2041 43.9699 58.0592 43.9984 57.9525C44.1833 57.2568 44.4285 56.583 44.816 55.9061C44.935 56.0535 45.0451 56.1596 45.1181 56.2873C45.237 56.4954 45.3466 56.7113 45.4332 56.9345C45.6354 57.4561 45.9719 57.8611 46.3921 58.2302C47.0912 58.8445 47.4596 59.6597 47.6014 60.5683C47.679 61.0647 47.6965 61.5704 47.7412 62.072C47.7102 62.0821 47.6794 62.0923 47.6485 62.1025C47.3401 61.7204 47.0206 61.3468 46.726 60.9545C46.3177 60.4108 45.862 59.93 45.2577 59.5947C44.7257 59.2995 44.3367 58.8532 44.0663 58.3102L44.0665 58.3101ZM43.9199 58.6342C43.9998 58.7332 44.072 58.8095 44.1291 58.8955C44.4271 59.3451 44.7971 59.7156 45.2738 59.9768C45.963 60.3546 46.3499 61.02 46.8764 61.6577C46.0435 61.349 45.469 60.861 44.9901 60.2293C44.791 59.9669 44.497 59.7753 44.241 59.5577C43.8527 59.2279 43.7952 59.0829 43.9199 58.6342ZM44.6413 60.3099C44.7864 60.4809 44.9188 60.6627 45.0592 60.8377C45.3448 61.1934 45.6842 61.4791 46.1124 61.6526C46.6551 61.8726 47.0247 62.282 47.3471 62.756C47.74 63.3336 47.9274 63.949 47.8489 64.6528C47.8015 65.077 47.8095 65.5076 47.7904 65.9877C47.5151 65.763 47.3327 65.5775 47.1177 65.4449C46.0039 64.7583 45.2272 63.7896 44.6535 62.6267C44.2246 61.7569 43.8327 60.8854 43.8248 59.8924C43.8243 59.8297 43.8263 59.7672 43.8284 59.6254C44.1629 59.8331 44.4203 60.0494 44.6413 60.3099ZM43.299 59.1318C43.3804 59.1703 43.4339 59.2989 43.4674 59.397C43.4974 59.4845 43.4867 59.5877 43.4859 59.6838C43.4777 60.6838 43.7056 61.6274 44.187 62.5029C44.3791 62.8524 44.4097 63.193 44.2632 63.5604C44.0798 64.0206 43.9403 64.4907 44.0448 65.066C43.6712 64.8017 43.331 64.6149 43.0608 64.3555C42.7603 64.0672 42.6521 63.6394 42.6802 63.2469C42.7442 62.3526 42.4909 61.5357 42.2167 60.7102C41.9932 60.0371 41.8662 59.3455 42.0083 58.5703C42.4576 58.7626 42.8842 58.9349 43.299 59.1318ZM41.7727 58.7064C41.6315 59.5734 41.855 60.3917 42.1021 61.2063C42.2896 61.824 42.4136 62.4462 42.3397 63.0981C42.3172 63.2951 42.3484 63.4982 42.3575 63.7734C41.9678 63.2376 41.8417 62.7024 41.8387 62.1336C41.8361 61.6147 41.7836 61.1063 41.5222 60.6482C41.1129 59.9305 41.1147 59.2196 41.5334 58.4933C41.697 58.4537 41.806 58.5011 41.7727 58.7064ZM40.115 58.2085C40.4891 58.2609 40.8779 58.3154 41.3108 58.3761C41.2482 58.5668 41.2215 58.7073 41.1588 58.8293C40.8858 59.3592 40.9094 59.8956 41.1717 60.4047C41.4454 60.9361 41.534 61.4844 41.5438 62.0753C41.5513 62.5324 41.6716 62.9876 41.7516 63.508C41.2894 63.1905 40.8256 62.9061 40.4066 62.5663C40.2505 62.4398 40.1616 62.194 40.1071 61.9855C39.9584 61.4166 39.9709 60.8349 40.1218 60.2694C40.2088 59.9433 40.1999 59.6448 40.1 59.3269C39.9241 58.7666 39.9343 58.649 40.1147 58.2087L40.115 58.2085ZM39.444 58.2656C39.4565 58.2256 39.575 58.2189 39.6112 58.2074C39.6867 58.6666 39.7591 59.0982 39.8274 59.5304C39.8448 59.6404 39.8622 59.753 39.8568 59.8634C39.8246 60.5157 39.7857 61.1677 39.7421 61.943C39.639 61.7021 39.5457 61.5638 39.5216 61.4143C39.4025 60.6728 39.2672 59.9309 39.2113 59.1837C39.1889 58.8841 39.3489 58.5684 39.4437 58.2656L39.444 58.2656ZM39.1071 58.2464C38.7601 59.5131 39.0472 60.6924 39.3916 61.9078C39.2747 61.8472 39.1615 61.803 39.0642 61.7359C38.4975 61.3458 37.9317 60.9543 37.3727 60.5537C37.2585 60.4719 37.1472 60.3637 37.0798 60.2425C36.7703 59.6851 36.6426 59.0905 36.7297 58.4423C37.546 58.3751 38.3215 58.3112 39.1071 58.2464ZM36.4669 58.5263C36.5035 58.8428 36.5128 59.1625 36.5075 59.4883C36.355 59.1465 36.1711 58.8131 36.2243 58.304C36.3471 58.4125 36.4596 58.4632 36.4669 58.5263ZM34.1076 57.6459C34.4031 57.773 34.6945 57.9111 34.9955 58.0239C35.3082 58.1412 35.6302 58.2336 35.9249 58.3294C36.0532 58.8116 36.1673 59.2401 36.3008 59.741C35.4402 59.1426 34.6987 58.4957 34.1076 57.6459ZM33.6114 57.9322C34.1804 58.5096 34.675 59.0115 35.2329 59.5778C34.7296 59.4865 34.297 59.4081 33.8588 59.3287C33.7764 58.8638 33.7025 58.4464 33.6114 57.9322ZM33.9985 59.6006C34.3777 59.6676 34.7569 59.7346 35.1359 59.8018C34.7136 59.9457 34.31 59.9838 33.9609 59.6972C33.9733 59.665 33.9859 59.6326 33.9985 59.6006ZM34.5559 62.5062C34.2797 61.734 34.1134 60.9351 33.973 60.072C34.7341 60.1676 35.453 60.2547 36.1709 60.3512C36.277 60.3655 36.3908 60.4043 36.4777 60.465C37.0832 60.8873 37.6831 61.3178 38.2834 61.7476C38.3314 61.7821 38.3689 61.831 38.4009 61.8626C37.91 62.0572 37.4435 62.2642 36.9614 62.4244C36.6921 62.5138 36.397 62.527 36.1132 62.5718C35.7678 62.6263 35.4185 62.6617 35.0773 62.7354C34.7421 62.8081 34.6597 62.797 34.5557 62.5064L34.5559 62.5062ZM34.8238 63.0818C35.238 62.9138 35.6598 62.8084 36.1185 62.851C36.5578 62.8918 36.9759 62.7842 37.3684 62.5777C37.7939 62.3539 38.2435 62.2159 38.7199 62.183C38.7302 62.2156 38.7406 62.2481 38.7509 62.2807C38.4086 62.3927 38.0666 62.5056 37.7238 62.6162C37.6174 62.6506 37.5057 62.6704 37.4021 62.7113C36.8243 62.9392 36.2482 63.1716 35.6715 63.4022C35.6121 63.4261 35.5517 63.4476 35.4921 63.4709C35.1715 63.5959 34.8509 63.5763 34.8238 63.0818ZM35.6611 64.7778C35.5172 64.4761 35.334 64.1931 35.1515 63.8718C35.5135 63.737 35.8334 63.6088 36.1593 63.4988C36.5683 63.3606 36.9615 63.1895 37.3573 63.0187C37.9353 62.7693 38.5755 62.6593 39.1947 62.5129C39.3173 62.484 39.4883 62.5225 39.5963 62.5925C40.3484 63.0795 41.0898 63.5831 41.8347 64.0813C41.2344 64.1199 40.6916 64.2231 40.1645 64.4438C40.0084 64.5092 39.8157 64.5376 39.6485 64.5161C39.2279 64.4614 38.8573 64.5817 38.4885 64.7567C38.1411 64.9217 37.7919 65.0858 37.4322 65.2198C37.225 65.297 36.9971 65.3374 36.7756 65.353C36.2953 65.3869 35.8914 65.2605 35.6611 64.7778ZM36.2836 65.6289C36.4021 65.6289 36.5044 65.6194 36.6045 65.6304C37.1166 65.6868 37.5889 65.5314 38.0558 65.3572C38.2504 65.2845 38.4385 65.1925 38.6241 65.0983C39.0001 64.9074 39.3717 64.777 39.8181 64.8395C40.0701 64.8747 40.3561 64.7748 40.6078 64.6833C41.16 64.4826 41.7222 64.4219 42.3763 64.4519C42.0733 64.6768 41.8147 64.8111 41.498 64.7924C41.119 64.77 40.7778 64.8898 40.4281 65.0216C39.9358 65.207 39.4223 65.3353 38.9223 65.5012C38.5744 65.6165 38.2245 65.7336 37.8926 65.887C37.5269 66.056 37.1688 66.1076 36.773 66.0179C36.549 65.967 36.3874 65.8798 36.2833 65.6289L36.2836 65.6289ZM36.8177 66.1965C37.3786 66.3106 37.8011 66.1357 38.2243 65.9372C38.4394 65.8364 38.6721 65.7395 38.9044 65.7158C39.4724 65.6579 39.9973 65.4742 40.5105 65.2462C40.8391 65.1003 41.1691 65.008 41.5346 65.0609C41.8189 65.1022 42.0714 65.005 42.2918 64.8229C42.5332 64.6234 42.7661 64.5979 43.0181 64.8215C43.1944 64.9777 43.398 65.1031 43.6709 65.3017C43.1739 65.3797 42.7972 65.5189 42.5112 65.8269C42.3266 66.0258 42.1274 66.2154 41.9701 66.4347C41.4731 67.1275 40.8811 67.6462 39.9722 67.6835C39.8041 67.6904 39.6169 67.7543 39.4795 67.8505C39.3044 67.973 39.1624 67.9528 38.9932 67.872C38.2196 67.5032 37.5182 67.0336 36.9272 66.4082C36.8961 66.3753 36.883 66.3252 36.8177 66.1965Z" fill="#F3EEE5" fill-opacity="0.5"/>
</g>
<path d="M28.933 82V76.136H30.605C31.0423 76.136 31.4263 76.192 31.757 76.304C32.0877 76.4107 32.3437 76.5893 32.525 76.84C32.7063 77.0907 32.797 77.4293 32.797 77.856C32.797 78.2667 32.7063 78.6053 32.525 78.872C32.3437 79.1387 32.0903 79.3387 31.765 79.472C31.4397 79.6 31.0637 79.664 30.637 79.664H29.669V82H28.933ZM29.669 79.064H30.541C31.053 79.064 31.4343 78.968 31.685 78.776C31.9357 78.584 32.061 78.2773 32.061 77.856C32.061 77.4293 31.9303 77.136 31.669 76.976C31.413 76.816 31.0263 76.736 30.509 76.736H29.669V79.064ZM34.5173 82.104C34.2773 82.104 34.0613 82.056 33.8693 81.96C33.6773 81.864 33.5253 81.7253 33.4133 81.544C33.3066 81.3573 33.2533 81.1333 33.2533 80.872C33.2533 80.3973 33.4639 80.0347 33.8853 79.784C34.3119 79.528 34.9893 79.3493 35.9173 79.248C35.9173 79.0613 35.8906 78.8853 35.8373 78.72C35.7893 78.5493 35.7013 78.4133 35.5733 78.312C35.4453 78.2053 35.2613 78.152 35.0213 78.152C34.7706 78.152 34.5333 78.2027 34.3093 78.304C34.0906 78.4 33.8933 78.504 33.7173 78.616L33.4373 78.112C33.5706 78.0267 33.7253 77.9413 33.9013 77.856C34.0773 77.7653 34.2693 77.6907 34.4773 77.632C34.6853 77.5733 34.9066 77.544 35.1413 77.544C35.4933 77.544 35.7786 77.6187 35.9973 77.768C36.2213 77.9173 36.3839 78.1253 36.4853 78.392C36.5919 78.6533 36.6453 78.9653 36.6453 79.328V82H36.0453L35.9813 81.48H35.9573C35.7546 81.6507 35.5306 81.7973 35.2853 81.92C35.0453 82.0427 34.7893 82.104 34.5173 82.104ZM34.7253 81.512C34.9333 81.512 35.1306 81.464 35.3173 81.368C35.5093 81.272 35.7093 81.1307 35.9173 80.944V79.736C35.4319 79.7893 35.0453 79.8667 34.7573 79.968C34.4693 80.064 34.2639 80.184 34.1413 80.328C34.0186 80.4667 33.9572 80.632 33.9572 80.824C33.9572 81.0747 34.0319 81.2533 34.1813 81.36C34.3306 81.4613 34.5119 81.512 34.7253 81.512ZM39.4891 84C39.1371 84 38.8251 83.9547 38.5531 83.864C38.2811 83.7733 38.0704 83.64 37.9211 83.464C37.7717 83.2933 37.6971 83.0853 37.6971 82.84C37.6971 82.6533 37.7531 82.472 37.8651 82.296C37.9771 82.1253 38.1344 81.9787 38.3371 81.856V81.816C38.2251 81.7467 38.1317 81.6533 38.0571 81.536C37.9824 81.4187 37.9451 81.2747 37.9451 81.104C37.9451 80.9227 37.9957 80.7627 38.0971 80.624C38.2037 80.4853 38.3131 80.376 38.4251 80.296V80.264C38.2811 80.152 38.1504 79.9947 38.0331 79.792C37.9157 79.5893 37.8571 79.3573 37.8571 79.096C37.8571 78.776 37.9317 78.5013 38.0811 78.272C38.2304 78.0373 38.4277 77.8587 38.6731 77.736C38.9237 77.608 39.1931 77.544 39.4811 77.544C39.6091 77.544 39.7237 77.5547 39.8251 77.576C39.9317 77.5973 40.0224 77.624 40.0971 77.656H41.6091V78.216H40.7211C40.8277 78.3173 40.9131 78.4453 40.9771 78.6C41.0411 78.7547 41.0731 78.9253 41.0731 79.112C41.0731 79.4213 41.0011 79.6907 40.8571 79.92C40.7184 80.144 40.5291 80.3173 40.2891 80.44C40.0491 80.5627 39.7797 80.624 39.4811 80.624C39.3797 80.624 39.2704 80.6107 39.1531 80.584C39.0411 80.5573 38.9371 80.52 38.8411 80.472C38.7611 80.536 38.6944 80.608 38.6411 80.688C38.5877 80.768 38.5611 80.8693 38.5611 80.992C38.5611 81.1253 38.6144 81.2373 38.7211 81.328C38.8277 81.4187 39.0277 81.464 39.3211 81.464H40.1771C40.6784 81.464 41.0544 81.5467 41.3051 81.712C41.5611 81.8773 41.6891 82.1387 41.6891 82.496C41.6891 82.7627 41.5984 83.0107 41.4171 83.24C41.2357 83.4693 40.9797 83.6533 40.6491 83.792C40.3237 83.9307 39.9371 84 39.4891 84ZM39.4811 80.128C39.6517 80.128 39.8064 80.0853 39.9451 80C40.0891 79.9147 40.2011 79.7947 40.2811 79.64C40.3664 79.4853 40.4091 79.304 40.4091 79.096C40.4091 78.8827 40.3664 78.7013 40.2811 78.552C40.2011 78.3973 40.0917 78.28 39.9531 78.2C39.8144 78.12 39.6571 78.08 39.4811 78.08C39.3157 78.08 39.1611 78.12 39.0171 78.2C38.8784 78.28 38.7664 78.3947 38.6811 78.544C38.6011 78.6933 38.5611 78.8773 38.5611 79.096C38.5611 79.304 38.6037 79.4853 38.6891 79.64C38.7744 79.7947 38.8864 79.9147 39.0251 80C39.1637 80.0853 39.3157 80.128 39.4811 80.128ZM39.5931 83.496C39.8704 83.496 40.1104 83.4533 40.3131 83.368C40.5211 83.2827 40.6811 83.1707 40.7931 83.032C40.9104 82.8987 40.9691 82.76 40.9691 82.616C40.9691 82.408 40.8944 82.264 40.7451 82.184C40.5957 82.104 40.3771 82.064 40.0891 82.064H39.3371C39.2571 82.064 39.1664 82.0587 39.0651 82.048C38.9691 82.0427 38.8731 82.0267 38.7771 82C38.6224 82.1067 38.5104 82.224 38.4411 82.352C38.3717 82.4853 38.3371 82.6133 38.3371 82.736C38.3371 82.9653 38.4464 83.1493 38.6651 83.288C38.8891 83.4267 39.1984 83.496 39.5931 83.496ZM44.1601 82.104C43.7707 82.104 43.4187 82.0133 43.1041 81.832C42.7894 81.6507 42.5387 81.392 42.3521 81.056C42.1707 80.7147 42.0801 80.3067 42.0801 79.832C42.0801 79.4747 42.1334 79.1573 42.2401 78.88C42.3467 78.5973 42.4907 78.3573 42.6721 78.16C42.8587 77.9573 43.0694 77.8053 43.3041 77.704C43.5387 77.5973 43.7787 77.544 44.0241 77.544C44.3974 77.544 44.7121 77.6267 44.9681 77.792C45.2241 77.9573 45.4187 78.1947 45.5521 78.504C45.6907 78.808 45.7601 79.168 45.7601 79.584C45.7601 79.664 45.7574 79.7387 45.7521 79.808C45.7467 79.8773 45.7387 79.9413 45.7281 80H42.8001C42.8161 80.3093 42.8854 80.5787 43.0081 80.808C43.1361 81.032 43.3041 81.208 43.5121 81.336C43.7201 81.4587 43.9627 81.52 44.2401 81.52C44.4534 81.52 44.6454 81.4907 44.8161 81.432C44.9921 81.368 45.1627 81.2827 45.3281 81.176L45.5841 81.664C45.3974 81.7867 45.1867 81.8907 44.9521 81.976C44.7174 82.0613 44.4534 82.104 44.1601 82.104ZM42.7921 79.48H45.1201C45.1201 79.0427 45.0241 78.7093 44.8321 78.48C44.6454 78.2453 44.3814 78.128 44.0401 78.128C43.8374 78.128 43.6454 78.1813 43.4641 78.288C43.2881 78.3947 43.1387 78.5467 43.0161 78.744C42.8987 78.9413 42.8241 79.1867 42.7921 79.48ZM49.9068 82V76.76H48.1308V76.136H52.4268V76.76H50.6508V82H49.9068ZM54.4865 82.104C54.1345 82.104 53.8038 82.016 53.4945 81.84C53.1852 81.6587 52.9372 81.4 52.7505 81.064C52.5692 80.7227 52.4785 80.312 52.4785 79.832C52.4785 79.3467 52.5692 78.936 52.7505 78.6C52.9372 78.2587 53.1852 77.9973 53.4945 77.816C53.8038 77.6347 54.1345 77.544 54.4865 77.544C54.7532 77.544 55.0065 77.5947 55.2465 77.696C55.4918 77.7973 55.7078 77.9467 55.8945 78.144C56.0812 78.3413 56.2278 78.5813 56.3345 78.864C56.4412 79.1467 56.4945 79.4693 56.4945 79.832C56.4945 80.312 56.4012 80.7227 56.2145 81.064C56.0278 81.4 55.7825 81.6587 55.4785 81.84C55.1745 82.016 54.8438 82.104 54.4865 82.104ZM54.4865 81.496C54.7372 81.496 54.9558 81.4267 55.1425 81.288C55.3345 81.1493 55.4838 80.9547 55.5905 80.704C55.6972 80.4533 55.7505 80.1627 55.7505 79.832C55.7505 79.496 55.6972 79.2027 55.5905 78.952C55.4838 78.7013 55.3345 78.5067 55.1425 78.368C54.9558 78.2293 54.7372 78.16 54.4865 78.16C54.2358 78.16 54.0145 78.2293 53.8225 78.368C53.6358 78.5067 53.4892 78.7013 53.3825 78.952C53.2812 79.2027 53.2305 79.496 53.2305 79.832C53.2305 80.1627 53.2812 80.4533 53.3825 80.704C53.4892 80.9547 53.6358 81.1493 53.8225 81.288C54.0145 81.4267 54.2358 81.496 54.4865 81.496ZM57.6501 83.832V77.656H58.2501L58.3221 78.16H58.3381C58.5354 77.9947 58.7514 77.8507 58.9861 77.728C59.2261 77.6053 59.4714 77.544 59.7221 77.544C60.0954 77.544 60.4101 77.6373 60.6661 77.824C60.9274 78.0053 61.1221 78.2613 61.2501 78.592C61.3834 78.9227 61.4501 79.312 61.4501 79.76C61.4501 80.256 61.3594 80.68 61.1781 81.032C61.0021 81.3787 60.7701 81.6453 60.4821 81.832C60.1994 82.0133 59.8927 82.104 59.5621 82.104C59.3647 82.104 59.1647 82.0613 58.9621 81.976C58.7594 81.8853 58.5594 81.76 58.3621 81.6L58.3861 82.36V83.832H57.6501ZM59.4421 81.488C59.6821 81.488 59.8954 81.4213 60.0821 81.288C60.2741 81.1493 60.4234 80.952 60.5301 80.696C60.6367 80.4347 60.6901 80.1253 60.6901 79.768C60.6901 79.448 60.6501 79.168 60.5701 78.928C60.4954 78.6827 60.3754 78.4933 60.2101 78.36C60.0447 78.2267 59.8207 78.16 59.5381 78.16C59.3567 78.16 59.1701 78.2107 58.9781 78.312C58.7914 78.4133 58.5941 78.56 58.3861 78.752V81.04C58.5781 81.2053 58.7674 81.3227 58.9541 81.392C59.1407 81.456 59.3034 81.488 59.4421 81.488Z" fill="#F3EEE5" fill-opacity="0.5"/>
</g>
<defs>
<clipPath id="clip0_574_13843">
<rect width="90" height="90" fill="white"/>
</clipPath>
<clipPath id="clip1_574_13843">
<rect width="28" height="28" fill="white" transform="translate(30 45)"/>
</clipPath>
</defs>
</svg>
