<svg width="180" height="180" viewBox="0 0 180 180" fill="none" xmlns="http://www.w3.org/2000/svg">
<g clip-path="url(#clip0_552_12599)">
<circle cx="90" cy="180" r="90" fill="#3E5E4E"/>
<g clip-path="url(#clip1_552_12599)">
<path d="M81.0671 137.27C82.3488 137.234 83.6297 137.121 84.907 137C85.7695 136.918 86.6242 136.756 87.4845 136.647C89.0737 136.447 90.4348 136.979 91.4803 138.139C92.7901 139.592 93.6226 141.256 93.2093 143.317C93.1246 143.738 93.1105 144.175 93.0613 144.627C93.7728 144.545 93.7606 144.537 94.0648 144.093C94.6092 143.299 95.0883 142.44 95.7386 141.742C97.5983 139.747 99.4721 137.757 101.448 135.879C104.184 133.279 106.123 130.264 106.817 126.518C107.051 125.254 107.241 123.982 107.456 122.715C107.702 121.263 107.578 119.836 107.232 118.413C106.665 116.079 105.636 113.935 104.412 111.902C103.253 109.978 101.905 108.169 100.672 106.289C99.5465 104.574 98.3288 102.903 98.01 100.786C97.925 100.221 97.4456 100.109 97.0132 100.521C96.7125 100.807 96.4595 101.145 96.1986 101.471C94.5729 103.501 92.9601 105.541 91.3249 107.563C90.1446 109.023 89.1808 110.597 88.5003 112.356C87.8517 114.032 87.1511 115.686 86.9457 117.606C86.6284 117.457 86.4501 117.388 86.2856 117.294C83.5604 115.738 80.6385 115.263 77.5391 115.627C76.3292 115.769 75.0992 115.871 73.8852 115.823C71.235 115.719 68.8815 114.753 66.8125 113.097C66.5827 112.913 66.3298 112.661 66.0639 112.916C65.9169 113.057 65.9223 113.367 65.883 113.605C65.8685 113.693 65.9278 113.791 65.9452 113.885C66.333 116.002 66.7867 118.11 67.0919 120.24C67.6396 124.06 68.9211 127.575 71.0775 130.784C72.8092 133.36 75.0244 135.336 77.8887 136.559C78.9029 136.992 79.9615 137.301 81.0671 137.27ZM79.4918 136.249C79.4559 136.25 79.4198 136.165 79.334 136.06C79.5342 136.019 79.7054 135.956 79.8776 135.954C81.7925 135.935 83.1228 134.928 84.2028 133.454C84.5995 132.912 85.0518 132.406 85.5197 131.924C85.9504 131.48 86.476 131.197 87.1918 131.276C86.0828 132.794 84.8194 134.073 83.4043 135.204C82.2559 136.121 80.8847 136.236 79.4918 136.249ZM81.9684 136.438C82.2213 136.263 82.3109 136.177 82.4181 136.131C83.2505 135.77 83.9754 135.284 84.6035 134.607C85.362 133.791 86.2092 133.057 87.0207 132.289C87.1135 132.202 87.2172 132.123 87.3247 132.055C88.0328 131.603 88.6124 131.667 89.1771 132.287C89.4972 132.638 89.7791 133.024 90.098 133.419C89.9568 133.511 89.8831 133.6 89.8074 133.602C88.7278 133.633 87.8605 134.013 87.1223 134.862C85.8031 136.379 83.9912 136.476 81.9684 136.438ZM87.2509 135.911C88.5541 134.254 89.3062 133.931 90.628 134.315C90.1209 134.481 89.6626 134.567 89.2692 134.776C88.8491 134.999 88.5078 135.367 88.0983 135.617C87.8487 135.769 87.5356 135.816 87.2509 135.911ZM90.9356 136.867C90.3557 136.44 89.6696 136.158 88.9455 135.766C89.1011 135.641 89.2358 135.503 89.3959 135.407C90.6298 134.668 91.0747 134.787 91.6801 136.069C92.025 136.799 92.3108 137.557 92.4942 138.362C91.979 137.858 91.511 137.29 90.9356 136.867ZM93.8783 139.683C93.5856 138.844 93.3027 138.002 92.9959 137.168C92.8305 136.718 92.6598 136.264 92.4297 135.846C91.6878 134.498 91.953 134.711 92.9154 133.627C93.8795 135.565 94.0327 137.599 93.8781 139.684L93.8783 139.683ZM90.2558 128.187C90.9151 129.28 91.4933 130.229 92.0613 131.184C92.313 131.607 92.1865 131.993 91.8699 132.316C91.5819 132.61 91.2609 132.871 90.8871 133.207C90.4489 132.664 90.0297 132.145 89.6122 131.626C89.5724 131.576 89.5134 131.516 89.5154 131.463C89.5533 130.397 89.497 129.307 90.2558 128.187ZM89.0127 130.726C88.3896 129.594 88.468 128.685 89.3017 126.889C89.4889 127.181 89.6548 127.439 89.8553 127.751C89.094 128.574 89.1771 129.641 89.0127 130.726ZM92.5914 132.418C92.6285 133.321 92.1148 133.73 91.6829 134.217C91.3158 133.589 91.4693 133.271 92.5914 132.418ZM93.1047 131.897C94.0818 132.415 94.3509 133.271 94.6591 134.061C95.2636 135.613 95.5449 137.204 94.7986 138.855C94.9165 136.417 93.9416 134.233 93.1047 131.897ZM106.387 125.619C105.57 129.341 103.803 132.495 100.876 134.994C99.2898 136.349 97.7962 137.813 96.2582 139.226C96.1048 139.366 95.9348 139.489 95.6394 139.727C95.9334 137.292 96.2341 135.038 97.5303 133.087C97.9503 132.454 98.4813 131.84 99.0945 131.404C100.316 130.536 101.326 129.471 102.307 128.366C103.47 127.057 104.886 126.055 106.385 124.918C106.388 125.229 106.429 125.433 106.388 125.619L106.387 125.619ZM95.2275 133.839C94.5578 132.911 93.8755 131.967 93.2543 131.107C95.0257 131.774 95.5011 132.541 95.2275 133.839ZM105.966 124.483C104.593 125.532 103.323 126.715 102.022 127.857C100.653 129.059 99.298 130.279 97.9219 131.504C97.8415 131.405 97.7912 131.357 97.7973 131.348C99.1897 129.357 100.481 127.314 102.611 125.93C103.8 125.157 104.743 124.004 105.793 123.018C106.095 122.735 106.385 122.44 106.681 122.15C106.829 123.091 106.787 123.856 105.966 124.483ZM106.876 121.257C106.872 121.433 106.644 121.622 106.488 121.772C105.516 122.708 104.571 123.678 103.545 124.552C102.693 125.278 101.75 125.9 100.831 126.546C99.9794 127.146 99.2727 127.875 98.6866 128.736C98.0055 129.737 97.2902 130.715 96.5363 131.778C96.1432 129.026 96.8391 126.802 98.8355 124.973C99.9201 123.979 100.86 122.829 101.881 121.765C103.236 120.352 104.664 119.019 106.327 117.706C106.745 118.929 106.906 120.08 106.876 121.257ZM106.112 117.003C105.022 118.014 104.001 118.937 103.009 119.889C102.386 120.487 101.802 121.126 101.205 121.75C100.43 122.56 99.6611 123.377 98.8849 124.186C98.2884 124.808 97.6853 125.422 97.0064 126.121C97.5695 124.77 98.0279 123.462 98.6567 122.243C98.9979 121.58 99.5474 120.96 100.144 120.507C101.95 119.135 103.446 117.468 104.933 115.784C105.054 115.648 105.189 115.525 105.411 115.302C105.678 115.951 105.902 116.495 106.112 117.003ZM105.231 114.82C103.628 116.508 102.218 118.27 100.385 119.589C98.7873 120.738 97.621 122.16 97.0921 124.075C97.0161 124.351 96.8814 124.613 96.7557 124.873C96.7204 124.946 96.6213 124.988 96.4633 125.115C96.4197 124.741 96.3744 124.44 96.3516 124.138C96.267 123.016 96.1921 121.894 96.1094 120.773C95.9957 119.233 96.5802 118.123 98.0505 117.602C99.343 117.144 100.113 116.279 100.718 115.125C101.194 114.219 101.76 113.358 102.316 112.497C102.502 112.209 102.783 111.984 103.166 111.575C103.907 112.74 104.554 113.757 105.231 114.82ZM96.3722 117.592C96.4673 116.894 96.9394 116.365 97.3902 115.854C98.7012 114.367 100.038 112.903 101.383 111.446C101.656 111.15 102.01 110.928 102.376 110.633C102.547 110.876 102.685 111.071 102.848 111.303C101.887 112.078 101.34 113.092 100.763 114.087C100.458 114.612 100.177 115.167 99.7855 115.623C99.4206 116.047 98.9626 116.429 98.4735 116.699C97.82 117.059 97.0963 117.292 96.3722 117.592ZM101.99 110.032C99.9413 112.241 97.9354 114.402 95.8508 116.649C95.7874 114.935 95.6837 113.287 95.8089 111.634C95.8217 111.466 95.9507 111.277 96.0792 111.153C96.8602 110.398 97.6479 109.65 98.4511 108.918C98.9868 108.43 99.5517 107.974 100.173 107.444C100.779 108.306 101.4 109.191 101.99 110.032ZM97.3561 102.578C97.8766 103.591 98.323 104.459 98.8151 105.416C97.9667 106.23 97.1642 107 96.2798 107.848C96.4228 106.063 96.8597 104.403 97.3561 102.578ZM94.9318 104.539C95.3971 103.976 95.8218 103.381 96.2647 102.801C96.3162 102.824 96.3679 102.847 96.4193 102.87C96.0963 104.149 95.7735 105.427 95.42 106.825C95.2121 106.604 95.1047 106.498 95.0066 106.383C94.1269 105.359 94.2686 105.34 94.9318 104.539ZM93.5018 106.572C93.4557 106.386 93.6963 106.129 93.8891 105.729C94.3271 106.703 95.2101 107.193 95.1455 108.316C94.3073 107.907 93.7088 107.403 93.5018 106.572ZM99.0528 106.308C99.4684 106.589 99.5159 106.946 99.2899 107.362C99.2151 107.5 99.1136 107.633 98.996 107.736C98.0362 108.573 97.0695 109.403 95.9645 110.356C96.6003 108.556 97.52 107.227 99.0528 106.308ZM91.806 108.3C92.1571 107.854 92.5266 107.422 92.8509 107.027C93.3699 107.527 93.8522 107.961 94.2943 108.432C94.4608 108.61 94.5782 108.862 94.6409 109.1C94.7457 109.501 94.8459 109.917 94.8479 110.327C94.8568 112.116 94.8299 113.904 94.8157 115.692C94.7436 115.712 94.6715 115.732 94.5991 115.752C94.6798 113.846 93.6498 112.603 92.2554 111.572C92.1032 111.459 91.9793 111.305 91.8558 111.158C90.8083 109.915 90.8004 109.578 91.8052 108.3L91.806 108.3ZM89.9979 111.006C90.0959 110.825 90.2586 110.526 90.4618 110.152C90.6362 110.368 90.7474 110.504 90.8575 110.642C91.3531 111.263 91.7824 111.954 92.3586 112.487C93.2121 113.277 93.8359 114.138 94.0465 115.309C94.1972 116.147 94.4723 116.963 94.6904 117.783C93.9712 117.039 93.2613 116.35 92.6076 115.611C92.2525 115.209 91.9567 114.743 91.6982 114.271C91.1306 113.235 90.604 112.176 89.9979 111.006ZM88.133 116.621C88.0272 116.409 87.9399 116.119 87.9967 115.905C88.3665 114.514 88.857 113.166 89.632 111.813C89.87 112.107 90.0903 112.32 90.2363 112.575C90.474 112.991 90.6933 113.423 90.8664 113.869C91.2709 114.913 91.9439 115.723 92.7841 116.461C94.1825 117.689 94.9192 119.32 95.2028 121.137C95.358 122.13 95.3931 123.141 95.4824 124.145C95.4205 124.165 95.3589 124.185 95.2969 124.205C94.6803 123.441 94.0412 122.694 93.4521 121.909C92.6354 120.822 91.7239 119.86 90.5155 119.19C89.4515 118.599 88.6734 117.707 88.1325 116.621L88.133 116.621ZM87.8397 117.269C87.9996 117.467 88.144 117.619 88.2582 117.792C88.8541 118.691 89.5942 119.432 90.5476 119.954C91.9259 120.71 92.6998 122.04 93.7528 123.316C92.0871 122.699 90.938 121.723 89.9802 120.459C89.5821 119.934 88.994 119.551 88.482 119.116C87.7054 118.456 87.5905 118.166 87.8397 117.269ZM89.2827 120.62C89.5727 120.962 89.8377 121.326 90.1185 121.676C90.6896 122.387 91.3685 122.959 92.2247 123.306C93.3101 123.746 94.0494 124.564 94.6942 125.512C95.4801 126.668 95.8549 127.899 95.6978 129.306C95.603 130.155 95.619 131.016 95.5808 131.976C95.0303 131.526 94.6653 131.155 94.2354 130.89C92.0077 129.517 90.4545 127.58 89.307 125.254C88.4491 123.514 87.6655 121.771 87.6496 119.785C87.6486 119.66 87.6525 119.535 87.6567 119.251C88.3259 119.667 88.8406 120.099 89.2827 120.62ZM86.5981 118.264C86.7607 118.341 86.8678 118.598 86.9347 118.794C86.9948 118.97 86.9735 119.176 86.9717 119.368C86.9554 121.368 87.4112 123.255 88.374 125.006C88.7583 125.705 88.8195 126.386 88.5264 127.121C88.1595 128.042 87.8806 128.982 88.0897 130.132C87.3424 129.604 86.6621 129.23 86.1216 128.712C85.5206 128.135 85.3043 127.279 85.3605 126.494C85.4884 124.706 84.9818 123.072 84.4334 121.421C83.9863 120.075 83.7324 118.692 84.0166 117.141C84.9153 117.526 85.7684 117.87 86.5981 118.264ZM83.5453 117.413C83.263 119.147 83.71 120.784 84.2042 122.413C84.5792 123.648 84.8272 124.893 84.6793 126.197C84.6344 126.591 84.6968 126.997 84.7149 127.547C83.9356 126.476 83.6833 125.405 83.6774 124.268C83.6721 123.23 83.5672 122.213 83.0445 121.297C82.2259 119.861 82.2293 118.44 83.0669 116.987C83.3941 116.908 83.6121 117.003 83.5453 117.413ZM80.2299 116.417C80.9783 116.522 81.7557 116.631 82.6215 116.753C82.4964 117.134 82.4431 117.415 82.3176 117.659C81.7716 118.719 81.8189 119.792 82.3433 120.81C82.8907 121.873 83.0681 122.969 83.0876 124.151C83.1025 125.065 83.3433 125.976 83.5033 127.017C82.5789 126.382 81.6512 125.813 80.8131 125.133C80.5009 124.88 80.3233 124.389 80.2142 123.972C79.9169 122.834 79.9419 121.67 80.2436 120.539C80.4175 119.887 80.3998 119.29 80.2 118.654C79.8482 117.534 79.8686 117.298 80.2293 116.418L80.2299 116.417ZM78.8879 116.532C78.913 116.452 79.1501 116.438 79.2224 116.415C79.3734 117.334 79.5182 118.197 79.6547 119.061C79.6896 119.281 79.7244 119.507 79.7136 119.727C79.6492 121.032 79.5714 122.336 79.4843 123.887C79.2781 123.405 79.0914 123.128 79.0431 122.829C78.8051 121.346 78.5344 119.862 78.4226 118.368C78.3778 117.769 78.6978 117.137 78.8875 116.532L78.8879 116.532ZM78.2143 116.493C77.5202 119.027 78.0943 121.385 78.7831 123.816C78.5493 123.695 78.3231 123.607 78.1283 123.472C76.995 122.692 75.8634 121.909 74.7454 121.108C74.5169 120.944 74.2943 120.728 74.1596 120.486C73.5407 119.371 73.2852 118.181 73.4595 116.885C75.092 116.751 76.6429 116.623 78.2143 116.493ZM72.9338 117.053C73.0071 117.686 73.0257 118.325 73.015 118.977C72.71 118.294 72.3422 117.627 72.4487 116.608C72.6943 116.825 72.9192 116.927 72.9338 117.053ZM68.2151 115.292C68.8063 115.546 69.389 115.823 69.991 116.048C70.6165 116.283 71.2603 116.468 71.8498 116.659C72.1065 117.624 72.3347 118.481 72.6016 119.482C70.8804 118.286 69.3974 116.992 68.2151 115.292ZM67.2228 115.865C68.3607 117.02 69.3499 118.024 70.4658 119.156C69.4593 118.973 68.5939 118.817 67.7176 118.658C67.5528 117.728 67.405 116.893 67.2228 115.865ZM67.997 119.202C68.7554 119.336 69.5137 119.47 70.2719 119.604C69.4272 119.892 68.6199 119.968 67.9219 119.395C67.9467 119.331 67.9719 119.266 67.997 119.202ZM69.1118 125.013C68.5594 123.468 68.2268 121.871 67.9459 120.144C69.4683 120.336 70.9061 120.51 72.3419 120.703C72.554 120.731 72.7815 120.809 72.9553 120.931C74.1665 121.775 75.3662 122.636 76.5667 123.496C76.6627 123.565 76.7378 123.662 76.8017 123.726C75.82 124.115 74.8871 124.529 73.9227 124.849C73.3841 125.028 72.794 125.054 72.2264 125.144C71.5356 125.253 70.837 125.324 70.1546 125.471C69.4842 125.617 69.3195 125.594 69.1115 125.013L69.1118 125.013ZM69.6476 126.164C70.476 125.828 71.3195 125.617 72.2369 125.702C73.1157 125.784 73.9518 125.569 74.7368 125.156C75.5878 124.708 76.487 124.432 77.4398 124.366C77.4604 124.432 77.4812 124.497 77.5019 124.562C76.8171 124.786 76.1333 125.012 75.4475 125.233C75.2349 125.302 75.0114 125.341 74.8042 125.423C73.6485 125.879 72.4965 126.344 71.343 126.805C71.2242 126.853 71.1035 126.896 70.9842 126.942C70.3431 127.192 69.7018 127.153 69.6476 126.164ZM71.3222 129.556C71.0343 128.953 70.668 128.387 70.303 127.744C71.0271 127.474 71.6667 127.218 72.3185 126.998C73.1366 126.722 73.923 126.379 74.7146 126.038C75.8707 125.539 77.151 125.319 78.3894 125.026C78.6345 124.968 78.9766 125.046 79.1926 125.186C80.6969 126.16 82.1796 127.167 83.6695 128.163C82.4688 128.24 81.3831 128.447 80.3289 128.888C80.0167 129.019 79.6315 129.076 79.297 129.033C78.4558 128.923 77.7146 129.164 76.9771 129.514C76.2823 129.844 75.5838 130.172 74.8644 130.44C74.4501 130.594 73.9942 130.675 73.5512 130.706C72.5907 130.774 71.7828 130.522 71.3222 129.556ZM72.5671 131.258C72.8042 131.258 73.0088 131.239 73.209 131.261C74.2332 131.374 75.1778 131.063 76.1115 130.715C76.5008 130.569 76.877 130.385 77.2482 130.197C78.0001 129.815 78.7433 129.554 79.6362 129.679C80.1401 129.75 80.7123 129.55 81.2157 129.367C82.32 128.966 83.4445 128.844 84.7527 128.904C84.1467 129.354 83.6295 129.623 82.996 129.585C82.2379 129.54 81.5556 129.78 80.8562 130.044C79.8715 130.414 78.8446 130.671 77.8446 131.003C77.1487 131.234 76.4489 131.468 75.7851 131.774C75.0538 132.112 74.3376 132.216 73.5459 132.036C73.098 131.934 72.7748 131.76 72.5667 131.258L72.5671 131.258ZM73.6354 132.394C74.7571 132.622 75.6023 132.272 76.4486 131.875C76.8787 131.673 77.3442 131.48 77.8089 131.432C78.9447 131.316 79.9945 130.949 81.021 130.493C81.6782 130.201 82.3382 130.016 83.0691 130.122C83.6378 130.205 84.1428 130.01 84.5836 129.646C85.0664 129.247 85.5322 129.196 86.0362 129.643C86.3889 129.956 86.796 130.207 87.3419 130.604C86.3478 130.76 85.5944 131.038 85.0225 131.654C84.6532 132.052 84.2548 132.431 83.9402 132.87C82.9462 134.255 81.7623 135.293 79.9445 135.368C79.6082 135.381 79.2337 135.509 78.9589 135.701C78.6088 135.947 78.3249 135.906 77.9864 135.744C76.4392 135.007 75.0364 134.068 73.8543 132.817C73.7922 132.751 73.7661 132.651 73.6354 132.394Z" fill="#F3EEE5" fill-opacity="0.5"/>
</g>
<path d="M57.866 165V153.272H61.21C62.0847 153.272 62.8527 153.384 63.514 153.608C64.1753 153.821 64.6873 154.179 65.05 154.68C65.4127 155.181 65.594 155.859 65.594 156.712C65.594 157.533 65.4127 158.211 65.05 158.744C64.6873 159.277 64.1807 159.677 63.53 159.944C62.8793 160.2 62.1273 160.328 61.274 160.328H59.338V165H57.866ZM59.338 159.128H61.082C62.106 159.128 62.8687 158.936 63.37 158.552C63.8713 158.168 64.122 157.555 64.122 156.712C64.122 155.859 63.8607 155.272 63.338 154.952C62.826 154.632 62.0527 154.472 61.018 154.472H59.338V159.128ZM69.0345 165.208C68.5545 165.208 68.1225 165.112 67.7385 164.92C67.3545 164.728 67.0505 164.451 66.8265 164.088C66.6132 163.715 66.5065 163.267 66.5065 162.744C66.5065 161.795 66.9278 161.069 67.7705 160.568C68.6238 160.056 69.9785 159.699 71.8345 159.496C71.8345 159.123 71.7812 158.771 71.6745 158.44C71.5785 158.099 71.4025 157.827 71.1465 157.624C70.8905 157.411 70.5225 157.304 70.0425 157.304C69.5412 157.304 69.0665 157.405 68.6185 157.608C68.1812 157.8 67.7865 158.008 67.4345 158.232L66.8745 157.224C67.1412 157.053 67.4505 156.883 67.8025 156.712C68.1545 156.531 68.5385 156.381 68.9545 156.264C69.3705 156.147 69.8132 156.088 70.2825 156.088C70.9865 156.088 71.5572 156.237 71.9945 156.536C72.4425 156.835 72.7678 157.251 72.9705 157.784C73.1838 158.307 73.2905 158.931 73.2905 159.656V165H72.0905L71.9625 163.96H71.9145C71.5092 164.301 71.0612 164.595 70.5705 164.84C70.0905 165.085 69.5785 165.208 69.0345 165.208ZM69.4505 164.024C69.8665 164.024 70.2612 163.928 70.6345 163.736C71.0185 163.544 71.4185 163.261 71.8345 162.888V160.472C70.8638 160.579 70.0905 160.733 69.5145 160.936C68.9385 161.128 68.5278 161.368 68.2825 161.656C68.0372 161.933 67.9145 162.264 67.9145 162.648C67.9145 163.149 68.0638 163.507 68.3625 163.72C68.6612 163.923 69.0238 164.024 69.4505 164.024ZM78.9781 169C78.2741 169 77.6501 168.909 77.1061 168.728C76.5621 168.547 76.1408 168.28 75.8421 167.928C75.5435 167.587 75.3941 167.171 75.3941 166.68C75.3941 166.307 75.5061 165.944 75.7301 165.592C75.9541 165.251 76.2688 164.957 76.6741 164.712V164.632C76.4501 164.493 76.2635 164.307 76.1141 164.072C75.9648 163.837 75.8901 163.549 75.8901 163.208C75.8901 162.845 75.9915 162.525 76.1941 162.248C76.4075 161.971 76.6261 161.752 76.8501 161.592V161.528C76.5621 161.304 76.3008 160.989 76.0661 160.584C75.8315 160.179 75.7141 159.715 75.7141 159.192C75.7141 158.552 75.8635 158.003 76.1621 157.544C76.4608 157.075 76.8555 156.717 77.3461 156.472C77.8475 156.216 78.3861 156.088 78.9621 156.088C79.2181 156.088 79.4475 156.109 79.6501 156.152C79.8635 156.195 80.0448 156.248 80.1941 156.312H83.2181V157.432H81.4421C81.6555 157.635 81.8261 157.891 81.9541 158.2C82.0821 158.509 82.1461 158.851 82.1461 159.224C82.1461 159.843 82.0021 160.381 81.7141 160.84C81.4368 161.288 81.0581 161.635 80.5781 161.88C80.0981 162.125 79.5595 162.248 78.9621 162.248C78.7595 162.248 78.5408 162.221 78.3061 162.168C78.0821 162.115 77.8741 162.04 77.6821 161.944C77.5221 162.072 77.3888 162.216 77.2821 162.376C77.1755 162.536 77.1221 162.739 77.1221 162.984C77.1221 163.251 77.2288 163.475 77.4421 163.656C77.6555 163.837 78.0555 163.928 78.6421 163.928H80.3541C81.3568 163.928 82.1088 164.093 82.6101 164.424C83.1221 164.755 83.3781 165.277 83.3781 165.992C83.3781 166.525 83.1968 167.021 82.8341 167.48C82.4715 167.939 81.9595 168.307 81.2981 168.584C80.6475 168.861 79.8741 169 78.9781 169ZM78.9621 161.256C79.3035 161.256 79.6128 161.171 79.8901 161C80.1781 160.829 80.4021 160.589 80.5621 160.28C80.7328 159.971 80.8181 159.608 80.8181 159.192C80.8181 158.765 80.7328 158.403 80.5621 158.104C80.4021 157.795 80.1835 157.56 79.9061 157.4C79.6288 157.24 79.3141 157.16 78.9621 157.16C78.6315 157.16 78.3221 157.24 78.0341 157.4C77.7568 157.56 77.5328 157.789 77.3621 158.088C77.2021 158.387 77.1221 158.755 77.1221 159.192C77.1221 159.608 77.2075 159.971 77.3781 160.28C77.5488 160.589 77.7728 160.829 78.0501 161C78.3275 161.171 78.6315 161.256 78.9621 161.256ZM79.1861 167.992C79.7408 167.992 80.2208 167.907 80.6261 167.736C81.0421 167.565 81.3621 167.341 81.5861 167.064C81.8208 166.797 81.9381 166.52 81.9381 166.232C81.9381 165.816 81.7888 165.528 81.4901 165.368C81.1915 165.208 80.7541 165.128 80.1781 165.128H78.6741C78.5141 165.128 78.3328 165.117 78.1301 165.096C77.9381 165.085 77.7461 165.053 77.5541 165C77.2448 165.213 77.0208 165.448 76.8821 165.704C76.7435 165.971 76.6741 166.227 76.6741 166.472C76.6741 166.931 76.8928 167.299 77.3301 167.576C77.7781 167.853 78.3968 167.992 79.1861 167.992ZM88.3201 165.208C87.5415 165.208 86.8375 165.027 86.2081 164.664C85.5788 164.301 85.0775 163.784 84.7041 163.112C84.3415 162.429 84.1601 161.613 84.1601 160.664C84.1601 159.949 84.2668 159.315 84.4801 158.76C84.6935 158.195 84.9815 157.715 85.3441 157.32C85.7175 156.915 86.1388 156.611 86.6081 156.408C87.0775 156.195 87.5575 156.088 88.0481 156.088C88.7948 156.088 89.4241 156.253 89.9361 156.584C90.4481 156.915 90.8375 157.389 91.1041 158.008C91.3815 158.616 91.5201 159.336 91.5201 160.168C91.5201 160.328 91.5148 160.477 91.5041 160.616C91.4935 160.755 91.4775 160.883 91.4561 161H85.6001C85.6321 161.619 85.7708 162.157 86.0161 162.616C86.2721 163.064 86.6081 163.416 87.0241 163.672C87.4401 163.917 87.9255 164.04 88.4801 164.04C88.9068 164.04 89.2908 163.981 89.6321 163.864C89.9841 163.736 90.3255 163.565 90.6561 163.352L91.1681 164.328C90.7948 164.573 90.3735 164.781 89.9041 164.952C89.4348 165.123 88.9068 165.208 88.3201 165.208ZM85.5841 159.96H90.2401C90.2401 159.085 90.0481 158.419 89.6641 157.96C89.2908 157.491 88.7628 157.256 88.0801 157.256C87.6748 157.256 87.2908 157.363 86.9281 157.576C86.5761 157.789 86.2775 158.093 86.0321 158.488C85.7975 158.883 85.6481 159.373 85.5841 159.96ZM99.8136 165V154.52H96.2616V153.272H104.854V154.52H101.302V165H99.8136ZM108.973 165.208C108.269 165.208 107.608 165.032 106.989 164.68C106.37 164.317 105.874 163.8 105.501 163.128C105.138 162.445 104.957 161.624 104.957 160.664C104.957 159.693 105.138 158.872 105.501 158.2C105.874 157.517 106.37 156.995 106.989 156.632C107.608 156.269 108.269 156.088 108.973 156.088C109.506 156.088 110.013 156.189 110.493 156.392C110.984 156.595 111.416 156.893 111.789 157.288C112.162 157.683 112.456 158.163 112.669 158.728C112.882 159.293 112.989 159.939 112.989 160.664C112.989 161.624 112.802 162.445 112.429 163.128C112.056 163.8 111.565 164.317 110.957 164.68C110.349 165.032 109.688 165.208 108.973 165.208ZM108.973 163.992C109.474 163.992 109.912 163.853 110.285 163.576C110.669 163.299 110.968 162.909 111.181 162.408C111.394 161.907 111.501 161.325 111.501 160.664C111.501 159.992 111.394 159.405 111.181 158.904C110.968 158.403 110.669 158.013 110.285 157.736C109.912 157.459 109.474 157.32 108.973 157.32C108.472 157.32 108.029 157.459 107.645 157.736C107.272 158.013 106.978 158.403 106.765 158.904C106.562 159.405 106.461 159.992 106.461 160.664C106.461 161.325 106.562 161.907 106.765 162.408C106.978 162.909 107.272 163.299 107.645 163.576C108.029 163.853 108.472 163.992 108.973 163.992ZM115.3 168.664V156.312H116.5L116.644 157.32H116.676C117.071 156.989 117.503 156.701 117.972 156.456C118.452 156.211 118.943 156.088 119.444 156.088C120.191 156.088 120.82 156.275 121.332 156.648C121.855 157.011 122.244 157.523 122.5 158.184C122.767 158.845 122.9 159.624 122.9 160.52C122.9 161.512 122.719 162.36 122.356 163.064C122.004 163.757 121.54 164.291 120.964 164.664C120.399 165.027 119.785 165.208 119.124 165.208C118.729 165.208 118.329 165.123 117.924 164.952C117.519 164.771 117.119 164.52 116.724 164.2L116.772 165.72V168.664H115.3ZM118.884 163.976C119.364 163.976 119.791 163.843 120.164 163.576C120.548 163.299 120.847 162.904 121.06 162.392C121.273 161.869 121.38 161.251 121.38 160.536C121.38 159.896 121.3 159.336 121.14 158.856C120.991 158.365 120.751 157.987 120.42 157.72C120.089 157.453 119.641 157.32 119.076 157.32C118.713 157.32 118.34 157.421 117.956 157.624C117.583 157.827 117.188 158.12 116.772 158.504V163.08C117.156 163.411 117.535 163.645 117.908 163.784C118.281 163.912 118.607 163.976 118.884 163.976Z" fill="#F3EEE5" fill-opacity="0.5"/>
</g>
<defs>
<clipPath id="clip0_552_12599">
<rect width="180" height="180" fill="white"/>
</clipPath>
<clipPath id="clip1_552_12599">
<rect width="56" height="56" fill="white" transform="translate(60 90)"/>
</clipPath>
</defs>
</svg>
