<svg width="180" height="90" viewBox="0 0 180 90" fill="none" xmlns="http://www.w3.org/2000/svg">
<g clip-path="url(#clip0_552_12600)">
<circle cx="90" cy="90" r="90" fill="#3E5E4E"/>
<g clip-path="url(#clip1_552_12600)">
<path d="M81.0671 47.2696C82.3488 47.234 83.6297 47.1205 84.907 46.9996C85.7695 46.918 86.6242 46.7556 87.4845 46.6474C89.0737 46.4473 90.4348 46.9788 91.4803 48.139C92.7901 49.5925 93.6226 51.2564 93.2093 53.3168C93.1246 53.7385 93.1105 54.1748 93.0613 54.6267C93.7728 54.545 93.7606 54.5368 94.0648 54.093C94.6092 53.2988 95.0883 52.4398 95.7386 51.742C97.5983 49.7466 99.4721 47.7573 101.448 45.879C104.184 43.2791 106.123 40.2639 106.817 36.5183C107.051 35.2544 107.241 33.9822 107.456 32.7146C107.702 31.2633 107.578 29.8364 107.232 28.4127C106.665 26.0786 105.636 23.935 104.412 21.9017C103.253 19.9779 101.905 18.1689 100.672 16.2891C99.5465 14.5741 98.3288 12.9025 98.01 10.7861C97.925 10.2212 97.4456 10.1094 97.0132 10.521C96.7125 10.8072 96.4595 11.1452 96.1986 11.4709C94.5729 13.5007 92.9601 15.5408 91.3249 17.5632C90.1446 19.023 89.1808 20.5973 88.5003 22.356C87.8517 24.0321 87.1511 25.6861 86.9457 27.6057C86.6284 27.457 86.4501 27.3878 86.2856 27.294C83.5604 25.7383 80.6385 25.2633 77.5391 25.6267C76.3292 25.7685 75.0992 25.8707 73.8852 25.823C71.235 25.719 68.8815 24.7526 66.8125 23.0966C66.5827 22.9126 66.3298 22.6611 66.0639 22.9157C65.9169 23.0567 65.9223 23.367 65.883 23.6051C65.8685 23.6927 65.9278 23.7906 65.9452 23.8854C66.333 26.0025 66.7867 28.1105 67.0919 30.2397C67.6396 34.0597 68.9211 37.5753 71.0775 40.7844C72.8092 43.3602 75.0244 45.3361 77.8887 46.5587C78.9029 46.9916 79.9615 47.3005 81.0671 47.2696ZM79.4918 46.2492C79.4559 46.2496 79.4198 46.1654 79.334 46.0595C79.5342 46.019 79.7054 45.9556 79.8776 45.9538C81.7925 45.9348 83.1228 44.9281 84.2028 43.454C84.5995 42.9125 85.0518 42.4061 85.5197 41.9238C85.9504 41.4801 86.476 41.1968 87.1918 41.2764C86.0828 42.7939 84.8194 44.0728 83.4043 45.2038C82.2559 46.1214 80.8847 46.2357 79.4918 46.2492ZM81.9684 46.4379C82.2213 46.2629 82.3109 46.1769 82.4181 46.1307C83.2505 45.7705 83.9754 45.2842 84.6035 44.6075C85.362 43.7907 86.2092 43.0567 87.0207 42.2895C87.1135 42.2019 87.2172 42.1233 87.3247 42.0546C88.0328 41.6035 88.6124 41.6665 89.1771 42.2868C89.4972 42.6384 89.7791 43.0244 90.098 43.4195C89.9568 43.5113 89.8831 43.5996 89.8074 43.6019C88.7278 43.6329 87.8605 44.0132 87.1223 44.8619C85.8031 46.3789 83.9912 46.4758 81.9684 46.4379ZM87.2509 45.9108C88.5541 44.2541 89.3062 43.9312 90.628 44.315C90.1209 44.4806 89.6626 44.5669 89.2692 44.7759C88.8491 44.9993 88.5078 45.3673 88.0983 45.6168C87.8487 45.7688 87.5356 45.8162 87.2509 45.9108ZM90.9356 46.8668C90.3557 46.4403 89.6696 46.1577 88.9455 45.7665C89.1011 45.6411 89.2358 45.5034 89.3959 45.4075C90.6298 44.6681 91.0747 44.7869 91.6801 46.0689C92.025 46.7988 92.3108 47.5568 92.4942 48.3619C91.979 47.8577 91.511 47.2899 90.9356 46.8668ZM93.8783 49.6834C93.5856 48.8444 93.3027 48.0018 92.9959 47.168C92.8305 46.7184 92.6598 46.264 92.4297 45.8461C91.6878 44.4977 91.953 44.7106 92.9154 43.627C93.8795 45.5651 94.0327 47.599 93.8781 49.6837L93.8783 49.6834ZM90.2558 38.1869C90.9151 39.2798 91.4933 40.2288 92.0613 41.1835C92.313 41.6065 92.1865 41.993 91.8699 42.3161C91.5819 42.6097 91.2609 42.8708 90.8871 43.2066C90.4489 42.6636 90.0297 42.1454 89.6122 41.6255C89.5724 41.5761 89.5134 41.5163 89.5154 41.463C89.5533 40.3968 89.497 39.3072 90.2558 38.1869ZM89.0127 40.726C88.3896 39.5937 88.468 38.6847 89.3017 36.8893C89.4889 37.1807 89.6548 37.4388 89.8553 37.7505C89.094 38.5736 89.1771 39.6407 89.0127 40.726ZM92.5914 42.4185C92.6285 43.3214 92.1148 43.7301 91.6829 44.2172C91.3158 43.5895 91.4693 43.2711 92.5914 42.4185ZM93.1047 41.8968C94.0818 42.4145 94.3509 43.2706 94.6591 44.0614C95.2636 45.6132 95.5449 47.204 94.7986 48.8547C94.9165 46.417 93.9416 44.2332 93.1047 41.8968ZM106.387 35.6189C105.57 39.3414 103.803 42.4947 100.876 44.9942C99.2898 46.3491 97.7962 47.8134 96.2582 49.2256C96.1048 49.3664 95.9348 49.4888 95.6394 49.7275C95.9334 47.2918 96.2341 45.0383 97.5303 43.0868C97.9503 42.4544 98.4813 41.8397 99.0945 41.404C100.316 40.5362 101.326 39.4712 102.307 38.3661C103.47 37.0571 104.886 36.0551 106.385 34.9176C106.388 35.2286 106.429 35.4325 106.388 35.6188L106.387 35.6189ZM95.2275 43.8388C94.5578 42.9114 93.8755 41.9667 93.2543 41.1067C95.0257 41.7735 95.5011 42.5412 95.2275 43.8388ZM105.966 34.4834C104.593 35.5319 103.323 36.7153 102.022 37.857C100.653 39.0592 99.298 40.2788 97.9219 41.5045C97.8415 41.4051 97.7912 41.3569 97.7973 41.3482C99.1897 39.3571 100.481 37.3143 102.611 35.9303C103.8 35.1572 104.743 34.0036 105.793 33.0179C106.095 32.735 106.385 32.4396 106.681 32.1499C106.829 33.0909 106.787 33.8561 105.966 34.4834ZM106.876 31.257C106.872 31.4327 106.644 31.6221 106.488 31.7722C105.516 32.7083 104.571 33.6778 103.545 34.5518C102.693 35.2779 101.75 35.8996 100.831 36.5462C99.9794 37.1462 99.2727 37.8747 98.6866 38.7364C98.0055 39.7374 97.2902 40.7152 96.5363 41.7785C96.1432 39.0262 96.8391 36.8018 98.8355 34.9727C99.9201 33.9791 100.86 32.8288 101.881 31.7648C103.236 30.3524 104.664 29.0193 106.327 27.7057C106.745 28.9286 106.906 30.0804 106.876 31.257ZM106.112 27.0032C105.022 28.014 104.001 28.9371 103.009 29.8891C102.386 30.4867 101.802 31.1256 101.205 31.7501C100.43 32.5603 99.6611 33.3767 98.8849 34.1858C98.2884 34.8076 97.6853 35.4225 97.0064 36.1213C97.5695 34.7699 98.0279 33.4624 98.6567 32.2425C98.9979 31.5804 99.5474 30.9602 100.144 30.5069C101.95 29.1353 103.446 27.4682 104.933 25.784C105.054 25.6477 105.189 25.5247 105.411 25.3016C105.678 25.951 105.902 26.4949 106.112 27.0032ZM105.231 24.82C103.628 26.5079 102.218 28.2697 100.385 29.5889C98.7873 30.7381 97.621 32.1597 97.0921 34.0755C97.0161 34.3514 96.8814 34.6132 96.7557 34.8727C96.7204 34.9459 96.6213 34.988 96.4633 35.1155C96.4197 34.7413 96.3744 34.4405 96.3516 34.1377C96.267 33.0161 96.1921 31.8943 96.1094 30.7726C95.9957 29.233 96.5802 28.1229 98.0505 27.6018C99.343 27.1436 100.113 26.279 100.718 25.1255C101.194 24.219 101.76 23.3579 102.316 22.4967C102.502 22.2094 102.783 21.9835 103.166 21.5746C103.907 22.74 104.554 23.7566 105.231 24.82ZM96.3722 27.5924C96.4673 26.8941 96.9394 26.3654 97.3902 25.8543C98.7012 24.3675 100.038 22.9026 101.383 21.4459C101.656 21.1499 102.01 20.9283 102.376 20.6334C102.547 20.8765 102.685 21.0709 102.848 21.303C101.887 22.0777 101.34 23.0921 100.763 24.0866C100.458 24.6119 100.177 25.1671 99.7855 25.6225C99.4206 26.0466 98.9626 26.4292 98.4735 26.6992C97.82 27.0591 97.0963 27.2921 96.3722 27.5924ZM101.99 20.0323C99.9413 22.2409 97.9354 24.4025 95.8508 26.6493C95.7874 24.9355 95.6837 23.2869 95.8089 21.6337C95.8217 21.4661 95.9507 21.2771 96.0792 21.153C96.8602 20.3981 97.6479 19.6496 98.4511 18.9182C98.9868 18.4301 99.5517 17.9738 100.173 17.4437C100.779 18.3059 101.4 19.1913 101.99 20.0323ZM97.3561 12.5784C97.8766 13.5908 98.323 14.4591 98.8151 15.4164C97.9667 16.2302 97.1642 16.9996 96.2798 17.8479C96.4228 16.063 96.8597 14.4028 97.3561 12.5784ZM94.9318 14.5386C95.3971 13.9765 95.8218 13.381 96.2647 12.8005C96.3162 12.8237 96.3679 12.847 96.4193 12.8702C96.0963 14.1485 95.7735 15.4265 95.42 16.8253C95.2121 16.604 95.1047 16.4979 95.0066 16.3834C94.1269 15.3588 94.2686 15.3398 94.9318 14.5386ZM93.5018 16.5716C93.4557 16.3858 93.6963 16.1285 93.8891 15.7294C94.3271 16.7033 95.2101 17.1928 95.1455 18.3165C94.3073 17.9069 93.7088 17.403 93.5018 16.5716ZM99.0528 16.3081C99.4684 16.5894 99.5159 16.9463 99.2899 17.3624C99.2151 17.4998 99.1136 17.633 98.996 17.7358C98.0362 18.5732 97.0695 19.4031 95.9645 20.3565C96.6003 18.5557 97.52 17.2265 99.0528 16.3081ZM91.806 18.3004C92.1571 17.8538 92.5266 17.4216 92.8509 17.0274C93.3699 17.5268 93.8522 17.961 94.2943 18.4322C94.4608 18.6096 94.5782 18.8619 94.6409 19.1002C94.7457 19.5006 94.8459 19.917 94.8479 20.3274C94.8568 22.1157 94.8299 23.904 94.8157 25.6924C94.7436 25.7125 94.6715 25.7322 94.5991 25.7521C94.6798 23.8465 93.6498 22.6032 92.2554 21.5719C92.1032 21.4594 91.9793 21.3047 91.8558 21.1578C90.8083 19.9148 90.8004 19.5785 91.8052 18.2999L91.806 18.3004ZM89.9979 21.0057C90.0959 20.8253 90.2586 20.5256 90.4618 20.1517C90.6362 20.3678 90.7474 20.5041 90.8575 20.6421C91.3531 21.2626 91.7824 21.9539 92.3586 22.4872C93.2121 23.2768 93.8359 24.1383 94.0465 25.3088C94.1972 26.1472 94.4723 26.9635 94.6904 27.7829C93.9712 27.0389 93.2613 26.3499 92.6076 25.6107C92.2525 25.2093 91.9567 24.7432 91.6982 24.2714C91.1306 23.2349 90.604 22.176 89.9979 21.0057ZM88.133 26.6208C88.0272 26.4086 87.9399 26.1188 87.9967 25.9054C88.3665 24.5142 88.857 23.1665 89.632 21.8128C89.87 22.1074 90.0903 22.3198 90.2363 22.5751C90.474 22.9912 90.6933 23.4231 90.8664 23.8694C91.2709 24.9126 91.9439 25.7227 92.7841 26.4609C94.1825 27.6894 94.9192 29.3199 95.2028 31.1371C95.358 32.13 95.3931 33.1413 95.4824 34.1445C95.4205 34.1647 95.3589 34.1852 95.2969 34.2054C94.6803 33.4413 94.0412 32.6941 93.4521 31.9094C92.6354 30.822 91.7239 29.8604 90.5155 29.1899C89.4515 28.5994 88.6734 27.7068 88.1325 26.6209L88.133 26.6208ZM87.8397 27.2688C87.9996 27.467 88.144 27.6194 88.2582 27.7916C88.8541 28.6906 89.5942 29.4317 90.5476 29.9541C91.9259 30.7096 92.6998 32.0405 93.7528 33.3158C92.0871 32.6985 90.938 31.7225 89.9802 30.4592C89.5821 29.9344 88.994 29.5511 88.482 29.1159C87.7054 28.4562 87.5905 28.1663 87.8397 27.2688ZM89.2827 30.6203C89.5727 30.9623 89.8377 31.3258 90.1185 31.6759C90.6896 32.3873 91.3685 32.9587 92.2247 33.3058C93.3101 33.7456 94.0494 34.5645 94.6942 35.5124C95.4801 36.6677 95.8549 37.8986 95.6978 39.306C95.603 40.1545 95.619 41.0156 95.5808 41.9759C95.0303 41.5265 94.6653 41.1554 94.2354 40.8903C92.0077 39.5171 90.4545 37.5798 89.307 35.2538C88.4491 33.5143 87.6655 31.7712 87.6496 29.7852C87.6486 29.66 87.6525 29.5349 87.6567 29.2512C88.3259 29.6667 88.8406 30.0993 89.2827 30.6203ZM86.5981 28.2641C86.7607 28.3412 86.8678 28.5982 86.9347 28.7945C86.9948 28.9695 86.9735 29.1758 86.9717 29.3682C86.9554 31.3682 87.4112 33.2553 88.374 35.0063C88.7583 35.7053 88.8195 36.3865 88.5264 37.1213C88.1595 38.0417 87.8806 38.9819 88.0897 40.1324C87.3424 39.6039 86.6621 39.2303 86.1216 38.7116C85.5206 38.1349 85.3043 37.2793 85.3605 36.4944C85.4884 34.7057 84.9818 33.0719 84.4334 31.4209C83.9863 30.0747 83.7324 28.6916 84.0166 27.1411C84.9153 27.5258 85.7684 27.8703 86.5981 28.2641ZM83.5453 27.4133C83.263 29.1473 83.71 30.7839 84.2042 32.4132C84.5792 33.6484 84.8272 34.8928 84.6793 36.1966C84.6344 36.5907 84.6968 36.9968 84.7149 37.5473C83.9356 36.4757 83.6833 35.4053 83.6774 34.2677C83.6721 33.2298 83.5672 32.213 83.0445 31.2968C82.2259 29.8615 82.2293 28.4397 83.0669 26.9871C83.3941 26.9079 83.6121 27.0027 83.5453 27.4133ZM80.2299 26.4174C80.9783 26.5223 81.7557 26.6313 82.6215 26.7526C82.4964 27.1341 82.4431 27.4152 82.3176 27.6591C81.7716 28.719 81.8189 29.7918 82.3433 30.8099C82.8907 31.8727 83.0681 32.9693 83.0876 34.1512C83.1025 35.0653 83.3433 35.9757 83.5033 37.0165C82.5789 36.3816 81.6512 35.8126 80.8131 35.1331C80.5009 34.88 80.3233 34.3885 80.2142 33.9715C79.9169 32.8337 79.9419 31.6703 80.2436 30.5392C80.4175 29.8871 80.3998 29.2901 80.2 28.6542C79.8482 27.5337 79.8686 27.2984 80.2293 26.4178L80.2299 26.4174ZM78.8879 26.5317C78.913 26.4518 79.1501 26.4383 79.2224 26.4153C79.3734 27.3336 79.5182 28.1969 79.6547 29.0613C79.6896 29.2812 79.7244 29.5065 79.7136 29.7273C79.6492 31.0319 79.5714 32.3359 79.4843 33.8865C79.2781 33.4046 79.0914 33.1281 79.0431 32.829C78.8051 31.3461 78.5344 29.8624 78.4226 28.3679C78.3778 27.7686 78.6978 27.1372 78.8875 26.5318L78.8879 26.5317ZM78.2143 26.4933C77.5202 29.0268 78.0943 31.3853 78.7831 33.8161C78.5493 33.695 78.3231 33.6065 78.1283 33.4722C76.995 32.6921 75.8634 31.9091 74.7454 31.1079C74.5169 30.9442 74.2943 30.7278 74.1596 30.4855C73.5407 29.3706 73.2852 28.1815 73.4595 26.8852C75.092 26.7507 76.6429 26.6228 78.2143 26.4933ZM72.9338 27.053C73.0071 27.686 73.0257 28.3254 73.015 28.977C72.71 28.2935 72.3422 27.6266 72.4487 26.6084C72.6943 26.8254 72.9192 26.9268 72.9338 27.053ZM68.2151 25.2922C68.8063 25.5464 69.389 25.8227 69.991 26.0482C70.6165 26.2828 71.2603 26.4677 71.8498 26.6592C72.1065 27.6236 72.3347 28.4807 72.6016 29.4824C70.8804 28.2858 69.3974 26.992 68.2151 25.2922ZM67.2228 25.865C68.3607 27.0198 69.3499 28.0235 70.4658 29.156C69.4593 28.9734 68.5939 28.8167 67.7176 28.6579C67.5528 27.7281 67.405 26.8933 67.2228 25.865ZM67.997 29.2016C68.7554 29.3357 69.5137 29.4697 70.2719 29.6041C69.4272 29.8919 68.6199 29.9682 67.9219 29.3949C67.9467 29.3306 67.9719 29.2657 67.997 29.2016ZM69.1118 35.0128C68.5594 33.4684 68.2268 31.8707 67.9459 30.1444C69.4683 30.3356 70.9061 30.5099 72.3419 30.7029C72.554 30.7314 72.7815 30.8091 72.9553 30.9305C74.1665 31.7751 75.3662 32.6362 76.5667 33.4957C76.6627 33.5646 76.7378 33.6624 76.8017 33.7258C75.82 34.1148 74.8871 34.5289 73.9227 34.8493C73.3841 35.0282 72.794 35.0545 72.2264 35.1441C71.5356 35.2531 70.837 35.3238 70.1546 35.4714C69.4842 35.6167 69.3195 35.5945 69.1115 35.0134L69.1118 35.0128ZM69.6476 36.1641C70.476 35.828 71.3195 35.6174 72.2369 35.7025C73.1157 35.7841 73.9518 35.5688 74.7368 35.1559C75.5878 34.7083 76.487 34.4324 77.4398 34.3665C77.4604 34.4317 77.4812 34.4967 77.5019 34.5619C76.8171 34.786 76.1333 35.0118 75.4475 35.233C75.2349 35.3016 75.0114 35.3413 74.8042 35.4231C73.6485 35.8789 72.4965 36.3437 71.343 36.805C71.2242 36.8526 71.1035 36.8957 70.9842 36.9422C70.3431 37.1923 69.7018 37.1531 69.6476 36.1641ZM71.3222 39.5561C71.0343 38.9526 70.668 38.3867 70.303 37.7441C71.0271 37.4744 71.6667 37.2182 72.3185 36.9981C73.1366 36.7217 73.923 36.3795 74.7146 36.038C75.8707 35.539 77.151 35.319 78.3894 35.0263C78.6345 34.9684 78.9766 35.0455 79.1926 35.1856C80.6969 36.1595 82.1796 37.1667 83.6695 38.163C82.4688 38.2404 81.3831 38.4466 80.3289 38.8882C80.0167 39.019 79.6315 39.0758 79.297 39.0326C78.4558 38.9232 77.7146 39.1638 76.9771 39.5139C76.2823 39.8438 75.5838 40.172 74.8644 40.4401C74.4501 40.5945 73.9942 40.6753 73.5512 40.7064C72.5907 40.7744 71.7828 40.5216 71.3222 39.5561ZM72.5671 41.2583C72.8042 41.2582 73.0088 41.2394 73.209 41.2614C74.2332 41.374 75.1778 41.0633 76.1115 40.7149C76.5008 40.5695 76.877 40.3855 77.2482 40.1971C78.0001 39.8154 78.7433 39.5545 79.6362 39.6795C80.1401 39.7499 80.7123 39.5502 81.2157 39.3671C82.32 38.9657 83.4445 38.8443 84.7527 38.9043C84.1467 39.3541 83.6295 39.6227 82.996 39.5853C82.2379 39.5404 81.5556 39.7801 80.8562 40.0437C79.8715 40.4145 78.8446 40.6712 77.8446 41.0028C77.1487 41.2335 76.4489 41.4677 75.7851 41.7745C75.0538 42.1124 74.3376 42.2156 73.5459 42.0362C73.098 41.9345 72.7748 41.7602 72.5667 41.2584L72.5671 41.2583ZM73.6354 42.3935C74.7571 42.6216 75.6023 42.2719 76.4486 41.8749C76.8787 41.6733 77.3442 41.4795 77.8089 41.4321C78.9447 41.3162 79.9945 40.9488 81.021 40.4929C81.6782 40.201 82.3382 40.0164 83.0691 40.1223C83.6378 40.2048 84.1428 40.0104 84.5836 39.6462C85.0664 39.2472 85.5322 39.1963 86.0362 39.6434C86.3889 39.9559 86.796 40.2067 87.3419 40.6039C86.3478 40.7599 85.5944 41.0384 85.0225 41.6544C84.6532 42.0521 84.2548 42.4312 83.9402 42.8698C82.9462 44.2554 81.7623 45.2929 79.9445 45.3676C79.6082 45.3813 79.2337 45.5092 78.9589 45.7015C78.6088 45.9465 78.3249 45.9061 77.9864 45.7444C76.4392 45.0069 75.0364 44.0677 73.8543 42.8168C73.7922 42.751 73.7661 42.6508 73.6354 42.3935Z" fill="#FFFBF3"/>
</g>
<path d="M57.866 75V63.272H61.21C62.0847 63.272 62.8527 63.384 63.514 63.608C64.1753 63.8213 64.6873 64.1787 65.05 64.68C65.4127 65.1813 65.594 65.8587 65.594 66.712C65.594 67.5333 65.4127 68.2107 65.05 68.744C64.6873 69.2773 64.1807 69.6773 63.53 69.944C62.8793 70.2 62.1273 70.328 61.274 70.328H59.338V75H57.866ZM59.338 69.128H61.082C62.106 69.128 62.8687 68.936 63.37 68.552C63.8713 68.168 64.122 67.5547 64.122 66.712C64.122 65.8587 63.8607 65.272 63.338 64.952C62.826 64.632 62.0527 64.472 61.018 64.472H59.338V69.128ZM69.0345 75.208C68.5545 75.208 68.1225 75.112 67.7385 74.92C67.3545 74.728 67.0505 74.4507 66.8265 74.088C66.6132 73.7147 66.5065 73.2667 66.5065 72.744C66.5065 71.7947 66.9278 71.0693 67.7705 70.568C68.6238 70.056 69.9785 69.6987 71.8345 69.496C71.8345 69.1227 71.7812 68.7707 71.6745 68.44C71.5785 68.0987 71.4025 67.8267 71.1465 67.624C70.8905 67.4107 70.5225 67.304 70.0425 67.304C69.5412 67.304 69.0665 67.4053 68.6185 67.608C68.1812 67.8 67.7865 68.008 67.4345 68.232L66.8745 67.224C67.1412 67.0533 67.4505 66.8827 67.8025 66.712C68.1545 66.5307 68.5385 66.3813 68.9545 66.264C69.3705 66.1467 69.8132 66.088 70.2825 66.088C70.9865 66.088 71.5572 66.2373 71.9945 66.536C72.4425 66.8347 72.7678 67.2507 72.9705 67.784C73.1838 68.3067 73.2905 68.9307 73.2905 69.656V75H72.0905L71.9625 73.96H71.9145C71.5092 74.3013 71.0612 74.5947 70.5705 74.84C70.0905 75.0853 69.5785 75.208 69.0345 75.208ZM69.4505 74.024C69.8665 74.024 70.2612 73.928 70.6345 73.736C71.0185 73.544 71.4185 73.2613 71.8345 72.888V70.472C70.8638 70.5787 70.0905 70.7333 69.5145 70.936C68.9385 71.128 68.5278 71.368 68.2825 71.656C68.0372 71.9333 67.9145 72.264 67.9145 72.648C67.9145 73.1493 68.0638 73.5067 68.3625 73.72C68.6612 73.9227 69.0238 74.024 69.4505 74.024ZM78.9781 79C78.2741 79 77.6501 78.9093 77.1061 78.728C76.5621 78.5467 76.1408 78.28 75.8421 77.928C75.5435 77.5867 75.3941 77.1707 75.3941 76.68C75.3941 76.3067 75.5061 75.944 75.7301 75.592C75.9541 75.2507 76.2688 74.9573 76.6741 74.712V74.632C76.4501 74.4933 76.2635 74.3067 76.1141 74.072C75.9648 73.8373 75.8901 73.5493 75.8901 73.208C75.8901 72.8453 75.9915 72.5253 76.1941 72.248C76.4075 71.9707 76.6261 71.752 76.8501 71.592V71.528C76.5621 71.304 76.3008 70.9893 76.0661 70.584C75.8315 70.1787 75.7141 69.7147 75.7141 69.192C75.7141 68.552 75.8635 68.0027 76.1621 67.544C76.4608 67.0747 76.8555 66.7173 77.3461 66.472C77.8475 66.216 78.3861 66.088 78.9621 66.088C79.2181 66.088 79.4475 66.1093 79.6501 66.152C79.8635 66.1947 80.0448 66.248 80.1941 66.312H83.2181V67.432H81.4421C81.6555 67.6347 81.8261 67.8907 81.9541 68.2C82.0821 68.5093 82.1461 68.8507 82.1461 69.224C82.1461 69.8427 82.0021 70.3813 81.7141 70.84C81.4368 71.288 81.0581 71.6347 80.5781 71.88C80.0981 72.1253 79.5595 72.248 78.9621 72.248C78.7595 72.248 78.5408 72.2213 78.3061 72.168C78.0821 72.1147 77.8741 72.04 77.6821 71.944C77.5221 72.072 77.3888 72.216 77.2821 72.376C77.1755 72.536 77.1221 72.7387 77.1221 72.984C77.1221 73.2507 77.2288 73.4747 77.4421 73.656C77.6555 73.8373 78.0555 73.928 78.6421 73.928H80.3541C81.3568 73.928 82.1088 74.0933 82.6101 74.424C83.1221 74.7547 83.3781 75.2773 83.3781 75.992C83.3781 76.5253 83.1968 77.0213 82.8341 77.48C82.4715 77.9387 81.9595 78.3067 81.2981 78.584C80.6475 78.8613 79.8741 79 78.9781 79ZM78.9621 71.256C79.3035 71.256 79.6128 71.1707 79.8901 71C80.1781 70.8293 80.4021 70.5893 80.5621 70.28C80.7328 69.9707 80.8181 69.608 80.8181 69.192C80.8181 68.7653 80.7328 68.4027 80.5621 68.104C80.4021 67.7947 80.1835 67.56 79.9061 67.4C79.6288 67.24 79.3141 67.16 78.9621 67.16C78.6315 67.16 78.3221 67.24 78.0341 67.4C77.7568 67.56 77.5328 67.7893 77.3621 68.088C77.2021 68.3867 77.1221 68.7547 77.1221 69.192C77.1221 69.608 77.2075 69.9707 77.3781 70.28C77.5488 70.5893 77.7728 70.8293 78.0501 71C78.3275 71.1707 78.6315 71.256 78.9621 71.256ZM79.1861 77.992C79.7408 77.992 80.2208 77.9067 80.6261 77.736C81.0421 77.5653 81.3621 77.3413 81.5861 77.064C81.8208 76.7973 81.9381 76.52 81.9381 76.232C81.9381 75.816 81.7888 75.528 81.4901 75.368C81.1915 75.208 80.7541 75.128 80.1781 75.128H78.6741C78.5141 75.128 78.3328 75.1173 78.1301 75.096C77.9381 75.0853 77.7461 75.0533 77.5541 75C77.2448 75.2133 77.0208 75.448 76.8821 75.704C76.7435 75.9707 76.6741 76.2267 76.6741 76.472C76.6741 76.9307 76.8928 77.2987 77.3301 77.576C77.7781 77.8533 78.3968 77.992 79.1861 77.992ZM88.3201 75.208C87.5415 75.208 86.8375 75.0267 86.2081 74.664C85.5788 74.3013 85.0775 73.784 84.7041 73.112C84.3415 72.4293 84.1601 71.6133 84.1601 70.664C84.1601 69.9493 84.2668 69.3147 84.4801 68.76C84.6935 68.1947 84.9815 67.7147 85.3441 67.32C85.7175 66.9147 86.1388 66.6107 86.6081 66.408C87.0775 66.1947 87.5575 66.088 88.0481 66.088C88.7948 66.088 89.4241 66.2533 89.9361 66.584C90.4481 66.9147 90.8375 67.3893 91.1041 68.008C91.3815 68.616 91.5201 69.336 91.5201 70.168C91.5201 70.328 91.5148 70.4773 91.5041 70.616C91.4935 70.7547 91.4775 70.8827 91.4561 71H85.6001C85.6321 71.6187 85.7708 72.1573 86.0161 72.616C86.2721 73.064 86.6081 73.416 87.0241 73.672C87.4401 73.9173 87.9255 74.04 88.4801 74.04C88.9068 74.04 89.2908 73.9813 89.6321 73.864C89.9841 73.736 90.3255 73.5653 90.6561 73.352L91.1681 74.328C90.7948 74.5733 90.3735 74.7813 89.9041 74.952C89.4348 75.1227 88.9068 75.208 88.3201 75.208ZM85.5841 69.96H90.2401C90.2401 69.0853 90.0481 68.4187 89.6641 67.96C89.2908 67.4907 88.7628 67.256 88.0801 67.256C87.6748 67.256 87.2908 67.3627 86.9281 67.576C86.5761 67.7893 86.2775 68.0933 86.0321 68.488C85.7975 68.8827 85.6481 69.3733 85.5841 69.96ZM99.8136 75V64.52H96.2616V63.272H104.854V64.52H101.302V75H99.8136ZM108.973 75.208C108.269 75.208 107.608 75.032 106.989 74.68C106.37 74.3173 105.874 73.8 105.501 73.128C105.138 72.4453 104.957 71.624 104.957 70.664C104.957 69.6933 105.138 68.872 105.501 68.2C105.874 67.5173 106.37 66.9947 106.989 66.632C107.608 66.2693 108.269 66.088 108.973 66.088C109.506 66.088 110.013 66.1893 110.493 66.392C110.984 66.5947 111.416 66.8933 111.789 67.288C112.162 67.6827 112.456 68.1627 112.669 68.728C112.882 69.2933 112.989 69.9387 112.989 70.664C112.989 71.624 112.802 72.4453 112.429 73.128C112.056 73.8 111.565 74.3173 110.957 74.68C110.349 75.032 109.688 75.208 108.973 75.208ZM108.973 73.992C109.474 73.992 109.912 73.8533 110.285 73.576C110.669 73.2987 110.968 72.9093 111.181 72.408C111.394 71.9067 111.501 71.3253 111.501 70.664C111.501 69.992 111.394 69.4053 111.181 68.904C110.968 68.4027 110.669 68.0133 110.285 67.736C109.912 67.4587 109.474 67.32 108.973 67.32C108.472 67.32 108.029 67.4587 107.645 67.736C107.272 68.0133 106.978 68.4027 106.765 68.904C106.562 69.4053 106.461 69.992 106.461 70.664C106.461 71.3253 106.562 71.9067 106.765 72.408C106.978 72.9093 107.272 73.2987 107.645 73.576C108.029 73.8533 108.472 73.992 108.973 73.992ZM115.3 78.664V66.312H116.5L116.644 67.32H116.676C117.071 66.9893 117.503 66.7013 117.972 66.456C118.452 66.2107 118.943 66.088 119.444 66.088C120.191 66.088 120.82 66.2747 121.332 66.648C121.855 67.0107 122.244 67.5227 122.5 68.184C122.767 68.8453 122.9 69.624 122.9 70.52C122.9 71.512 122.719 72.36 122.356 73.064C122.004 73.7573 121.54 74.2907 120.964 74.664C120.399 75.0267 119.785 75.208 119.124 75.208C118.729 75.208 118.329 75.1227 117.924 74.952C117.519 74.7707 117.119 74.52 116.724 74.2L116.772 75.72V78.664H115.3ZM118.884 73.976C119.364 73.976 119.791 73.8427 120.164 73.576C120.548 73.2987 120.847 72.904 121.06 72.392C121.273 71.8693 121.38 71.2507 121.38 70.536C121.38 69.896 121.3 69.336 121.14 68.856C120.991 68.3653 120.751 67.9867 120.42 67.72C120.089 67.4533 119.641 67.32 119.076 67.32C118.713 67.32 118.34 67.4213 117.956 67.624C117.583 67.8267 117.188 68.12 116.772 68.504V73.08C117.156 73.4107 117.535 73.6453 117.908 73.784C118.281 73.912 118.607 73.976 118.884 73.976Z" fill="#FFFBF3"/>
</g>
<defs>
<clipPath id="clip0_552_12600">
<rect width="180" height="90" fill="white"/>
</clipPath>
<clipPath id="clip1_552_12600">
<rect width="56" height="56" fill="white" transform="translate(60)"/>
</clipPath>
</defs>
</svg>
