<svg width="56" height="57" viewBox="0 0 56 57" fill="none" xmlns="http://www.w3.org/2000/svg">
<path d="M24.9679 51.8335L24.9373 51.8332C24.2961 51.82 23.7418 51.3933 23.5879 50.7903L22.072 44.8499C21.9676 44.4408 22.064 44.0082 22.3333 43.6766C22.6027 43.345 23.0152 43.1514 23.452 43.1514H32.5476C32.9843 43.1514 33.3968 43.345 33.6662 43.6766C33.9356 44.0082 34.0319 44.4408 33.9275 44.8499L32.4116 50.7903L32.404 50.8189C32.2375 51.4162 31.6755 51.8335 31.0317 51.8335H24.9679ZM30.7342 45.8931H25.2654L26.0817 49.0918H29.9178L30.7342 45.8931Z" fill="#3E5E4E"/>
<path d="M13.9366 21.8505C13.9366 26.9052 16.6768 31.3294 20.7782 33.7559C22.0385 34.5015 22.9671 35.7276 23.3295 37.1744C28.6834 37.1745 31.3268 37.1754 32.63 37.175C32.6449 37.175 32.6596 37.175 32.6741 37.175C33.0385 35.7447 33.9707 34.5036 35.2697 33.7283V33.7282C39.3249 31.308 42.0374 26.9303 42.0645 21.9262L42.0646 21.8079V21.8079C42.0414 14.1416 35.7513 7.8868 28.0005 7.88688C20.2439 7.88696 13.9366 14.1782 13.9366 21.8505ZM34.5021 37.3107C34.496 37.3077 34.4913 37.3054 34.4886 37.3041C34.4891 37.3043 34.4945 37.307 34.5021 37.3107ZM33.1856 39.699C33.1643 39.6866 33.1366 39.6697 33.1049 39.6482C33.1427 39.6741 33.1714 39.691 33.1856 39.699ZM33.2328 39.7251C33.2452 39.7316 33.255 39.7367 33.2614 39.7399C33.2647 39.7416 33.2678 39.7431 33.2706 39.7445C33.2607 39.7396 33.2471 39.7326 33.2328 39.7251ZM11.179 21.8505C11.179 12.697 18.6995 5.16679 28.0004 5.16668C37.2921 5.16658 44.7946 12.6551 44.8223 21.7998L44.8222 21.7998C44.8406 27.8475 41.5777 33.1429 36.6973 36.0556C35.8287 36.5741 35.2934 37.4713 35.2638 38.4409C35.2658 38.4706 35.2668 38.501 35.2667 38.5321C35.2657 38.9592 35.0682 39.2785 34.8864 39.4668C34.6082 39.755 34.2813 39.8328 34.266 39.8371C34.1781 39.8619 34.1069 39.8725 34.0793 39.8764C33.9564 39.8937 33.8086 39.8926 33.796 39.8928C33.6486 39.8943 33.3265 39.8949 32.6309 39.8951C31.2325 39.8956 28.2898 39.8944 22.1177 39.8944C21.3562 39.8944 20.7388 39.2855 20.7388 38.5343C20.7388 37.4954 20.1979 36.6026 19.3981 36.1118L19.3598 36.0887V36.0887C14.4623 33.1912 11.179 27.9002 11.179 21.8505Z" fill="#3E5E4E"/>
<path d="M22.2856 45.3218C21.5459 45.3218 20.9462 44.7015 20.9462 43.9363V38.0251C20.9462 37.2599 21.5459 36.6396 22.2856 36.6396H33.7153C34.455 36.6396 35.0547 37.2599 35.0547 38.0251V43.9363C35.0547 44.7015 34.455 45.3218 33.7153 45.3218H22.2856ZM32.3759 39.4105H23.625V42.5509H32.3759V39.4105Z" fill="#3E5E4E"/>
<path d="M32.366 27.1779H33.945C34.8171 27.1779 35.524 26.4962 35.524 25.6553C35.524 24.8145 34.8171 24.1328 33.945 24.1328C33.073 24.1328 32.366 24.8145 32.366 25.6553V27.1779ZM20.4769 25.6553C20.4769 26.4962 21.1839 27.1779 22.056 27.1779H23.635V25.6553C23.635 24.8145 22.928 24.1328 22.056 24.1328C21.1839 24.1328 20.4769 24.8145 20.4769 25.6553ZM29.5795 29.8647H26.4215V37.2087H29.5795V29.8647ZM17.6905 25.6553C17.6905 23.3306 19.645 21.4459 22.056 21.4459C24.467 21.446 26.4215 23.3306 26.4215 25.6553V27.1779H29.5795V25.6553C29.5795 23.3306 31.534 21.446 33.945 21.4459C36.356 21.4459 38.3105 23.3306 38.3105 25.6553C38.3105 27.9801 36.356 29.8647 33.945 29.8647H32.366V38.5521C32.366 39.294 31.7422 39.8955 30.9728 39.8955H25.0282C24.2587 39.8955 23.635 39.294 23.635 38.5521V29.8647H22.056C19.645 29.8647 17.6905 27.9801 17.6905 25.6553Z" fill="#3E5E4E"/>
<path d="M9.67817 13.4343C9.12536 13.9871 8.22901 13.9871 7.6762 13.4343L6.1663 11.9243C5.6135 11.3715 5.6135 10.4752 6.1663 9.92241C6.71911 9.3696 7.61538 9.36961 8.16819 9.92241L9.67817 11.4323C10.231 11.9851 10.231 12.8815 9.67817 13.4343Z" fill="#3E5E4E"/>
<path d="M8.16821 34.0544C7.6154 34.6072 6.71911 34.6072 6.16631 34.0544C5.6135 33.5016 5.6135 32.6052 6.16631 32.0524L7.67622 30.5425C8.22903 29.9897 9.12537 29.9897 9.67818 30.5425C10.231 31.0953 10.231 31.9916 9.67818 32.5444L8.16821 34.0544Z" fill="#3E5E4E"/>
<path d="M6.08231 23.6165C5.30051 23.6165 4.66674 22.8876 4.66674 21.9886C4.66674 21.0895 5.30051 20.3606 6.08231 20.3606H7.59224C8.37404 20.3606 9.00781 21.0895 9.00781 21.9886C9.00781 22.8876 8.37404 23.6165 7.59224 23.6165H6.08231Z" fill="#3E5E4E"/>
<path d="M47.2385 13.4343C46.6857 13.9871 45.7894 13.9871 45.2366 13.4343C44.6838 12.8815 44.6838 11.9851 45.2366 11.4323L46.7465 9.92241C47.2993 9.3696 48.1957 9.3696 48.7485 9.92241C49.3013 10.4752 49.3013 11.3715 48.7485 11.9243L47.2385 13.4343Z" fill="#3E5E4E"/>
<path d="M48.7485 34.0544C48.1957 34.6072 47.2993 34.6072 46.7465 34.0544L45.2366 32.5444C44.6838 31.9916 44.6838 31.0953 45.2366 30.5425C45.7894 29.9897 46.6857 29.9897 47.2385 30.5425L48.7485 32.0524C49.3013 32.6052 49.3013 33.5016 48.7485 34.0544Z" fill="#3E5E4E"/>
<path d="M48.4075 23.6165C47.6257 23.6165 46.9919 22.8876 46.9919 21.9886C46.9919 21.0895 47.6257 20.3606 48.4075 20.3606H49.9174C50.6992 20.3606 51.333 21.0895 51.333 21.9886C51.333 22.8876 50.6992 23.6165 49.9174 23.6165H48.4075Z" fill="#3E5E4E"/>
</svg>
