<svg width="80" height="80" viewBox="0 0 80 80" fill="none" xmlns="http://www.w3.org/2000/svg">
<rect width="80" height="80" rx="40" fill="#FFFBF3" style="mix-blend-mode:lighten"/>
<path d="M24.6695 49.341C23.7768 48.4623 23.7768 47.038 24.6695 46.1593L38.3839 32.659C39.2765 31.7803 40.7235 31.7803 41.6161 32.659L55.3305 46.1593C56.2232 47.038 56.2232 48.4623 55.3305 49.341C54.4379 50.2197 52.991 50.2197 52.0983 49.341L40 37.4316L27.9017 49.341C27.009 50.2197 25.5621 50.2197 24.6695 49.341Z" fill="#667C9C"/>
<path d="M48.0564 64.526L49.8564 73.1359L47.3075 73.6688C46.7202 73.7916 46.1926 73.8283 45.7246 73.7791C45.2488 73.7314 44.8536 73.5811 44.5392 73.3281C44.2248 73.0751 44.0144 72.6941 43.9079 72.1851C43.849 71.9032 43.8434 71.6224 43.8912 71.3427C43.9328 71.0725 44.0279 70.8237 44.1765 70.5965C44.3268 70.3771 44.5261 70.1965 44.7743 70.0547L44.762 69.996C44.2334 70.0084 43.7686 69.8767 43.3677 69.601C42.9668 69.3252 42.7049 68.8936 42.5821 68.3063C42.4642 67.7425 42.507 67.2432 42.7103 66.8084C42.9074 66.383 43.233 66.0248 43.687 65.7338C44.1333 65.4443 44.6774 65.2325 45.3195 65.0982L48.0564 64.526ZM48.012 69.7088L46.7317 69.9765C45.9878 70.132 45.4815 70.3686 45.2128 70.6863C44.9442 71.004 44.8557 71.3821 44.9474 71.8207C45.0538 72.3297 45.3005 72.6499 45.6877 72.7815C46.0686 72.9225 46.5958 72.9227 47.2692 72.7819L48.5965 72.5044L48.012 69.7088ZM47.1575 65.6212L45.654 65.9355C44.9179 66.0894 44.371 66.3468 44.0132 66.7076C43.6555 67.0685 43.5372 67.5386 43.6584 68.1181C43.7713 68.6584 44.0568 69.0074 44.5147 69.165C44.9743 69.3304 45.58 69.3346 46.3317 69.1774L47.8352 68.8631L47.1575 65.6212ZM41.2789 65.9287L37.5313 74.4247L36.3002 74.3147L34.1075 65.2875L35.2788 65.3922L36.3705 70.4295C36.485 70.9457 36.5926 71.4493 36.6933 71.9402C36.7932 72.4391 36.8921 72.95 36.99 73.4727L37.0378 73.477C37.2188 72.9792 37.4068 72.494 37.6016 72.0215C37.7878 71.5562 37.979 71.0793 38.1753 70.5909L40.1673 65.8293L41.2789 65.9287ZM39.4976 68.4682L39.4196 69.3407L35.3797 68.9795L35.4577 68.107L39.4976 68.4682ZM29.8751 63.4351C30.3793 63.6394 30.8126 63.9228 31.1749 64.2855C31.5268 64.6525 31.7885 65.0823 31.9601 65.5748C32.1317 66.0673 32.2013 66.6091 32.169 67.2002C32.1336 67.7987 31.9822 68.4279 31.7148 69.0878C31.4474 69.7477 31.1195 70.3011 30.7313 70.748C30.3326 71.1993 29.8965 71.5405 29.423 71.7716C28.9496 72.0027 28.4551 72.126 27.9395 72.1415C27.4239 72.157 26.9067 72.0596 26.3877 71.8492C25.8909 71.6479 25.4955 71.3669 25.2015 71.006C24.9045 70.6526 24.69 70.2981 24.5579 69.9424L25.3843 69.5005C25.5062 69.8174 25.6758 70.102 25.893 70.354C26.1103 70.606 26.3931 70.8027 26.7416 70.9439C27.2532 71.1512 27.7558 71.1995 28.2495 71.0888C28.7433 70.9782 29.1983 70.718 29.6146 70.3084C30.0279 69.9062 30.3713 69.3677 30.6447 68.693C30.9241 68.0035 31.0622 67.3646 31.0589 66.7763C31.0526 66.1954 30.916 65.6911 30.649 65.2636C30.3791 64.8434 29.9846 64.5282 29.4656 64.3179C29.08 64.1616 28.7022 64.1035 28.3321 64.1434C27.9546 64.1803 27.5775 64.2908 27.2009 64.4748L26.8996 63.5888C27.3686 63.3472 27.8491 63.2053 28.341 63.163C28.8299 63.128 29.3413 63.2187 29.8751 63.4351ZM25.7937 61.5561L20.1913 68.3371L19.3402 67.634L22.1528 64.2296L22.1343 64.2143L16.4816 65.2722L15.5102 64.4697L19.7627 63.6558L20.7888 57.4212L21.7417 58.2084L20.8573 63.4238L23.1694 62.9992L24.9426 60.8529L25.7937 61.5561ZM16.1279 49.6679L8.7807 52.4604L9.72715 54.9506L8.85221 55.2831L6.56283 49.2595L7.43777 48.927L8.38421 51.4172L15.7314 48.6247L16.1279 49.6679ZM14.6166 41.4631C14.6565 42.198 14.5081 42.859 14.1715 43.4461C13.8264 44.0257 13.3191 44.4939 12.6495 44.8508C11.9798 45.2076 11.1777 45.4114 10.2431 45.4622C9.30047 45.5134 8.48498 45.3975 7.79661 45.1144C7.10026 44.8318 6.55715 44.4206 6.1673 43.881C5.77702 43.3333 5.56192 42.6921 5.52199 41.9572C5.48206 41.2222 5.63064 40.5652 5.96772 39.9861C6.29638 39.3994 6.78753 38.928 7.44118 38.5721C8.09484 38.2161 8.89297 38.0125 9.83558 37.9613C10.7702 37.9105 11.5897 38.0262 12.294 38.3084C12.9984 38.5906 13.5537 39.0051 13.9599 39.5519C14.3578 40.0911 14.5767 40.7281 14.6166 41.4631ZM13.646 41.5158C13.6174 40.9886 13.4446 40.5373 13.1278 40.1619C12.811 39.7865 12.3751 39.5058 11.8202 39.3196C11.2653 39.1334 10.6243 39.0601 9.89742 39.0996C9.1625 39.1395 8.53729 39.2816 8.02179 39.526C7.49829 39.7707 7.10738 40.0964 6.84906 40.503C6.58275 40.9101 6.46392 41.3772 6.49256 41.9044C6.52077 42.4237 6.68951 42.8752 6.99879 43.259C7.29964 43.6352 7.72353 43.9166 8.27046 44.1032C8.8094 44.2903 9.44632 44.3638 10.1812 44.3239C10.9082 44.2844 11.5374 44.142 12.0689 43.8969C12.6003 43.6517 13.0032 43.3253 13.2775 42.9178C13.5514 42.5024 13.6742 42.035 13.646 41.5158ZM16.9702 28.4733L10.0111 24.8195L8.77273 27.1782L7.944 26.7431L10.9395 21.0377L11.7682 21.4728L10.5299 23.8314L17.489 27.4852L16.9702 28.4733ZM22.1206 21.9139C21.5955 22.4296 21.0014 22.7551 20.3383 22.8905C19.6752 23.0146 18.9886 22.9433 18.2782 22.6766C17.5678 22.41 16.8847 21.9427 16.2289 21.2749C15.5675 20.6013 15.1155 19.9127 14.873 19.209C14.6249 18.4997 14.5745 17.8204 14.7218 17.1711C14.8748 16.5163 15.2139 15.931 15.739 15.4153C16.2642 14.8997 16.8554 14.5769 17.5128 14.4471C18.1703 14.306 18.8487 14.3631 19.5478 14.6183C20.247 14.8736 20.9273 15.338 21.5887 16.0115C22.2445 16.6794 22.6993 17.3708 22.953 18.0859C23.2068 18.801 23.2627 19.4917 23.1209 20.158C22.9792 20.8129 22.6458 21.3982 22.1206 21.9139ZM21.4396 21.2204C21.8163 20.8504 22.0408 20.4225 22.1131 19.9367C22.1854 19.4508 22.108 18.9381 21.881 18.3987C21.654 17.8592 21.2854 17.3297 20.7753 16.8103C20.2596 16.2852 19.7398 15.9099 19.2157 15.6845C18.686 15.4534 18.1833 15.3753 17.7074 15.4502C17.2259 15.5194 16.7968 15.7389 16.4201 16.1089C16.0491 16.4732 15.8217 16.8983 15.7381 17.384C15.6546 17.8584 15.7236 18.3626 15.945 18.8963C16.1609 19.4244 16.5266 19.951 17.0423 20.4761C17.5524 20.9956 18.075 21.3737 18.6103 21.6105C19.1456 21.8473 19.6568 21.9339 20.1439 21.8705C20.6367 21.8014 21.0686 21.5847 21.4396 21.2204ZM26.4162 18.0198L22.582 10.1035L24.8391 9.01019C25.4295 8.72424 25.9846 8.54875 26.5042 8.48374C27.0203 8.41153 27.4827 8.48534 27.8914 8.70517C28.3001 8.92499 28.644 9.32291 28.923 9.8989C29.1915 10.4533 29.2905 10.9698 29.2201 11.4483C29.1497 11.9269 28.9384 12.3625 28.5864 12.7553C28.2309 13.1408 27.7652 13.473 27.1892 13.752L25.8824 14.385L27.4098 17.5385L26.4162 18.0198ZM25.4901 13.575L26.6673 13.0048C27.3585 12.67 27.8105 12.2911 28.0233 11.868C28.2362 11.4449 28.2049 10.9489 27.9294 10.3801C27.6504 9.80415 27.2822 9.49359 26.8248 9.44847C26.3746 9.39986 25.8003 9.54469 25.1019 9.88296L23.9679 10.4322L25.4901 13.575ZM36.4011 14.4268L36.1479 5.6344L38.7508 5.55945C39.3506 5.54218 39.8764 5.59907 40.3284 5.73011C40.7884 5.86093 41.1508 6.07859 41.4156 6.38309C41.6805 6.68759 41.8204 7.09973 41.8354 7.61952C41.8437 7.9074 41.7997 8.18478 41.7033 8.45167C41.6147 8.71032 41.4772 8.93838 41.2908 9.13582C41.1042 9.32527 40.8762 9.46789 40.6069 9.56369L40.6086 9.62366C41.1311 9.70465 41.5654 9.91624 41.9114 10.2584C42.2574 10.6006 42.439 11.0716 42.4563 11.6713C42.4729 12.2471 42.3427 12.731 42.0659 13.1232C41.7969 13.5071 41.4132 13.8022 40.9149 14.0087C40.4247 14.2149 39.8517 14.3274 39.1959 14.3463L36.4011 14.4268ZM37.3589 9.33308L38.6663 9.29543C39.426 9.27356 39.9661 9.12995 40.2866 8.86462C40.6071 8.59928 40.7609 8.24271 40.748 7.79489C40.733 7.27511 40.5466 6.91632 40.1888 6.71854C39.8387 6.51253 39.3198 6.41943 38.6321 6.43923L37.2767 6.47826L37.3589 9.33308ZM37.4791 13.5074L39.0144 13.4631C39.7661 13.4415 40.3499 13.2846 40.7656 12.9925C41.1814 12.7004 41.3807 12.2585 41.3637 11.6668C41.3478 11.115 41.1284 10.7212 40.7054 10.4852C40.2822 10.2413 39.6868 10.1304 38.9191 10.1525L37.3837 10.1967L37.4791 13.5074ZM43.3239 14.2414L48.5095 6.5384L49.702 6.86362L50.2702 16.1359L49.1356 15.8265L48.9484 10.6757C48.9266 10.1473 48.9094 9.63266 48.8968 9.13169C48.8863 8.623 48.8789 8.10272 48.8747 7.57088L48.8284 7.55825C48.5625 8.01642 48.292 8.46091 48.0169 8.89172C47.7517 9.31691 47.4795 9.75263 47.2002 10.1989L44.4006 14.535L43.3239 14.2414ZM45.5247 12.0554L45.7552 11.2103L49.6682 12.2775L49.4377 13.1227L45.5247 12.0554ZM54.1077 18.7137C53.648 18.4228 53.2722 18.0666 52.9803 17.6452C52.6995 17.2213 52.5185 16.7518 52.4375 16.2366C52.3564 15.7214 52.3845 15.1759 52.5217 14.6C52.6632 14.0173 52.9243 13.4252 53.3051 12.8236C53.6858 12.2219 54.107 11.7358 54.5687 11.3653C55.0415 10.9923 55.5314 10.7343 56.0384 10.5912C56.5455 10.4482 57.0541 10.415 57.5642 10.4917C58.0742 10.5683 58.5659 10.7564 59.0391 11.0558C59.492 11.3425 59.831 11.6895 60.0559 12.097C60.2852 12.4977 60.4331 12.8848 60.4997 13.2583L59.6077 13.5458C59.5443 13.2122 59.4281 12.902 59.2593 12.6153C59.0904 12.3286 58.8472 12.0847 58.5294 11.8836C58.063 11.5884 57.577 11.4513 57.0715 11.4722C56.5659 11.4931 56.0718 11.668 55.5892 11.9968C55.1108 12.3189 54.6769 12.7876 54.2876 13.4028C53.8898 14.0314 53.64 14.6355 53.5384 15.215C53.4411 15.7877 53.4856 16.3082 53.6721 16.7765C53.8629 17.238 54.1948 17.6185 54.6681 17.918C55.0196 18.1405 55.381 18.265 55.7523 18.2917C56.1303 18.3227 56.521 18.2812 56.9245 18.1673L57.063 19.0928C56.5584 19.2469 56.0604 19.3009 55.5688 19.2549C55.0815 19.2021 54.5944 19.0217 54.1077 18.7137ZM57.7931 21.2908L64.5064 15.6073L65.2197 16.4499L61.8494 19.3032L61.8649 19.3216L67.6156 19.2799L68.4298 20.2416L64.1003 20.2906L61.9879 26.2456L61.1892 25.3022L62.982 20.3254L60.6313 20.3345L58.5065 22.1334L57.7931 21.2908ZM65.1916 34.7058L72.9165 33.2549L72.4247 30.6367L73.3446 30.4639L74.5342 36.7971L73.6143 36.9699L73.1225 34.3517L65.3976 35.8027L65.1916 34.7058ZM65.2449 43.0475C65.3328 42.3168 65.5934 41.6914 66.0266 41.1714C66.4668 40.6604 67.0476 40.2871 67.7689 40.0515C68.4902 39.816 69.3155 39.7542 70.2448 39.866C71.182 39.9788 71.9651 40.2341 72.5941 40.6321C73.231 41.0311 73.6947 41.53 73.9852 42.129C74.2748 42.736 74.3756 43.4048 74.2877 44.1355C74.1998 44.8663 73.9397 45.4876 73.5074 45.9997C73.0821 46.5206 72.5168 46.8998 71.8114 47.1372C71.106 47.3746 70.2846 47.437 69.3474 47.3242C68.4181 47.2124 67.631 46.9565 66.9862 46.5566C66.3413 46.1567 65.8662 45.6524 65.5607 45.0435C65.2623 44.4436 65.157 43.7782 65.2449 43.0475ZM66.2099 43.1636C66.1469 43.6878 66.2389 44.1622 66.4859 44.5868C66.733 45.0113 67.1136 45.3633 67.6279 45.6427C68.1422 45.9222 68.7608 46.1054 69.4836 46.1924C70.2143 46.2803 70.8547 46.2486 71.4047 46.0972C71.9627 45.9468 72.4041 45.6937 72.7289 45.3379C73.0617 44.9831 73.2596 44.5436 73.3226 44.0194C73.3848 43.5031 73.2967 43.0292 73.0586 42.5977C72.8274 42.175 72.4587 41.8245 71.9523 41.546C71.4539 41.2685 70.8393 41.0857 70.1086 40.9978C69.3858 40.9109 68.7415 40.9421 68.1755 41.0916C67.6096 41.241 67.1563 41.4927 66.8156 41.8465C66.474 42.2083 66.2721 42.6473 66.2099 43.1636ZM60.6251 55.4123L66.8367 60.2285L68.469 58.1232L69.2087 58.6967L65.2602 63.7893L64.5205 63.2157L66.1528 61.1104L59.9412 56.2943L60.6251 55.4123ZM54.4085 60.9748C55.0152 60.5581 55.6568 60.3407 56.3334 60.3225C57.0078 60.3154 57.6717 60.5048 58.325 60.8908C58.9783 61.2768 59.5699 61.8555 60.0998 62.6271C60.6342 63.4053 60.9597 64.1619 61.0764 64.897C61.1976 65.6387 61.1293 66.3164 60.8714 66.9302C60.607 67.5485 60.1715 68.066 59.5648 68.4827C58.9581 68.8994 58.3198 69.1145 57.6498 69.1282C56.9778 69.153 56.3197 68.9791 55.6755 68.6063C55.0312 68.2335 54.4419 67.658 53.9075 66.8799C53.3776 66.1083 53.0498 65.3484 52.9241 64.6001C52.7984 63.8518 52.8632 63.1619 53.1185 62.5304C53.3718 61.91 53.8018 61.3915 54.4085 60.9748ZM54.9588 61.7761C54.5235 62.075 54.2281 62.4574 54.0726 62.9233C53.917 63.3892 53.9042 63.9075 54.0341 64.4783C54.164 65.049 54.4351 65.6344 54.8472 66.2345C55.2639 66.8412 55.7107 67.301 56.1877 67.614C56.6692 67.9335 57.1507 68.0977 57.6324 68.1066C58.1186 68.1221 58.5793 67.9804 59.0145 67.6815C59.4432 67.3871 59.7408 67.008 59.9075 66.5441C60.0721 66.0914 60.0917 65.5829 59.9663 65.0188C59.8455 64.4613 59.5767 63.8792 59.16 63.2725C58.7479 62.6724 58.2988 62.2093 57.8128 61.8831C57.3268 61.557 56.8384 61.3829 56.3477 61.3608C55.8504 61.3432 55.3874 61.4817 54.9588 61.7761Z" fill="#667C9C"/>
</svg>
