<svg width="318" height="66" viewBox="0 0 318 66" fill="none" xmlns="http://www.w3.org/2000/svg">
<path d="M1.18455 39.9598C3.00433 39.1799 15.9114 38.8145 16.3073 38.1634C16.4853 37.8706 16.3728 37.1797 16.3447 36.62C16.3283 36.3038 16.0543 36.0626 15.7358 36.079C14.1268 36.1656 9.97666 36.8448 9.72137 36.6645C9.28809 36.3577 9.3443 35.566 9.37475 34.9243C9.39114 34.6175 9.64409 34.3763 9.9509 34.3763H15.4829C16.0028 34.3763 15.7873 31.9358 15.6562 31.9358H9.95792C9.6394 31.9358 9.37943 31.6759 9.37943 31.3574V30.0716C9.37943 29.753 9.6394 29.4931 9.95792 29.4931H14.7287C15.0472 29.4931 15.3072 29.2331 15.3072 28.9146V17.8671C15.3072 17.5485 15.0472 17.2886 14.7287 17.2886H1.93869C1.62017 17.2886 1.3602 17.5485 1.3602 17.8671V28.9146C1.3602 29.2331 1.62017 29.4931 1.93869 29.4931H6.70948C7.028 29.4931 7.28797 29.753 7.28797 30.0716V31.3574C7.28797 31.6759 7.028 31.9358 6.70948 31.9358H1.53586C0.82387 31.9358 0.82387 34.3763 1.53586 34.3763H6.69308C7.00692 34.3763 7.26455 34.6269 7.27157 34.9407C7.28797 35.6668 7.37697 36.7347 7.29031 36.8191C7.08655 37.0205 2.93173 37.0837 1.25481 37.1376C0.950342 37.1469 0.713793 37.3905 0.699741 37.6926C0.655241 38.6014 0.317984 40.0207 1.18455 39.9598ZM12.8785 27.603C12.7731 27.678 10.9275 27.6522 10.0235 27.5398C9.74479 27.5047 9.53167 27.2751 9.51761 26.9964L9.40988 24.8698C9.39349 24.5396 9.6558 24.2632 9.98603 24.2632H12.6232C12.9347 24.2632 13.1923 24.5092 13.2017 24.823C13.2274 25.7879 13.4125 27.2236 12.8785 27.6054V27.603ZM9.95792 19.38H12.6419C12.9604 19.38 13.2204 19.64 13.2204 19.9585V21.9446C13.2204 22.2631 12.9604 22.5231 12.6419 22.5231H9.95792C9.6394 22.5231 9.37943 22.2631 9.37943 21.9446V19.9585C9.37943 19.64 9.6394 19.38 9.95792 19.38ZM6.71182 27.404H4.37678C4.05826 27.404 3.79829 27.144 3.79829 26.8255V24.8394C3.79829 24.5209 4.05826 24.2609 4.37678 24.2609H6.71182C7.03034 24.2609 7.29031 24.5209 7.29031 24.8394V26.8255C7.29031 27.144 7.03034 27.404 6.71182 27.404ZM6.71182 22.5231H4.37678C4.05826 22.5231 3.79829 22.2631 3.79829 21.9446V19.9585C3.79829 19.64 4.05826 19.38 4.37678 19.38H6.71182C7.03034 19.38 7.29031 19.64 7.29031 19.9585V21.9446C7.29031 22.2631 7.03034 22.5231 6.71182 22.5231Z" fill="#FFFBF3"/>
<path d="M62.7605 29.8445H69.2761C69.5946 29.8445 69.8546 29.5846 69.8546 29.266V18.2162C69.8546 17.8977 69.5946 17.6377 69.2761 17.6377H53.3454C53.0268 17.6377 52.7669 17.8977 52.7669 18.2162V29.2637C52.7669 29.5822 53.0268 29.8422 53.3454 29.8422H59.512C59.8305 29.8422 60.0905 30.1022 60.0905 30.4207V32.0531C60.0905 32.3716 59.8305 32.6316 59.512 32.6316H52.2985C51.9799 32.6316 51.72 32.8916 51.72 33.2101V48.0939C51.72 48.4124 51.9799 48.6724 52.2985 48.6724H53.5843C53.9028 48.6724 54.1627 48.4124 54.1627 48.0939V35.6505C54.1627 35.332 54.4227 35.072 54.7412 35.072H59.1654C59.4839 35.072 59.7439 35.3297 59.7439 35.6505V38.6952C59.7439 39.0161 59.4839 39.276 59.1654 39.276C56.7414 39.276 54.5398 38.4914 55.4368 41.6415C55.5141 41.9109 55.7717 42.0912 56.0504 42.0631C57.6805 41.8968 62.819 40.686 64.0463 40.9904C64.6669 41.145 64.7348 44.5152 66.7209 42.9203C67.4446 42.3395 65.5499 37.0464 65.3039 36.8379C65.1166 36.6787 64.2336 36.8286 63.9268 36.9878C62.9525 37.4984 63.5638 38.7584 62.8916 38.9622C62.538 39.0699 62.1867 38.7678 62.1867 38.3978V35.6505C62.1867 35.332 62.4443 35.072 62.7628 35.072H67.5336C67.8521 35.072 68.1121 35.332 68.1121 35.6505V45.3584C68.1121 46.6044 65.5967 46.0282 64.3039 45.8666C63.9081 45.8174 63.5825 46.1687 63.6645 46.5575C63.8331 47.3679 64.2032 48.5436 64.3273 48.6209C65.222 49.197 70.5549 48.7309 70.5549 46.7519V33.2077C70.5549 32.8892 70.2949 32.6293 69.9764 32.6293H62.7628C62.4443 32.6293 62.1843 32.3693 62.1843 32.0508V30.4183C62.1843 30.0998 62.4443 29.8399 62.7628 29.8399L62.7605 29.8445ZM67.6085 27.4111C67.2244 27.9732 64.2547 27.8233 62.9314 27.6524C62.6551 27.6172 62.4419 27.3924 62.4279 27.116C62.381 26.2963 62.4513 24.692 62.5309 24.61C62.6996 24.432 67.0792 24.5679 67.4329 24.7763C67.5476 24.8442 67.6858 27.3034 67.6109 27.4111H67.6085ZM62.7043 19.7315H67.1823C67.5008 19.7315 67.7608 19.9915 67.7608 20.31V21.9424C67.7608 22.2609 67.5008 22.5209 67.1823 22.5209H62.5286C62.3787 22.5209 62.1094 19.7315 62.7019 19.7315H62.7043ZM59.512 27.7507H55.7858C55.4673 27.7507 55.2073 27.4908 55.2073 27.1722V25.1909C55.2073 24.8723 55.4673 24.6124 55.7858 24.6124H59.512C59.8305 24.6124 60.0905 24.8723 60.0905 25.1909V27.1722C60.0905 27.4908 59.8305 27.7507 59.512 27.7507ZM59.512 22.5209H55.7858C55.4673 22.5209 55.2073 22.2609 55.2073 21.9424V20.31C55.2073 19.9915 55.4673 19.7315 55.7858 19.7315H59.512C59.8305 19.7315 60.0905 19.9915 60.0905 20.31V21.9424C60.0905 22.2609 59.8305 22.5209 59.512 22.5209Z" fill="#FFFBF3"/>
<path d="M47.1106 27.6637C49.01 24.8977 50.7244 21.6376 50.6963 18.2205C50.6939 17.8996 50.4363 17.6396 50.1154 17.6396H41.1383C40.8198 17.6396 40.5598 17.8996 40.5598 18.2181V48.1521C40.5598 48.6181 41.6723 48.7118 42.4288 48.7048C42.7473 48.7025 43.0002 48.4448 43.0002 48.1263V20.6586C43.0002 20.34 43.2602 20.0801 43.5787 20.0801H47.1879C47.5579 20.0801 47.8343 20.4244 47.7546 20.785C47.1504 23.5065 45.3493 25.7877 43.9652 28.1579C43.8223 28.4014 43.8832 28.7106 44.0987 28.8909C46.6187 30.9918 48.8133 33.2682 48.1458 36.9102C47.5743 40.0345 44.8013 39.0789 44.4172 39.634C44.2673 39.8518 44.6865 41.9292 44.7802 42.0088C44.9348 42.14 46.9185 42.1025 47.3377 42.0276C50.366 41.4842 50.989 36.3902 50.6377 33.8842C50.2888 31.3852 48.4221 30.1603 47.1035 28.3195C46.963 28.1251 46.97 27.8628 47.1035 27.6637H47.1106Z" fill="#FFFBF3"/>
<path d="M31.1299 25.3103H24.9539C24.6354 25.3103 24.3754 25.0503 24.3754 24.7318V16.8226C24.3754 16.5041 24.1178 16.2441 23.7969 16.2441H22.5111C22.1926 16.2441 21.935 16.5041 21.935 16.8226V24.7318C21.935 25.0503 21.675 25.3103 21.3565 25.3103H17.2813C16.9628 25.3103 16.7028 25.5702 16.7028 25.8888V27.1746C16.7028 27.4931 16.9628 27.753 17.2813 27.753H21.3097C21.6539 27.753 21.9186 28.0528 21.8858 28.3948C21.5837 31.4395 20.2323 34.5802 18.4383 36.9855C18.0191 37.5476 15.2297 40.1355 15.3093 40.4751C15.3866 40.8077 16.4663 41.3253 16.8785 41.3253C18.3329 41.3253 20.2487 38.4352 21.1387 37.3251C21.1645 37.2946 21.1832 37.2618 21.2019 37.2267L22.7336 34.1656C22.9561 33.7206 23.5955 33.7487 23.7852 34.2101C24.9633 37.051 26.7596 39.5992 29.0221 41.679C29.2493 41.8874 29.6006 41.8757 29.8184 41.6579L30.891 40.5876C31.1276 40.351 31.1182 39.9599 30.8629 39.7444C27.6004 36.9761 25.1249 32.7135 24.7595 28.3901C24.7314 28.0481 24.9937 27.753 25.3357 27.753H30.8231C30.9098 27.753 31.0316 28.0341 31.1721 28.0224C31.7974 27.9685 31.7389 26.7038 31.7037 25.8653C31.6897 25.5562 31.4367 25.3126 31.1253 25.3126L31.1299 25.3103Z" fill="#FFFBF3"/>
<path d="M24.9024 40.7513C24.1342 40.6998 23.0381 41.3696 23.5112 42.3884C24.1857 43.8405 26.4622 46.035 27.3592 47.815C27.4646 48.0234 27.6847 48.1476 27.9189 48.1312L29.3687 48.0187C29.7621 47.9883 30.0127 47.5831 29.8582 47.2178C29.0525 45.316 25.3567 40.7794 24.9047 40.7513H24.9024Z" fill="#FFFBF3"/>
<path d="M2.92954 41.6998C2.69768 41.9809 0.777183 46.487 0.306428 47.4496C0.184641 47.7002 -0.318903 47.8384 0.30877 48.1569C0.531266 48.2693 2.41663 48.5855 2.60399 48.5551C3.1497 48.4684 4.70951 44.0841 5.33718 42.2947C5.44726 41.9832 5.27161 41.646 4.95543 41.5523C4.24812 41.3415 3.43543 41.0886 2.9272 41.7022L2.92954 41.6998Z" fill="#FFFBF3"/>
<path d="M9.27432 41.6389C8.96048 41.7185 8.77078 42.0394 8.85743 42.3509C9.24153 43.728 9.69121 45.0981 9.98865 46.4987C10.0917 46.9882 10.0121 48.2623 10.0753 48.3278C10.1549 48.4122 11.2089 48.3278 11.9349 48.3091C12.2839 48.2997 12.5438 47.9906 12.4923 47.6463C12.237 45.946 11.1152 41.6483 10.7405 41.3766C10.5086 41.208 9.83407 41.496 9.27198 41.6412L9.27432 41.6389Z" fill="#FFFBF3"/>
<path d="M27.0553 17.3311C23.8982 17.5934 28.4301 22.1323 28.6058 23.6992C29.1773 24.7976 30.7628 23.8912 30.6059 22.7787C30.4958 22.0012 27.7486 17.2726 27.0553 17.3311Z" fill="#FFFBF3"/>
<path d="M18.3965 42.4542C17.8625 42.1216 16.3261 42.3464 16.3496 43.2575C16.3566 43.5409 17.3309 45.2927 17.5604 45.8993C17.7572 46.4193 18.0405 48.2086 18.1342 48.2882C18.3919 48.5061 20.4341 48.5623 20.4084 47.6044C20.392 47.0352 18.6378 42.6017 18.3989 42.4518L18.3965 42.4542Z" fill="#FFFBF3"/>
<path d="M106.691 20.8878C106.571 19.855 106.805 18.5153 106.325 17.5059C105.62 16.028 103.046 16.3044 102.281 17.6487L91.938 43.018C88.9331 34.6638 85.4762 26.4221 82.2981 18.1101C80.1855 15.8781 76.7591 15.5315 76.2462 19.2484C75.0517 27.8883 75.7988 37.486 74.595 46.1915C74.1875 47.9293 76.9582 48.5312 77.6725 47.6084C78.2721 46.8356 78.0378 43.0929 78.1081 41.9547C78.3938 37.3525 78.7662 32.7199 79.052 28.1435C79.0988 27.4105 79.2464 20.3046 79.6398 20.2976L90.0175 46.2243C90.5656 48.0487 92.5516 48.8076 93.6196 46.9292L103.641 21.7075L106.035 47.0698C106.3 48.112 108.534 48.2689 109.054 47.6108C109.407 47.1611 109.29 45.873 109.262 45.2476C108.918 37.5258 107.588 28.6611 106.691 20.8878Z" fill="#FFFBF3"/>
<path d="M258.995 45.407C258.388 45.1447 257.196 44.2524 256.599 43.8214C253.309 41.4372 250.414 38.3855 247.214 35.8748C247.097 35.5727 248.046 35.0598 248.311 34.8677C251.554 32.4741 254.962 30.289 258.232 27.9258C259.749 25.7196 256.967 25.3308 255.252 26.1178C252.95 27.1764 249.299 30.5888 247.058 32.2095C246.727 32.4484 244.833 33.8677 244.638 33.6545V17.3748C244.638 16.7284 241.713 15.7026 241.373 17.8573L241.345 46.4305C240.957 48.365 244.638 48.3346 244.638 47.1191V37.8679C245.048 37.7649 245.107 38.0365 245.343 38.2169C248.493 40.6269 254.229 47.0512 257.702 48.1074C258.951 48.4868 261.962 48.4119 261.745 46.653C261.632 45.7466 259.763 45.7396 258.997 45.407H258.995Z" fill="#FFFBF3"/>
<path d="M122.796 26.2229C109.515 27.7499 110.54 48.7395 124.579 48.6177C140.275 48.4842 139.385 24.3164 122.796 26.2229ZM126.607 45.491C115.372 48.3764 113.152 30.6657 122.792 29.2629C134.317 27.5859 135.875 43.1091 126.607 45.491Z" fill="#FFFBF3"/>
<path d="M198.914 26.2229C184.829 27.9209 187.209 51.3018 203.006 48.3484C216.564 45.812 214.482 24.3469 198.914 26.2229ZM201.394 45.812C191.124 46.6083 189.804 30.5323 199.144 29.2629C211.517 27.579 211.557 45.0227 201.394 45.812Z" fill="#FFFBF3"/>
<path d="M148.091 26.2254C134.887 27.9258 135.798 49.358 150.597 48.639C165.441 47.9176 164.629 24.0965 148.091 26.2254ZM150.358 45.8355C140.187 46.2688 139.039 30.4856 148.562 29.2701C160.987 27.6845 160.67 45.3976 150.358 45.8355Z" fill="#FFFBF3"/>
<path d="M224.438 26.2185C210.385 27.9961 212.767 51.2575 228.534 48.3486C242.209 45.8239 240.045 24.2465 224.438 26.2185ZM226.712 45.8309C216.662 46.4047 215.278 30.549 224.672 29.2632C237.225 27.5464 237.23 45.229 226.712 45.8309Z" fill="#FFFBF3"/>
<path d="M181.501 46.7843C181.89 48.4401 184.501 48.6134 184.691 46.6648C184.995 43.5499 185.012 36.1677 184.651 33.0926C183.714 25.0663 174.03 24.1131 169.217 30.0198C168.912 30.3922 168.903 30.98 168.516 31.076V27.2116C168.516 26.762 165.764 25.9422 165.479 27.4529L165.458 46.6648C165.383 48.4729 168.233 48.5338 168.648 46.7843C169.751 42.1329 166.938 35.3058 171.013 31.3501C173.765 28.6778 179.627 28.3101 181.039 32.4883C182.335 36.3199 180.578 42.8613 181.498 46.7843H181.501Z" fill="#FFFBF3"/>
<path d="M288.39 29.9687C288.357 29.793 288.104 29.4511 287.877 29.4511H282.652V22.0736C282.652 21.9495 282.577 21.8253 282.434 21.7176C282.3 21.6169 282.085 21.5185 281.902 21.5537L266.306 21.5888L266.245 21.5982C265.993 21.6825 265.894 21.9073 265.822 22.0712L265.793 22.1368L265.756 42.6861L265.761 42.754C265.772 42.9953 265.793 43.3606 266.18 43.4918L266.21 43.5011L287.729 43.548C287.753 43.548 287.774 43.548 287.792 43.548C288.13 43.548 288.216 43.3887 288.303 43.1475L288.322 43.096L288.394 29.9804V29.9617L288.39 29.9687ZM281.848 30.772H287.073L287.003 42.2294H267.147V22.9472H281.331V30.2544C281.331 30.4324 281.668 30.7697 281.846 30.7697L281.848 30.772Z" fill="#FFFBF3"/>
<path d="M282.401 36.5145C277.098 38.0439 272.686 32.526 274.836 27.514C275.108 26.8816 276.363 25.5115 274.901 25.7153C272.618 26.0338 270.414 28.5187 269.786 30.65C267.95 36.8963 274.014 42.2339 280.033 39.9644C281.248 39.5054 283.518 37.8284 283.857 36.538C284.113 35.5613 282.815 36.3951 282.398 36.5169L282.401 36.5145Z" fill="#FFFBF3"/>
</svg>
