<svg width="180" height="40" viewBox="0 0 180 40" fill="none" xmlns="http://www.w3.org/2000/svg">
<path d="M0.654631 24.0964C1.6603 23.6654 8.79318 23.4635 9.01192 23.1037C9.11028 22.9419 9.04816 22.5601 9.03263 22.2508C9.02357 22.076 8.87213 21.9427 8.69611 21.9518C7.80693 21.9997 5.51343 22.375 5.37235 22.2754C5.13291 22.1058 5.16397 21.6683 5.18079 21.3137C5.18985 21.1441 5.32964 21.0108 5.49919 21.0108H8.55633C8.84366 21.0108 8.72458 19.6622 8.6521 19.6622H5.50308C5.32705 19.6622 5.18338 19.5185 5.18338 19.3425V18.6319C5.18338 18.4559 5.32705 18.3122 5.50308 18.3122H8.13956C8.31559 18.3122 8.45925 18.1686 8.45925 17.9925V11.8873C8.45925 11.7113 8.31559 11.5676 8.13956 11.5676H1.0714C0.895371 11.5676 0.751704 11.7113 0.751704 11.8873V17.9925C0.751704 18.1686 0.895371 18.3122 1.0714 18.3122H3.70788C3.88391 18.3122 4.02757 18.4559 4.02757 18.6319V19.3425C4.02757 19.5185 3.88391 19.6622 3.70788 19.6622H0.848776C0.455309 19.6622 0.455309 21.0108 0.848776 21.0108H3.69882C3.87226 21.0108 4.01463 21.1493 4.01851 21.3228C4.02757 21.724 4.07676 22.3142 4.02887 22.3608C3.91626 22.4721 1.62018 22.507 0.69346 22.5368C0.525202 22.542 0.394477 22.6766 0.386712 22.8436C0.36212 23.3457 0.175741 24.1301 0.654631 24.0964ZM7.11707 17.2677C7.05882 17.3091 6.03891 17.2949 5.53932 17.2328C5.38529 17.2134 5.26751 17.0865 5.25975 16.9325L5.20021 15.7573C5.19115 15.5748 5.33611 15.422 5.51861 15.422H6.97599C7.14813 15.422 7.2905 15.558 7.29568 15.7314C7.30992 16.2646 7.41217 17.058 7.11707 17.269V17.2677ZM5.50308 12.7234H6.98634C7.16237 12.7234 7.30603 12.8671 7.30603 13.0431V14.1407C7.30603 14.3167 7.16237 14.4604 6.98634 14.4604H5.50308C5.32705 14.4604 5.18338 14.3167 5.18338 14.1407V13.0431C5.18338 12.8671 5.32705 12.7234 5.50308 12.7234ZM3.70918 17.1577H2.41876C2.24274 17.1577 2.09907 17.014 2.09907 16.838V15.7404C2.09907 15.5644 2.24274 15.4208 2.41876 15.4208H3.70918C3.8852 15.4208 4.02887 15.5644 4.02887 15.7404V16.838C4.02887 17.014 3.8852 17.1577 3.70918 17.1577ZM3.70918 14.4604H2.41876C2.24274 14.4604 2.09907 14.3167 2.09907 14.1407V13.0431C2.09907 12.8671 2.24274 12.7234 2.41876 12.7234H3.70918C3.8852 12.7234 4.02887 12.8671 4.02887 13.0431V14.1407C4.02887 14.3167 3.8852 14.4604 3.70918 14.4604Z" fill="#FFFBF3"/>
<path d="M34.6834 18.5064H38.2841C38.4601 18.5064 38.6038 18.3627 38.6038 18.1867V12.0802C38.6038 11.9042 38.4601 11.7605 38.2841 11.7605H29.4803C29.3043 11.7605 29.1606 11.9042 29.1606 12.0802V18.1854C29.1606 18.3614 29.3043 18.5051 29.4803 18.5051H32.8882C33.0642 18.5051 33.2079 18.6488 33.2079 18.8248V19.7269C33.2079 19.9029 33.0642 20.0466 32.8882 20.0466H28.9017C28.7257 20.0466 28.582 20.1903 28.582 20.3663V28.5916C28.582 28.7676 28.7257 28.9113 28.9017 28.9113H29.6123C29.7883 28.9113 29.932 28.7676 29.932 28.5916V21.715C29.932 21.5389 30.0757 21.3953 30.2517 21.3953H32.6966C32.8726 21.3953 33.0163 21.5376 33.0163 21.715V23.3975C33.0163 23.5749 32.8726 23.7185 32.6966 23.7185C31.357 23.7185 30.1404 23.2849 30.6361 25.0258C30.6788 25.1746 30.8212 25.2743 30.9752 25.2587C31.876 25.1668 34.7157 24.4977 35.3939 24.666C35.7369 24.7514 35.7745 26.6139 36.872 25.7325C37.272 25.4115 36.2249 22.4864 36.089 22.3712C35.9854 22.2831 35.4975 22.366 35.3279 22.454C34.7895 22.7362 35.1273 23.4325 34.7558 23.5451C34.5604 23.6046 34.3663 23.4377 34.3663 23.2332V21.715C34.3663 21.5389 34.5086 21.3953 34.6847 21.3953H37.3211C37.4972 21.3953 37.6408 21.5389 37.6408 21.715V27.0798C37.6408 27.7684 36.2508 27.45 35.5363 27.3607C35.3176 27.3335 35.1377 27.5276 35.183 27.7425C35.2761 28.1903 35.4806 28.8401 35.5492 28.8828C36.0437 29.2012 38.9908 28.9436 38.9908 27.8499V20.365C38.9908 20.189 38.8471 20.0453 38.6711 20.0453H34.6847C34.5086 20.0453 34.365 19.9016 34.365 19.7256V18.8235C34.365 18.6475 34.5086 18.5038 34.6847 18.5038L34.6834 18.5064ZM37.3626 17.1616C37.1503 17.4722 35.5091 17.3894 34.7778 17.2949C34.6251 17.2755 34.5073 17.1513 34.4996 16.9985C34.4737 16.5455 34.5125 15.6589 34.5565 15.6136C34.6497 15.5153 37.07 15.5903 37.2655 15.7055C37.3289 15.7431 37.4053 17.1021 37.3638 17.1616H37.3626ZM34.6523 12.9176H37.127C37.303 12.9176 37.4467 13.0613 37.4467 13.2373V14.1394C37.4467 14.3154 37.303 14.4591 37.127 14.4591H34.5552C34.4724 14.4591 34.3235 12.9176 34.651 12.9176H34.6523ZM32.8882 17.3493H30.8289C30.6529 17.3493 30.5092 17.2056 30.5092 17.0296V15.9346C30.5092 15.7586 30.6529 15.6149 30.8289 15.6149H32.8882C33.0642 15.6149 33.2079 15.7586 33.2079 15.9346V17.0296C33.2079 17.2056 33.0642 17.3493 32.8882 17.3493ZM32.8882 14.4591H30.8289C30.6529 14.4591 30.5092 14.3154 30.5092 14.1394V13.2373C30.5092 13.0613 30.6529 12.9176 30.8289 12.9176H32.8882C33.0642 12.9176 33.2079 13.0613 33.2079 13.2373V14.1394C33.2079 14.3154 33.0642 14.4591 32.8882 14.4591Z" fill="#FFFBF3"/>
<path d="M26.0347 17.3012C27.0844 15.7726 28.0318 13.971 28.0163 12.0826C28.015 11.9053 27.8726 11.7616 27.6953 11.7616H22.7342C22.5582 11.7616 22.4146 11.9053 22.4146 12.0813V28.6237C22.4146 28.8813 23.0293 28.9331 23.4474 28.9292C23.6234 28.9279 23.7632 28.7855 23.7632 28.6095V13.4299C23.7632 13.2539 23.9069 13.1103 24.0829 13.1103H26.0774C26.2819 13.1103 26.4346 13.3005 26.3906 13.4998C26.0567 15.0038 25.0614 16.2645 24.2965 17.5743C24.2175 17.7089 24.2512 17.8797 24.3702 17.9794C25.7629 19.1404 26.9757 20.3985 26.6068 22.4111C26.291 24.1377 24.7585 23.6096 24.5463 23.9164C24.4634 24.0367 24.6951 25.1848 24.7469 25.2288C24.8323 25.3013 25.9286 25.2805 26.1603 25.2391C27.8338 24.9389 28.1781 22.1238 27.9839 20.7389C27.7911 19.3578 26.7595 18.6809 26.0308 17.6636C25.9532 17.5562 25.957 17.4112 26.0308 17.3012H26.0347Z" fill="#FFFBF3"/>
<path d="M17.2034 16.0006H13.7903C13.6143 16.0006 13.4706 15.8569 13.4706 15.6809V11.31C13.4706 11.134 13.3283 10.9904 13.1509 10.9904H12.4404C12.2643 10.9904 12.122 11.134 12.122 11.31V15.6809C12.122 15.8569 11.9783 16.0006 11.8023 16.0006H9.5502C9.37417 16.0006 9.2305 16.1443 9.2305 16.3203V17.0308C9.2305 17.2069 9.37417 17.3505 9.5502 17.3505H11.7764C11.9667 17.3505 12.1129 17.5162 12.0948 17.7052C11.9278 19.3878 11.181 21.1234 10.1896 22.4527C9.9579 22.7633 8.41639 24.1935 8.4604 24.3812C8.50311 24.565 9.09978 24.851 9.32758 24.851C10.1313 24.851 11.1901 23.2538 11.6819 22.6403C11.6961 22.6235 11.7065 22.6054 11.7169 22.586L12.5633 20.8943C12.6863 20.6484 13.0396 20.6639 13.1445 20.9189C13.7955 22.4889 14.7882 23.8971 16.0385 25.0464C16.1641 25.1616 16.3582 25.1552 16.4786 25.0348L17.0714 24.4433C17.2021 24.3126 17.1969 24.0964 17.0558 23.9774C15.2529 22.4475 13.8848 20.0919 13.6829 17.7026C13.6674 17.5136 13.8123 17.3505 14.0013 17.3505H17.0338C17.0817 17.3505 17.149 17.5059 17.2267 17.4994C17.5723 17.4696 17.5399 16.7707 17.5205 16.3073C17.5127 16.1365 17.3729 16.0019 17.2008 16.0019L17.2034 16.0006Z" fill="#FFFBF3"/>
<path d="M13.7618 24.5339C13.3373 24.5054 12.7316 24.8756 12.993 25.4386C13.3658 26.2411 14.6238 27.4538 15.1195 28.4375C15.1778 28.5527 15.2994 28.6213 15.4289 28.6122L16.23 28.5501C16.4475 28.5333 16.586 28.3094 16.5006 28.1074C16.0553 27.0565 14.0129 24.5494 13.7631 24.5339H13.7618Z" fill="#FFFBF3"/>
<path d="M1.61896 25.0581C1.49082 25.2134 0.429496 27.7036 0.169342 28.2356C0.102038 28.3741 -0.176236 28.4504 0.170636 28.6264C0.293595 28.6886 1.33551 28.8633 1.43905 28.8465C1.74062 28.7986 2.60262 26.3757 2.9495 25.3868C3.01033 25.2147 2.91326 25.0283 2.73853 24.9765C2.34765 24.86 1.89853 24.7202 1.61766 25.0594L1.61896 25.0581Z" fill="#FFFBF3"/>
<path d="M5.1253 25.0244C4.95186 25.0684 4.84702 25.2458 4.89491 25.4179C5.10718 26.179 5.35568 26.9361 5.52006 27.7101C5.57701 27.9806 5.533 28.6847 5.56795 28.721C5.61195 28.7675 6.19439 28.721 6.59562 28.7106C6.78847 28.7054 6.93214 28.5346 6.90366 28.3443C6.76258 27.4047 6.14261 25.0296 5.93553 24.8795C5.80739 24.7863 5.43463 24.9455 5.124 25.0257L5.1253 25.0244Z" fill="#FFFBF3"/>
<path d="M14.9517 11.591C13.2069 11.736 15.7114 14.2443 15.8085 15.1102C16.1243 15.7172 17.0005 15.2163 16.9138 14.6015C16.853 14.1718 15.3348 11.5586 14.9517 11.591Z" fill="#FFFBF3"/>
<path d="M10.1665 25.4749C9.87142 25.2911 9.02236 25.4153 9.0353 25.9188C9.03919 26.0754 9.57761 27.0435 9.70446 27.3788C9.81318 27.6661 9.96979 28.6549 10.0216 28.699C10.1639 28.8193 11.2926 28.8504 11.2783 28.321C11.2693 28.0065 10.2998 25.5564 10.1678 25.4736L10.1665 25.4749Z" fill="#FFFBF3"/>
<path d="M60.7503 13.5565C60.6843 12.9857 60.8137 12.2454 60.5484 11.6875C60.1588 10.8708 58.7364 11.0236 58.3131 11.7665L52.5975 25.7863C50.9369 21.1696 49.0265 16.6149 47.2702 12.0215C46.1027 10.788 44.2091 10.5964 43.9257 12.6505C43.2656 17.4252 43.6785 22.7292 43.0132 27.5401C42.788 28.5005 44.3192 28.8331 44.7139 28.3232C45.0453 27.896 44.9158 25.8278 44.9547 25.1987C45.1126 22.6554 45.3184 20.0953 45.4763 17.5662C45.5021 17.1611 45.5837 13.2342 45.8011 13.2303L51.5362 27.5582C51.839 28.5665 52.9366 28.9858 53.5268 27.9478L59.0651 14.0095L60.3879 28.0255C60.5341 28.6014 61.7689 28.6882 62.0562 28.3245C62.2517 28.076 62.187 27.3641 62.1714 27.0185C61.9812 22.7512 61.246 17.8523 60.7503 13.5565Z" fill="#FFFBF3"/>
<path d="M144.919 27.1065C144.583 26.9615 143.925 26.4684 143.595 26.2303C141.776 24.9127 140.176 23.2262 138.408 21.8387C138.344 21.6717 138.868 21.3883 139.014 21.2822C140.807 19.9594 142.69 18.7518 144.497 17.4459C145.335 16.2266 143.798 16.0118 142.85 16.4467C141.578 17.0317 139.56 18.9175 138.322 19.8131C138.139 19.9451 137.092 20.7295 136.985 20.6117V11.615C136.985 11.2578 135.368 10.6909 135.18 11.8817L135.165 27.6721C134.95 28.7412 136.985 28.7244 136.985 28.0526V22.9401C137.211 22.8832 137.243 23.0333 137.374 23.133C139.115 24.4648 142.285 28.0151 144.204 28.5988C144.894 28.8085 146.559 28.7671 146.438 27.7951C146.376 27.2942 145.343 27.2903 144.92 27.1065H144.919Z" fill="#FFFBF3"/>
<path d="M69.651 16.5049C62.311 17.3488 62.8779 28.9483 70.636 28.881C79.3104 28.8072 78.8185 15.4513 69.651 16.5049ZM71.7568 27.1531C65.5481 28.7477 64.3211 18.9602 69.6484 18.1849C76.0177 17.2582 76.8784 25.8368 71.7568 27.1531Z" fill="#FFFBF3"/>
<path d="M111.716 16.5049C103.932 17.4433 105.247 30.3642 113.977 28.7321C121.47 27.3304 120.319 15.4682 111.716 16.5049ZM113.087 27.3304C107.411 27.7705 106.681 18.8864 111.843 18.1849C118.681 17.2543 118.703 26.8942 113.087 27.3304Z" fill="#FFFBF3"/>
<path d="M83.6297 16.5061C76.3324 17.4458 76.8359 29.2899 85.0146 28.8926C93.2179 28.4939 92.7687 15.3296 83.6297 16.5061ZM84.8826 27.3433C79.2614 27.5828 78.6272 18.8605 83.8898 18.1887C90.7561 17.3125 90.5814 27.1013 84.8826 27.3433Z" fill="#FFFBF3"/>
<path d="M125.821 16.5023C118.055 17.4847 119.372 30.3396 128.085 28.7321C135.642 27.3369 134.446 15.4125 125.821 16.5023ZM127.078 27.3407C121.524 27.6578 120.759 18.8954 125.951 18.1849C132.888 17.2362 132.891 27.0081 127.078 27.3407Z" fill="#FFFBF3"/>
<path d="M102.093 27.8675C102.308 28.7826 103.751 28.8784 103.856 27.8015C104.024 26.0801 104.033 22.0005 103.834 20.3011C103.316 15.8655 97.964 15.3387 95.3042 18.6029C95.136 18.8087 95.1308 19.1336 94.9172 19.1867V17.0511C94.9172 16.8026 93.3964 16.3496 93.2385 17.1844L93.2269 27.8015C93.1855 28.8007 94.7606 28.8344 94.9897 27.8675C95.5993 25.2971 94.0449 21.5242 96.297 19.3381C97.8178 17.8613 101.057 17.6581 101.838 19.9671C102.554 22.0846 101.583 25.6996 102.092 27.8675H102.093Z" fill="#FFFBF3"/>
<path d="M162.952 18.5751C162.934 18.478 162.794 18.289 162.669 18.289H159.781V14.212C159.781 14.1434 159.74 14.0748 159.661 14.0153C159.587 13.9596 159.468 13.9053 159.367 13.9247L150.748 13.9441L150.714 13.9493C150.575 13.9959 150.52 14.1201 150.48 14.2107L150.465 14.247L150.444 25.6031L150.446 25.6407C150.453 25.774 150.465 25.9759 150.678 26.0484L150.695 26.0535L162.587 26.0794C162.6 26.0794 162.612 26.0794 162.622 26.0794C162.808 26.0794 162.856 25.9914 162.904 25.8581L162.914 25.8296L162.955 18.5816V18.5712L162.952 18.5751ZM159.337 19.019H162.225L162.186 25.3507H151.213V14.6948H159.051V18.733C159.051 18.8314 159.237 19.0177 159.336 19.0177L159.337 19.019Z" fill="#FFFBF3"/>
<path d="M159.642 22.1926C156.712 23.0378 154.274 19.9884 155.462 17.2186C155.612 16.8691 156.306 16.112 155.498 16.2246C154.236 16.4006 153.018 17.7738 152.671 18.9517C151.657 22.4035 155.007 25.3533 158.334 24.0991C159.006 23.8454 160.26 22.9187 160.447 22.2055C160.589 21.6658 159.871 22.1266 159.641 22.1939L159.642 22.1926Z" fill="#FFFBF3"/>
</svg>
