<svg width="333" height="59" viewBox="0 0 333 59" fill="none" xmlns="http://www.w3.org/2000/svg">
<g clip-path="url(#clip0_3039_2938)">
<path d="M1.3715 37.9164C3.47862 37.0133 18.4237 36.5903 18.882 35.8364C19.0881 35.4974 18.9579 34.6974 18.9254 34.0493C18.9064 33.6832 18.5891 33.4038 18.2203 33.4228C16.3573 33.5232 11.5518 34.3096 11.2562 34.1008C10.7545 33.7455 10.8196 32.8289 10.8549 32.0859C10.8739 31.7306 11.1668 31.4513 11.522 31.4513H17.9274C18.5295 31.4513 18.28 28.6255 18.1281 28.6255H11.5301C11.1613 28.6255 10.8603 28.3245 10.8603 27.9557V26.4669C10.8603 26.0981 11.1613 25.7971 11.5301 25.7971H17.0542C17.423 25.7971 17.724 25.496 17.724 25.1272V12.3354C17.724 11.9665 17.423 11.6655 17.0542 11.6655H2.24472C1.8759 11.6655 1.57489 11.9665 1.57489 12.3354V25.1272C1.57489 25.496 1.8759 25.7971 2.24472 25.7971H7.76879C8.1376 25.7971 8.43862 26.0981 8.43862 26.4669V27.9557C8.43862 28.3245 8.1376 28.6255 7.76879 28.6255H1.77828C0.953871 28.6255 0.953871 31.4513 1.77828 31.4513H7.7498C8.11319 31.4513 8.4115 31.7415 8.41963 32.1049C8.43862 32.9455 8.54167 34.1821 8.44133 34.2798C8.2054 34.513 3.39455 34.5862 1.45285 34.6486C1.10031 34.6594 0.826414 34.9415 0.810142 35.2913C0.758617 36.3435 0.368109 37.9869 1.3715 37.9164ZM14.9118 23.6086C14.7898 23.6954 12.6529 23.6655 11.6061 23.5354C11.2834 23.4947 11.0366 23.2289 11.0203 22.9062L10.8956 20.4438C10.8766 20.0615 11.1803 19.7415 11.5627 19.7415H14.6162C14.9769 19.7415 15.2752 20.0262 15.2861 20.3896C15.3159 21.5069 15.5301 23.1693 14.9118 23.6113V23.6086ZM11.5301 14.0872H14.6379C15.0068 14.0872 15.3078 14.3882 15.3078 14.7571V17.0567C15.3078 17.4255 15.0068 17.7265 14.6379 17.7265H11.5301C11.1613 17.7265 10.8603 17.4255 10.8603 17.0567V14.7571C10.8603 14.3882 11.1613 14.0872 11.5301 14.0872ZM7.7715 23.3781H5.06777C4.69896 23.3781 4.39794 23.0771 4.39794 22.7082V20.4086C4.39794 20.0398 4.69896 19.7387 5.06777 19.7387H7.7715C8.14031 19.7387 8.44133 20.0398 8.44133 20.4086V22.7082C8.44133 23.0771 8.14031 23.3781 7.7715 23.3781ZM7.7715 17.7265H5.06777C4.69896 17.7265 4.39794 17.4255 4.39794 17.0567V14.7571C4.39794 14.3882 4.69896 14.0872 5.06777 14.0872H7.7715C8.14031 14.0872 8.44133 14.3882 8.44133 14.7571V17.0567C8.44133 17.4255 8.14031 17.7265 7.7715 17.7265Z" fill="#FFFBF3"/>
<path d="M72.6692 26.2036H80.2136C80.5824 26.2036 80.8835 25.9026 80.8835 25.5337V12.7392C80.8835 12.3704 80.5824 12.0693 80.2136 12.0693H61.7675C61.3987 12.0693 61.0977 12.3704 61.0977 12.7392V25.531C61.0977 25.8998 61.3987 26.2009 61.7675 26.2009H68.9079C69.2767 26.2009 69.5777 26.5019 69.5777 26.8707V28.7609C69.5777 29.1297 69.2767 29.4307 68.9079 29.4307H60.5553C60.1865 29.4307 59.8855 29.7317 59.8855 30.1005V47.3344C59.8855 47.7032 60.1865 48.0043 60.5553 48.0043H62.0441C62.413 48.0043 62.714 47.7032 62.714 47.3344V32.9263C62.714 32.5575 63.015 32.2565 63.3838 32.2565H68.5065C68.8753 32.2565 69.1763 32.5548 69.1763 32.9263V36.4517C69.1763 36.8232 68.8753 37.1243 68.5065 37.1243C65.6997 37.1243 63.1506 36.2158 64.1892 39.8632C64.2787 40.1751 64.577 40.3839 64.8997 40.3514C66.7872 40.1588 72.737 38.7568 74.158 39.1093C74.8767 39.2883 74.9553 43.1907 77.255 41.3439C78.093 40.6714 75.8991 34.5426 75.6143 34.3012C75.3974 34.1168 74.375 34.2904 74.0197 34.4748C72.8916 35.0659 73.5994 36.5249 72.8211 36.7609C72.4116 36.8856 72.0048 36.5358 72.0048 36.1073V32.9263C72.0048 32.5575 72.3031 32.2565 72.6719 32.2565H78.196C78.5648 32.2565 78.8658 32.5575 78.8658 32.9263V44.167C78.8658 45.6097 75.9533 44.9426 74.4563 44.7554C73.998 44.6985 73.6211 45.1053 73.716 45.5554C73.9113 46.4937 74.3397 47.8551 74.4835 47.9446C75.5194 48.6117 81.6943 48.072 81.6943 45.7805V30.0978C81.6943 29.729 81.3933 29.428 81.0245 29.428H72.6719C72.3031 29.428 72.0021 29.127 72.0021 28.7581V26.868C72.0021 26.4992 72.3031 26.1981 72.6719 26.1981L72.6692 26.2036ZM78.2828 23.3859C77.838 24.0368 74.3994 23.8632 72.8672 23.6653C72.5472 23.6246 72.3004 23.3643 72.2841 23.0443C72.2299 22.0951 72.3113 20.2375 72.4035 20.1426C72.5987 19.9365 77.6699 20.0937 78.0794 20.3351C78.2123 20.4137 78.3723 23.2612 78.2855 23.3859H78.2828ZM72.6041 14.4937H77.7892C78.158 14.4937 78.4591 14.7948 78.4591 15.1636V17.0537C78.4591 17.4226 78.158 17.7236 77.7892 17.7236H72.4008C72.2272 17.7236 71.9153 14.4937 72.6014 14.4937H72.6041ZM68.9079 23.7792H64.5933C64.2245 23.7792 63.9235 23.4781 63.9235 23.1093V20.8151C63.9235 20.4463 64.2245 20.1453 64.5933 20.1453H68.9079C69.2767 20.1453 69.5777 20.4463 69.5777 20.8151V23.1093C69.5777 23.4781 69.2767 23.7792 68.9079 23.7792ZM68.9079 17.7236H64.5933C64.2245 17.7236 63.9235 17.4226 63.9235 17.0537V15.1636C63.9235 14.7948 64.2245 14.4937 64.5933 14.4937H68.9079C69.2767 14.4937 69.5777 14.7948 69.5777 15.1636V17.0537C69.5777 17.4226 69.2767 17.7236 68.9079 17.7236Z" fill="#FFFBF3"/>
<path d="M54.5485 23.6786C56.7478 20.4758 58.7329 16.7009 58.7003 12.7443C58.6976 12.3728 58.3993 12.0718 58.0278 12.0718H47.6332C47.2644 12.0718 46.9634 12.3728 46.9634 12.7416V47.4019C46.9634 47.9416 48.2515 48.0501 49.1274 48.0419C49.4963 48.0392 49.7891 47.7409 49.7891 47.3721V15.5674C49.7891 15.1986 50.0902 14.8975 50.459 14.8975H54.638C55.0664 14.8975 55.3864 15.2962 55.2942 15.7138C54.5946 18.865 52.5091 21.5064 50.9064 24.2508C50.741 24.5328 50.8115 24.8908 51.061 25.0996C53.979 27.5321 56.52 30.168 55.7471 34.385C55.0854 38.0026 51.8746 36.8962 51.4298 37.5389C51.2563 37.7911 51.7417 40.1965 51.8502 40.2887C52.0291 40.4406 54.3261 40.3972 54.8115 40.3104C58.318 39.6813 59.0393 33.783 58.6325 30.8813C58.2285 27.9877 56.0671 26.5694 54.5403 24.4379C54.3776 24.2128 54.3858 23.9091 54.5403 23.6786H54.5485Z" fill="#FFFBF3"/>
<path d="M36.0459 20.9537H28.8947C28.5259 20.9537 28.2249 20.6527 28.2249 20.2839V11.1259C28.2249 10.7571 27.9266 10.4561 27.5551 10.4561H26.0663C25.6974 10.4561 25.3991 10.7571 25.3991 11.1259V20.2839C25.3991 20.6527 25.0981 20.9537 24.7293 20.9537H20.0107C19.6419 20.9537 19.3408 21.2547 19.3408 21.6235V23.1123C19.3408 23.4811 19.6419 23.7822 20.0107 23.7822H24.6751C25.0737 23.7822 25.3802 24.1293 25.3422 24.5252C24.9924 28.0506 23.4276 31.6872 21.3503 34.4723C20.8649 35.1232 17.6351 38.1198 17.7273 38.513C17.8168 38.8981 19.0669 39.4974 19.5442 39.4974C21.2283 39.4974 23.4466 36.151 24.4771 34.8655C24.5069 34.8303 24.5286 34.7923 24.5503 34.7516L26.3239 31.2072C26.5815 30.692 27.3219 30.7245 27.5415 31.2588C28.9056 34.5483 30.9856 37.4988 33.6052 39.9069C33.8683 40.1483 34.2751 40.1347 34.5273 39.8825L35.7693 38.6432C36.0432 38.3693 36.0324 37.9164 35.7368 37.6669C31.9591 34.4615 29.0927 29.5259 28.6697 24.5198C28.6371 24.1239 28.9408 23.7822 29.3368 23.7822H35.6907C35.791 23.7822 35.932 24.1076 36.0947 24.094C36.8188 24.0316 36.751 22.5672 36.7103 21.5964C36.6941 21.2384 36.4012 20.9564 36.0405 20.9564L36.0459 20.9537Z" fill="#FFFBF3"/>
<path d="M28.8346 38.8328C27.9451 38.7731 26.6759 39.5487 27.2237 40.7284C28.0047 42.4098 30.6407 44.9508 31.6793 47.0118C31.8014 47.2531 32.0563 47.3969 32.3275 47.3779L34.0061 47.2477C34.4617 47.2125 34.7519 46.7433 34.5729 46.3203C33.64 44.1182 29.3607 38.8653 28.8373 38.8328H28.8346Z" fill="#FFFBF3"/>
<path d="M3.3921 39.9312C3.12363 40.2566 0.899896 45.4742 0.354811 46.5888C0.213794 46.879 -0.369256 47.039 0.357523 47.4078C0.61515 47.538 2.7982 47.9041 3.01515 47.8688C3.64702 47.7685 5.45312 42.6919 6.1799 40.62C6.30735 40.2593 6.10396 39.8688 5.73786 39.7603C4.91888 39.5163 3.97786 39.2234 3.38939 39.9339L3.3921 39.9312Z" fill="#FFFBF3"/>
<path d="M10.7386 39.8608C10.3752 39.953 10.1556 40.3245 10.2559 40.6852C10.7006 42.2798 11.2213 43.8662 11.5657 45.4879C11.685 46.0547 11.5928 47.5299 11.6661 47.6059C11.7583 47.7035 12.9786 47.6059 13.8193 47.5842C14.2233 47.5733 14.5244 47.2154 14.4647 46.8167C14.1691 44.8479 12.8701 39.8716 12.4362 39.5571C12.1678 39.3618 11.3867 39.6954 10.7359 39.8635L10.7386 39.8608Z" fill="#FFFBF3"/>
<path d="M31.327 11.7145C27.6714 12.0182 32.9188 17.2738 33.1222 19.0881C33.7839 20.3599 35.6199 19.3104 35.4382 18.0223C35.3107 17.1219 32.1297 11.6467 31.327 11.7145Z" fill="#FFFBF3"/>
<path d="M21.301 40.8048C20.6827 40.4197 18.9037 40.68 18.9308 41.7349C18.939 42.0631 20.0671 44.0916 20.3329 44.7939C20.5607 45.396 20.8888 47.4678 20.9973 47.56C21.2956 47.8122 23.6603 47.8773 23.6305 46.7682C23.6115 46.1092 21.5803 40.9756 21.3037 40.8021L21.301 40.8048Z" fill="#FFFBF3"/>
<path d="M122.905 15.8325C122.767 14.6366 123.038 13.0854 122.482 11.9166C121.666 10.2054 118.685 10.5254 117.798 12.082L105.823 41.4569C102.343 31.7837 98.3408 22.2407 94.6608 12.6163C92.2147 10.0319 88.2472 9.6305 87.6533 13.9342C86.2703 23.9383 87.1354 35.0515 85.7415 45.1315C85.2696 47.1437 88.4777 47.8407 89.3048 46.7722C89.9991 45.8773 89.7279 41.5437 89.8092 40.2258C90.1401 34.8969 90.5713 29.5329 90.9021 24.2339C90.9564 23.3851 91.1272 15.1573 91.5828 15.1491L103.599 45.1695C104.234 47.282 106.533 48.1607 107.77 45.9858L119.374 16.7817L122.146 46.1485C122.452 47.3552 125.039 47.5369 125.641 46.7749C126.051 46.2542 125.915 44.7627 125.882 44.0386C125.484 35.0976 123.943 24.8332 122.905 15.8325Z" fill="#FFFBF3"/>
<path d="M299.257 44.2232C298.555 43.9194 297.174 42.8862 296.483 42.3872C292.673 39.6266 289.321 36.093 285.617 33.1859C285.481 32.836 286.579 32.2421 286.886 32.0198C290.642 29.2482 294.587 26.7181 298.373 23.9818C300.13 21.4272 296.909 20.9771 294.924 21.8882C292.258 23.114 288.03 27.0652 285.435 28.9418C285.052 29.2184 282.859 30.8618 282.633 30.615V11.7649C282.633 11.0164 279.246 9.82858 278.853 12.3235L278.821 45.4082C278.37 47.6482 282.633 47.613 282.633 46.2055V35.4937C283.108 35.3743 283.176 35.6889 283.45 35.8977C287.097 38.6882 293.739 46.1269 297.76 47.3499C299.206 47.7893 302.693 47.7025 302.441 45.6659C302.311 44.6164 300.147 44.6082 299.26 44.2232H299.257Z" fill="#FFFBF3"/>
<path d="M141.554 22.0103C126.175 23.7784 127.363 48.0821 143.618 47.9411C161.793 47.7865 160.762 19.8028 141.554 22.0103ZM145.966 44.3208C132.957 47.6618 130.387 27.1547 141.549 25.5303C154.894 23.5886 156.697 41.5628 145.966 44.3208Z" fill="#FFFBF3"/>
<path d="M229.69 22.0103C213.381 23.9764 216.136 51.0489 234.427 47.6293C250.126 44.6923 247.716 19.8381 229.69 22.0103ZM232.562 44.6923C220.67 45.6143 219.141 27.0001 229.956 25.5303C244.282 23.5804 244.328 43.7784 232.562 44.6923Z" fill="#FFFBF3"/>
<path d="M170.842 22.0128C155.553 23.9816 156.608 48.7979 173.744 47.9653C190.932 47.1301 189.991 19.5477 170.842 22.0128ZM173.467 44.7192C161.69 45.2209 160.361 26.9457 171.387 25.5382C185.774 23.7023 185.408 44.2121 173.467 44.7192Z" fill="#FFFBF3"/>
<path d="M259.244 22.0047C242.972 24.063 245.73 50.9972 263.987 47.6291C279.821 44.7057 277.315 19.7213 259.244 22.0047ZM261.877 44.7138C250.24 45.3782 248.637 27.0189 259.515 25.5301C274.05 23.5423 274.056 44.0169 261.877 44.7138Z" fill="#FFFBF3"/>
<path d="M209.527 45.8175C209.977 47.7348 213.001 47.9355 213.221 45.6792C213.573 42.0725 213.592 33.5247 213.175 29.964C212.09 20.6704 200.876 19.5667 195.303 26.406C194.951 26.8372 194.94 27.5179 194.492 27.6291V23.1545C194.492 22.6338 191.306 21.6847 190.975 23.4338L190.951 45.6792C190.864 47.7728 194.164 47.8433 194.644 45.8175C195.922 40.4318 192.665 32.5267 197.383 27.9464C200.57 24.8521 207.358 24.4264 208.993 29.2643C210.492 33.7009 208.459 41.2752 209.524 45.8175H209.527Z" fill="#FFFBF3"/>
<path d="M332.661 26.3478C332.623 26.1445 332.33 25.7485 332.067 25.7485H326.017V17.2062C326.017 17.0624 325.93 16.9187 325.765 16.7939C325.61 16.6773 325.361 16.5634 325.149 16.6041L307.091 16.6448L307.021 16.6556C306.728 16.7533 306.614 17.0136 306.53 17.2034L306.497 17.2794L306.454 41.0733L306.459 41.1519C306.473 41.4312 306.497 41.8543 306.945 42.0062L306.98 42.017L331.896 42.0712C331.924 42.0712 331.948 42.0712 331.97 42.0712C332.36 42.0712 332.461 41.8868 332.561 41.6075L332.583 41.5478L332.667 26.3614V26.3397L332.661 26.3478ZM325.087 27.278H331.137L331.056 40.5445H308.065V18.2177H324.488V26.6787C324.488 26.8848 324.878 27.2753 325.084 27.2753L325.087 27.278Z" fill="#FFFBF3"/>
<path d="M325.727 33.9275C319.587 35.6984 314.478 29.3092 316.967 23.5058C317.282 22.7736 318.735 21.1872 317.043 21.4231C314.399 21.7919 311.847 24.6692 311.121 27.137C308.994 34.3695 316.015 40.5499 322.985 37.9221C324.392 37.3906 327.02 35.4489 327.413 33.9546C327.709 32.8238 326.207 33.7892 325.724 33.9302L325.727 33.9275Z" fill="#FFFBF3"/>
</g>
<defs>
<clipPath id="clip0_3039_2938">
<rect width="332.667" height="58.6667" fill="white"/>
</clipPath>
</defs>
</svg>
