<svg width="180" height="40" viewBox="0 0 180 40" fill="none" xmlns="http://www.w3.org/2000/svg">
<path d="M0.654631 24.0962C1.6603 23.6652 8.79318 23.4633 9.01192 23.1035C9.11028 22.9417 9.04816 22.5599 9.03263 22.2505C9.02357 22.0758 8.87213 21.9425 8.69611 21.9515C7.80693 21.9994 5.51343 22.3748 5.37235 22.2751C5.13291 22.1056 5.16397 21.6681 5.18079 21.3135C5.18985 21.1439 5.32964 21.0106 5.49919 21.0106H8.55633C8.84366 21.0106 8.72458 19.6619 8.6521 19.6619H5.50308C5.32705 19.6619 5.18338 19.5183 5.18338 19.3422V18.6317C5.18338 18.4556 5.32705 18.312 5.50308 18.312H8.13956C8.31559 18.312 8.45925 18.1683 8.45925 17.9923V11.8871C8.45925 11.711 8.31559 11.5674 8.13956 11.5674H1.0714C0.895371 11.5674 0.751704 11.711 0.751704 11.8871V17.9923C0.751704 18.1683 0.895371 18.312 1.0714 18.312H3.70788C3.88391 18.312 4.02757 18.4556 4.02757 18.6317V19.3422C4.02757 19.5183 3.88391 19.6619 3.70788 19.6619H0.848776C0.455309 19.6619 0.455309 21.0106 0.848776 21.0106H3.69882C3.87226 21.0106 4.01463 21.1491 4.01851 21.3225C4.02757 21.7237 4.07676 22.3139 4.02887 22.3605C3.91626 22.4719 1.62018 22.5068 0.69346 22.5366C0.525202 22.5417 0.394477 22.6764 0.386712 22.8433C0.36212 23.3455 0.175741 24.1298 0.654631 24.0962ZM7.11707 17.2675C7.05882 17.3089 6.03891 17.2947 5.53932 17.2325C5.38529 17.2131 5.26751 17.0863 5.25975 16.9323L5.20021 15.757C5.19115 15.5745 5.33611 15.4218 5.51861 15.4218H6.97599C7.14813 15.4218 7.2905 15.5577 7.29568 15.7311C7.30992 16.2644 7.41217 17.0578 7.11707 17.2688V17.2675ZM5.50308 12.7232H6.98634C7.16237 12.7232 7.30603 12.8669 7.30603 13.0429V14.1404C7.30603 14.3165 7.16237 14.4601 6.98634 14.4601H5.50308C5.32705 14.4601 5.18338 14.3165 5.18338 14.1404V13.0429C5.18338 12.8669 5.32705 12.7232 5.50308 12.7232ZM3.70918 17.1575H2.41876C2.24274 17.1575 2.09907 17.0138 2.09907 16.8378V15.7402C2.09907 15.5642 2.24274 15.4205 2.41876 15.4205H3.70918C3.8852 15.4205 4.02887 15.5642 4.02887 15.7402V16.8378C4.02887 17.0138 3.8852 17.1575 3.70918 17.1575ZM3.70918 14.4601H2.41876C2.24274 14.4601 2.09907 14.3165 2.09907 14.1404V13.0429C2.09907 12.8669 2.24274 12.7232 2.41876 12.7232H3.70918C3.8852 12.7232 4.02887 12.8669 4.02887 13.0429V14.1404C4.02887 14.3165 3.8852 14.4601 3.70918 14.4601Z" fill="#849266"/>
<path d="M34.6829 18.5061H38.2836C38.4596 18.5061 38.6033 18.3625 38.6033 18.1864V12.0799C38.6033 11.9039 38.4596 11.7603 38.2836 11.7603H29.4798C29.3038 11.7603 29.1601 11.9039 29.1601 12.0799V18.1852C29.1601 18.3612 29.3038 18.5048 29.4798 18.5048H32.8877C33.0637 18.5048 33.2074 18.6485 33.2074 18.8245V19.7267C33.2074 19.9027 33.0637 20.0464 32.8877 20.0464H28.9012C28.7252 20.0464 28.5815 20.19 28.5815 20.366V28.5913C28.5815 28.7673 28.7252 28.911 28.9012 28.911H29.6118C29.7878 28.911 29.9315 28.7673 29.9315 28.5913V21.7147C29.9315 21.5387 30.0752 21.395 30.2512 21.395H32.6961C32.8721 21.395 33.0158 21.5374 33.0158 21.7147V23.3973C33.0158 23.5746 32.8721 23.7183 32.6961 23.7183C31.3565 23.7183 30.1399 23.2847 30.6356 25.0255C30.6783 25.1744 30.8207 25.274 30.9747 25.2585C31.8755 25.1666 34.7152 24.4975 35.3934 24.6657C35.7364 24.7511 35.774 26.6136 36.8715 25.7322C37.2715 25.4112 36.2244 22.4861 36.0885 22.3709C35.9849 22.2829 35.497 22.3657 35.3274 22.4538C34.789 22.7359 35.1268 23.4322 34.7553 23.5448C34.5599 23.6044 34.3658 23.4374 34.3658 23.2329V21.7147C34.3658 21.5387 34.5081 21.395 34.6842 21.395H37.3207C37.4967 21.395 37.6403 21.5387 37.6403 21.7147V27.0796C37.6403 27.7681 36.2503 27.4497 35.5358 27.3604C35.3171 27.3333 35.1372 27.5274 35.1825 27.7423C35.2757 28.1901 35.4802 28.8398 35.5488 28.8825C36.0432 29.2009 38.9903 28.9434 38.9903 27.8497V20.3648C38.9903 20.1887 38.8466 20.0451 38.6706 20.0451H34.6842C34.5081 20.0451 34.3645 19.9014 34.3645 19.7254V18.8232C34.3645 18.6472 34.5081 18.5036 34.6842 18.5036L34.6829 18.5061ZM37.3621 17.1614C37.1498 17.472 35.5086 17.3892 34.7774 17.2947C34.6246 17.2753 34.5068 17.151 34.4991 16.9983C34.4732 16.5453 34.512 15.6587 34.556 15.6134C34.6492 15.515 37.0696 15.5901 37.265 15.7053C37.3284 15.7428 37.4048 17.1018 37.3634 17.1614H37.3621ZM34.6518 12.9174H37.1265C37.3025 12.9174 37.4462 13.061 37.4462 13.237V14.1392C37.4462 14.3152 37.3025 14.4589 37.1265 14.4589H34.5547C34.4719 14.4589 34.3231 12.9174 34.6505 12.9174H34.6518ZM32.8877 17.349H30.8284C30.6524 17.349 30.5088 17.2054 30.5088 17.0293V15.9344C30.5088 15.7583 30.6524 15.6147 30.8284 15.6147H32.8877C33.0637 15.6147 33.2074 15.7583 33.2074 15.9344V17.0293C33.2074 17.2054 33.0637 17.349 32.8877 17.349ZM32.8877 14.4589H30.8284C30.6524 14.4589 30.5088 14.3152 30.5088 14.1392V13.237C30.5088 13.061 30.6524 12.9174 30.8284 12.9174H32.8877C33.0637 12.9174 33.2074 13.061 33.2074 13.237V14.1392C33.2074 14.3152 33.0637 14.4589 32.8877 14.4589Z" fill="#849266"/>
<path d="M26.0345 17.3011C27.0841 15.7725 28.0316 13.9708 28.016 12.0825C28.0147 11.9051 27.8724 11.7615 27.695 11.7615H22.734C22.558 11.7615 22.4143 11.9051 22.4143 12.0812V28.6236C22.4143 28.8812 23.0291 28.9329 23.4472 28.9291C23.6232 28.9278 23.763 28.7854 23.763 28.6094V13.4298C23.763 13.2538 23.9066 13.1101 24.0827 13.1101H26.0772C26.2817 13.1101 26.4344 13.3004 26.3904 13.4997C26.0565 15.0037 25.0611 16.2643 24.2962 17.5742C24.2173 17.7088 24.2509 17.8796 24.37 17.9793C25.7627 19.1403 26.9754 20.3983 26.6065 22.411C26.2907 24.1376 24.7583 23.6095 24.546 23.9162C24.4632 24.0366 24.6949 25.1846 24.7466 25.2287C24.8321 25.3011 25.9283 25.2804 26.16 25.239C27.8335 24.9387 28.1778 22.1236 27.9837 20.7387C27.7908 19.3577 26.7593 18.6808 26.0306 17.6635C25.9529 17.5561 25.9568 17.4111 26.0306 17.3011H26.0345Z" fill="#849266"/>
<path d="M17.2034 16.0005H13.7903C13.6143 16.0005 13.4706 15.8568 13.4706 15.6808V11.3099C13.4706 11.1339 13.3283 10.9902 13.1509 10.9902H12.4404C12.2643 10.9902 12.122 11.1339 12.122 11.3099V15.6808C12.122 15.8568 11.9783 16.0005 11.8023 16.0005H9.5502C9.37417 16.0005 9.2305 16.1441 9.2305 16.3202V17.0307C9.2305 17.2068 9.37417 17.3504 9.5502 17.3504H11.7764C11.9667 17.3504 12.1129 17.5161 12.0948 17.7051C11.9278 19.3876 11.181 21.1233 10.1896 22.4525C9.9579 22.7632 8.41639 24.1934 8.4604 24.3811C8.50311 24.5648 9.09978 24.8509 9.32758 24.8509C10.1313 24.8509 11.1901 23.2537 11.6819 22.6402C11.6961 22.6234 11.7065 22.6053 11.7169 22.5859L12.5633 20.8942C12.6863 20.6483 13.0396 20.6638 13.1445 20.9188C13.7955 22.4888 14.7882 23.897 16.0385 25.0463C16.1641 25.1615 16.3582 25.155 16.4786 25.0347L17.0714 24.4432C17.2021 24.3125 17.1969 24.0963 17.0558 23.9772C15.2529 22.4474 13.8848 20.0917 13.6829 17.7025C13.6674 17.5135 13.8123 17.3504 14.0013 17.3504H17.0338C17.0817 17.3504 17.149 17.5057 17.2267 17.4993C17.5723 17.4695 17.5399 16.7706 17.5205 16.3072C17.5127 16.1364 17.3729 16.0018 17.2008 16.0018L17.2034 16.0005Z" fill="#849266"/>
<path d="M13.7621 24.5338C13.3375 24.5053 12.7318 24.8755 12.9932 25.4385C13.366 26.2409 14.6241 27.4537 15.1198 28.4374C15.178 28.5526 15.2997 28.6212 15.4291 28.6121L16.2303 28.55C16.4477 28.5331 16.5862 28.3092 16.5008 28.1073C16.0556 27.0564 14.0132 24.5493 13.7634 24.5338H13.7621Z" fill="#849266"/>
<path d="M1.61896 25.0581C1.49082 25.2134 0.429496 27.7036 0.169342 28.2356C0.102038 28.3741 -0.176236 28.4504 0.170636 28.6264C0.293595 28.6886 1.33551 28.8633 1.43905 28.8465C1.74062 28.7986 2.60262 26.3757 2.9495 25.3868C3.01033 25.2147 2.91326 25.0283 2.73853 24.9765C2.34765 24.86 1.89853 24.7202 1.61766 25.0594L1.61896 25.0581Z" fill="#849266"/>
<path d="M5.12505 25.0244C4.95161 25.0684 4.84678 25.2458 4.89467 25.4179C5.10693 26.179 5.35544 26.9361 5.51981 27.7101C5.57676 27.9806 5.53276 28.6847 5.5677 28.721C5.61171 28.7675 6.19414 28.721 6.59537 28.7106C6.78823 28.7054 6.93189 28.5346 6.90342 28.3443C6.76234 27.4047 6.14237 25.0296 5.93528 24.8795C5.80715 24.7863 5.43439 24.9455 5.12376 25.0257L5.12505 25.0244Z" fill="#849266"/>
<path d="M14.9514 11.5909C13.2067 11.7358 15.7112 14.2442 15.8082 15.1101C16.124 15.7171 17.0003 15.2162 16.9136 14.6014C16.8527 14.1717 15.3345 11.5585 14.9514 11.5909Z" fill="#849266"/>
<path d="M10.1663 25.4747C9.87118 25.2909 9.02212 25.4152 9.03506 25.9187C9.03894 26.0753 9.57737 27.0434 9.70421 27.3786C9.81293 27.666 9.96954 28.6548 10.0213 28.6988C10.1637 28.8192 11.2923 28.8503 11.2781 28.3209C11.269 28.0064 10.2996 25.5563 10.1676 25.4734L10.1663 25.4747Z" fill="#849266"/>
<path d="M60.75 13.5565C60.684 12.9857 60.8135 12.2454 60.5481 11.6875C60.1585 10.8708 58.7361 11.0236 58.3129 11.7665L52.5973 25.7863C50.9367 21.1696 49.0263 16.6149 47.2699 12.0215C46.1025 10.788 44.2089 10.5964 43.9254 12.6505C43.2654 17.4252 43.6782 22.7292 43.013 27.5401C42.7878 28.5005 44.3189 28.8331 44.7137 28.3232C45.045 27.896 44.9156 25.8278 44.9544 25.1987C45.1123 22.6554 45.3181 20.0953 45.476 17.5662C45.5019 17.1611 45.5834 13.2342 45.8009 13.2303L51.5359 27.5582C51.8388 28.5665 52.9364 28.9858 53.5266 27.9478L59.0649 14.0095L60.3876 28.0255C60.5339 28.6014 61.7687 28.6882 62.056 28.3245C62.2514 28.076 62.1867 27.3641 62.1712 27.0185C61.9809 22.7512 61.2458 17.8523 60.75 13.5565Z" fill="#849266"/>
<path d="M144.918 27.1065C144.583 26.9615 143.924 26.4684 143.594 26.2303C141.776 24.9127 140.176 23.2262 138.408 21.8387C138.343 21.6717 138.868 21.3883 139.014 21.2822C140.806 19.9594 142.69 18.7518 144.496 17.4459C145.335 16.2266 143.798 16.0118 142.85 16.4467C141.578 17.0317 139.56 18.9175 138.321 19.8131C138.139 19.9451 137.092 20.7295 136.984 20.6117V11.615C136.984 11.2578 135.368 10.6909 135.18 11.8817L135.165 27.6721C134.95 28.7412 136.984 28.7244 136.984 28.0526V22.9401C137.211 22.8832 137.243 23.0333 137.374 23.133C139.115 24.4648 142.285 28.0151 144.204 28.5988C144.894 28.8085 146.558 28.7671 146.438 27.7951C146.376 27.2942 145.343 27.2903 144.92 27.1065H144.918Z" fill="#849266"/>
<path d="M69.651 16.5048C62.311 17.3486 62.8779 28.9482 70.636 28.8808C79.3104 28.8071 78.8185 15.4512 69.651 16.5048ZM71.7568 27.153C65.5481 28.7475 64.3211 18.96 69.6484 18.1848C76.0177 17.258 76.8784 25.8367 71.7568 27.153Z" fill="#849266"/>
<path d="M111.716 16.5048C103.932 17.4431 105.247 30.3641 113.977 28.732C121.469 27.3303 120.319 15.468 111.716 16.5048ZM113.086 27.3303C107.411 27.7704 106.681 18.8863 111.842 18.1848C118.68 17.2542 118.702 26.8941 113.086 27.3303Z" fill="#849266"/>
<path d="M83.6295 16.5063C76.3322 17.4459 76.8357 29.2901 85.0143 28.8927C93.2176 28.4941 92.7685 15.3297 83.6295 16.5063ZM84.8823 27.3434C79.2612 27.5829 78.627 18.8606 83.8896 18.1889C90.7559 17.3126 90.5811 27.1014 84.8823 27.3434Z" fill="#849266"/>
<path d="M125.821 16.5024C118.055 17.4848 119.371 30.3398 128.085 28.7322C135.642 27.337 134.446 15.4126 125.821 16.5024ZM127.078 27.3409C121.524 27.658 120.759 18.8956 125.95 18.185C132.888 17.2363 132.89 27.0082 127.078 27.3409Z" fill="#849266"/>
<path d="M102.093 27.8677C102.307 28.7827 103.751 28.8785 103.855 27.8017C104.024 26.0802 104.033 22.0006 103.833 20.3012C103.316 15.8656 97.9638 15.3388 95.304 18.6031C95.1357 18.8089 95.1305 19.1337 94.917 19.1868V17.0512C94.917 16.8027 93.3962 16.3497 93.2383 17.1845L93.2266 27.8017C93.1852 28.8009 94.7604 28.8345 94.9895 27.8677C95.5991 25.2972 94.0446 21.5243 96.2967 19.3382C97.8175 17.8614 101.057 17.6582 101.838 19.9673C102.553 22.0847 101.583 25.6997 102.091 27.8677H102.093Z" fill="#849266"/>
<path d="M162.952 18.5751C162.934 18.478 162.794 18.289 162.669 18.289H159.781V14.212C159.781 14.1434 159.74 14.0748 159.661 14.0153C159.587 13.9596 159.468 13.9053 159.367 13.9247L150.748 13.9441L150.715 13.9493C150.575 13.9959 150.52 14.1201 150.48 14.2107L150.465 14.247L150.444 25.6031L150.447 25.6407C150.453 25.774 150.465 25.9759 150.678 26.0484L150.695 26.0535L162.587 26.0794C162.6 26.0794 162.612 26.0794 162.622 26.0794C162.809 26.0794 162.856 25.9914 162.904 25.8581L162.915 25.8296L162.955 18.5816V18.5712L162.952 18.5751ZM159.337 19.019H162.225L162.186 25.3507H151.213V14.6948H159.051V18.733C159.051 18.8314 159.238 19.0177 159.336 19.0177L159.337 19.019Z" fill="#849266"/>
<path d="M159.643 22.1927C156.712 23.0379 154.274 19.9885 155.462 17.2187C155.612 16.8692 156.306 16.1121 155.498 16.2247C154.236 16.4007 153.018 17.774 152.672 18.9518C151.657 22.4037 155.008 25.3534 158.334 24.0992C159.006 23.8455 160.26 22.9188 160.448 22.2056C160.589 21.6659 159.872 22.1267 159.641 22.194L159.643 22.1927Z" fill="#849266"/>
</svg>
