<svg width="56" height="57" viewBox="0 0 56 57" fill="none" xmlns="http://www.w3.org/2000/svg">
<path fill-rule="evenodd" clip-rule="evenodd" d="M4.66699 13.6516C4.66699 9.00904 8.50928 5.16675 13.1519 5.16675H42.8489C47.4914 5.16675 51.3337 9.00904 51.3337 13.6516V43.3486C51.3337 47.9913 47.4914 51.8335 42.8489 51.8335H13.1519C8.50928 51.8334 4.66699 47.9913 4.66699 43.3485L4.66699 13.6516ZM21.5939 33.2768C25.2008 29.6699 30.7999 29.6699 34.4068 33.2768C35.2352 34.1051 36.5781 34.1051 37.4066 33.2768C38.235 32.4483 38.235 31.1053 37.4066 30.2768C32.1429 25.0132 23.8576 25.0132 18.594 30.2768C17.7656 31.1053 17.7656 32.4483 18.594 33.2768C19.4224 34.1051 20.7655 34.1051 21.5939 33.2768ZM42.1202 25.3719C34.2711 17.5226 21.5369 17.5226 13.6876 25.3719C12.8592 26.2003 11.5161 26.2003 10.6877 25.3719C9.85933 24.5436 9.85933 23.2005 10.6877 22.3721C20.1938 12.866 35.614 12.866 45.1201 22.3721C45.9485 23.2005 45.9485 24.5435 45.1201 25.3719C44.2917 26.2003 42.9487 26.2003 42.1202 25.3719ZM30.8928 39.6848C30.8928 41.2822 29.5978 42.5775 28.0004 42.5775C26.4029 42.5775 25.1079 41.2823 25.1079 39.6848C25.1079 38.0873 26.4029 36.7923 28.0004 36.7923C29.5978 36.7923 30.8928 38.0873 30.8928 39.6848Z" fill="#3E5E4E"/>
</svg>
