<svg width="56" height="57" viewBox="0 0 56 57" fill="none" xmlns="http://www.w3.org/2000/svg">
<path d="M45.7838 8.64127C40.0605 3.5103 32.6696 1.14826 24.9676 2.00555C12.8708 3.34286 3.01639 13.0813 1.53526 25.1596C0.133539 36.5872 6.11628 47.6089 16.4206 52.5863C17.2814 53.0006 18.32 52.6403 18.7371 51.7767C19.1532 50.913 18.7911 49.8756 17.9282 49.4581C8.96208 45.1282 3.75855 35.5328 4.97818 25.5835C6.26555 15.0841 14.8326 6.6194 25.3487 5.45693C32.0503 4.71515 38.4904 6.76457 43.4695 11.228C48.3808 15.6309 51.198 21.9371 51.198 28.5315C51.198 40.6426 41.7766 50.7986 29.7317 51.6887V43.6849H29.8143C31.7899 43.6849 33.3959 42.0774 33.3959 40.1V37.3128C37.049 35.7445 39.5163 32.0936 39.5163 28.0515V20.3561C39.5163 18.5037 38.0119 16.9979 36.1612 16.9979H34.6748V11.5225C34.6748 10.5635 33.8988 9.78678 32.9407 9.78678C31.9825 9.78678 31.2065 10.5635 31.2065 11.5225V16.9979H24.7876V11.5225C24.7876 10.5635 24.0116 9.78678 23.0534 9.78678C22.0953 9.78678 21.3193 10.5635 21.3193 11.5225V16.9979H19.8329C17.9833 16.9979 16.4789 18.5037 16.4789 20.3561V28.0515C16.4789 32.0933 18.9461 35.7442 22.5982 37.3127V40.1C22.5982 42.0774 24.2042 43.6849 26.1798 43.6849H26.2634V51.7767C26.2634 52.7134 26.6562 53.6163 27.3412 54.2553C27.9701 54.8413 28.8022 55.1666 29.6555 55.1666C29.7349 55.1666 29.8133 55.1645 29.8927 55.1581C43.785 54.1811 54.6663 42.4854 54.6663 28.5315C54.6663 20.9516 51.4288 13.7023 45.7838 8.64127ZM19.9472 28.0515V20.4694H36.048V28.0515C36.048 30.8819 34.2037 33.4251 31.5358 34.3184H24.4583C21.7915 33.4251 19.9472 30.8819 19.9472 28.0515ZM26.0665 40.1V37.7899H29.9276V40.1C29.9276 40.1626 29.8768 40.2134 29.8143 40.2134H26.1798C26.1173 40.2134 26.0665 40.1626 26.0665 40.1Z" fill="#3E5E4E"/>
</svg>
