<svg width="32" height="32" viewBox="0 0 32 32" fill="none" xmlns="http://www.w3.org/2000/svg">
<path d="M29.9863 1.17188C30.4007 1.02855 30.8173 0.891451 31.2354 0.758789C31.1993 0.891493 31.1649 1.02416 31.1338 1.15723L31.6211 1.27148C31.302 2.63654 31.2296 4.04825 31.1299 5.45312L30.6328 5.41895C30.6173 5.63738 30.6008 5.85443 30.583 6.07031L30.5234 6.71582V6.7168C30.4562 7.37465 30.361 8.03015 30.2383 8.68164L30.7275 8.77344C30.3299 10.885 29.6521 12.9533 28.7217 14.9287L28.2715 14.7168C27.71 15.9089 27.0544 17.0667 26.3115 18.1787L26.7246 18.4561C25.5375 20.2331 24.1334 21.8951 22.5342 23.3945L22.1924 23.0303C21.8304 23.3697 21.4581 23.7004 21.0762 24.0225L20.6914 24.3418C20.1402 24.7903 19.5692 25.2196 18.9814 25.6299L19.2676 26.0381C17.3846 27.3528 15.3295 28.47 13.1592 29.3691L12.9688 28.9082C11.654 29.4529 10.2957 29.9169 8.9082 30.2949L9.03906 30.7754C6.8081 31.3833 4.50272 31.7734 2.17578 31.9258L2.14355 31.4277C1.6284 31.4615 1.11226 31.4832 0.595703 31.4932C0.696556 30.9518 0.813453 30.4137 0.944336 29.8789L0.459961 29.7598C1.03701 27.4023 1.89623 25.1127 3 22.9141L3.44531 23.1387C4.11437 21.8059 4.87594 20.5055 5.71973 19.2441L5.30273 18.9658C6.64026 16.9664 8.18315 15.0648 9.89648 13.2812L10.2578 13.6279C11.2937 12.5495 12.3932 11.5143 13.5488 10.5273L13.2246 10.1465C15.0607 8.57843 17.036 7.13179 19.1201 5.82422L19.3857 6.24707C20.6595 5.44794 21.9749 4.70148 23.3242 4.01172L23.0967 3.56738C25.2613 2.46078 27.5126 1.49834 29.8232 0.699219L29.9863 1.17188Z" stroke="#3E5E4E" stroke-dasharray="5 8"/>
</svg>
