<svg width="16" height="17" viewBox="0 0 16 17" fill="none" xmlns="http://www.w3.org/2000/svg">
<path d="M13.9745 9.02667C13.8697 10.1615 13.4438 11.2429 12.7467 12.1445C12.0496 13.0461 11.1102 13.7305 10.0383 14.1177C8.96649 14.5049 7.80653 14.5787 6.69421 14.3307C5.58189 14.0827 4.56321 13.523 3.75736 12.7172C2.95151 11.9113 2.39184 10.8927 2.14382 9.78033C1.89579 8.66801 1.96969 7.50806 2.35685 6.4362C2.74401 5.36434 3.42843 4.42491 4.33002 3.72784C5.23161 3.03076 6.31307 2.60487 7.44788 2.5C6.78349 3.39884 6.46378 4.5063 6.5469 5.62094C6.63002 6.73559 7.11045 7.78337 7.90081 8.57373C8.69117 9.36409 9.73896 9.84452 10.8536 9.92765C11.9682 10.0108 13.0757 9.69106 13.9745 9.02667Z" fill="#849266"/>
</svg>
