<svg width="32" height="32" viewBox="0 0 32 32" fill="none" xmlns="http://www.w3.org/2000/svg">
<path d="M2.01367 1.17188C1.59927 1.02855 1.18267 0.891451 0.764648 0.758789C0.80067 0.891493 0.835103 1.02416 0.866211 1.15723L0.378906 1.27148C0.697976 2.63654 0.770392 4.04825 0.870117 5.45312L1.36719 5.41895C1.3827 5.63738 1.39917 5.85443 1.41699 6.07031L1.47656 6.71582V6.7168C1.54381 7.37465 1.63903 8.03015 1.76172 8.68164L1.27246 8.77344C1.67007 10.885 2.34789 12.9533 3.27832 14.9287L3.72852 14.7168C4.29 15.9089 4.94564 17.0667 5.68848 18.1787L5.27539 18.4561C6.46252 20.2331 7.86665 21.8951 9.46582 23.3945L9.80762 23.0303C10.1696 23.3697 10.5419 23.7004 10.9238 24.0225L11.3086 24.3418C11.8598 24.7903 12.4308 25.2196 13.0186 25.6299L12.7324 26.0381C14.6154 27.3528 16.6705 28.47 18.8408 29.3691L19.0312 28.9082C20.346 29.4529 21.7043 29.9169 23.0918 30.2949L22.9609 30.7754C25.1919 31.3833 27.4973 31.7734 29.8242 31.9258L29.8564 31.4277C30.3716 31.4615 30.8877 31.4832 31.4043 31.4932C31.3034 30.9518 31.1865 30.4137 31.0557 29.8789L31.54 29.7598C30.963 27.4023 30.1038 25.1127 29 22.9141L28.5547 23.1387C27.8856 21.8059 27.1241 20.5055 26.2803 19.2441L26.6973 18.9658C25.3597 16.9664 23.8169 15.0648 22.1035 13.2812L21.7422 13.6279C20.7063 12.5495 19.6068 11.5143 18.4512 10.5273L18.7754 10.1465C16.9393 8.57843 14.964 7.13179 12.8799 5.82422L12.6143 6.24707C11.3405 5.44794 10.0251 4.70148 8.67578 4.01172L8.90332 3.56738C6.73867 2.46078 4.48736 1.49834 2.17676 0.699219L2.01367 1.17188Z" stroke="#3E5E4E" stroke-dasharray="5 8"/>
</svg>
