<svg width="38" height="17" viewBox="0 0 38 17" fill="none" xmlns="http://www.w3.org/2000/svg">
<path d="M37.3022 6.65942C37.5422 6.89971 37.8638 7.37787 37.7715 7.56112C37.6216 7.86051 37.1887 8.08982 36.8316 8.20146C36.0413 8.4483 35.1791 8.49587 34.4267 8.81841C32.7142 9.55277 31.0327 10.3687 29.373 11.2213C28.5637 11.6369 27.8372 12.2157 27.0657 12.7086C22.4437 15.6611 17.6215 16.0233 12.5822 14.0691C10.7419 13.3559 8.84888 12.7726 6.96135 12.1884C6.67103 12.0989 6.22079 12.2306 5.94869 12.4169C4.43726 13.4477 2.96151 14.532 1.46455 15.5841C1.11846 15.8272 0.825282 16.2599 4.73469e-05 15.9785C1.10701 15.0282 1.99584 14.2254 2.92791 13.4773C3.86784 12.7229 4.85063 12.0238 5.68061 11.401C6.83312 7.35136 8.85041 4.1434 12.6093 2.2489C14.6809 1.20462 16.9003 0.687923 19.1771 0.44133C22.9691 0.0304719 26.6912 0.242163 30.2592 1.70305C32.2731 2.52774 33.9438 3.87223 35.6269 5.199C36.2085 5.65788 36.7802 6.13593 37.3022 6.65942ZM36.4606 7.44286C36.4588 7.3236 36.4574 7.20374 36.4557 7.08448C35.6285 6.42473 34.8495 5.68923 33.9628 5.12267C32.4406 4.15105 30.9402 3.0526 29.2726 2.42084C24.8945 0.763197 20.3741 0.928429 15.8507 2.04002C11.9107 3.00793 9.16785 5.42879 7.44955 9.08529C7.22567 9.56223 7.03764 10.0566 6.83308 10.5427C6.88984 10.6146 6.94624 10.6872 7.003 10.7591C11.5737 8.29798 16.4206 6.83659 21.5623 6.35614C21.3351 6.68352 21.0582 6.90801 20.7429 7.00957C20.1118 7.21329 19.4635 7.36051 18.8177 7.51177C15.5004 8.29107 12.231 9.21745 9.15153 10.7362C8.75091 10.9338 8.35952 11.1505 7.762 11.4633C8.2894 11.6799 8.60981 11.8362 8.94609 11.9443C10.3968 12.4101 11.8667 12.822 13.3041 13.325C17.5824 14.8227 21.6775 14.3306 25.6187 12.1009C26.5587 11.5688 27.4544 10.9563 28.3749 10.388C30.5895 9.0201 32.9538 8.02575 35.4935 7.48589C35.8059 7.41943 36.1387 7.45499 36.4622 7.44298L36.4606 7.44286Z" fill="#729581"/>
</svg>
