<svg width="39" height="16" viewBox="0 0 39 16" fill="none" xmlns="http://www.w3.org/2000/svg">
<path d="M38.2969 3.10371C38.445 2.79808 38.5923 2.24094 38.4451 2.09802C38.2054 1.86424 37.7212 1.78936 37.3473 1.80081C36.5197 1.82641 35.6895 2.06383 34.873 2.00548C33.0144 1.87248 31.1584 1.65219 29.311 1.39017C28.4102 1.26253 27.5343 0.953602 26.6439 0.740553C21.3098 -0.535411 16.635 0.701614 12.5136 4.19839C11.0083 5.47501 9.41073 6.64607 7.8186 7.81617C7.57363 7.99587 7.10509 8.01888 6.78697 7.93196C5.02129 7.45295 3.27185 6.91182 1.51287 6.40795C1.10624 6.29158 0.687541 5.97881 -3.5544e-05 6.51493C1.35712 7.05033 2.45983 7.51771 3.58552 7.91936C4.72064 8.32426 5.8782 8.66298 6.86637 8.9796C9.28158 12.4285 12.2382 14.7989 16.4102 15.3579C18.7096 15.6661 20.9759 15.4274 23.2078 14.9148C26.9253 14.0611 30.3727 12.6421 33.2655 10.0933C34.8983 8.65454 36.0366 6.83704 37.1923 5.03224C37.5916 4.40819 37.9752 3.76927 38.2969 3.10371ZM37.2452 2.6391C37.2826 2.75235 37.3205 2.86606 37.3579 2.97931C36.7924 3.87357 36.2973 4.82363 35.645 5.64933C34.5249 7.06591 33.467 8.59516 32.0983 9.73822C28.5045 12.7382 24.1793 14.0626 19.5413 14.4937C15.5016 14.8695 12.1172 13.4804 9.29615 10.5883C8.92843 10.211 8.58886 9.80546 8.2364 9.41318C8.26646 9.32661 8.29598 9.23958 8.32605 9.153C13.4507 9.98153 18.5089 9.775 23.5244 8.54503C23.2025 8.31011 22.8674 8.18869 22.5362 8.19602C21.8732 8.2102 21.2124 8.28342 20.5527 8.35199C17.1631 8.70207 13.7706 8.89751 10.3636 8.47107C9.92035 8.41551 9.4796 8.33898 8.81258 8.23911C9.23996 7.86171 9.4915 7.60907 9.77384 7.39684C10.992 6.48167 12.246 5.61105 13.4393 4.66508C16.9912 1.8488 21.0217 0.972631 25.4757 1.78866C26.5381 1.98358 27.5851 2.26891 28.6408 2.50439C31.1813 3.0716 33.7409 3.2368 36.3173 2.91515C36.6343 2.87563 36.9371 2.73304 37.2466 2.63847L37.2452 2.6391Z" fill="#9DB8A8"/>
</svg>
