<svg width="39" height="16" viewBox="0 0 39 16" fill="none" xmlns="http://www.w3.org/2000/svg">
<path d="M37.7192 8.08732C37.9469 7.83541 38.2445 7.34186 38.1432 7.16342C37.9786 6.87184 37.5347 6.66433 37.1726 6.57057C36.371 6.3633 35.5075 6.35862 34.74 6.07387C32.9931 5.4255 31.2732 4.69408 29.5731 3.92501C28.7442 3.55012 27.9899 3.00817 27.1948 2.55421C22.4318 -0.16498 17.5976 -0.287142 12.6616 1.915C10.859 2.71881 8.9973 3.39541 7.14112 4.07262C6.85561 4.1765 6.39939 4.06732 6.11837 3.89476C4.55758 2.94028 3.02979 1.93072 1.4824 0.954244C1.12466 0.728613 0.810349 0.311079 0.000112889 0.633103C1.15293 1.52727 2.08055 2.28486 3.04864 2.98578C4.02488 3.69248 5.04119 4.34191 5.90109 4.9227C7.25339 8.91009 9.42757 12.0139 13.2759 13.7193C15.3968 14.6593 17.6392 15.0651 19.9254 15.1983C23.7332 15.4202 27.4401 15.0239 30.9311 13.3875C32.9016 12.4638 34.5035 11.0379 36.1185 9.62917C36.6766 9.14197 37.2239 8.6361 37.7192 8.08732ZM36.8397 7.34667C36.8439 7.46586 36.8484 7.58565 36.8526 7.70484C36.0593 8.40488 35.3178 9.17818 34.4603 9.78809C32.9882 10.8341 31.5442 12.0058 29.9101 12.7196C25.6198 14.5927 21.0967 14.6523 16.5238 13.7668C12.5405 12.9959 9.68076 10.7143 7.7829 7.14768C7.5356 6.68245 7.32324 6.19804 7.09479 5.72273C7.1479 5.64804 7.20062 5.57276 7.25374 5.49808C11.9411 7.7291 16.8546 8.94787 22.0139 9.17226C21.7707 8.85657 21.4829 8.64612 21.1629 8.56036C20.5225 8.38824 19.8677 8.27341 19.2152 8.15442C15.8633 7.54091 12.5519 6.77811 9.40076 5.41428C8.99081 5.23676 8.58914 5.03982 7.97681 4.75708C8.49281 4.51453 8.80505 4.34247 9.13555 4.21784C10.5613 3.68058 12.009 3.19611 13.4196 2.62235C17.6182 0.913887 21.7327 1.20194 25.7797 3.23308C26.745 3.71784 27.6701 4.28504 28.6176 4.80686C30.8975 6.06307 33.3083 6.93873 35.8717 7.35174C36.187 7.40259 36.5176 7.35054 36.8413 7.34647L36.8397 7.34667Z" fill="#849266"/>
</svg>
