<svg width="39" height="16" viewBox="0 0 39 16" fill="none" xmlns="http://www.w3.org/2000/svg">
<path d="M37.6145 7.47542C37.8457 7.72422 38.1499 8.21369 38.051 8.39349C37.8904 8.68727 37.4494 8.90078 37.0886 8.99944C36.2898 9.21755 35.4265 9.23393 34.6629 9.52906C32.925 10.201 31.2151 10.9557 29.5257 11.7478C28.7018 12.1338 27.9549 12.686 27.1661 13.1507C22.4404 15.9342 17.6083 16.1218 12.6429 13.9868C10.8296 13.2075 8.95888 12.5562 7.0937 11.9042C6.80681 11.8042 6.35211 11.9195 6.07345 12.0959C4.52575 13.0714 3.01178 14.1016 1.47776 15.099C1.12311 15.3294 0.814487 15.7512 -3.90024e-05 15.4402C1.14055 14.5305 2.05782 13.7604 3.01632 13.0464C3.98289 12.3265 4.99031 11.6634 5.84226 11.071C7.14039 7.06563 9.2723 3.93269 13.0972 2.17528C15.2052 1.20656 17.4419 0.770419 19.7261 0.606277C23.5305 0.332746 27.2424 0.678828 30.7553 2.26772C32.7381 3.16466 34.3591 4.56866 35.9931 5.9554C36.5578 6.435 37.1118 6.9334 37.6145 7.47542ZM36.7452 8.22792C36.7477 8.10868 36.7507 7.98884 36.7532 7.8696C35.9505 7.18038 35.1986 6.41721 34.3329 5.81898C32.8468 4.79296 31.3871 3.64101 29.7434 2.94938C25.4281 1.13458 20.9046 1.13632 16.3441 2.0837C12.3716 2.90856 9.54308 5.22871 7.69374 8.82071C7.45277 9.28924 7.24699 9.77649 7.025 10.2549C7.07913 10.3288 7.13286 10.4034 7.18699 10.4773C11.8437 8.18298 16.7402 6.89773 21.896 6.60343C21.657 6.92239 21.3722 7.13672 21.0534 7.22681C20.4154 7.4076 19.7622 7.53129 19.1113 7.65911C15.768 8.318 12.4673 9.1256 9.33494 10.532C8.92744 10.7151 8.52848 10.9174 7.92004 11.2085C8.43927 11.444 8.75382 11.6118 9.08597 11.7319C10.5189 12.2498 11.973 12.7146 13.3912 13.2692C17.6126 14.9206 21.7228 14.5768 25.742 12.491C26.7006 11.9932 27.6179 11.4135 28.5583 10.8789C30.8209 9.59193 33.2196 8.68369 35.7772 8.23597C36.0918 8.18085 36.4231 8.22841 36.7467 8.2281L36.7452 8.22792Z" fill="#9DB8A8"/>
</svg>
