<svg width="39" height="16" viewBox="0 0 39 16" fill="none" xmlns="http://www.w3.org/2000/svg">
<path d="M38.3962 5.78712C38.5858 5.50533 38.8099 4.97442 38.6843 4.81223C38.4798 4.54709 38.0109 4.40493 37.6391 4.36373C36.8162 4.2728 35.9608 4.39121 35.1606 4.21872C33.3391 3.8259 31.5325 3.34702 29.7402 2.82804C28.8663 2.57511 28.0425 2.14617 27.1908 1.81013C22.089 -0.202616 17.2867 0.365312 12.7148 3.24833C11.0452 4.3008 9.29889 5.23578 7.55815 6.17057C7.29036 6.31407 6.82323 6.27102 6.52049 6.14026C4.83963 5.41792 3.18357 4.63636 1.51283 3.89035C1.12658 3.718 0.755982 3.34951 -9.95215e-05 3.7837C1.26837 4.50448 2.29447 5.12215 3.35256 5.67798C4.41954 6.23835 5.51802 6.73634 6.4519 7.18867C8.35858 10.9427 10.9528 13.705 15.0049 14.8446C17.2382 15.4729 19.5155 15.555 21.7973 15.361C25.5979 15.0381 29.2105 14.1176 32.4327 12.0005C34.2515 10.8054 35.6338 9.16585 37.0316 7.54133C37.5146 6.97956 37.9842 6.40088 38.3962 5.78712ZM37.4202 5.17935C37.4413 5.29673 37.4629 5.41465 37.484 5.53203C36.7985 6.33797 36.1748 7.20904 35.413 7.9349C34.105 9.18005 32.8427 10.5455 31.3269 11.4849C27.3473 13.9502 22.8789 14.6537 18.2264 14.4289C14.1739 14.2334 11.0183 12.3826 8.63156 9.1228C8.32049 8.69756 8.04127 8.24835 7.74742 7.81044C7.78935 7.72895 7.8308 7.64693 7.87274 7.56544C12.8302 9.10578 17.8672 9.61197 23.0058 9.0989C22.7201 8.82109 22.4053 8.65378 22.0763 8.6145C21.4179 8.53539 20.7534 8.51504 20.0906 8.49025C16.6855 8.36061 13.2992 8.07746 9.98591 7.17655C9.55484 7.05926 9.12922 6.92156 8.48285 6.72897C8.95901 6.41537 9.24355 6.20057 9.55291 6.03011C10.8876 5.29518 12.2514 4.60937 13.5659 3.84046C17.4782 1.55116 21.5918 1.24997 25.8869 2.68371C26.9115 3.02598 27.9079 3.45557 28.9201 3.83704C31.3558 4.75558 33.8667 5.27877 36.4628 5.3223C36.7821 5.32771 37.102 5.22907 37.4217 5.17893L37.4202 5.17935Z" fill="#3E5E4E"/>
</svg>
