<svg width="36" height="22" viewBox="0 0 36 22" fill="none" xmlns="http://www.w3.org/2000/svg">
<path d="M34.6009 4.6676C34.885 4.8536 35.2978 5.2557 35.245 5.45397C35.1597 5.77774 34.7829 6.0909 34.4563 6.27333C33.7333 6.67688 32.8992 6.90013 32.2289 7.37C30.7031 8.43971 29.2245 9.58293 27.7748 10.7575C27.0678 11.3302 26.4753 12.0455 25.8212 12.686C21.9023 16.523 17.2567 17.8657 11.9239 16.9856C9.97646 16.6646 8.00408 16.4816 6.0369 16.2967C5.73439 16.2685 5.3207 16.4897 5.09255 16.7278C3.82443 18.0465 2.60218 19.4101 1.35259 20.7467C1.06366 21.0556 0.865364 21.5391 -1.67731e-05 21.4328C0.888715 20.2758 1.59419 19.308 2.35317 18.3847C3.11857 17.4538 3.93724 16.5681 4.62198 15.7884C4.92019 11.5885 6.2373 8.03527 9.52817 5.41071C11.3418 3.96408 13.4083 3.00353 15.5862 2.29562C19.2136 1.11643 22.9 0.560909 26.6917 1.25964C28.8319 1.65414 30.7426 2.62773 32.6619 3.58147C33.3252 3.91142 33.9827 4.26217 34.6009 4.6676ZM33.9377 5.60687C33.9115 5.4905 33.8856 5.37346 33.8594 5.2571C32.9146 4.78084 32.0015 4.22058 31.0175 3.84775C29.3284 3.20868 27.6348 2.44101 25.8731 2.16438C21.2483 1.43905 16.8576 2.5271 12.658 4.54202C8.99994 6.29678 6.81141 9.22832 5.87885 13.1593C5.75746 13.672 5.67472 14.1944 5.57411 14.7121C5.64441 14.7709 5.71448 14.8304 5.78478 14.8892C9.75416 11.5436 14.1987 9.12004 19.1329 7.59613C18.9776 7.96313 18.7526 8.2396 18.4647 8.40362C17.8888 8.73234 17.2844 9.00929 16.6833 9.28967C13.5961 10.7322 10.5859 12.3089 7.88301 14.4264C7.53139 14.702 7.19271 14.9942 6.67197 15.4229C7.23257 15.5268 7.57821 15.6142 7.9295 15.651C9.44487 15.8096 10.968 15.9116 12.4779 16.1093C16.9724 16.6986 20.8798 15.3778 24.2803 12.3877C25.0914 11.6743 25.8426 10.8913 26.6271 10.1465C28.5144 8.35373 30.6248 6.89599 32.9999 5.84715C33.2921 5.71809 33.6251 5.68469 33.9392 5.60666L33.9377 5.60687Z" fill="#3E5E4E"/>
</svg>
