<svg width="196" height="69" viewBox="0 0 196 69" fill="none" xmlns="http://www.w3.org/2000/svg">
<g clip-path="url(#clip0_1137_7959)">
<path d="M44.5765 24.0825L45.2562 24.2871C45.7904 24.1888 47.7403 20.0451 48.219 19.2503C50.9068 14.7852 57.7624 6.09563 63.2464 5.5915C70.4062 4.93368 71.3953 13.5012 71.6148 18.7418C72.0644 29.4741 69.6869 42.4698 68.4439 53.2663C67.9829 57.2712 67.4998 65.7579 61.5768 64.9218C55.7058 64.0927 56.5556 56.2472 57.0299 52.0051C57.7016 45.9952 59.083 39.8183 59.5537 33.6872C59.8314 30.0731 59.6057 26.4766 59.5555 22.852C58.4253 22.5921 57.8858 23.6662 57.2661 24.4663C50.6026 33.0627 49.1367 45.3128 45.4484 55.2073C44.4461 57.8965 42.4979 61.1408 39.3482 61.5501C30.2931 62.727 32.3294 53.6782 32.705 47.995C33.1872 40.6905 33.8351 33.2902 33.5618 25.8952C33.5169 24.6894 33.4869 22.802 33.352 21.6857C33.1466 19.995 31.8331 21.4644 31.3959 22.2838C26.8454 30.8126 23.3308 43.3437 20.5522 52.7315C19.3859 56.674 18.4736 65.108 12.733 64.7233C10.0073 64.5406 7.77179 62.2369 7.54259 59.5758C7.10624 54.5012 10.1299 45.7554 11.714 40.7792C15.0418 30.3287 20.2287 16.6243 26.886 7.90134C30.2182 3.53549 35.8018 -0.302527 40.3179 5.28323C42.318 7.75643 44.0185 14.3258 44.3173 17.5043C44.5219 19.6815 44.1031 21.9211 44.5756 24.0816L44.5765 24.0825Z" fill="#849266"/>
<path d="M142.123 60.4293C140.149 62.6996 136.446 63.6526 133.707 62.1472C131.039 60.6814 130.895 57.4951 131.272 54.7786C132.168 48.3093 136.691 41.2287 136.081 34.5346C135.78 31.2297 133.057 31.2314 131.013 33.2699C127.388 36.8839 124.416 44.8287 123.038 49.7409C122.159 52.8763 121.877 57.0278 120.106 59.6573C117.266 63.8756 111.943 61.8767 111.373 57.0217C110.73 51.5395 112.835 41.6029 113.825 35.9416C114.352 32.9247 115.026 26.0277 116.847 23.8004C118.84 21.3633 121.809 21.9482 123.366 24.4653C123.864 25.2698 123.915 27.0843 124.968 27.0597C125.692 27.043 127.243 24.9325 127.952 24.3318C134.875 18.465 145.984 20.1794 149.146 29.106C151.618 36.0865 149.293 43.4261 147.071 50.0922C145.78 53.9644 144.889 57.2483 142.123 60.4285L142.123 60.4293Z" fill="#849266"/>
<path d="M174.722 58.8872C174.012 58.0362 172.028 60.4022 171.248 60.8993C167.705 63.1573 162.013 63.6685 158.397 61.3499C150.505 56.2893 154.36 40.5736 156.484 33.1593C157.48 29.6832 158.892 23.2112 163.864 24.9774C166.28 25.8355 166.117 29.4293 165.883 31.5732C165.241 37.4725 162.907 43.2242 162.714 49.459C162.595 53.2786 166 54.7927 169.04 52.5997C171.49 50.8318 173.66 44.1078 174.502 41.2034C175.638 37.2828 176.989 27.917 179.639 25.276C181.796 23.1269 185.808 23.7118 186.932 26.6382C188.046 29.5356 186.416 35.5403 185.746 38.7179C184.722 43.5668 182.248 51.1313 182.807 55.9933C183.215 59.5345 187.785 58.7827 188.472 61.5194C188.771 62.7085 186.602 65.1923 185.559 65.6753C179.993 68.2521 175.315 64.4659 174.722 58.8872Z" fill="#849266"/>
<path d="M83.3099 59.8075C70.1575 51.4763 74.8455 25.4533 90.1638 21.8603C102.139 19.0508 109.19 30.7493 101.101 39.8999C98.4176 42.9361 93.3708 45.0017 89.4172 45.736C87.0917 46.1672 85.0985 45.3425 87.5853 48.506C89.4868 50.9256 92.8102 51.7064 95.7853 51.442C98.9941 51.1575 102.331 48.4568 105.224 51.1496C108.378 54.0856 104.595 58.0835 102.035 59.7662C96.9304 63.123 88.4651 63.0729 83.309 59.8066L83.3099 59.8075ZM94.3722 31.7584C92.886 30.5121 90.5244 31.9393 89.3607 33.0538C88.317 34.0524 86.6139 36.8506 86.2895 38.2119C85.9043 39.8279 88.8353 38.521 89.686 38.2171C91.7832 37.4689 97.4373 34.3291 94.3722 31.7584Z" fill="#849266"/>
</g>
<defs>
<clipPath id="clip0_1137_7959">
<rect width="181" height="64" fill="white" transform="translate(7.5 2.5)"/>
</clipPath>
</defs>
</svg>
