<svg width="24" height="24" viewBox="0 0 24 24" fill="none" xmlns="http://www.w3.org/2000/svg">
<g clip-path="url(#clip0_1576_14979)">
<path fill-rule="evenodd" clip-rule="evenodd" d="M7.07091 1.99997C7.612 1.99997 8.05062 2.44769 8.05062 2.99997V3.99997H15.8883V2.99997C15.8883 2.44769 16.3269 1.99997 16.868 1.99997C17.4091 1.99997 17.8477 2.44769 17.8477 2.99997V4C18.2974 4.00028 18.6896 4.00311 19.0185 4.03054C19.4059 4.06284 19.7911 4.13416 20.1618 4.32694C20.7148 4.61456 21.1644 5.0735 21.4462 5.63799C21.6351 6.01637 21.7049 6.40959 21.7366 6.80493C21.7666 7.1795 21.7666 7.63425 21.7666 8.16139V9.99995C21.7666 10.5523 21.328 11 20.7869 11C20.2458 11 19.8071 10.5523 19.8071 9.99995H4.13178V17.7999C4.13178 18.3765 4.13255 18.7487 4.15523 19.0321C4.17697 19.3037 4.21388 19.4044 4.23857 19.4539C4.3325 19.6421 4.48237 19.795 4.66672 19.8909C4.71516 19.9161 4.81383 19.9538 5.07999 19.976C5.35758 19.9991 5.72229 19.9999 6.28715 19.9999H10.01C10.5511 19.9999 10.9898 20.4476 10.9898 20.9999C10.9898 21.5522 10.5511 21.9999 10.01 21.9999H6.24937C5.73292 21.9999 5.28739 21.9999 4.92042 21.9693C4.5331 21.937 4.14786 21.8657 3.77716 21.6729C3.22413 21.3853 2.77449 20.9264 2.49271 20.3619C2.30383 19.9835 2.23396 19.5903 2.20231 19.1949C2.17233 18.8204 2.17234 18.3656 2.17236 17.8384V8.16142C2.17234 7.63427 2.17233 7.1795 2.20231 6.80493C2.23396 6.40959 2.30383 6.01637 2.49271 5.63799C2.77449 5.0735 3.22412 4.61456 3.77716 4.32694C4.14786 4.13416 4.5331 4.06284 4.92042 4.03054C5.24939 4.00311 5.64149 4.00028 6.0912 4V2.99997C6.0912 2.44769 6.52984 1.99997 7.07091 1.99997ZM6.28715 5.99996C5.72229 5.99996 5.35758 6.00074 5.07999 6.02389C4.81383 6.04608 4.71516 6.08376 4.66672 6.10895C4.48237 6.20483 4.3325 6.35781 4.23857 6.54597C4.21388 6.59541 4.17697 6.69613 4.15523 6.9678C4.13528 7.21694 4.13229 7.53486 4.13185 7.99996H19.8071C19.8067 7.53486 19.8036 7.21694 19.7837 6.9678C19.762 6.69613 19.725 6.59541 19.7004 6.54597C19.6064 6.35781 19.4566 6.20483 19.2722 6.10895C19.2237 6.08376 19.1251 6.04608 18.859 6.02389C18.5813 6.00074 18.2167 5.99996 17.6518 5.99996H6.28715ZM6.0912 12.9999C6.09121 12.4476 6.52985 11.9999 7.07092 11.9999L13.439 12C13.9801 12 14.4187 12.4477 14.4187 13C14.4187 13.5523 13.9801 14 13.439 14L7.0709 13.9999C6.52983 13.9999 6.0912 13.5522 6.0912 12.9999ZM20.0941 15.2928C20.2526 15.131 20.2526 14.8688 20.0941 14.707C19.9356 14.5452 19.6787 14.5452 19.5202 14.707L15.4471 18.8645C15.3802 18.9327 15.3473 18.9665 15.3242 18.9918C15.3236 18.9924 15.3231 18.993 15.3225 18.9936C15.3223 18.9944 15.3221 18.9952 15.3219 18.996C15.3142 19.0297 15.3049 19.0763 15.2864 19.1711L15.1778 19.7251L15.7207 19.6143C15.8135 19.5954 15.8591 19.5859 15.8921 19.578L15.8945 19.5774C15.8951 19.5768 15.8957 19.5763 15.8962 19.5757C15.921 19.5521 15.9541 19.5185 16.021 19.4502L20.0941 15.2928ZM18.1347 13.2928C19.0584 12.35 20.5559 12.35 21.4796 13.2928C22.4033 14.2356 22.4033 15.7642 21.4796 16.707L17.4066 20.8645C17.3981 20.873 17.3895 20.8819 17.3806 20.8909C17.2835 20.9904 17.1612 21.1158 17.0161 21.2191C16.8899 21.3089 16.7538 21.3833 16.6106 21.4406C16.4458 21.5066 16.2758 21.5409 16.1409 21.5682C16.1285 21.5707 16.1166 21.5731 16.1049 21.5755L14.121 21.9805C13.7999 22.0461 13.4677 21.9434 13.2361 21.707C13.0045 21.4706 12.9039 21.1316 12.9682 20.8038L13.365 18.7788C13.3673 18.7669 13.3697 18.7547 13.3721 18.7421C13.3989 18.6044 13.4325 18.4309 13.4971 18.2626C13.5533 18.1165 13.6262 17.9776 13.7141 17.8488C13.8154 17.7006 13.9382 17.5758 14.0357 17.4767C14.0445 17.4676 14.0532 17.4588 14.0615 17.4502L18.1347 13.2928ZM6.0912 16.9999C6.09122 16.4476 6.52987 15.9999 7.07094 15.9999L10.01 16C10.5511 16 10.9898 16.4477 10.9898 17C10.9898 17.5523 10.5511 18 10.01 18L7.07089 17.9999C6.5298 17.9999 6.09119 17.5522 6.0912 16.9999Z" fill="#fffbf3"/>
</g>
<defs>
<clipPath id="clip0_1576_14979">
<rect width="24" height="24" fill="white"/>
</clipPath>
</defs>
</svg>
