<svg width="24" height="25" viewBox="0 0 24 25" fill="none" xmlns="http://www.w3.org/2000/svg">
<path d="M20.9618 13.29C20.8045 14.9922 20.1657 16.6144 19.1201 17.9668C18.0744 19.3192 16.6653 20.3458 15.0575 20.9265C13.4497 21.5073 11.7098 21.6181 10.0413 21.2461C8.37283 20.8741 6.84481 20.0345 5.63604 18.8258C4.42727 17.617 3.58775 16.089 3.21572 14.4205C2.84369 12.752 2.95453 11.0121 3.53528 9.4043C4.11602 7.79651 5.14265 6.38737 6.49503 5.34175C7.84741 4.29614 9.46961 3.65731 11.1718 3.5C10.1752 4.84827 9.69566 6.50945 9.82035 8.18141C9.94503 9.85338 10.6657 11.4251 11.8512 12.6106C13.0368 13.7961 14.6084 14.5168 16.2804 14.6415C17.9524 14.7662 19.6135 14.2866 20.9618 13.29Z" stroke="#FFFBF3" stroke-width="2" stroke-linecap="round" stroke-linejoin="round"/>
</svg>
