<svg width="24" height="24" viewBox="0 0 24 24" fill="none" xmlns="http://www.w3.org/2000/svg">
<g clip-path="url(#clip0_2593_3181)">
<mask id="path-1-inside-1_2593_3181" fill="white">
<path fill-rule="evenodd" clip-rule="evenodd" d="M7.07043 2C7.61151 2 8.05014 2.44772 8.05014 3V4H15.8878V3C15.8878 2.44772 16.3264 2 16.8675 2C17.4086 2 17.8472 2.44772 17.8472 3V4.00003C18.2969 4.00031 18.6891 4.00314 19.018 4.03057C19.4054 4.06287 19.7906 4.13419 20.1613 4.32698C20.7144 4.61459 21.1639 5.07353 21.4457 5.63802C21.6346 6.0164 21.7045 6.40962 21.7361 6.80496C21.7661 7.17953 21.7661 7.63428 21.7661 8.16142V9.99998C21.7661 10.5523 21.3275 11 20.7864 11C20.2453 11 19.8067 10.5523 19.8067 9.99998H4.1313V17.8C4.1313 18.3766 4.13206 18.7488 4.15474 19.0322C4.17648 19.3038 4.2134 19.4045 4.23808 19.454C4.33201 19.6422 4.48189 19.7951 4.66623 19.891C4.71467 19.9162 4.81334 19.9539 5.0795 19.9761C5.35709 19.9992 5.72181 20 6.28666 20H10.0096C10.5507 20 10.9893 20.4477 10.9893 21C10.9893 21.5523 10.5507 22 10.0096 22H6.24888C5.73244 22 5.2869 22 4.91993 21.9694C4.53261 21.9371 4.14737 21.8658 3.77667 21.673C3.22364 21.3854 2.77401 20.9265 2.49222 20.362C2.30334 19.9836 2.23347 19.5904 2.20183 19.195C2.17185 18.8205 2.17186 18.3657 2.17188 17.8385V8.16145C2.17186 7.6343 2.17185 7.17953 2.20183 6.80496C2.23347 6.40962 2.30334 6.0164 2.49222 5.63802C2.77401 5.07353 3.22363 4.61459 3.77667 4.32698C4.14737 4.13419 4.53261 4.06287 4.91993 4.03057C5.2489 4.00314 5.641 4.00031 6.09072 4.00003V3C6.09072 2.44772 6.52935 2 7.07043 2ZM6.28666 5.99999C5.72181 5.99999 5.35709 6.00077 5.0795 6.02392C4.81334 6.04611 4.71467 6.08379 4.66623 6.10898C4.48189 6.20486 4.33201 6.35784 4.23808 6.546C4.2134 6.59544 4.17648 6.69616 4.15474 6.96783C4.13479 7.21697 4.13181 7.53489 4.13136 7.99999H19.8066C19.8062 7.53489 19.8031 7.21697 19.7832 6.96783C19.7615 6.69616 19.7246 6.59544 19.6999 6.546C19.6059 6.35784 19.4561 6.20486 19.2717 6.10898C19.2232 6.08379 19.1246 6.04611 18.8585 6.02392C18.5808 6.00077 18.2162 5.99999 17.6513 5.99999H6.28666ZM6.09072 13C6.09073 12.4477 6.52936 12 7.07044 12L13.4385 12.0001C13.9796 12.0001 14.4183 12.4478 14.4183 13.0001C14.4183 13.5524 13.9796 14.0001 13.4385 14.0001L7.07042 14C6.52934 14 6.09072 13.5523 6.09072 13ZM20.0936 15.2929C20.2521 15.1311 20.2521 14.8689 20.0936 14.7071C19.9351 14.5453 19.6782 14.5453 19.5197 14.7071L15.4467 18.8646C15.3797 18.9328 15.3468 18.9666 15.3237 18.9919C15.3231 18.9925 15.3226 18.9931 15.322 18.9937C15.3218 18.9945 15.3216 18.9953 15.3214 18.9961C15.3137 19.0298 15.3044 19.0764 15.2859 19.1712L15.1773 19.7252L15.7202 19.6144C15.813 19.5955 15.8586 19.586 15.8916 19.5781L15.894 19.5775C15.8946 19.5769 15.8952 19.5764 15.8958 19.5758C15.9205 19.5522 15.9537 19.5186 16.0205 19.4503L20.0936 15.2929ZM18.1342 13.2929C19.0579 12.3501 20.5555 12.3501 21.4791 13.2929C22.4028 14.2357 22.4028 15.7643 21.4791 16.7071L17.4061 20.8646C17.3976 20.8731 17.389 20.882 17.3801 20.891C17.283 20.9905 17.1608 21.1159 17.0156 21.2192C16.8894 21.309 16.7533 21.3834 16.6102 21.4407C16.4453 21.5067 16.2753 21.541 16.1404 21.5683C16.128 21.5708 16.1161 21.5732 16.1044 21.5756L14.1205 21.9806C13.7994 22.0462 13.4672 21.9435 13.2356 21.7071C13.004 21.4707 12.9034 21.1317 12.9677 20.8039L13.3645 18.7789C13.3668 18.767 13.3692 18.7548 13.3716 18.7422C13.3984 18.6045 13.432 18.431 13.4966 18.2627C13.5528 18.1166 13.6257 17.9777 13.7136 17.8489C13.8149 17.7007 13.9377 17.5759 14.0352 17.4768C14.044 17.4677 14.0527 17.4589 14.061 17.4503L18.1342 13.2929ZM6.09072 17C6.09074 16.4477 6.52938 16 7.07046 16L10.0096 16.0001C10.5507 16.0001 10.9893 16.4478 10.9893 17.0001C10.9893 17.5524 10.5507 18.0001 10.0095 18.0001L7.0704 18C6.52931 18 6.0907 17.5523 6.09072 17Z"/>
</mask>
<path fill-rule="evenodd" clip-rule="evenodd" d="M7.07043 2C7.61151 2 8.05014 2.44772 8.05014 3V4H15.8878V3C15.8878 2.44772 16.3264 2 16.8675 2C17.4086 2 17.8472 2.44772 17.8472 3V4.00003C18.2969 4.00031 18.6891 4.00314 19.018 4.03057C19.4054 4.06287 19.7906 4.13419 20.1613 4.32698C20.7144 4.61459 21.1639 5.07353 21.4457 5.63802C21.6346 6.0164 21.7045 6.40962 21.7361 6.80496C21.7661 7.17953 21.7661 7.63428 21.7661 8.16142V9.99998C21.7661 10.5523 21.3275 11 20.7864 11C20.2453 11 19.8067 10.5523 19.8067 9.99998H4.1313V17.8C4.1313 18.3766 4.13206 18.7488 4.15474 19.0322C4.17648 19.3038 4.2134 19.4045 4.23808 19.454C4.33201 19.6422 4.48189 19.7951 4.66623 19.891C4.71467 19.9162 4.81334 19.9539 5.0795 19.9761C5.35709 19.9992 5.72181 20 6.28666 20H10.0096C10.5507 20 10.9893 20.4477 10.9893 21C10.9893 21.5523 10.5507 22 10.0096 22H6.24888C5.73244 22 5.2869 22 4.91993 21.9694C4.53261 21.9371 4.14737 21.8658 3.77667 21.673C3.22364 21.3854 2.77401 20.9265 2.49222 20.362C2.30334 19.9836 2.23347 19.5904 2.20183 19.195C2.17185 18.8205 2.17186 18.3657 2.17188 17.8385V8.16145C2.17186 7.6343 2.17185 7.17953 2.20183 6.80496C2.23347 6.40962 2.30334 6.0164 2.49222 5.63802C2.77401 5.07353 3.22363 4.61459 3.77667 4.32698C4.14737 4.13419 4.53261 4.06287 4.91993 4.03057C5.2489 4.00314 5.641 4.00031 6.09072 4.00003V3C6.09072 2.44772 6.52935 2 7.07043 2ZM6.28666 5.99999C5.72181 5.99999 5.35709 6.00077 5.0795 6.02392C4.81334 6.04611 4.71467 6.08379 4.66623 6.10898C4.48189 6.20486 4.33201 6.35784 4.23808 6.546C4.2134 6.59544 4.17648 6.69616 4.15474 6.96783C4.13479 7.21697 4.13181 7.53489 4.13136 7.99999H19.8066C19.8062 7.53489 19.8031 7.21697 19.7832 6.96783C19.7615 6.69616 19.7246 6.59544 19.6999 6.546C19.6059 6.35784 19.4561 6.20486 19.2717 6.10898C19.2232 6.08379 19.1246 6.04611 18.8585 6.02392C18.5808 6.00077 18.2162 5.99999 17.6513 5.99999H6.28666ZM6.09072 13C6.09073 12.4477 6.52936 12 7.07044 12L13.4385 12.0001C13.9796 12.0001 14.4183 12.4478 14.4183 13.0001C14.4183 13.5524 13.9796 14.0001 13.4385 14.0001L7.07042 14C6.52934 14 6.09072 13.5523 6.09072 13ZM20.0936 15.2929C20.2521 15.1311 20.2521 14.8689 20.0936 14.7071C19.9351 14.5453 19.6782 14.5453 19.5197 14.7071L15.4467 18.8646C15.3797 18.9328 15.3468 18.9666 15.3237 18.9919C15.3231 18.9925 15.3226 18.9931 15.322 18.9937C15.3218 18.9945 15.3216 18.9953 15.3214 18.9961C15.3137 19.0298 15.3044 19.0764 15.2859 19.1712L15.1773 19.7252L15.7202 19.6144C15.813 19.5955 15.8586 19.586 15.8916 19.5781L15.894 19.5775C15.8946 19.5769 15.8952 19.5764 15.8958 19.5758C15.9205 19.5522 15.9537 19.5186 16.0205 19.4503L20.0936 15.2929ZM18.1342 13.2929C19.0579 12.3501 20.5555 12.3501 21.4791 13.2929C22.4028 14.2357 22.4028 15.7643 21.4791 16.7071L17.4061 20.8646C17.3976 20.8731 17.389 20.882 17.3801 20.891C17.283 20.9905 17.1608 21.1159 17.0156 21.2192C16.8894 21.309 16.7533 21.3834 16.6102 21.4407C16.4453 21.5067 16.2753 21.541 16.1404 21.5683C16.128 21.5708 16.1161 21.5732 16.1044 21.5756L14.1205 21.9806C13.7994 22.0462 13.4672 21.9435 13.2356 21.7071C13.004 21.4707 12.9034 21.1317 12.9677 20.8039L13.3645 18.7789C13.3668 18.767 13.3692 18.7548 13.3716 18.7422C13.3984 18.6045 13.432 18.431 13.4966 18.2627C13.5528 18.1166 13.6257 17.9777 13.7136 17.8489C13.8149 17.7007 13.9377 17.5759 14.0352 17.4768C14.044 17.4677 14.0527 17.4589 14.061 17.4503L18.1342 13.2929ZM6.09072 17C6.09074 16.4477 6.52938 16 7.07046 16L10.0096 16.0001C10.5507 16.0001 10.9893 16.4478 10.9893 17.0001C10.9893 17.5524 10.5507 18.0001 10.0095 18.0001L7.0704 18C6.52931 18 6.0907 17.5523 6.09072 17Z" fill="#3E5E4E"/>
<path d="M8.05014 4H-13.2832V25.3333H8.05014V4ZM15.8878 4V25.3333H37.2211V4H15.8878ZM17.8472 4.00003H-3.4861V25.3201L17.834 25.3334L17.8472 4.00003ZM19.018 4.03057L17.2449 25.2901L17.2453 25.2901L19.018 4.03057ZM20.1613 4.32698L30.0045 -14.5998L30.0041 -14.6L20.1613 4.32698ZM21.4457 5.63802L2.35812 15.1656L2.35852 15.1664L21.4457 5.63802ZM21.7361 6.80496L43.0014 5.10296L43.0014 5.10279L21.7361 6.80496ZM19.8067 9.99998H41.14V-11.3334H19.8067V9.99998ZM4.1313 9.99998V-11.3334H-17.202V9.99998H4.1313ZM4.15474 19.0322L-17.1106 20.734L-17.1106 20.7343L4.15474 19.0322ZM4.23808 19.454L-14.8525 28.9756L-14.8501 28.9803L4.23808 19.454ZM4.66623 19.891L-5.17934 38.8165L-5.17833 38.817L4.66623 19.891ZM5.0795 19.9761L3.30626 41.2356L3.31034 41.2359L5.0795 19.9761ZM4.91993 21.9694L3.14702 43.2289L3.1472 43.2289L4.91993 21.9694ZM3.77667 21.673L13.6202 2.74638L13.6195 2.74602L3.77667 21.673ZM2.49222 20.362L-16.5954 29.8896L-16.5952 29.8899L2.49222 20.362ZM2.20183 19.195L23.4672 17.4931L23.4671 17.4926L2.20183 19.195ZM2.17188 17.8385L23.5052 17.8393V17.8385H2.17188ZM2.17188 8.16145H23.5052V8.16065L2.17188 8.16145ZM2.20183 6.80496L-19.0635 5.10279L-19.0635 5.10296L2.20183 6.80496ZM2.49222 5.63802L-16.5951 -3.89008L-16.5952 -3.88997L2.49222 5.63802ZM3.77667 4.32698L-6.06649 -14.5998L-6.06661 -14.5998L3.77667 4.32698ZM4.91993 4.03057L3.14727 -17.229L3.14702 -17.229L4.91993 4.03057ZM6.09072 4.00003L6.104 25.3334L27.424 25.3201V4.00003H6.09072ZM5.0795 6.02392L6.85194 27.2835L6.85246 27.2835L5.0795 6.02392ZM4.66623 6.10898L-5.17525 -12.8187L-5.17773 -12.8174L4.66623 6.10898ZM4.23808 6.546L23.324 16.0769L23.3255 16.074L4.23808 6.546ZM4.15474 6.96783L25.42 8.6704L25.4201 8.66954L4.15474 6.96783ZM4.13136 7.99999L-17.202 7.97977L-17.2222 29.3333H4.13136V7.99999ZM19.8066 7.99999V29.3333H41.1579L41.1399 7.98201L19.8066 7.99999ZM19.7832 6.96783L41.0489 5.27025L41.0485 5.26535L19.7832 6.96783ZM19.6999 6.546L0.613663 16.0764L0.613933 16.0769L19.6999 6.546ZM19.2717 6.10898L29.114 -12.8183L29.1054 -12.8227L19.2717 6.10898ZM18.8585 6.02392L20.6314 -15.2356L20.6311 -15.2356L18.8585 6.02392ZM6.09072 13L-15.2426 12.9996V13H6.09072ZM7.07044 12L7.07077 -9.33335H7.07044V12ZM13.4385 12.0001L13.4382 33.3334H13.4385V12.0001ZM13.4385 14.0001L13.4382 35.3334H13.4385V14.0001ZM7.07042 14L7.07075 -7.33336H7.07042V14ZM20.0936 15.2929L35.3322 30.2226L35.3323 30.2224L20.0936 15.2929ZM19.5197 14.7071L4.28097 -0.222499L4.28079 -0.222319L19.5197 14.7071ZM15.4467 18.8646L30.6744 33.8053L30.68 33.7996L30.6856 33.794L15.4467 18.8646ZM15.3237 18.9919L30.5624 33.9214L30.8216 33.6569L31.0715 33.3835L15.3237 18.9919ZM15.322 18.9937L0.0833008 4.06409L-4.00803 8.24015L-5.39883 13.9185L15.322 18.9937ZM15.3214 18.9961L-5.39942 13.9209L-5.43608 14.0706L-5.47058 14.2209L15.3214 18.9961ZM15.2859 19.1712L36.2211 23.2733L36.2236 23.2608L15.2859 19.1712ZM15.1773 19.7252L-5.7579 15.6231L-11.9113 47.0272L19.4436 40.6276L15.1773 19.7252ZM15.7202 19.6144L11.4618 -1.28964L11.4539 -1.28803L15.7202 19.6144ZM15.8916 19.5781L20.8561 40.3257L21.0155 40.2876L21.1743 40.247L15.8916 19.5781ZM15.894 19.5775L21.1766 40.2464L26.9573 38.769L31.1327 34.507L15.894 19.5775ZM15.8958 19.5758L1.1852 4.1255L0.916584 4.38125L0.65702 4.64619L15.8958 19.5758ZM16.0205 19.4503L0.781917 4.52051L0.776359 4.52618L0.770806 4.53186L16.0205 19.4503ZM18.1342 13.2929L33.3727 28.2226L33.3729 28.2224L18.1342 13.2929ZM21.4791 16.7071L6.24039 1.7775L6.24021 1.77768L21.4791 16.7071ZM17.4061 20.8646L32.5572 35.883L32.6012 35.8386L32.645 35.794L17.4061 20.8646ZM17.3801 20.891L2.22408 5.87743L2.1675 5.93456L2.11135 5.9921L17.3801 20.891ZM17.0156 21.2192L4.6483 3.83635L4.64625 3.83781L17.0156 21.2192ZM16.6102 21.4407L24.5379 41.2463L24.5386 41.246L16.6102 21.4407ZM16.1404 21.5683L11.9091 0.658758L11.9059 0.659404L16.1404 21.5683ZM16.1044 21.5756L20.3715 42.4778L20.3887 42.4743L20.4059 42.4707L16.1044 21.5756ZM14.1205 21.9806L9.85349 1.07832L9.851 1.07883L14.1205 21.9806ZM12.9677 20.8039L33.9025 24.9084L33.9029 24.906L12.9677 20.8039ZM13.3645 18.7789L-7.56423 14.6436L-7.5675 14.6602L-7.57075 14.6768L13.3645 18.7789ZM13.3716 18.7422L34.313 22.8129L34.3136 22.8098L13.3716 18.7422ZM13.4966 18.2627L-6.41724 10.611L-6.4175 10.6116L13.4966 18.2627ZM13.7136 17.8489L-3.89832 5.81019L-3.90235 5.81608L13.7136 17.8489ZM14.0352 17.4768L29.2438 32.437L29.3002 32.3797L29.3561 32.3219L14.0352 17.4768ZM14.061 17.4503L-1.1775 2.52051L-1.22123 2.56514L-1.2647 2.61003L14.061 17.4503ZM7.07046 16L7.07118 -5.33336H7.07046V16ZM10.0096 16.0001L10.0088 37.3334H10.0096V16.0001ZM10.0095 18.0001L10.0088 39.3334H10.0095V18.0001ZM7.0704 18L7.07112 -3.33337H7.0704V18ZM7.07043 2V23.3333C-4.5808 23.3333 -13.2832 13.8153 -13.2832 3H8.05014H29.3835C29.3835 -8.91989 19.8038 -19.3333 7.07043 -19.3333V2ZM8.05014 3H-13.2832V4H8.05014H29.3835V3H8.05014ZM8.05014 4V25.3333H15.8878V4V-17.3333H8.05014V4ZM15.8878 4H37.2211V3H15.8878H-5.44552V4H15.8878ZM15.8878 3H37.2211C37.2211 13.8152 28.5189 23.3333 16.8675 23.3333V2V-19.3333C4.13398 -19.3333 -5.44552 -8.91975 -5.44552 3H15.8878ZM16.8675 2V23.3333C5.2162 23.3333 -3.4861 13.8152 -3.4861 3H17.8472H39.1806C39.1806 -8.91978 29.601 -19.3333 16.8675 -19.3333V2ZM17.8472 3H-3.4861V4.00003H17.8472H39.1806V3H17.8472ZM17.8472 4.00003L17.834 25.3334C17.9304 25.3334 17.9868 25.3336 18.0249 25.3339C18.062 25.3341 18.0563 25.3343 18.0225 25.3336C17.989 25.3329 17.9044 25.3308 17.7828 25.3252C17.6619 25.3197 17.4774 25.3095 17.2449 25.2901L19.018 4.03057L20.7911 -17.229C19.4386 -17.3418 18.1663 -17.3331 17.8605 -17.3333L17.8472 4.00003ZM19.018 4.03057L17.2453 25.2901C16.2709 25.2089 13.4904 24.9035 10.3186 23.254L20.1613 4.32698L30.0041 -14.6C26.0908 -16.6351 22.5398 -17.0831 20.7906 -17.229L19.018 4.03057ZM20.1613 4.32698L10.3182 23.2538C6.8225 21.4358 4.06177 18.5787 2.35812 15.1656L21.4457 5.63802L40.5333 -3.88955C38.2661 -8.43165 34.6062 -12.2066 30.0045 -14.5998L20.1613 4.32698ZM21.4457 5.63802L2.35852 15.1664C0.816952 12.0784 0.542493 9.40302 0.470782 8.50713L21.7361 6.80496L43.0014 5.10279C42.8664 3.41622 42.4523 -0.0455496 40.5329 -3.89037L21.4457 5.63802ZM21.7361 6.80496L0.470768 8.50696C0.451401 8.26498 0.442235 8.07862 0.437758 7.96867C0.43324 7.85769 0.432073 7.78828 0.431919 7.77903C0.431764 7.76967 0.432161 7.79014 0.432432 7.86125C0.432717 7.93584 0.432745 8.02135 0.432745 8.16142H21.7661H43.0994C43.0994 7.92663 43.1143 6.51304 43.0014 5.10296L21.7361 6.80496ZM21.7661 8.16142H0.432745V9.99998H21.7661H43.0994V8.16142H21.7661ZM21.7661 9.99998H0.432745C0.432745 -0.815466 9.13528 -10.3334 20.7864 -10.3334V11V32.3333C33.5196 32.3333 43.0994 21.92 43.0994 9.99998H21.7661ZM20.7864 11V-10.3334C32.4375 -10.3334 41.14 -0.815466 41.14 9.99998H19.8067H-1.52668C-1.52668 21.92 8.0531 32.3333 20.7864 32.3333V11ZM19.8067 9.99998V-11.3334H4.1313V9.99998V31.3333H19.8067V9.99998ZM4.1313 9.99998H-17.202V17.8H4.1313H25.4646V9.99998H4.1313ZM4.1313 17.8H-17.202C-17.202 18.0176 -17.2175 19.3988 -17.1106 20.734L4.15474 19.0322L25.4201 17.3303C25.4428 17.6142 25.4535 17.8368 25.4587 17.9712C25.4639 18.105 25.4652 18.1914 25.4654 18.2042C25.4656 18.2175 25.4652 18.1978 25.465 18.1204C25.4647 18.0425 25.4646 17.946 25.4646 17.8H4.1313ZM4.15474 19.0322L-17.1106 20.7343C-16.9872 22.2759 -16.6104 25.4511 -14.8525 28.9756L4.23808 19.454L23.3286 9.93231C25.0372 13.3579 25.3401 16.3316 25.4201 17.33L4.15474 19.0322ZM4.23808 19.454L-14.8501 28.9803C-12.7686 33.1511 -9.40653 36.6174 -5.17934 38.8165L4.66623 19.891L14.5118 0.965429C18.3703 2.97272 21.4326 6.13321 23.3263 9.92761L4.23808 19.454ZM4.66623 19.891L-5.17833 38.817C-1.57261 40.6926 1.70354 41.1019 3.30626 41.2356L5.0795 19.9761L6.85273 -1.28345C7.92315 -1.19416 11.002 -0.860246 14.5108 0.9649L4.66623 19.891ZM5.0795 19.9761L3.31034 41.2359C4.68096 41.35 6.09389 41.3333 6.28666 41.3333V20V-1.33337C6.14361 -1.33337 6.0513 -1.33344 5.9776 -1.33371C5.90445 -1.33398 5.89056 -1.33434 5.91051 -1.33403C5.92985 -1.33372 6.02507 -1.33215 6.16912 -1.32631C6.31379 -1.32046 6.54955 -1.30868 6.84865 -1.28379L5.0795 19.9761ZM6.28666 20V41.3333H10.0096V20V-1.33337H6.28666V20ZM10.0096 20V41.3333C-1.64153 41.3333 -10.3441 31.8154 -10.3441 21H10.9893H32.3226C32.3226 9.07991 22.7428 -1.33337 10.0096 -1.33337V20ZM10.9893 21H-10.3441C-10.3441 10.1845 -1.64153 0.666624 10.0096 0.666624V22V43.3333C22.7428 43.3333 32.3226 32.92 32.3226 21H10.9893ZM10.0096 22V0.666624H6.24888V22V43.3333H10.0096V22ZM6.24888 22V0.666624C6.11114 0.666624 6.02996 0.666594 5.95986 0.666315C5.8934 0.666051 5.8794 0.665681 5.89617 0.665971C5.91284 0.666258 5.99187 0.667707 6.11389 0.672882C6.23484 0.678013 6.435 0.688321 6.69267 0.709807L4.91993 21.9694L3.1472 43.2289C4.59253 43.3494 6.03687 43.3333 6.24888 43.3333V22ZM4.91993 21.9694L6.69284 0.709822C7.6661 0.790985 10.4474 1.09623 13.6202 2.74638L3.77667 21.673L-6.0669 40.5995C-2.15268 42.6353 1.39913 43.0831 3.14702 43.2289L4.91993 21.9694ZM3.77667 21.673L13.6195 2.74602C17.1143 4.56345 19.8755 7.42002 21.5796 10.834L2.49222 20.362L-16.5952 29.8899C-14.3274 34.4329 -10.667 38.2073 -6.06621 40.5999L3.77667 21.673ZM2.49222 20.362L21.5798 10.8344C23.1208 13.9215 23.3954 16.596 23.4672 17.4931L2.20183 19.195L-19.0635 20.8969C-18.9284 22.5847 -18.5141 26.0456 -16.5954 29.8896L2.49222 20.362ZM2.20183 19.195L23.4671 17.4926C23.4865 17.7349 23.4957 17.9214 23.5002 18.0315C23.5047 18.1426 23.5059 18.2121 23.506 18.2214C23.5062 18.2308 23.5058 18.2104 23.5055 18.1393C23.5052 18.0648 23.5052 17.9793 23.5052 17.8393L2.17188 17.8385L-19.1615 17.8377C-19.1615 18.0725 -19.1764 19.4866 -19.0635 20.8973L2.20183 19.195ZM2.17188 17.8385H23.5052V8.16145H2.17188H-19.1615V17.8385H2.17188ZM2.17188 8.16145L23.5052 8.16065C23.5052 8.02065 23.5052 7.93516 23.5055 7.86064C23.5058 7.78958 23.5062 7.76916 23.506 7.77858C23.5059 7.78789 23.5047 7.85736 23.5002 7.96841C23.4957 8.07843 23.4865 8.26488 23.4672 8.50696L2.20183 6.80496L-19.0635 5.10296C-19.1764 6.51343 -19.1615 7.92722 -19.1615 8.16224L2.17188 8.16145ZM2.20183 6.80496L23.4671 8.50713C23.3954 9.40387 23.1208 12.0786 21.5796 15.166L2.49222 5.63802L-16.5952 -3.88997C-18.5141 -0.0458248 -18.9284 3.41537 -19.0635 5.10279L2.20183 6.80496ZM2.49222 5.63802L21.5796 15.1661C19.8757 18.5794 17.115 21.436 13.62 23.2537L3.77667 4.32698L-6.06661 -14.5998C-10.6677 -12.2068 -14.3277 -8.43229 -16.5951 -3.89008L2.49222 5.63802ZM3.77667 4.32698L13.6198 23.2538C10.4477 24.9035 7.66698 25.2089 6.69284 25.2901L4.91993 4.03057L3.14702 -17.229C1.39825 -17.0831 -2.15296 -16.6351 -6.06649 -14.5998L3.77667 4.32698ZM4.91993 4.03057L6.6926 25.2901C6.46037 25.3095 6.27595 25.3197 6.15513 25.3252C6.03357 25.3308 5.94899 25.3329 5.91544 25.3336C5.88166 25.3343 5.87598 25.3341 5.9131 25.3339C5.95113 25.3336 6.00756 25.3334 6.104 25.3334L6.09072 4.00003L6.07743 -17.3333C5.77134 -17.3331 4.49949 -17.3417 3.14727 -17.229L4.91993 4.03057ZM6.09072 4.00003H27.424V3H6.09072H-15.2426V4.00003H6.09072ZM6.09072 3H27.424C27.424 13.8155 18.7215 23.3333 7.07043 23.3333V2V-19.3333C-5.66283 -19.3333 -15.2426 -8.92003 -15.2426 3H6.09072ZM6.28666 5.99999V-15.3333C6.09591 -15.3333 4.67978 -15.3501 3.30654 -15.2356L5.0795 6.02392L6.85246 27.2835C6.55232 27.3085 6.31571 27.3203 6.17049 27.3262C6.02588 27.3321 5.93022 27.3337 5.91068 27.334C5.89052 27.3343 5.90425 27.3339 5.97742 27.3337C6.05115 27.3334 6.14345 27.3333 6.28666 27.3333V5.99999ZM5.0795 6.02392L3.30706 -15.2357C1.70565 -15.1021 -1.56987 -14.6933 -5.17525 -12.8187L4.66623 6.10898L14.5077 25.0366C10.9992 26.8609 7.92104 27.1944 6.85194 27.2835L5.0795 6.02392ZM4.66623 6.10898L-5.17773 -12.8174C-9.40956 -10.6163 -12.7697 -7.14802 -14.8493 -2.98198L4.23808 6.546L23.3255 16.074C21.4337 19.8637 18.3733 23.0261 14.5102 25.0354L4.66623 6.10898ZM4.23808 6.546L-14.8479 -2.9849C-16.6117 0.547244 -16.9877 3.72966 -17.1106 5.26612L4.15474 6.96783L25.4201 8.66954C25.3406 9.66266 25.0385 12.6436 23.324 16.0769L4.23808 6.546ZM4.15474 6.96783L-17.1105 5.26526C-17.2102 6.5101 -17.2017 7.70532 -17.202 7.97977L4.13136 7.99999L25.4647 8.02021C25.4648 7.92033 25.465 7.85893 25.4653 7.81827C25.4655 7.77743 25.4657 7.78347 25.465 7.81944C25.4643 7.85509 25.4622 7.9489 25.4565 8.08277C25.4507 8.21712 25.4401 8.41909 25.42 8.6704L4.15474 6.96783ZM4.13136 7.99999V29.3333H19.8066V7.99999V-13.3333H4.13136V7.99999ZM19.8066 7.99999L41.1399 7.98201C41.1397 7.70168 41.148 6.51175 41.0489 5.27025L19.7832 6.96783L-1.48244 8.66541C-1.50237 8.41578 -1.51286 8.21511 -1.51858 8.08145C-1.52428 7.94829 -1.52636 7.85494 -1.52706 7.81928C-1.52776 7.78331 -1.52759 7.77717 -1.52732 7.81758C-1.52706 7.85777 -1.52685 7.91879 -1.52676 8.01796L19.8066 7.99999ZM19.7832 6.96783L41.0485 5.26535C40.9254 3.72663 40.5488 0.545583 38.7858 -2.9849L19.6999 6.546L0.613933 16.0769C-1.0997 12.6453 -1.40236 9.66569 -1.48205 8.67031L19.7832 6.96783ZM19.6999 6.546L38.7861 -2.98436C36.7085 -7.14503 33.3506 -10.6152 29.114 -12.8182L19.2717 6.10898L9.42943 25.0362C5.5616 23.0249 2.50331 19.8607 0.613663 16.0764L19.6999 6.546ZM19.2717 6.10898L29.1054 -12.8227C25.5064 -14.6922 22.2371 -15.1017 20.6314 -15.2356L18.8585 6.02392L17.0856 27.2835C16.0121 27.1939 12.9401 26.8598 9.43809 25.0407L19.2717 6.10898ZM18.8585 6.02392L20.6311 -15.2356C19.258 -15.3501 17.8423 -15.3333 17.6513 -15.3333V5.99999V27.3333C17.7945 27.3333 17.8868 27.3334 17.9606 27.3337C18.0337 27.3339 18.0475 27.3343 18.0273 27.334C18.0077 27.3337 17.9121 27.3321 17.7675 27.3262C17.6223 27.3203 17.3858 27.3085 17.0859 27.2835L18.8585 6.02392ZM17.6513 5.99999V-15.3333H6.28666V5.99999V27.3333H17.6513V5.99999ZM6.09072 13L27.424 13.0004C27.4239 23.8157 18.7213 33.3333 7.07044 33.3333V12V-9.33335C-5.66261 -9.33335 -15.2424 1.07964 -15.2426 12.9996L6.09072 13ZM7.07044 12L7.0701 33.3333L13.4382 33.3334L13.4385 12.0001L13.4389 -9.33325L7.07077 -9.33335L7.07044 12ZM13.4385 12.0001V33.3334C1.78746 33.3334 -6.91508 23.8155 -6.91508 13.0001H14.4183H35.7516C35.7516 1.08003 26.1718 -9.33325 13.4385 -9.33325V12.0001ZM14.4183 13.0001H-6.91508C-6.91508 2.18463 1.78746 -7.33326 13.4385 -7.33326V14.0001V35.3334C26.1718 35.3334 35.7516 24.9201 35.7516 13.0001H14.4183ZM13.4385 14.0001L13.4389 -7.33326L7.07075 -7.33336L7.07042 14L7.07008 35.3333L13.4382 35.3334L13.4385 14.0001ZM7.07042 14V-7.33336C18.7215 -7.33336 27.424 2.18453 27.424 13H6.09072H-15.2426C-15.2426 24.92 -5.66284 35.3333 7.07042 35.3333V14ZM20.0936 15.2929L35.3323 30.2224C43.617 21.7662 43.617 8.23371 35.3323 -0.222499L20.0936 14.7071L4.85488 29.6366C-3.11273 21.504 -3.11273 8.49591 4.85488 0.3633L20.0936 15.2929ZM20.0936 14.7071L35.3323 -0.222499C26.8087 -8.92265 12.8046 -8.92265 4.28097 -0.222499L19.5197 14.7071L34.7584 29.6366C26.5518 38.0132 13.0615 38.0132 4.85488 29.6366L20.0936 14.7071ZM19.5197 14.7071L4.28079 -0.222319L0.207744 3.93517L15.4467 18.8646L30.6856 33.794L34.7586 29.6365L19.5197 14.7071ZM15.4467 18.8646L0.21886 3.92383C0.188854 3.95442 0.115077 4.02958 0.03705 4.11022C-0.0386996 4.18851 -0.213125 4.36942 -0.424083 4.60025L15.3237 18.9919L31.0715 33.3835C30.8836 33.589 30.7372 33.7404 30.7005 33.7784C30.6614 33.8188 30.6375 33.8429 30.6744 33.8053L15.4467 18.8646ZM15.3237 18.9919L0.0849667 4.06229C-0.0187724 4.16818 -0.11091 4.26443 -0.189944 4.34816C-0.268705 4.4316 -0.336031 4.50427 -0.38897 4.56191C-0.415554 4.59086 -0.439152 4.61671 -0.459143 4.63869C-0.47908 4.66061 -0.496158 4.67948 -0.509442 4.69419C-0.522608 4.70877 -0.533245 4.72059 -0.539719 4.72779C-0.543022 4.73146 -0.545695 4.73444 -0.54732 4.73625C-0.54815 4.73717 -0.548823 4.73792 -0.549234 4.73838C-0.549443 4.73861 -0.549613 4.7388 -0.549718 4.73892C-0.549772 4.73898 -0.549815 4.73903 -0.549843 4.73906C-0.549854 4.73907 -0.549869 4.73909 -0.549875 4.73909C-0.549881 4.7391 -0.549887 4.73911 -0.549888 4.73911C-0.550115 4.73936 -0.548873 4.73798 -0.547421 4.73636C-0.545829 4.73459 -0.54319 4.73165 -0.539921 4.72802C-0.533515 4.72089 -0.522945 4.70915 -0.509847 4.69464C-0.49663 4.68001 -0.47962 4.66121 -0.459752 4.63937C-0.439829 4.61746 -0.4163 4.59168 -0.389785 4.56281C-0.336984 4.50532 -0.269797 4.4328 -0.191177 4.34951C-0.112285 4.26593 -0.0202913 4.16983 0.0833008 4.06409L15.322 18.9937L30.5608 33.9232C30.6645 33.8174 30.7566 33.7211 30.8357 33.6374C30.9144 33.5539 30.9818 33.4813 31.0347 33.4236C31.0613 33.3947 31.0849 33.3688 31.1049 33.3468C31.1248 33.3249 31.1419 33.306 31.1552 33.2913C31.1683 33.2768 31.179 33.2649 31.1855 33.2577C31.1888 33.2541 31.1914 33.2511 31.1931 33.2493C31.1939 33.2484 31.1946 33.2476 31.195 33.2472C31.1952 33.2469 31.1953 33.2467 31.1955 33.2466C31.1955 33.2466 31.1956 33.2465 31.1956 33.2465C31.1956 33.2465 31.1956 33.2464 31.1956 33.2464C31.1956 33.2464 31.1956 33.2464 31.1956 33.2464C31.1959 33.2462 31.1946 33.2476 31.1932 33.2492C31.1916 33.2509 31.1889 33.2539 31.1857 33.2575C31.1792 33.2646 31.1687 33.2764 31.1556 33.2909C31.1424 33.3055 31.1254 33.3243 31.1055 33.3462C31.0856 33.3681 31.062 33.3938 31.0355 33.4227C30.9827 33.4802 30.9155 33.5527 30.8369 33.636C30.758 33.7196 30.666 33.8157 30.5624 33.9214L15.3237 18.9919ZM15.322 18.9937L-5.39883 13.9185C-5.3993 13.9205 -5.39865 13.9178 -5.39913 13.9197C-5.39917 13.9199 -5.39938 13.9208 -5.39942 13.9209L15.3214 18.9961L36.0423 24.0712C36.0424 24.0709 36.0423 24.0714 36.0423 24.0711C36.0424 24.0708 36.0423 24.0714 36.0423 24.0711C36.0424 24.071 36.0423 24.0711 36.0423 24.0711C36.0424 24.071 36.0423 24.0711 36.0424 24.071C36.0424 24.0708 36.0423 24.0712 36.0424 24.0709C36.0425 24.0703 36.0423 24.0712 36.0425 24.0706C36.0425 24.0705 36.0425 24.0705 36.0425 24.0704C36.0426 24.0701 36.0425 24.0706 36.0425 24.0703C36.0426 24.0701 36.0425 24.0704 36.0425 24.0702C36.0426 24.0702 36.0425 24.0702 36.0426 24.0702C36.0426 24.0702 36.0426 24.0702 36.0426 24.0701C36.0427 24.0697 36.0425 24.0704 36.0426 24.07C36.0431 24.0679 36.0422 24.0715 36.0428 24.0694C36.0428 24.0693 36.0428 24.0692 36.0428 24.0691C36.043 24.0683 36.0427 24.0698 36.0428 24.069C36.0429 24.0688 36.0428 24.0691 36.0429 24.0689C36.0429 24.0687 36.0429 24.069 36.0429 24.0688L15.322 18.9937ZM15.3214 18.9961L-5.47058 14.2209C-5.53443 14.4988 -5.58051 14.7242 -5.60168 14.8288C-5.62325 14.9354 -5.6427 15.035 -5.65179 15.0816L15.2859 19.1712L36.2236 23.2608C36.233 23.2125 36.2274 23.2414 36.2171 23.2926C36.2071 23.3417 36.1696 23.527 36.1135 23.7713L15.3214 18.9961ZM15.2859 19.1712L-5.64935 15.0691L-5.7579 15.6231L15.1773 19.7252L36.1126 23.8272L36.2211 23.2733L15.2859 19.1712ZM15.1773 19.7252L19.4436 40.6276L19.9865 40.5168L15.7202 19.6144L11.4539 -1.28803L10.9111 -1.17723L15.1773 19.7252ZM15.7202 19.6144L19.9786 40.5184C20.0234 40.5092 20.124 40.4888 20.232 40.466C20.3378 40.4437 20.5697 40.3943 20.8561 40.3257L15.8916 19.5781L10.9272 -1.1696C11.1806 -1.23023 11.3732 -1.27093 11.4247 -1.2818C11.4784 -1.29312 11.5098 -1.29941 11.4618 -1.28964L15.7202 19.6144ZM15.8916 19.5781L21.1743 40.247L21.1766 40.2464L15.894 19.5775L10.6114 -1.09148L10.609 -1.09088L15.8916 19.5781ZM15.894 19.5775L31.1327 34.507C31.0281 34.6138 30.9329 34.7087 30.85 34.7902C30.7674 34.8714 30.6954 34.9409 30.6382 34.9956C30.6096 35.023 30.5839 35.0474 30.5621 35.068C30.5404 35.0886 30.5217 35.1062 30.5071 35.1199C30.4927 35.1334 30.481 35.1444 30.4739 35.151C30.4703 35.1544 30.4674 35.1572 30.4656 35.1588C30.464 35.1603 30.4626 35.1616 30.4629 35.1614C30.4629 35.1614 30.4629 35.1614 30.4629 35.1613C30.4629 35.1613 30.4629 35.1613 30.4629 35.1613C30.463 35.1613 30.463 35.1612 30.4631 35.1612C30.4632 35.1611 30.4634 35.1609 30.4636 35.1607C30.4641 35.1603 30.4648 35.1596 30.4657 35.1587C30.4675 35.157 30.4705 35.1542 30.4741 35.1508C30.4813 35.1441 30.4931 35.1331 30.5076 35.1195C30.5222 35.1057 30.541 35.088 30.5628 35.0674C30.5847 35.0467 30.6104 35.0222 30.6391 34.9947C30.6964 34.9399 30.7686 34.8703 30.8514 34.789C30.9344 34.7073 31.0297 34.6122 31.1345 34.5053L15.8958 19.5758L0.65702 4.64619C0.761616 4.53943 0.8568 4.44452 0.939711 4.36301C1.02233 4.28179 1.09434 4.21232 1.15149 4.15767C1.18019 4.13023 1.20582 4.10587 1.22761 4.08524C1.24934 4.06467 1.26804 4.04705 1.2826 4.03336C1.29704 4.01979 1.30873 4.00884 1.31582 4.0022C1.31944 3.99881 1.32236 3.99608 1.32413 3.99443C1.32574 3.99292 1.32711 3.99163 1.32686 3.99187C1.32686 3.99187 1.32686 3.99188 1.32685 3.99188C1.32684 3.99189 1.32683 3.9919 1.32681 3.99192C1.32678 3.99194 1.32673 3.99199 1.32668 3.99204C1.32656 3.99215 1.32637 3.99233 1.32614 3.99255C1.32568 3.99297 1.32494 3.99367 1.32402 3.99453C1.32222 3.99621 1.31926 3.99898 1.3156 4.0024C1.30843 4.00911 1.29667 4.02013 1.28216 4.03377C1.26752 4.04753 1.24875 4.06522 1.22695 4.08587C1.20509 4.10657 1.17938 4.13099 1.15061 4.1585C1.09331 4.21329 1.02116 4.2829 0.938388 4.36427C0.85533 4.44592 0.759999 4.54098 0.655256 4.64789L15.894 19.5775ZM15.8958 19.5758L30.6063 35.026C30.8332 34.81 31.0109 34.6315 31.0875 34.5543C31.1665 34.4746 31.2402 34.3993 31.2701 34.3687L16.0205 19.4503L0.770806 4.53186C0.73394 4.56954 0.757624 4.54517 0.797207 4.50527C0.834366 4.46781 0.983052 4.31797 1.1852 4.1255L15.8958 19.5758ZM16.0205 19.4503L31.259 34.38L35.3322 30.2226L20.0936 15.2929L4.85506 0.363116L0.781917 4.52051L16.0205 19.4503ZM18.1342 13.2929L33.3729 28.2224C25.9315 35.818 13.6818 35.818 6.24039 28.2224L21.4791 13.2929L36.7179 -1.6367C27.4291 -11.1178 12.1843 -11.1178 2.89546 -1.6367L18.1342 13.2929ZM21.4791 13.2929L6.24039 28.2224C-0.962075 20.8708 -0.962075 9.12911 6.24039 1.7775L21.4791 16.7071L36.7179 31.6366C45.7677 22.3994 45.7677 7.60051 36.7179 -1.6367L21.4791 13.2929ZM21.4791 16.7071L6.24021 1.77768L2.16716 5.93517L17.4061 20.8646L32.645 35.794L36.718 31.6365L21.4791 16.7071ZM17.4061 20.8646L2.2549 5.84614C2.22362 5.87769 2.1981 5.90363 2.1822 5.91981C2.17404 5.92811 2.16726 5.93503 2.16277 5.9396C2.15858 5.94388 2.15482 5.94772 2.1542 5.94835C2.15269 5.9499 2.15423 5.94832 2.15622 5.94629C2.1585 5.94397 2.16291 5.93946 2.16863 5.93364C2.17982 5.92225 2.19937 5.90238 2.22408 5.87743L17.3801 20.891L32.5361 35.9045C32.5653 35.875 32.5893 35.8507 32.6049 35.8348C32.6128 35.8268 32.6194 35.82 32.6238 35.8155C32.628 35.8112 32.6317 35.8075 32.6324 35.8068C32.6339 35.8052 32.6323 35.8069 32.6302 35.8089C32.6279 35.8113 32.6233 35.8161 32.6172 35.8222C32.6056 35.834 32.5843 35.8557 32.5572 35.883L17.4061 20.8646ZM17.3801 20.891L2.11135 5.9921C2.02638 6.07918 2.30879 5.78479 2.67284 5.44558C3.05829 5.08643 3.73074 4.48916 4.6483 3.83635L17.0156 21.2192L29.3828 38.602C30.4456 37.8459 31.2518 37.1342 31.7589 36.6617C32.2447 36.2091 32.6368 35.8022 32.6489 35.7898L17.3801 20.891ZM17.0156 21.2192L4.64625 3.83781C5.88767 2.95437 7.24083 2.21215 8.68172 1.63533L16.6102 21.4407L24.5386 41.246C26.2658 40.5546 27.8911 39.6636 29.3849 38.6005L17.0156 21.2192ZM16.6102 21.4407L8.68242 1.63505C9.73491 1.21376 10.6089 0.96955 11.1303 0.837597C11.6212 0.713369 12.0296 0.634377 11.9091 0.658758L16.1404 21.5683L20.3717 42.4778C20.3861 42.4748 20.9469 42.3651 21.5978 42.2003C22.2791 42.0279 23.3205 41.7336 24.5379 41.2463L16.6102 21.4407ZM16.1404 21.5683L11.9059 0.659404C11.9079 0.658992 11.9091 0.658753 11.9058 0.659433C11.9038 0.659828 11.8966 0.661275 11.889 0.662815C11.8739 0.665875 11.842 0.672334 11.803 0.68037L16.1044 21.5756L20.4059 42.4707C20.3915 42.4737 20.3797 42.4761 20.3715 42.4778C20.3634 42.4794 20.3574 42.4806 20.3553 42.4811C20.3537 42.4814 20.3525 42.4816 20.3566 42.4808C20.3594 42.4803 20.3667 42.4788 20.3749 42.4771L16.1404 21.5683ZM16.1044 21.5756L11.8374 0.673319L9.85349 1.07832L14.1205 21.9806L18.3875 42.8828L20.3715 42.4778L16.1044 21.5756ZM14.1205 21.9806L9.851 1.07883C16.7111 -0.322461 23.7003 1.90452 28.4744 6.77749L13.2356 21.7071L-2.00309 36.6366C3.23422 41.9824 10.8876 44.4148 18.39 42.8823L14.1205 21.9806ZM13.2356 21.7071L28.4744 6.77749C33.2129 11.6141 35.1756 18.4146 33.9025 24.9084L12.9677 20.8039L-7.96707 16.6994C-9.36879 23.8488 -7.20478 31.3272 -2.00309 36.6366L13.2356 21.7071ZM12.9677 20.8039L33.9029 24.906L34.2997 22.881L13.3645 18.7789L-7.57075 14.6768L-7.96754 16.7018L12.9677 20.8039ZM13.3645 18.7789L34.2932 22.9141C34.3007 22.8762 34.3067 22.8451 34.3096 22.8302C34.3111 22.8227 34.3125 22.8156 34.3129 22.8136C34.3135 22.8101 34.3133 22.8111 34.313 22.8129L13.3716 18.7422L-7.56973 14.6714C-7.5713 14.6795 -7.5727 14.6867 -7.57324 14.6895C-7.57404 14.6937 -7.57386 14.6928 -7.57359 14.6914C-7.57322 14.6895 -7.57214 14.6839 -7.57065 14.6762C-7.56913 14.6685 -7.56693 14.6573 -7.56423 14.6436L13.3645 18.7789ZM13.3716 18.7422L34.3136 22.8098C34.3369 22.6896 34.2646 23.0795 34.1504 23.5494C34.0294 24.0478 33.8033 24.8921 33.4108 25.9137L13.4966 18.2627L-6.4175 10.6116C-6.87467 11.8016 -7.1499 12.8168 -7.31061 13.4784C-7.4644 14.1115 -7.56694 14.6571 -7.57032 14.6745L13.3716 18.7422ZM13.4966 18.2627L33.4105 25.9144C32.8731 27.313 32.1748 28.6443 31.3296 29.8817L13.7136 17.8489L-3.90235 5.81608C-4.9235 7.31105 -5.76757 8.92017 -6.41724 10.611L13.4966 18.2627ZM13.7136 17.8489L31.3256 29.8875C30.7024 30.7992 30.1293 31.4724 29.779 31.8642C29.4486 32.2337 29.1623 32.5199 29.2438 32.437L14.0352 17.4768L-1.17345 2.51654C-1.18941 2.53276 -1.58578 2.93088 -2.02729 3.42465C-2.48868 3.94067 -3.17383 4.7503 -3.89832 5.81019L13.7136 17.8489ZM14.0352 17.4768L29.3561 32.3219C29.332 32.3469 29.3127 32.3666 29.3017 32.3779C29.2961 32.3837 29.2917 32.3881 29.2895 32.3904C29.2875 32.3924 29.286 32.394 29.2875 32.3924C29.2881 32.3918 29.2919 32.388 29.296 32.3837C29.3005 32.3792 29.3072 32.3723 29.3153 32.3641C29.331 32.3479 29.3562 32.3221 29.3868 32.2905L14.061 17.4503L-1.2647 2.61003C-1.23824 2.58271 -1.21727 2.56121 -1.20579 2.54946C-1.19986 2.54339 -1.19527 2.5387 -1.19296 2.53634C-1.19094 2.53428 -1.18936 2.53267 -1.19089 2.53423C-1.19155 2.5349 -1.19523 2.53866 -1.19936 2.54288C-1.20378 2.54739 -1.21032 2.55408 -1.21814 2.56208C-1.23355 2.57785 -1.2572 2.6021 -1.28577 2.63159L14.0352 17.4768ZM14.061 17.4503L29.2996 32.38L33.3727 28.2226L18.1342 13.2929L2.89564 -1.63688L-1.1775 2.52051L14.061 17.4503ZM6.09072 17L27.424 17.0007C27.4237 27.816 18.7211 37.3333 7.07046 37.3333V16V-5.33336C-5.66237 -5.33336 -15.2422 5.07933 -15.2426 16.9992L6.09072 17ZM7.07046 16L7.06974 37.3333L10.0088 37.3334L10.0096 16.0001L10.0103 -5.33326L7.07118 -5.33336L7.07046 16ZM10.0096 16.0001V37.3334C-1.64153 37.3334 -10.3441 27.8155 -10.3441 17.0001H10.9893H32.3226C32.3226 5.08002 22.7428 -5.33326 10.0096 -5.33326V16.0001ZM10.9893 17.0001H-10.3441C-10.3441 6.18421 -1.64113 -3.33327 10.0095 -3.33327V18.0001V39.3334C22.7424 39.3334 32.3226 28.9205 32.3226 17.0001H10.9893ZM10.0095 18.0001L10.0102 -3.33327L7.07112 -3.33337L7.0704 18L7.06968 39.3333L10.0088 39.3334L10.0095 18.0001ZM7.0704 18V-3.33337C18.7215 -3.33337 27.4244 6.18469 27.424 17.0007L6.09072 17L-15.2426 16.9992C-15.243 28.9198 -5.66288 39.3333 7.0704 39.3333V18Z" fill="#FFFBF3" mask="url(#path-1-inside-1_2593_3181)"/>
</g>
<defs>
<clipPath id="clip0_2593_3181">
<rect width="24" height="24" fill="white"/>
</clipPath>
</defs>
</svg>
