<svg width="32" height="32" viewBox="0 0 32 32" fill="none" xmlns="http://www.w3.org/2000/svg">
<path d="M28.0983 0.669477C28.991 -0.223159 30.4379 -0.223159 31.3305 0.669477C32.2232 1.56211 32.2232 3.00902 31.3305 3.90165L3.90165 31.3305C3.00902 32.2232 1.56211 32.2232 0.669477 31.3305C-0.223159 30.4379 -0.223159 28.991 0.669477 28.0983L28.0983 0.669477Z" fill="#3E5E4E"/>
<path d="M0.669477 0.669477C1.56211 -0.223159 3.00902 -0.223159 3.90165 0.669477L31.3305 28.0983C32.2232 28.991 32.2232 30.4379 31.3305 31.3305C30.4379 32.2232 28.991 32.2232 28.0983 31.3305L0.669477 3.90165C-0.223159 3.00902 -0.223159 1.56211 0.669477 0.669477Z" fill="#3E5E4E"/>
</svg>
