<svg width="20" height="21" viewBox="0 0 20 21" fill="none" xmlns="http://www.w3.org/2000/svg">
<path d="M18.9618 11.4567C18.8045 13.159 18.1657 14.7812 17.1201 16.1335C16.0744 17.4859 14.6653 18.5125 13.0575 19.0933C11.4497 19.674 9.7098 19.7849 8.04132 19.4128C6.37283 19.0408 4.84481 18.2013 3.63604 16.9925C2.42727 15.7838 1.58775 14.2557 1.21572 12.5872C0.843691 10.9188 0.954531 9.17883 1.53528 7.57104C2.11602 5.96326 3.14265 4.55411 4.49503 3.5085C5.84741 2.46289 7.46961 1.82405 9.17182 1.66675C8.17523 3.01502 7.69566 4.6762 7.82035 6.34816C7.94503 8.02013 8.66568 9.59181 9.85122 10.7773C11.0368 11.9629 12.6084 12.6835 14.2804 12.8082C15.9524 12.9329 17.6135 12.4533 18.9618 11.4567Z" fill="#FFFBF3"/>
</svg>
