<svg width="24" height="24" viewBox="0 0 24 24" fill="none" xmlns="http://www.w3.org/2000/svg">
<path d="M14.9963 14.0513C14.4131 14.0513 13.9966 14.5512 13.9966 15.051V17.8002H10.2476V6.63676C10.2476 6.30352 10.081 5.88697 9.74778 5.72035L6.99857 4.13747H13.9966V8.88611C13.9966 9.46928 14.4964 9.88583 14.9963 9.88583C15.5794 9.88583 15.996 9.38597 15.996 8.88611V3.05445C15.996 2.47129 15.4961 2.05474 14.9963 2.05474H3.33295C2.99971 1.97143 2.74979 1.97143 2.49986 2.13805C2.16662 2.30467 2 2.6379 2 2.97114V17.3004C2 17.6336 2.16662 18.0502 2.49986 18.2168L8.74807 21.7991C8.91469 21.8824 9.08131 21.9657 9.24792 21.9657C9.41454 21.9657 9.58116 21.8824 9.74778 21.7991C10.081 21.6325 10.2476 21.2992 10.2476 20.8827V19.883H14.9963C15.5794 19.883 15.996 19.3831 15.996 18.8832V15.1343C16.0793 14.5512 15.5794 14.0513 14.9963 14.0513ZM8.1649 19.1332L3.99943 16.7172V4.80395L8.1649 7.21992V19.1332Z" fill="#3E5E4E"/>
<path d="M21.5777 11.2188L18.4952 8.13634C18.0787 7.71979 17.4122 7.71979 16.9956 8.13634C16.5791 8.55289 16.5791 9.21936 16.9956 9.63591L18.3286 10.9689H12.9968C12.4136 10.9689 11.9971 11.4687 11.9971 11.9686C11.9971 12.5517 12.4969 12.9683 12.9968 12.9683H18.3286L16.9956 14.3012C16.5791 14.7178 16.5791 15.3843 16.9956 15.8008C17.1623 15.9674 17.4955 16.134 17.7454 16.134C17.9954 16.134 18.2453 16.0507 18.4952 15.8008L21.5777 12.7184C21.9942 12.3018 21.9942 11.6353 21.5777 11.2188Z" fill="#3E5E4E"/>
</svg>
