<svg width="64" height="64" viewBox="0 0 64 64" fill="none" xmlns="http://www.w3.org/2000/svg">
<rect width="64" height="64" rx="32" fill="url(#paint0_linear_393_2233)" style="mix-blend-mode:lighten"/>
<path d="M19.7355 39.4728C19.0214 38.7698 19.0214 37.6304 19.7355 36.9274L30.7071 26.1272C31.4212 25.4243 32.5787 25.4243 33.2928 26.1272L44.2644 36.9274C44.9785 37.6304 44.9785 38.7698 44.2644 39.4728C43.5503 40.1757 42.3927 40.1757 41.6786 39.4728L32 29.9453L22.3213 39.4728C21.6072 40.1757 20.4496 40.1757 19.7355 39.4728Z" fill="#667C9C"/>
<path d="M38.445 51.621L39.8851 58.5089L37.846 58.9352C37.3761 59.0334 36.954 59.0629 36.5796 59.0234C36.199 58.9853 35.8829 58.8651 35.6313 58.6627C35.3798 58.4603 35.2114 58.1555 35.1263 57.7483C35.0792 57.5227 35.0747 57.2981 35.1129 57.0743C35.1462 56.8582 35.2223 56.6592 35.3412 56.4774C35.4614 56.3019 35.6208 56.1574 35.8194 56.044L35.8096 55.997C35.3867 56.0069 35.0148 55.9016 34.6941 55.681C34.3734 55.4603 34.1639 55.1151 34.0656 54.6452C33.9713 54.1942 34.0055 53.7948 34.1682 53.4469C34.3259 53.1066 34.5864 52.8201 34.9496 52.5872C35.3066 52.3556 35.7419 52.1862 36.2556 52.0788L38.445 51.621ZM38.4096 55.7672L37.3853 55.9814C36.7902 56.1058 36.3852 56.2951 36.1702 56.5493C35.9553 56.8034 35.8845 57.1059 35.9578 57.4567C36.043 57.8639 36.2404 58.1201 36.5501 58.2254C36.8548 58.3382 37.2766 58.3383 37.8153 58.2257L38.8772 58.0037L38.4096 55.7672ZM37.7259 52.4971L36.5231 52.7486C35.9343 52.8717 35.4967 53.0776 35.2105 53.3663C34.9244 53.655 34.8297 54.0311 34.9267 54.4947C35.017 54.9269 35.2454 55.2061 35.6117 55.3322C35.9794 55.4645 36.4639 55.4679 37.0653 55.3421L38.2681 55.0907L37.7259 52.4971ZM33.023 52.7432L30.025 59.54L29.0401 59.4519L27.2859 52.2302L28.223 52.314L29.0964 56.3438C29.188 56.7568 29.274 57.1596 29.3546 57.5524C29.4345 57.9515 29.5137 58.3602 29.5919 58.7784L29.6302 58.7818C29.775 58.3835 29.9254 57.9954 30.0813 57.6174C30.2302 57.2451 30.3832 56.8637 30.5402 56.4729L32.1338 52.6637L33.023 52.7432ZM31.598 54.7747L31.5356 55.4728L28.3037 55.1838L28.3661 54.4858L31.598 54.7747ZM23.9001 50.7482C24.3034 50.9117 24.65 51.1385 24.9399 51.4286C25.2214 51.7222 25.4308 52.066 25.5681 52.46C25.7053 52.854 25.761 53.2875 25.7351 53.7604C25.7068 54.2392 25.5857 54.7425 25.3718 55.2704C25.1578 55.7983 24.8956 56.241 24.585 56.5986C24.266 56.9596 23.9172 57.2326 23.5384 57.4174C23.1596 57.6023 22.764 57.701 22.3516 57.7134C21.9391 57.7258 21.5253 57.6478 21.1101 57.4796C20.7127 57.3185 20.3964 57.0937 20.1612 56.805C19.9236 56.5223 19.7519 56.2386 19.6462 55.9541L20.3074 55.6006C20.4049 55.8541 20.5406 56.0818 20.7144 56.2834C20.8882 56.485 21.1145 56.6423 21.3932 56.7553C21.8025 56.9212 22.2046 56.9598 22.5996 56.8713C22.9946 56.7827 23.3586 56.5746 23.6916 56.2469C24.0223 55.9251 24.297 55.4944 24.5157 54.9546C24.7393 54.403 24.8497 53.8918 24.8471 53.4212C24.8421 52.9565 24.7327 52.5531 24.5192 52.2111C24.3032 51.8749 23.9876 51.6227 23.5724 51.4545C23.264 51.3295 22.9617 51.283 22.6657 51.3149C22.3637 51.3444 22.062 51.4328 21.7606 51.58L21.5196 50.8712C21.8948 50.678 22.2792 50.5644 22.6728 50.5306C23.0639 50.5026 23.473 50.5752 23.9001 50.7482ZM20.6349 49.2451L16.153 54.6699L15.4721 54.1074L17.7222 51.3839L17.7074 51.3716L13.1852 52.218L12.4081 51.576L15.8102 50.9249L16.631 45.9371L17.3933 46.5669L16.6858 50.7392L18.5354 50.3995L19.954 48.6825L20.6349 49.2451ZM12.9023 39.7345L7.02452 41.9685L7.78167 43.9607L7.08172 44.2267L5.25022 39.4078L5.95017 39.1418L6.70733 41.1339L12.5851 38.9L12.9023 39.7345ZM11.6932 33.1707C11.7252 33.7586 11.6065 34.2874 11.3372 34.7571C11.0611 35.2208 10.6552 35.5953 10.1195 35.8808C9.58382 36.1663 8.94212 36.3293 8.19442 36.37C7.44033 36.4109 6.78794 36.3182 6.23724 36.0917C5.68016 35.8656 5.24567 35.5367 4.9338 35.105C4.62157 34.6669 4.44949 34.1539 4.41754 33.5659C4.3856 32.978 4.50446 32.4524 4.77413 31.9891C5.03705 31.5197 5.42998 31.1426 5.9529 30.8578C6.47582 30.5731 7.11432 30.4102 7.86841 30.3692C8.61611 30.3286 9.2717 30.4212 9.83517 30.6469C10.3987 30.8727 10.8429 31.2043 11.1679 31.6417C11.4862 32.0731 11.6613 32.5827 11.6932 33.1707ZM10.9168 33.2128C10.8938 32.7911 10.7557 32.43 10.5022 32.1297C10.2487 31.8294 9.90003 31.6048 9.4561 31.4559C9.01217 31.307 8.49943 31.2483 7.91789 31.2799C7.32995 31.3118 6.82978 31.4255 6.41738 31.621C5.99859 31.8168 5.68586 32.0773 5.4792 32.4026C5.26615 32.7283 5.17109 33.102 5.194 33.5237C5.21657 33.9391 5.35156 34.3003 5.59898 34.6074C5.83966 34.9084 6.17877 35.1335 6.61632 35.2828C7.04747 35.4324 7.55701 35.4913 8.14495 35.4593C8.72649 35.4277 9.22985 35.3138 9.65504 35.1177C10.0802 34.9215 10.4025 34.6605 10.622 34.3345C10.8411 34.0021 10.9393 33.6282 10.9168 33.2128ZM13.5761 22.7788L8.00883 19.8558L7.01814 21.7428L6.35516 21.3947L8.75158 16.8303L9.41455 17.1784L8.42386 19.0653L13.9912 21.9884L13.5761 22.7788ZM17.6964 17.5313C17.2763 17.9438 16.801 18.2043 16.2706 18.3126C15.7402 18.4119 15.1908 18.3549 14.6225 18.1415C14.0542 17.9282 13.5077 17.5544 12.9831 17.0201C12.4539 16.4813 12.0924 15.9304 11.8983 15.3674C11.6998 14.7999 11.6595 14.2565 11.7774 13.7371C11.8998 13.2132 12.1711 12.745 12.5912 12.3325C13.0113 11.9199 13.4843 11.6617 14.0102 11.5579C14.5362 11.445 15.0789 11.4907 15.6382 11.6949C16.1975 11.8991 16.7418 12.2706 17.2709 12.8094C17.7956 13.3437 18.1594 13.8969 18.3624 14.4689C18.5654 15.041 18.6101 15.5936 18.4967 16.1266C18.3833 16.6505 18.1166 17.1188 17.6964 17.5313ZM17.1516 16.9765C17.453 16.6805 17.6326 16.3382 17.6904 15.9495C17.7483 15.5608 17.6864 15.1507 17.5048 14.7191C17.3231 14.2875 17.0283 13.864 16.6202 13.4484C16.2077 13.0283 15.7918 12.7281 15.3725 12.5478C14.9488 12.3629 14.5466 12.3004 14.1659 12.3603C13.7807 12.4157 13.4374 12.5913 13.136 12.8873C12.8392 13.1788 12.6573 13.5188 12.5905 13.9074C12.5236 14.2869 12.5788 14.6902 12.756 15.1173C12.9286 15.5397 13.2212 15.961 13.6338 16.3811C14.0419 16.7966 14.46 17.0991 14.8882 17.2886C15.3164 17.478 15.7254 17.5473 16.115 17.4966C16.5093 17.4413 16.8548 17.268 17.1516 16.9765ZM21.1329 14.416L18.0655 8.08296L19.8713 7.20835C20.3436 6.97959 20.7876 6.8392 21.2033 6.78719C21.6162 6.72942 21.9861 6.78846 22.3131 6.96433C22.6401 7.14019 22.9151 7.45852 23.1383 7.91931C23.3531 8.36283 23.4324 8.77601 23.376 9.15886C23.3197 9.54171 23.1507 9.89023 22.8691 10.2044C22.5847 10.5128 22.2121 10.7786 21.7513 11.0018L20.7059 11.5082L21.9278 14.031L21.1329 14.416ZM20.392 10.8602L21.3338 10.404C21.8867 10.1362 22.2483 9.83306 22.4186 9.49458C22.5889 9.1561 22.5638 8.75935 22.3434 8.30431C22.1203 7.84352 21.8257 7.59507 21.4598 7.55897C21.0996 7.52009 20.6402 7.63595 20.0814 7.90656L19.1743 8.34596L20.392 10.8602ZM29.1208 11.5416L28.9183 4.50772L31.0006 4.44775C31.4804 4.43394 31.9011 4.47945 32.2627 4.58428C32.6306 4.68894 32.9206 4.86306 33.1325 5.10667C33.3444 5.35027 33.4563 5.67998 33.4683 6.09581C33.4749 6.32611 33.4397 6.54802 33.3626 6.76153C33.2917 6.96845 33.1817 7.15089 33.0326 7.30885C32.8833 7.46041 32.7009 7.57451 32.4854 7.65114L32.4868 7.69912C32.9049 7.76392 33.2523 7.93319 33.5291 8.20693C33.8059 8.48068 33.9512 8.85745 33.965 9.33726C33.9783 9.79786 33.8742 10.185 33.6527 10.4987C33.4374 10.8058 33.1305 11.042 32.7319 11.2071C32.3397 11.3721 31.8813 11.4621 31.3567 11.4772L29.1208 11.5416ZM29.8871 7.46666L30.933 7.43654C31.5408 7.41904 31.9728 7.30415 32.2292 7.09189C32.4856 6.87962 32.6087 6.59436 32.5984 6.23611C32.5864 5.82028 32.4373 5.53325 32.151 5.37503C31.8709 5.21022 31.4558 5.13574 30.9056 5.15158L29.8213 5.1828L29.8871 7.46666ZM29.9832 10.8061L31.2115 10.7707C31.8129 10.7534 32.2798 10.6279 32.6125 10.3942C32.9451 10.1606 33.1046 9.80702 33.0909 9.33361C33.0782 8.8922 32.9027 8.57712 32.5643 8.38838C32.2257 8.19324 31.7494 8.10452 31.1352 8.1222L29.9069 8.15757L29.9832 10.8061ZM34.6591 11.3933L38.8076 5.23092L39.7615 5.4911L40.2161 12.9089L39.3085 12.6614L39.1586 8.54073C39.1412 8.11805 39.1275 7.70633 39.1174 7.30555C39.109 6.89859 39.1031 6.48238 39.0997 6.0569L39.0627 6.04679C38.8499 6.41333 38.6335 6.76892 38.4135 7.11357C38.2013 7.45373 37.9835 7.8023 37.7601 8.1593L35.5204 11.6282L34.6591 11.3933ZM36.4197 9.64453L36.6041 8.96842L39.7345 9.82222L39.5501 10.4983L36.4197 9.64453ZM43.2861 14.9711C42.9184 14.7384 42.6177 14.4535 42.3842 14.1164C42.1595 13.7773 42.0148 13.4016 41.9499 12.9895C41.8851 12.5773 41.9075 12.1409 42.0173 11.6802C42.1305 11.2141 42.3394 10.7404 42.644 10.259C42.9486 9.77772 43.2856 9.38885 43.6549 9.09242C44.0331 8.79401 44.4251 8.5876 44.8307 8.47319C45.2364 8.35878 45.6432 8.33223 46.0513 8.39354C46.4593 8.45486 46.8526 8.6053 47.2312 8.84486C47.5935 9.07417 47.8647 9.3518 48.0447 9.67777C48.2281 9.99833 48.3464 10.308 48.3997 10.6068L47.6861 10.8369C47.6354 10.57 47.5424 10.3218 47.4074 10.0924C47.2723 9.86305 47.0777 9.66793 46.8235 9.50708C46.4503 9.27093 46.0615 9.16122 45.6571 9.17795C45.2527 9.19467 44.8574 9.33458 44.4713 9.59767C44.0886 9.85535 43.7415 10.2303 43.4301 10.7224C43.1118 11.2253 42.912 11.7086 42.8307 12.1722C42.7528 12.6303 42.7885 13.0468 42.9376 13.4214C43.0902 13.7906 43.3558 14.095 43.7344 14.3346C44.0156 14.5126 44.3047 14.6122 44.6018 14.6336C44.9042 14.6583 45.2168 14.6251 45.5395 14.534L45.6504 15.2744C45.2467 15.3977 44.8482 15.4409 44.455 15.4041C44.0651 15.3619 43.6755 15.2176 43.2861 14.9711ZM46.2344 17.0328L51.605 12.486L52.1757 13.1601L49.4794 15.4428L49.4918 15.4574L54.0924 15.4241L54.7437 16.1934L51.2802 16.2326L49.5902 20.9966L48.9513 20.2419L50.3855 16.2605L48.5049 16.2678L46.8051 17.7068L46.2344 17.0328ZM52.1532 27.7649L58.3331 26.6041L57.9397 24.5095L58.6756 24.3713L59.6273 29.4379L58.8914 29.5761L58.4979 27.4815L52.318 28.6423L52.1532 27.7649ZM52.1959 34.4382C52.2662 33.8536 52.4747 33.3533 52.8212 32.9373C53.1734 32.5285 53.638 32.2298 54.2151 32.0414C54.7921 31.853 55.4523 31.8035 56.1958 31.893C56.9456 31.9832 57.572 32.1875 58.0752 32.5059C58.5847 32.825 58.9557 33.2242 59.1881 33.7034C59.4198 34.1889 59.5004 34.724 59.4301 35.3086C59.3598 35.8932 59.1517 36.3903 58.8059 36.7999C58.4657 37.2166 58.0134 37.52 57.4491 37.7099C56.8847 37.8999 56.2277 37.9497 55.4779 37.8595C54.7344 37.7701 54.1048 37.5654 53.5889 37.2455C53.073 36.9256 52.6929 36.5221 52.4485 36.035C52.2098 35.555 52.1255 35.0228 52.1959 34.4382ZM52.9679 34.5311C52.9175 34.9504 52.991 35.3299 53.1887 35.6696C53.3863 36.0092 53.6909 36.2908 54.1023 36.5144C54.5138 36.7379 55.0086 36.8845 55.5868 36.9541C56.1714 37.0244 56.6837 36.999 57.1237 36.8779C57.5701 36.7576 57.9232 36.5551 58.1831 36.2705C58.4493 35.9867 58.6076 35.6351 58.6581 35.2157C58.7078 34.8027 58.6374 34.4236 58.4468 34.0783C58.2619 33.7402 57.9669 33.4598 57.5618 33.237C57.1631 33.015 56.6714 32.8688 56.0868 32.7984C55.5086 32.7289 54.9931 32.7539 54.5404 32.8734C54.0877 32.993 53.725 33.1943 53.4525 33.4774C53.1791 33.7668 53.0176 34.118 52.9679 34.5311ZM48.5 44.33L53.4693 48.183L54.7752 46.4987L55.3669 46.9575L52.2081 51.0316L51.6164 50.5728L52.9222 48.8885L47.9529 45.0356L48.5 44.33ZM43.5268 48.78C44.0121 48.4467 44.5254 48.2728 45.0666 48.2582C45.6062 48.2525 46.1373 48.4041 46.66 48.7128C47.1826 49.0216 47.6558 49.4846 48.0798 50.1019C48.5073 50.7244 48.7677 51.3297 48.8611 51.9178C48.958 52.5111 48.9034 53.0533 48.6971 53.5444C48.4856 54.039 48.1371 54.453 47.6518 54.7863C47.1664 55.1197 46.6558 55.2918 46.1198 55.3028C45.5822 55.3226 45.0557 55.1834 44.5403 54.8852C44.0249 54.587 43.5535 54.1266 43.1259 53.5041C42.702 52.8868 42.4398 52.2789 42.3392 51.6803C42.2386 51.0816 42.2905 50.5297 42.4948 50.0245C42.6974 49.5282 43.0414 49.1134 43.5268 48.78ZM43.967 49.421C43.6188 49.6602 43.3825 49.9661 43.258 50.3388C43.1336 50.7116 43.1233 51.1262 43.2273 51.5828C43.3312 52.0394 43.548 52.5077 43.8777 52.9878C44.2111 53.4731 44.5685 53.841 44.9501 54.0914C45.3353 54.347 45.7205 54.4784 46.1059 54.4855C46.4948 54.4979 46.8634 54.3845 47.2116 54.1454C47.5545 53.9099 47.7926 53.6066 47.926 53.2355C48.0577 52.8733 48.0733 52.4665 47.973 52.0153C47.8763 51.5692 47.6613 51.1035 47.328 50.6182C46.9983 50.1381 46.639 49.7676 46.2502 49.5067C45.8614 49.2458 45.4707 49.1065 45.0781 49.0888C44.6803 49.0748 44.3099 49.1855 43.967 49.421Z" fill="#667C9C"/>
<defs>
<linearGradient id="paint0_linear_393_2233" x1="32" y1="-22.8" x2="32" y2="137.2" gradientUnits="userSpaceOnUse">
<stop offset="0.25" stop-color="#F3EEE5"/>
<stop offset="0.55" stop-color="#F3EEE5" stop-opacity="0"/>
</linearGradient>
</defs>
</svg>
