<svg width="24" height="24" viewBox="0 0 24 24" fill="none" xmlns="http://www.w3.org/2000/svg">
<path d="M19.4007 6.07644L16.1082 2.62787C15.9188 2.42811 15.6935 2.26974 15.4452 2.16196C15.197 2.05418 14.9308 1.99913 14.662 2.00001H7.04545C6.50297 2.00001 5.9827 2.22577 5.5991 2.62764C5.2155 3.0295 5 3.57455 5 4.14287V19.8571C5 20.4255 5.2155 20.9705 5.5991 21.3724C5.9827 21.7742 6.50297 22 7.04545 22H17.9545C18.497 22 19.0173 21.7742 19.4009 21.3724C19.7845 20.9705 20 20.4255 20 19.8571V7.59215C20.0008 7.31052 19.9483 7.03152 19.8454 6.77133C19.7425 6.51114 19.5914 6.27494 19.4007 6.07644ZM18.6364 19.8571C18.6364 20.0466 18.5645 20.2283 18.4367 20.3622C18.3088 20.4962 18.1354 20.5714 17.9545 20.5714H7.04545C6.86462 20.5714 6.6912 20.4962 6.56334 20.3622C6.43547 20.2283 6.36364 20.0466 6.36364 19.8571V4.14287C6.36364 3.95343 6.43547 3.77174 6.56334 3.63779C6.6912 3.50384 6.86462 3.42858 7.04545 3.42858H14.662C14.8428 3.42909 15.016 3.5043 15.1441 3.63787L18.4366 7.08644C18.5 7.15283 18.5503 7.23168 18.5845 7.31845C18.6188 7.40523 18.6364 7.49824 18.6364 7.59215V19.8571ZM17.2727 12.7143C17.2727 12.9037 17.2009 13.0854 17.073 13.2194C16.9452 13.3533 16.7717 13.4286 16.5909 13.4286H8.40909C8.22826 13.4286 8.05484 13.3533 7.92697 13.2194C7.79911 13.0854 7.72727 12.9037 7.72727 12.7143C7.72727 12.5248 7.79911 12.3432 7.92697 12.2092C8.05484 12.0753 8.22826 12 8.40909 12H16.5909C16.7717 12 16.9452 12.0753 17.073 12.2092C17.2009 12.3432 17.2727 12.5248 17.2727 12.7143ZM17.2727 15.5714C17.2727 15.7609 17.2009 15.9426 17.073 16.0765C16.9452 16.2105 16.7717 16.2857 16.5909 16.2857H8.40909C8.22826 16.2857 8.05484 16.2105 7.92697 16.0765C7.79911 15.9426 7.72727 15.7609 7.72727 15.5714C7.72727 15.382 7.79911 15.2003 7.92697 15.0664C8.05484 14.9324 8.22826 14.8571 8.40909 14.8571H16.5909C16.7717 14.8571 16.9452 14.9324 17.073 15.0664C17.2009 15.2003 17.2727 15.382 17.2727 15.5714ZM13.1818 18.4286C13.1818 18.618 13.11 18.7997 12.9821 18.9336C12.8542 19.0676 12.6808 19.1429 12.5 19.1429H8.40909C8.22826 19.1429 8.05484 19.0676 7.92697 18.9336C7.79911 18.7997 7.72727 18.618 7.72727 18.4286C7.72727 18.2391 7.79911 18.0575 7.92697 17.9235C8.05484 17.7895 8.22826 17.7143 8.40909 17.7143H12.5C12.6808 17.7143 12.8542 17.7895 12.9821 17.9235C13.11 18.0575 13.1818 18.2391 13.1818 18.4286ZM17.2727 9.85715C17.2727 10.0466 17.2009 10.2283 17.073 10.3622C16.9452 10.4962 16.7717 10.5714 16.5909 10.5714H8.40909C8.22826 10.5714 8.05484 10.4962 7.92697 10.3622C7.79911 10.2283 7.72727 10.0466 7.72727 9.85715C7.72727 9.66771 7.79911 9.48603 7.92697 9.35207C8.05484 9.21812 8.22826 9.14286 8.40909 9.14286H9.09091V7.71429C9.09091 7.52485 9.16274 7.34317 9.29061 7.20922C9.41847 7.07526 9.59189 7.00001 9.77272 7.00001C9.95355 7.00001 10.127 7.07526 10.2548 7.20922C10.3827 7.34317 10.4545 7.52485 10.4545 7.71429V9.14286H11.8182V5.57144C11.8182 5.382 11.89 5.20032 12.0179 5.06636C12.1457 4.93241 12.3192 4.85715 12.5 4.85715C12.6808 4.85715 12.8542 4.93241 12.9821 5.06636C13.11 5.20032 13.1818 5.382 13.1818 5.57144V9.14286H14.5454V7.00001C14.5454 6.81057 14.6173 6.62889 14.7451 6.49493C14.873 6.36098 15.0464 6.28572 15.2273 6.28572C15.4081 6.28572 15.5815 6.36098 15.7094 6.49493C15.8372 6.62889 15.9091 6.81057 15.9091 7.00001V9.14286H16.5909C16.7717 9.14286 16.9452 9.21812 17.073 9.35207C17.2009 9.48603 17.2727 9.66771 17.2727 9.85715Z" fill="#3E5E4E"/>
</svg>
